<?xml version="1.0" encoding="UTF-8"?> <svg xmlns="http://www.w3.org/2000/svg" width="451.348" height="169.433" viewBox="0 0 451.348 169.433"><path id="Union_1" data-name="Union 1" d="M159.965,168.432c-.015-.359-.042-.718-.042-1.077V1.077c0-.359.027-.718.042-1.077h3.243c.022.328.06.655.06.983V167.449c0,.328-.039.655-.06.985ZM59.692,159.67h-.032a27.223,27.223,0,0,1-12.339-3.178,47.773,47.773,0,0,1-11.747-8.7,82.124,82.124,0,0,1-12.528-16.079A147.632,147.632,0,0,1,8.114,98a176.248,176.248,0,0,1-5.8-25.217C1.464,67.324.837,61.843.507,56.33q-.158-2.651-.347-5.3A8.023,8.023,0,0,0,0,50.153V39.164c.111-.98.251-1.958.328-2.94.275-3.5.527-7,.792-10.5.018-.236.084-.469.142-.8l1.482.1c-.1,1.1-.2,2.1-.275,3.114-.22,2.931-.482,5.863-.635,8.8a160.914,160.914,0,0,0,0,16.114A177.348,177.348,0,0,0,13.1,107.979a134.309,134.309,0,0,0,12.64,25.307,74.208,74.208,0,0,0,12.522,15.041,42.562,42.562,0,0,0,10.67,7.273,24.6,24.6,0,0,0,11.313,2.495,9.992,9.992,0,0,0,6.449-2.618,16.618,16.618,0,0,0,3.938-5.536A37.06,37.06,0,0,0,73.5,139.856a61.828,61.828,0,0,0,.726-9.233c0-.176.025-.35.042-.585h1.459a2.805,2.805,0,0,1,.067.441,55.081,55.081,0,0,1-2.648,17.266,22.646,22.646,0,0,1-4.236,7.672,11.779,11.779,0,0,1-9.06,4.254Zm285.063-18.21h0a13.363,13.363,0,0,1-5.462-3.693,9.758,9.758,0,0,1-2.37-5.44,7.493,7.493,0,0,1,0-.778c1.651-.1,3.254-.059,4.911-.026.048.246.082.445.121.642a8.519,8.519,0,0,0,3.236,5.041,11.987,11.987,0,0,0,7.974,2.534,10.615,10.615,0,0,0,4.855-1.121,6.145,6.145,0,0,0,2.783-7.434,5,5,0,0,0-2.38-2.72,22.6,22.6,0,0,0-3.535-1.748c-2.4-.862-4.855-1.543-7.265-2.364a18.732,18.732,0,0,1-5.279-2.667,9.115,9.115,0,0,1-3.91-7.521,10.361,10.361,0,0,1,2.766-7.741,11.4,11.4,0,0,1,6.2-3.235,18.972,18.972,0,0,1,10.113.663,12.764,12.764,0,0,1,4.908,2.921,7.814,7.814,0,0,1,2.473,5.552h-4.311c-.044-.214-.086-.411-.124-.609a5.891,5.891,0,0,0-2.281-3.656,10.583,10.583,0,0,0-6.991-2.142,9.16,9.16,0,0,0-4.794,1.316,5.94,5.94,0,0,0-2.713,6.114,4.155,4.155,0,0,0,1.765,2.721,15.829,15.829,0,0,0,4.413,2.192c2.111.684,4.238,1.31,6.351,1.981a22.654,22.654,0,0,1,6.631,3.15,9.685,9.685,0,0,1,4.014,9.274,10.321,10.321,0,0,1-8.121,9.418,25.367,25.367,0,0,1-6.2.8h-.03A21.784,21.784,0,0,1,344.755,141.46Zm38.259.718h0a12.335,12.335,0,0,1-8.684-10.2,13.372,13.372,0,0,1,9.892-15.2,15.052,15.052,0,0,1,15.417,4.016c.085.083.176.155.419.367,0-1.6.043-3-.011-4.4a21.65,21.65,0,0,0-.833-5.684c-.063-.2-.126-.4-.192-.6a6.451,6.451,0,0,0-5.274-4.6,12.645,12.645,0,0,0-6.229.351,9.736,9.736,0,0,0-4.694,3.354c-.891,1.127-1.687,2.326-2.6,3.6-1.307-1.286-2.594-2.594-3.906-3.91a16.063,16.063,0,0,1,8.122-5.618,26.288,26.288,0,0,1,8.56-.815,20.322,20.322,0,0,1,4.882.739,10.566,10.566,0,0,1,7.958,9.03,31.811,31.811,0,0,1,.373,4.84c.056,7.924.059,15.85.077,23.774,0,.176-.026.355-.049.639-2.027.113-4.041.05-6.148.041v-3.46c-.148-.007-.229-.035-.259-.009a17.9,17.9,0,0,1-8.629,4.005,21.459,21.459,0,0,1-3.948.41H387.1A12.724,12.724,0,0,1,383.014,142.178Zm-1.447-16.451h0c-1.381,3.743-1.2,7.358,1.435,10.6a9.178,9.178,0,0,0,11.059,2.486,12.97,12.97,0,0,0,5.312-4.838,3.814,3.814,0,0,0,.715-2.533,15.455,15.455,0,0,1-.012-1.708c0-.81.018-1.62-.009-2.428a2.526,2.526,0,0,0-.2-.951,13.216,13.216,0,0,0-3.164-4.433,8.873,8.873,0,0,0-5.314-2.384c-.279-.022-.555-.032-.831-.032h-.153A9.391,9.391,0,0,0,381.567,125.727ZM242.832,141.18c-2.17-4.712-4.379-9.4-6.543-14.117a1.311,1.311,0,0,0-1.394-.917c-8.132.032-16.267.022-24.4.022h-1q-3.348,7.826-6.719,15.708h-3.551q11.344-26.829,22.615-53.488h3.879l24.891,53.455c-.337.037-.562.085-.788.085h-1.9c-1.318,0-2.635-.007-3.95.022h-.048l-.068,0A1.067,1.067,0,0,1,242.832,141.18ZM222,96.981c-.085.153-.184.3-.255.461q-5.33,12.531-10.652,25.066c-.007.019.017.056.032.081a.458.458,0,0,0,.05.06h23.04c-4.022-8.636-8-17.171-11.975-25.707Zm39.878,44.951a22.356,22.356,0,0,1-2.788-.112v-38.03a38.949,38.949,0,0,1,6.448-.046v6c.6-.025.592-.4.729-.639.522-.908.974-1.864,1.568-2.723a8.458,8.458,0,0,1,11.2-2.444,5.408,5.408,0,0,1,2.319,2.008c-.824,1.5-1.659,3.015-2.534,4.6-.192-.177-.333-.308-.472-.44-.457-.433-.9-.88-1.374-1.3a5.84,5.84,0,0,0-7.809.1,9.969,9.969,0,0,0-2.93,4.763,17.805,17.805,0,0,0-.689,5.333q-.005,9.138,0,18.275v4.464a23.679,23.679,0,0,1-3.025.194Q262.2,141.941,261.878,141.932Zm158.557-.005c-.6-.005-1.194-.012-1.787-.011-.2-.726-.281-36.128-.1-38.244,1.438-.038,2.885-.032,4.37-.026.678,0,1.363.005,2.062,0,.122,1.642-.022,3.244.1,5.053.367-.333.577-.522.787-.715.842-.769,1.637-1.595,2.532-2.3a13.911,13.911,0,0,1,9.967-2.846,19.777,19.777,0,0,1,3.2.446,10.792,10.792,0,0,1,8.226,7.744,17.7,17.7,0,0,1,.383,2.112c.048.257.115.513.175.77v27.923c-.535.028-1.072.075-1.609.079-1.26.013-2.521.006-3.782,0-.292,0-.583-.032-.986-.058v-1.2c0-7.745.013-15.488-.013-23.234a25.814,25.814,0,0,0-.287-3.943,8.056,8.056,0,0,0-3.034-5.245,7.887,7.887,0,0,0-4.807-1.507,10.047,10.047,0,0,0-10.7,9.641c-.076.9-.1,1.8-.1,2.7q-.015,10.761,0,21.522v1.264c-.985.054-1.956.068-2.916.068-.26.006-.519.008-.778.008C421.035,141.932,420.735,141.929,420.435,141.926ZM294.7,139.375a10.517,10.517,0,0,1-3.395-6.482,22.125,22.125,0,0,1-.207-3.228q-.026-10.85-.009-21.7v-1.24h-6.6v-3.036h6.551c.1-1.034.04-1.985.05-2.932.011-.99,0-1.981,0-2.972V92.053a32.432,32.432,0,0,1,6.488-.093v11.662c1.644.031,3.263.029,4.877.023,1.442,0,2.881-.007,4.335.016V106.7H297.7a6.4,6.4,0,0,0-.092.742c0,8.5-.008,16.991.022,25.486a13.082,13.082,0,0,0,.355,2.938,3.383,3.383,0,0,0,2.566,2.84,3.859,3.859,0,0,0,4.07-1.272c.722-.874,1.336-1.834,2.043-2.818a12.561,12.561,0,0,1,1.73,1.666c.6.583,1.174,1.2,1.8,1.834a10.622,10.622,0,0,1-2.714,2.205,11.191,11.191,0,0,1-5.8,1.593h-.14A10.48,10.48,0,0,1,294.7,139.375Zm24.833,2.5c-.185-.66-.223-37.139-.034-38.174h6.251c.186.658.225,37.156.032,38.174Zm-251.1-11.867-.29,0a36.717,36.717,0,0,1-12.077-2.146c-1.665-.59-3.285-1.31-4.923-1.976a6.392,6.392,0,0,1-.6-.332l.563-1.283c.277.108.5.18.707.279a38.924,38.924,0,0,0,13.18,3.72,35.657,35.657,0,0,0,12.493-1.083c1.533-.411,3.045-.909,4.546-1.426a6.3,6.3,0,0,0,1.662-.872,2.725,2.725,0,0,0,1.077-2.947,3.858,3.858,0,0,0-3.276-3.163,17.877,17.877,0,0,0-2.687-.159c-.951-.009-1.9,0-2.854,0-1.51.01-3.02.02-4.528-.029a29.36,29.36,0,0,1-9.48-1.929c-.635-.241-1.273-.481-2.072-.781a42.457,42.457,0,0,1,8.048-2.675,57.765,57.765,0,0,1,7.43-.713,49.4,49.4,0,0,0,9.913-1.09c.142-.035.282-.089.409-.131A3.1,3.1,0,0,0,84,108.244a2.031,2.031,0,0,0-2.036.308c-.348.232-.669.511-1.032.717a5.7,5.7,0,0,1-4.788.374,33.521,33.521,0,0,1-4.011-1.579,7.091,7.091,0,0,0-7.989.987c-.973.752-1.909,1.559-2.921,2.255a21.374,21.374,0,0,1-3,1.787,5.479,5.479,0,0,1-4.2.163l.417-1.354c.1-.045.158-.1.2-.088a5.324,5.324,0,0,0,4.118-.859c.932-.6,1.8-1.3,2.7-1.944,1.145-.822,2.253-1.7,3.45-2.437a7.488,7.488,0,0,1,6.584-.626c1.049.354,2.06.819,3.1,1.207a26,26,0,0,0,2.629.9,4.143,4.143,0,0,0,3.359-.582,7.426,7.426,0,0,1,1.919-.932,3.117,3.117,0,0,1,3.193.979,5.854,5.854,0,0,1,1.674,4.332c-.016.712-.1.814-.77,1.01a28.239,28.239,0,0,1-5.926,1.049c-3.082.217-6.172.351-9.257.554a26.947,26.947,0,0,0-5.919,1.075,3.413,3.413,0,0,0-1.1.536c.64.182,1.273.388,1.922.54a32.242,32.242,0,0,0,7.5.788c2.22-.007,4.441-.041,6.664-.041a6.8,6.8,0,0,1,3.606.962,4.913,4.913,0,0,1-.937,8.747c-2.021.658-4.027,1.391-6.084,1.906a35.477,35.477,0,0,1-8.493,1.031Zm11.5-33.463a18.713,18.713,0,0,1-4.39-.574l0,0c-1.805-.436-3.591-.959-5.378-1.467a1.978,1.978,0,0,0-1.85.234,3.224,3.224,0,0,1-4.154-.213,6.6,6.6,0,0,1-1.9-2.109l1.13-.7c.626.572,1.2,1.1,1.771,1.62a1.62,1.62,0,0,0,2.276.139,3.091,3.091,0,0,1,2.983-.329c1.984.579,3.974,1.157,5.991,1.595a20.782,20.782,0,0,0,4.009.448,3.886,3.886,0,0,0,4.074-2.9,9.062,9.062,0,0,0,.311-4c-.238-2.719-.508-5.437-.665-8.161-.422-7.375-.418-14.761-.528-22.144-.04-2.7-.27-5.394-.34-8.091-.063-2.4-.04-4.8-.023-7.2.009-1.41.065-2.822.131-4.228a5.79,5.79,0,0,1,.239-1.588,1.065,1.065,0,0,1,1.744-.544,5.927,5.927,0,0,1,1.049,1.1c.342.416.608.9.958,1.3a1.775,1.775,0,0,0,2.488.456,4.488,4.488,0,0,0,1.1-.9c.61-.661,1.172-1.368,1.749-2.058a11.959,11.959,0,0,1,7.9-4.226,29.651,29.651,0,0,1,3.318-.228c1.409-.028,2.82,0,4.228.044a16.416,16.416,0,0,1,5.667,1.318c5.2,2.136,9.463,5.614,13.54,9.563l-1.08,1.065c-.264-.246-.5-.459-.731-.681a45.7,45.7,0,0,0-8.981-7.03,19.311,19.311,0,0,0-7.557-2.736c-.891-.094-1.8-.031-2.693-.1a25.176,25.176,0,0,0-5.655.121,10.486,10.486,0,0,0-7.241,4.415,14.38,14.38,0,0,1-1.84,2.086,3.681,3.681,0,0,1-3.235.982,3.329,3.329,0,0,1-2.009-1.267c-.382-.448-.733-.921-1.21-1.524-.049.433-.088.686-.1.94A160.53,160.53,0,0,0,85.1,55.7c.051,1.23.067,2.461.094,3.691.134,5.792.2,11.586.423,17.375.152,3.893.522,7.781.807,11.67a9.72,9.72,0,0,1-.643,4.589A5.257,5.257,0,0,1,81.063,96.5q-.555.045-1.105.045Zm239.76-2.037a4.142,4.142,0,0,1-1.214-2.934l0,0a4.136,4.136,0,1,1,4.172,4.148h-.032A4.145,4.145,0,0,1,319.686,94.508Zm-54.4-32.733,0,0A17.55,17.55,0,0,1,252.85,49.824a23.556,23.556,0,0,1-.257-14.613c1.756-5.756,5.368-9.928,11.21-11.727a18.567,18.567,0,0,1,16.977,2.542,16.754,16.754,0,0,1,6.332,9.769,27.913,27.913,0,0,1,.763,7.946,2.769,2.769,0,0,1-.081.4H259c-.07.141-.139.219-.139.3a15.918,15.918,0,0,0,2.739,9.79,12.242,12.242,0,0,0,8.178,4.931,14.5,14.5,0,0,0,12.408-3.389c.943-.786,1.884-1.574,2.8-2.344l2.456,2.484c-.5.471-1.012,1-1.574,1.479A21.336,21.336,0,0,1,275.1,62.229a27.168,27.168,0,0,1-4.063.319h-.107A21.008,21.008,0,0,1,265.282,61.775Zm-3.943-31.457a18.69,18.69,0,0,0-2.3,7.51c-.116,1.035-.157,2.079-.236,3.173h22.435c-.068-1.1-.1-2.146-.206-3.182a18.071,18.071,0,0,0-2.009-7.042,9.8,9.8,0,0,0-9.047-5.566,14.331,14.331,0,0,0-2.03.155l0,0C264.911,25.8,262.849,27.75,261.339,30.318Zm68.386,31.33a24.144,24.144,0,0,1-2.564-.1l0,0c-.2-.615-.257-36.941-.056-38.17h6.467v6.048l.217.048c.122-.215.257-.425.366-.647A10.9,10.9,0,0,1,342.2,22.8a13.7,13.7,0,0,1,5.369-.113,10.836,10.836,0,0,1,8.1,6.215c.092.188.16.391.264.572.218.381.493.392.747.03.1-.146.167-.319.255-.475a12.143,12.143,0,0,1,10.08-6.457,17.371,17.371,0,0,1,5.193.282,9.888,9.888,0,0,1,8.048,8.9,32.551,32.551,0,0,1,.238,3.768q.031,12.471.011,24.944v1.109h-6.476c-.014-.358-.04-.7-.04-1.05,0-7.685.02-15.37-.019-23.055-.009-1.823-.19-3.65-.365-5.47a7.345,7.345,0,0,0-.524-1.9,5.236,5.236,0,0,0-3.986-3.411,11.675,11.675,0,0,0-4.736-.065,7.9,7.9,0,0,0-5.286,4.008,13.555,13.555,0,0,0-1.832,6.062c-.122,1.433-.189,2.875-.193,4.313-.022,6.485-.009,12.969-.009,19.453V61.57h-6.466c-.018-.349-.049-.695-.05-1.041,0-7.745.014-15.49-.017-23.234a35.7,35.7,0,0,0-.333-4.841,7.6,7.6,0,0,0-2.251-4.508,5.243,5.243,0,0,0-2.774-1.387,10.911,10.911,0,0,0-4.819.242,8.136,8.136,0,0,0-4.916,4.1A12.3,12.3,0,0,0,333.8,36.19c-.132,1.673-.211,3.355-.217,5.033-.024,6.4-.009,12.788-.009,19.183v1.042a24.784,24.784,0,0,1-3.206.208Q330.046,61.657,329.725,61.648Zm-29.035-.019a23.493,23.493,0,0,1-2.836-.111l0,0V23.372h6.464c.036,2.04-.01,4.031.026,6,.527.091.528-.257.651-.466a31.864,31.864,0,0,1,1.814-3.1c3.161-4.254,8.842-4.158,12.467-1.208a11.177,11.177,0,0,1,.905.941c-.866,1.58-1.708,3.119-2.565,4.686-.666-.624-1.26-1.2-1.876-1.753a5.686,5.686,0,0,0-7.223-.284,7.68,7.68,0,0,0-2.315,2.482,12.865,12.865,0,0,0-1.751,5.617c-.084,1.046-.112,2.1-.115,3.147q-.013,10.488,0,20.974v1.04a24.31,24.31,0,0,1-3.015.187Q301.007,61.637,300.69,61.629Zm-100.549-.006,0-.007c-.264,0-.529-.03-.9-.053V8h20c.825.121,1.65.245,2.476.362a28.05,28.05,0,0,1,16.339,7.819,24.689,24.689,0,0,1,7.163,14.4,26.6,26.6,0,0,1-19.6,30,29.067,29.067,0,0,1-7.915,1.037q-3.737.009-7.475.008h-3.364Q203.5,61.627,200.141,61.623Zm9.439-50.214q-1.342.007-2.683.008c-.177,0-.355.018-.611.031V58.173c.293.017.527.04.764.04,2.522,0,5.045.059,7.564-.018a36.04,36.04,0,0,0,5.279-.469A20.245,20.245,0,0,0,235.186,46.5a25.509,25.509,0,0,0,1.4-19.852,21.2,21.2,0,0,0-8.4-11.364,22.717,22.717,0,0,0-12.465-3.847c-1.244-.031-2.488-.04-3.732-.04Q210.784,11.4,209.58,11.409ZM106.687,57.152a42.224,42.224,0,0,1-9.183-.707,20.284,20.284,0,0,1-3.691-1.107c-3.388-1.4-4.186-4.138-1.993-7.063a15.123,15.123,0,0,1,14.207-6.454,25.164,25.164,0,0,1,14.583,6.357,13.944,13.944,0,0,1,1.707,1.962,4.61,4.61,0,0,1,.575,1.112,2.046,2.046,0,0,1-.6,2.516,8.132,8.132,0,0,1-1.647,1.076,22.5,22.5,0,0,1-6.484,1.756,42.28,42.28,0,0,1-6.358.58Q107.238,57.177,106.687,57.152Zm-5.316-13.431a13.586,13.586,0,0,0-8.259,5.353,5.8,5.8,0,0,0-.825,1.486A2.008,2.008,0,0,0,93,53.109a4.48,4.48,0,0,0,1.066.655,21.352,21.352,0,0,0,2.536.895,39.8,39.8,0,0,0,9.2,1.041c2-.121,4.014-.194,6.013-.374a27.221,27.221,0,0,0,6.945-1.377,11.435,11.435,0,0,0,2.091-1.021.9.9,0,0,0,.346-1.454,8.789,8.789,0,0,0-1.433-1.826,23.906,23.906,0,0,0-10.806-5.62,19.091,19.091,0,0,0-4.587-.584h-.015A16.193,16.193,0,0,0,101.371,43.721Z" transform="translate(0.5 0.5)" stroke="rgba(0,0,0,0)" stroke-miterlimit="10" stroke-width="1"></path></svg> 