<svg xmlns="http://www.w3.org/2000/svg" width="160.376" height="22.502" viewBox="0 0 160.376 22.502"><g id="Group_167" data-name="Group 167" transform="translate(-18 -18.125)" style="isolation: isolate"><path id="Path_1" data-name="Path 1" d="M116.554,19.073v11.1H105.925v-11.1H105V40.356h.925V31.1h10.629v9.253h.925V19.073Z" transform="translate(24.854 0.271)" fill="#fff"/><path id="Path_2" data-name="Path 2" d="M105.069,19.073H93.194V20h5.475V40.356h.925V20h5.475Z" transform="translate(21.481 0.271)" fill="#fff"/><g id="Group_1" data-name="Group 1" transform="translate(59.378 19.272)"><path id="Path_3" data-name="Path 3" d="M60.862,40.372a10.678,10.678,0,1,1,0-21.355,10.864,10.864,0,0,1,1.781.148l-.153.913a9.861,9.861,0,0,0-1.628-.135,9.752,9.752,0,0,0,0,19.5Z" transform="translate(-50.184 -19.017)" fill="#fff"/></g><g id="Group_2" data-name="Group 2" transform="translate(62.077 21.97)"><path id="Path_4" data-name="Path 4" d="M60.262,37.073a7.975,7.975,0,1,1,7.874-6.683l-.913-.149a7.054,7.054,0,1,0-6.961,5.908Z" transform="translate(-52.283 -21.116)" fill="#fff"/></g><g id="Group_3" data-name="Group 3" transform="translate(70.056 18.481)"><path id="Path_5" data-name="Path 5" d="M59.866,19.288l.062-.886-1.439,1.254,1.252,1.439.06-.881a9.748,9.748,0,0,1-1.313,19.409v.924a10.674,10.674,0,0,0,1.377-21.259Z" transform="translate(-58.489 -18.402)" fill="#006eb2"/><path id="Path_6" data-name="Path 6" d="M58.489,34.375V35.3a7.928,7.928,0,0,0,7.853-6.593l.885.081-1.221-1.466-1.466,1.22.877.08A7.008,7.008,0,0,1,58.489,34.375Z" transform="translate(-58.489 -15.854)" fill="#006eb2"/></g><g id="Group_5" data-name="Group 5" transform="translate(42.593 18.812)"><g id="Group_4" data-name="Group 4"><path id="Path_7" data-name="Path 7" d="M50.446,39.991h-1.03l-5.99-12.184h.747a3.756,3.756,0,0,0,3.75-3.75v-.721a3.757,3.757,0,0,0-3.75-3.752h-6.12V39.991h-.926V18.659h7.046a4.681,4.681,0,0,1,4.676,4.676v.721a4.686,4.686,0,0,1-3.961,4.621Z" transform="translate(-37.128 -18.659)" fill="#fff"/></g></g><g id="Group_7" data-name="Group 7" transform="translate(18 18.809)"><g id="Group_6" data-name="Group 6"><path id="Path_8" data-name="Path 8" d="M28.678,40.012a10.678,10.678,0,1,1,7.9-17.838L35.9,22.8A9.752,9.752,0,1,0,35.777,36V29.95H36.7v6.412l-.121.132A10.69,10.69,0,0,1,28.678,40.012Z" transform="translate(-18 -18.657)" fill="#fff"/></g></g><g id="Group_8" data-name="Group 8" transform="translate(146.734 18.125)"><path id="Path_9" data-name="Path 9" d="M128.8,19.021a7.3,7.3,0,0,0-3.577-.9,6.839,6.839,0,0,0-3.548.966,7.356,7.356,0,0,0-.036,12.573,6.692,6.692,0,0,0,3.518.982,8.194,8.194,0,0,0,2.9-.464,5.992,5.992,0,0,0,1.184-.613,22.955,22.955,0,0,1-2.713,3.181,38.5,38.5,0,0,1-6.059,4.8l-.216.141.77.936.176-.131c2.215-1.639,4.1-3.158,5.6-4.511a20.972,20.972,0,0,0,3.89-4.733,11.135,11.135,0,0,0,1.632-5.833,7.629,7.629,0,0,0-.946-3.845A6.624,6.624,0,0,0,128.8,19.021Zm2.422,6.1v.433a5.953,5.953,0,0,1-1.6,4.415,5.96,5.96,0,0,1-4.367,1.583,5.823,5.823,0,0,1-3.014-.816A6.008,6.008,0,0,1,120.06,28.5a6.223,6.223,0,0,1-.8-3.116,6.132,6.132,0,0,1,.8-3.1,6.04,6.04,0,0,1,2.182-2.215,5.825,5.825,0,0,1,3.014-.818,6.012,6.012,0,0,1,2.921.738,5.73,5.73,0,0,1,2.161,2.083A6.274,6.274,0,0,1,131.221,25.119Z" transform="translate(-118.129 -18.125)" fill="#006eb2"/><path id="Path_10" data-name="Path 10" d="M144.946,21.573a6.636,6.636,0,0,0-2.571-2.552,7.3,7.3,0,0,0-3.575-.9,6.844,6.844,0,0,0-3.55.966,7.355,7.355,0,0,0-.035,12.573,6.692,6.692,0,0,0,3.518.982,8.182,8.182,0,0,0,2.9-.464,5.956,5.956,0,0,0,1.184-.613,23.029,23.029,0,0,1-2.712,3.181,38.518,38.518,0,0,1-6.061,4.8l-.215.141.769.936.177-.131c2.215-1.639,4.1-3.158,5.6-4.511a21.007,21.007,0,0,0,3.89-4.733,11.134,11.134,0,0,0,1.632-5.833A7.629,7.629,0,0,0,144.946,21.573Zm-.149,3.546v.433a5.958,5.958,0,0,1-1.6,4.415,5.962,5.962,0,0,1-4.367,1.583,5.82,5.82,0,0,1-3.014-.816,6,6,0,0,1-2.182-2.232,6.211,6.211,0,0,1-.8-3.116,6.133,6.133,0,0,1,.8-3.1,6.033,6.033,0,0,1,2.183-2.215,5.821,5.821,0,0,1,3.014-.818,6.007,6.007,0,0,1,2.92.738,5.724,5.724,0,0,1,2.163,2.083A6.26,6.26,0,0,1,144.8,25.119Z" transform="translate(-114.25 -18.125)" fill="#006eb2"/></g><path id="Path_11" data-name="Path 11" d="M86.931,38.171,83.351,30.4l5.377-11.324H87.7L82.847,29.3l-4.71-10.229H77.119L82.33,30.391l-3.694,7.78-8.794-19.1H68.823l9.8,21.283,4.211-8.869,4.084,8.869L97.023,19.073H96Z" transform="translate(14.519 0.271)" fill="#fff"/></g></svg>