<?xml version="1.0" encoding="utf-8"?>
<svg xmlns="http://www.w3.org/2000/svg" style="margin: auto; background: rgb(255, 255, 255); display: block; shape-rendering: auto;" width="220" height="57" preserveAspectRatio="xMidYMid">
<style type="text/css">
  text {
    text-anchor: middle; font-size: 50px; opacity: 0;
  }
</style>
<g style="transform-origin:110px 28.5px;transform:scale(1)">
<g transform="translate(110,28.5)">
  <g transform="translate(0,0)"><g class="path" style="opacity: 1; transform-origin: -84.375px -2.10615px; animation: 1s linear -0.565714s infinite normal forwards running blink-8da55e54-8608-4b59-a24b-13b134ac0726;"><path d="M4-34.50L14.85-34.50L14.85-34.50Q19.65-34.50 22.45-32.33L22.45-32.33L22.45-32.33Q25.25-30.15 25.25-26.50L25.25-26.50L25.25-26.50Q25.25-20.65 20.45-18.35L20.45-18.35L20.45-18.35Q26.95-16.10 26.95-10.05L26.95-10.05L26.95-10.05Q26.95-5.50 23.05-2.48L23.05-2.48L23.05-2.48Q19.15 0.55 13.25 0.55L13.25 0.55L13.25 0.55Q10.15 0.55 4 0L4 0L4.60-12.15L4-34.50zM14.20-14.85L14.20-14.85L10.15-14.85L10.10-13L10.45-4.85L10.45-4.85Q13.35-4.60 14.90-4.60L14.90-4.60L14.90-4.60Q17.55-4.60 19.03-5.93L19.03-5.93L19.03-5.93Q20.50-7.25 20.50-9.80L20.50-9.80L20.50-9.80Q20.50-12.35 19-13.60L19-13.60L19-13.60Q17.50-14.85 14.20-14.85zM13.05-29.45L13.05-29.45L10.60-29.45L10.30-19.70L13.55-19.70L13.55-19.70Q16.10-19.70 17.45-21.08L17.45-21.08L17.45-21.08Q18.80-22.45 18.80-25L18.80-25L18.80-25Q18.80-29.45 13.05-29.45" fill="#cbaf68" stroke="none" stroke-width="none" transform="translate(-99.8499641418457,14.868852566310332)" style="fill: rgb(203, 175, 104);"></path></g><g class="path" style="opacity: 1; transform-origin: -58.8px 2.26885px; animation: 1s linear -0.471429s infinite normal forwards running blink-8da55e54-8608-4b59-a24b-13b134ac0726;"><path d="M30.40-10.45L30.40-10.45Q30.40-16.85 33.85-21.30L33.85-21.30L33.85-21.30Q37.30-25.75 41.92-25.75L41.92-25.75L41.92-25.75Q46.55-25.75 49.13-22.75L49.13-22.75L49.13-22.75Q51.70-19.75 51.70-14.80L51.70-14.80L51.70-14.80Q51.70-8.20 48.38-3.83L48.38-3.83L48.38-3.83Q45.05 0.55 40 0.55L40 0.55L40 0.55Q35.85 0.55 33.13-2.58L33.13-2.58L33.13-2.58Q30.40-5.70 30.40-10.45L30.40-10.45zM46.10-12.20L46.10-12.20L46.10-12.20Q46.10-19.45 41.15-19.45L41.15-19.45L41.15-19.45Q36-19.45 36-12.65L36-12.65L36-12.65Q36-9.10 37.45-7.10L37.45-7.10L37.45-7.10Q38.90-5.10 41.27-5.10L41.27-5.10L41.27-5.10Q43.65-5.10 44.88-6.93L44.88-6.93L44.88-6.93Q46.10-8.75 46.10-12.20" fill="#cbaf68" stroke="none" stroke-width="none" transform="translate(-99.8499641418457,14.868852566310332)" style="fill: rgb(203, 175, 104);"></path></g><g class="path" style="opacity: 1; transform-origin: -34.7px 2.26885px; animation: 1s linear -0.377143s infinite normal forwards running blink-8da55e54-8608-4b59-a24b-13b134ac0726;"><path d="M54.50-10.45L54.50-10.45Q54.50-16.85 57.95-21.30L57.95-21.30L57.95-21.30Q61.40-25.75 66.03-25.75L66.03-25.75L66.03-25.75Q70.65-25.75 73.22-22.75L73.22-22.75L73.22-22.75Q75.80-19.75 75.80-14.80L75.80-14.80L75.80-14.80Q75.80-8.20 72.47-3.83L72.47-3.83L72.47-3.83Q69.15 0.55 64.10 0.55L64.10 0.55L64.10 0.55Q59.95 0.55 57.23-2.58L57.23-2.58L57.23-2.58Q54.50-5.70 54.50-10.45L54.50-10.45zM70.20-12.20L70.20-12.20L70.20-12.20Q70.20-19.45 65.25-19.45L65.25-19.45L65.25-19.45Q60.10-19.45 60.10-12.65L60.10-12.65L60.10-12.65Q60.10-9.10 61.55-7.10L61.55-7.10L61.55-7.10Q63-5.10 65.38-5.10L65.38-5.10L65.38-5.10Q67.75-5.10 68.97-6.93L68.97-6.93L68.97-6.93Q70.20-8.75 70.20-12.20" fill="#cbaf68" stroke="none" stroke-width="none" transform="translate(-99.8499641418457,14.868852566310332)" style="fill: rgb(203, 175, 104);"></path></g><g class="path" style="opacity: 1; transform-origin: -9.09997px -4.23115px; animation: 1s linear -0.282857s infinite normal forwards running blink-8da55e54-8608-4b59-a24b-13b134ac0726;"><path d="M101.40-3.30L95.70 0.50L86.30-13.35L86.30-13L86.85-1.25L80.10 0L80.70-12.15L80.10-37.45L86.95-38.70L86.30-14.55L96.30-25.50L101-22.30L92.25-14.10L101.40-3.30" fill="#cbaf68" stroke="none" stroke-width="none" transform="translate(-99.8499641418457,14.868852566310332)" style="fill: rgb(203, 175, 104);"></path></g><g class="path" style="opacity: 1; transform-origin: 26.375px -2.38115px; animation: 1s linear -0.188571s infinite normal forwards running blink-8da55e54-8608-4b59-a24b-13b134ac0726;"><path d="M133.35-33.85L139.45-34.60L138.80-13L139.35-1.10L133.45 0.15L118.55-23.95L118.55-13L119.25 0L113.00 0L113.60-12.15L113.00-34.35L119.00-34.65L133.85-10.20L133.35-33.85" fill="#cbaf68" stroke="none" stroke-width="none" transform="translate(-99.8499641418457,14.868852566310332)" style="fill: rgb(203, 175, 104);"></path></g><g class="path" style="opacity: 1; transform-origin: 55.65px 2.26885px; animation: 1s linear -0.0942857s infinite normal forwards running blink-8da55e54-8608-4b59-a24b-13b134ac0726;"><path d="M144.85-10.45L144.85-10.45Q144.85-16.85 148.30-21.30L148.30-21.30L148.30-21.30Q151.75-25.75 156.38-25.75L156.38-25.75L156.38-25.75Q161.00-25.75 163.58-22.75L163.58-22.75L163.58-22.75Q166.15-19.75 166.15-14.80L166.15-14.80L166.15-14.80Q166.15-8.20 162.83-3.83L162.83-3.83L162.83-3.83Q159.50 0.55 154.45 0.55L154.45 0.55L154.45 0.55Q150.30 0.55 147.58-2.58L147.58-2.58L147.58-2.58Q144.85-5.70 144.85-10.45L144.85-10.45zM160.55-12.20L160.55-12.20L160.55-12.20Q160.55-19.45 155.60-19.45L155.60-19.45L155.60-19.45Q150.45-19.45 150.45-12.65L150.45-12.65L150.45-12.65Q150.45-9.10 151.90-7.10L151.90-7.10L151.90-7.10Q153.35-5.10 155.73-5.10L155.73-5.10L155.73-5.10Q158.10-5.10 159.33-6.93L159.33-6.93L159.33-6.93Q160.55-8.75 160.55-12.20" fill="#cbaf68" stroke="none" stroke-width="none" transform="translate(-99.8499641418457,14.868852566310332)" style="fill: rgb(203, 175, 104);"></path></g><g class="path" style="opacity: 1; transform-origin: 86.075px 2.21885px; animation: 1s linear 0s infinite normal forwards running blink-8da55e54-8608-4b59-a24b-13b134ac0726;"><path d="M191-14.40L192.75-6.25L193.40-6.25L195-13.10L197.60-25.45L203.70-24.70L200.05-12.30L197-0.60L188.80 0.15L186.05-12L185.80-12.80L182.45-0.60L174.50 0.15L171.60-12L168.15-24.15L174.70-25.40L176.75-14.40L178.55-6.25L179.20-6.25L183.50-20.50L182.45-24.15L188.90-25.40L191-14.40" fill="#cbaf68" stroke="none" stroke-width="none" transform="translate(-99.8499641418457,14.868852566310332)" style="fill: rgb(203, 175, 104);"></path></g></g>
</g>
</g>
<style id="blink-8da55e54-8608-4b59-a24b-13b134ac0726" data-anikit="">@keyframes blink-8da55e54-8608-4b59-a24b-13b134ac0726 {
  0% { opacity: 1; }
  49.75% { opacity: 1; }
  50.25% { opacity: 0; }
  99.5% { opacity: 0; }
  100% { opacity: 1; }
}</style></svg>