<?xml version="1.0" encoding="utf-8"?>
<svg xmlns="http://www.w3.org/2000/svg" style="margin: auto; background: rgb(241, 242, 243); display: block; shape-rendering: auto;" width="220" height="57" preserveAspectRatio="xMidYMid">
<style type="text/css">
  text {
    text-anchor: middle; font-size: 50px; opacity: 0;
  }
</style>
<g style="transform-origin:110px 28.5px;transform:scale(1)">
<g transform="translate(110,28.5)">
  <g transform="translate(0,0)"><g class="path" style="transform: scale(1); transform-origin: -73.275px -3.24871px; animation: 1s linear -0.565714s infinite normal forwards running beat-eae994a4-111d-4791-ae03-6677820c97cc;"><path d="M8.85-22.50L8.85-22.50L8.90-16.25L8.70-7.60L8.70-7.60Q8.75-7.40 8.85-7.40L8.85-7.40L8.85-7.40Q8.95-7.40 9-7.50L9-7.50L9-7.50Q10-8.90 11.48-8.90L11.48-8.90L11.48-8.90Q12.95-8.90 12.95-8.30L12.95-8.30L12.95-8.30Q12.95-6.40 13.68-5.38L13.68-5.38L13.68-5.38Q14.40-4.35 15.73-4.35L15.73-4.35L15.73-4.35Q17.05-4.35 18.28-6.15L18.28-6.15L18.28-6.15Q19.50-7.95 19.50-10.95L19.50-10.95L19.50-10.95Q19.50-11.95 19.10-13.35L19.10-13.35L19.10-13.35Q18.30-16.15 16.10-17.10L16.10-17.10L16.10-17.10Q14.50-17.75 10.90-17.75L10.90-17.75L10.90-17.75Q10.50-17.75 10.50-18.30L10.50-18.30L10.50-18.30Q10.50-21.10 11.50-21.20L11.50-21.20L11.50-21.20Q12.85-21.20 14.35-21.90L14.35-21.90L14.35-21.90Q17.35-23.30 17.35-27.65L17.35-27.65L17.35-27.65Q17.35-32.35 11.95-32.35L11.95-32.35L10.40-32.25L10.40-32.25Q9.50-32.05 9.40-31.50L9.40-31.50L9.40-31.35L9.40-31.35Q8.85-29.35 8.85-22.50zM1.50 0.70L1.50 0.70L1.60 0.15L1.60 0.15Q2.10-0.75 2.45-7.18L2.45-7.18L2.45-7.18Q2.80-13.60 2.80-19.18L2.80-19.18L2.80-19.18Q2.80-24.75 2.58-28.13L2.58-28.13L2.58-28.13Q2.35-31.50 1.35-33L1.35-33L1.35-33Q1.15-33.25 1.15-33.60L1.15-33.60L1.15-33.60Q1.15-33.95 1.75-34.20L1.75-34.20L1.75-34.20Q5.85-35.80 12.90-35.80L12.90-35.80L12.90-35.80Q14.65-35.80 16.70-35.33L16.70-35.33L16.70-35.33Q18.75-34.85 20.08-34.15L20.08-34.15L20.08-34.15Q21.40-33.45 22.48-32L22.48-32L22.48-32Q23.55-30.55 23.70-28.55L23.70-28.55L23.70-28.55Q23.70-21.30 17.70-20.20L17.70-20.20L17.70-20.20Q17.40-20.10 17.40-19.98L17.40-19.98L17.40-19.98Q17.40-19.85 17.65-19.70L17.65-19.70L17.65-19.70Q20.75-19.20 22.85-17.20L22.85-17.20L22.85-17.20Q23.90-16.25 24.75-14.25L24.75-14.25L24.75-14.25Q25.60-12.25 25.60-9.65L25.60-9.65L25.60-9.65Q25.60-6.30 23.65-3.30L23.65-3.30L23.65-3.30Q22.05-0.85 19 0.20L19 0.20L19 0.20Q17.30 0.80 15.20 0.80L15.20 0.80L15.20 0.80Q9.95 0.80 8.55-2.55L8.55-2.55L8.55-2.55Q8.50-2.70 8.40-2.70L8.40-2.70L8.20-2.50L8.20-2.50Q7.15 1 2.20 1.15L2.20 1.15L2.20 1.15Q1.50 1.15 1.50 0.70" fill="#3a554c" stroke="none" stroke-width="none" transform="translate(-86.64999198913574,14.076285569327217)" style="fill: rgb(58, 85, 76);"></path></g><g class="path" style="transform: scale(1); transform-origin: -49.975px 3.27628px; animation: 1s linear -0.471429s infinite normal forwards running beat-eae994a4-111d-4791-ae03-6677820c97cc;"><path d="M32.45-18.85L32.45-18.85L32.45-18.85Q31.15-18.80 30.58-18.78L30.58-18.78L30.58-18.78Q30-18.75 30-19.05L30-19.05L30-19.05Q30-19.35 30.30-19.65L30.30-19.65L30.30-19.65Q33.50-22.60 41.10-22.60L41.10-22.60L41.10-22.60Q43.70-22.60 45.20-22.15L45.20-22.15L45.70-22L45.70-22Q46.30-21.75 46.30-21.45L46.30-21.45L46.30-21.45Q46.30-21.20 45.95-21.05L45.95-21.05L45.95-21.05Q44.60-20.65 43.35-19.78L43.35-19.78L43.35-19.78Q42.10-18.90 42.10-18.55L42.10-18.55L42.40-18.20L42.40-18.20Q44-17.30 44.88-15.35L44.88-15.35L44.88-15.35Q45.75-13.40 45.85-11.90L45.85-11.90L45.95-10.35L45.95-10.35Q45.95-5.40 43.20-2.20L43.20-2.20L43.20-2.20Q40.45 1 35.70 1L35.70 1L35.70 1Q33.30 1 31.55 0.15L31.55 0.15L31.55 0.15Q29.80-0.70 28.98-1.78L28.98-1.78L28.98-1.78Q28.15-2.85 27.65-4.20L27.65-4.20L27.65-4.20Q27.05-6.05 27.05-8.03L27.05-8.03L27.05-8.03Q27.05-10 27.73-12L27.73-12L27.73-12Q28.40-14 29.28-14.95L29.28-14.95L29.28-14.95Q30.15-15.90 31.25-16.50L31.25-16.50L31.25-16.50Q32.65-17.25 33.50-17.25L33.50-17.25L33.50-17.25Q34.35-17.25 34.35-16.90L34.35-16.90L34.05-16.40L34.05-16.40Q32.95-15.10 32.48-13L32.48-13L32.48-13Q32-10.90 32-9.28L32-9.28L32-9.28Q32-7.65 32.40-6.05L32.40-6.05L32.40-6.05Q32.80-4.45 33.30-3.68L33.30-3.68L33.30-3.68Q33.80-2.90 34.45-2.50L34.45-2.50L34.45-2.50Q35.40-1.90 36.45-1.90L36.45-1.90L36.45-1.90Q37.50-1.90 38.50-2.73L38.50-2.73L38.50-2.73Q39.50-3.55 39.95-4.90L39.95-4.90L39.95-4.90Q40.85-7.40 40.85-10.05L40.85-10.05L40.85-10.05Q40.85-14.25 38.73-16.55L38.73-16.55L38.73-16.55Q36.60-18.85 32.45-18.85" fill="#3a554c" stroke="none" stroke-width="none" transform="translate(-86.64999198913574,14.076285569327217)" style="fill: rgb(203, 175, 104);"></path></g><g class="path" style="transform: scale(1); transform-origin: -28.975px 3.27628px; animation: 1s linear -0.377143s infinite normal forwards running beat-eae994a4-111d-4791-ae03-6677820c97cc;"><path d="M53.45-18.85L53.45-18.85L53.45-18.85Q52.15-18.80 51.57-18.78L51.57-18.78L51.57-18.78Q51-18.75 51-19.05L51-19.05L51-19.05Q51-19.35 51.30-19.65L51.30-19.65L51.30-19.65Q54.50-22.60 62.10-22.60L62.10-22.60L62.10-22.60Q64.70-22.60 66.20-22.15L66.20-22.15L66.70-22L66.70-22Q67.30-21.75 67.30-21.45L67.30-21.45L67.30-21.45Q67.30-21.20 66.95-21.05L66.95-21.05L66.95-21.05Q65.60-20.65 64.35-19.78L64.35-19.78L64.35-19.78Q63.10-18.90 63.10-18.55L63.10-18.55L63.40-18.20L63.40-18.20Q65-17.30 65.88-15.35L65.88-15.35L65.88-15.35Q66.75-13.40 66.85-11.90L66.85-11.90L66.95-10.35L66.95-10.35Q66.95-5.40 64.20-2.20L64.20-2.20L64.20-2.20Q61.45 1 56.70 1L56.70 1L56.70 1Q54.30 1 52.55 0.15L52.55 0.15L52.55 0.15Q50.80-0.70 49.97-1.78L49.97-1.78L49.97-1.78Q49.15-2.85 48.65-4.20L48.65-4.20L48.65-4.20Q48.05-6.05 48.05-8.03L48.05-8.03L48.05-8.03Q48.05-10 48.72-12L48.72-12L48.72-12Q49.40-14 50.27-14.95L50.27-14.95L50.27-14.95Q51.15-15.90 52.25-16.50L52.25-16.50L52.25-16.50Q53.65-17.25 54.50-17.25L54.50-17.25L54.50-17.25Q55.35-17.25 55.35-16.90L55.35-16.90L55.05-16.40L55.05-16.40Q53.95-15.10 53.47-13L53.47-13L53.47-13Q53-10.90 53-9.28L53-9.28L53-9.28Q53-7.65 53.40-6.05L53.40-6.05L53.40-6.05Q53.80-4.45 54.30-3.68L54.30-3.68L54.30-3.68Q54.80-2.90 55.45-2.50L55.45-2.50L55.45-2.50Q56.40-1.90 57.45-1.90L57.45-1.90L57.45-1.90Q58.50-1.90 59.50-2.73L59.50-2.73L59.50-2.73Q60.50-3.55 60.95-4.90L60.95-4.90L60.95-4.90Q61.85-7.40 61.85-10.05L61.85-10.05L61.85-10.05Q61.85-14.25 59.72-16.55L59.72-16.55L59.72-16.55Q57.60-18.85 53.45-18.85" fill="#3a554c" stroke="none" stroke-width="none" transform="translate(-86.64999198913574,14.076285569327217)" style="fill: rgb(58, 85, 76);"></path></g><g class="path" style="transform: scale(1); transform-origin: -8.82499px -2.84872px; animation: 1s linear -0.282857s infinite normal forwards running beat-eae994a4-111d-4791-ae03-6677820c97cc;"><path d="M79.85-16.20L79.85-16.20L79.85-16.20Q79.65-16 79.65-15.78L79.65-15.78L79.65-15.78Q79.65-15.55 80.58-15.35L80.58-15.35L80.58-15.35Q81.50-15.15 82.60-14.25L82.60-14.25L82.60-14.25Q83.70-13.35 84.25-12.30L84.25-12.30L84.25-12.30Q85.30-10.25 85.40-8.70L85.40-8.70L85.45-8.05L85.45-8.05Q85.70-2.20 87.60-0.05L87.60-0.05L87.60-0.05Q87.85 0.30 87.85 0.45L87.85 0.45L87.85 0.45Q87.85 1 86.45 1L86.45 1L86.45 1Q82.25 1 81.10-0.75L81.10-0.75L81.10-0.75Q80.50-1.45 80.50-5.10L80.50-5.10L80.50-6.35L80.50-6.35Q80.50-11 79.35-12.80L79.35-12.80L79.35-12.80Q78.75-13.65 77.88-13.65L77.88-13.65L77.88-13.65Q77-13.65 76.05-12.13L76.05-12.13L76.05-12.13Q75.10-10.60 75.10-9.55L75.10-9.55L75.10-9.55Q75.10-5.35 75.30-3.70L75.30-3.70L75.30-3.70Q75.50-2.05 75.50-2L75.50-2L75.50-2Q75.50-0.55 73.52 0.25L73.52 0.25L73.52 0.25Q71.55 1.05 69.80 1.05L69.80 1.05L69.80 1.05Q69.15 1.05 69.15 0.25L69.15 0.25L69.15 0.05L69.15 0.05Q70.35-6.10 70.35-19.35L70.35-19.35L70.35-19.35Q70.35-23.70 70.15-26.70L70.15-26.70L70.05-27.70L70.05-27.70Q69.95-29.10 69.47-30.10L69.47-30.10L69.47-30.10Q69-31.10 68.55-31.40L68.55-31.40L68.15-31.65L68.15-31.65Q67.80-31.85 67.80-32.10L67.80-32.10L67.80-32.10Q67.80-32.90 70.20-33.90L70.20-33.90L70.20-33.90Q72.60-34.90 74.35-34.90L74.35-34.90L74.35-34.90Q75.15-34.85 75.20-34.30L75.20-34.30L75.20-34.30Q75.45-32.30 75.45-26.08L75.45-26.08L75.45-26.08Q75.45-19.85 75.15-16.15L75.15-16.15L75.15-16.15Q75.15-15.55 75.35-15.55L75.35-15.55L75.35-15.55Q75.55-15.55 75.97-16.13L75.97-16.13L75.97-16.13Q76.40-16.70 77.47-17.95L77.47-17.95L77.47-17.95Q78.55-19.20 80.38-20.85L80.38-20.85L80.38-20.85Q82.20-22.50 83.33-22.50L83.33-22.50L83.33-22.50Q84.45-22.50 85.55-21.95L85.55-21.95L85.55-21.95Q86.65-21.40 86.65-20.90L86.65-20.90L86.10-20.55L86.10-20.55Q83.25-19.50 79.85-16.20" fill="#3a554c" stroke="none" stroke-width="none" transform="translate(-86.64999198913574,14.076285569327217)" style="fill: rgb(203, 175, 104);"></path></g><g class="path" style="transform: scale(1); transform-origin: 22.95px -3.39872px; animation: 1s linear -0.188571s infinite normal forwards running beat-eae994a4-111d-4791-ae03-6677820c97cc;"><path d="M116.75-15.65L116.75-15.65L116.70-21.60L116.70-21.60Q116.70-30.45 116.10-33.35L116.10-33.35L116.10-33.35Q116-33.70 116-33.90L116-33.90L116-33.90Q116-34.75 117.70-35.35L117.70-35.35L117.70-35.35Q119.40-35.95 120.40-35.95L120.40-35.95L120.40-35.95Q121.40-35.95 121.40-35.35L121.40-35.35L121.40-35.35Q121.40-35.30 121.30-34.80L121.30-34.80L121.30-34.80Q120.15-28.65 120.15-15.25L120.15-15.25L120.15-15.25Q120.15-6.10 121.20-2.10L121.20-2.10L121.20-2.10Q121.40-1.45 121.40-1.40L121.40-1.40L121.40-1.40Q121.40-0.35 119.10 0.33L119.10 0.33L119.10 0.33Q116.80 1 115.85 1L115.85 1L115.85 1Q114.35 1 113.80 0.30L113.80 0.30L113.80 0.30Q112.70-1.10 110.22-7.58L110.22-7.58L110.22-7.58Q107.75-14.05 105.90-19.65L105.90-19.65L104-25.25L104-25.25Q103.90-25.50 103.75-25.50L103.75-25.50L103.75-25.50Q103.55-25.50 103.30-25.15L103.30-25.15L103.30-25.15Q103.05-20.50 103.05-15.85L103.05-15.85L103.05-15.85Q103.05-11.20 103.13-8.70L103.13-8.70L103.13-8.70Q103.20-6.20 103.30-4.90L103.30-4.90L103.30-4.90Q103.40-3.60 103.50-2.83L103.50-2.83L103.50-2.83Q103.60-2.05 103.67-1.70L103.67-1.70L103.67-1.70Q103.75-1.35 103.75-1.20L103.75-1.20L103.75-1.20Q103.75-0.25 102.10 0.28L102.10 0.28L102.10 0.28Q100.45 0.80 99.13 0.80L99.13 0.80L99.13 0.80Q97.80 0.80 97.80 0.20L97.80 0.20L97.80 0.20Q97.80-0.10 97.95-0.55L97.95-0.55L97.95-0.55Q98.10-1 98.30-1.70L98.30-1.70L98.30-1.70Q98.80-3.45 99-8.08L99-8.08L99-8.08Q99.20-12.70 99.20-18.63L99.20-18.63L99.20-18.63Q99.20-24.55 99.05-27.25L99.05-27.25L99.05-27.25Q98.80-31.65 98.15-33.15L98.15-33.15L98.15-33.15Q98-33.30 98-33.55L98-33.55L98-33.55Q98-34.35 100.65-35.10L100.65-35.10L100.65-35.10Q103.30-35.85 104.77-35.85L104.77-35.85L104.77-35.85Q106.25-35.85 106.50-35.80L106.50-35.80L106.50-35.80Q107.20-35.85 107.35-35L107.35-35L107.35-35Q108.80-29.75 111.42-22.65L111.42-22.65L111.42-22.65Q114.05-15.55 116.10-11.80L116.10-11.80L116.10-11.80Q116.35-11.55 116.50-11.55L116.50-11.55L116.50-11.55Q116.75-11.55 116.75-15.65" fill="#3a554c" stroke="none" stroke-width="none" transform="translate(-86.64999198913574,14.076285569327217)" style="fill: rgb(58, 85, 76);"></path></g><g class="path" style="transform: scale(1); transform-origin: 46.875px 3.27628px; animation: 1s linear -0.0942857s infinite normal forwards running beat-eae994a4-111d-4791-ae03-6677820c97cc;"><path d="M129.30-18.85L129.30-18.85L129.30-18.85Q128-18.80 127.43-18.78L127.43-18.78L127.43-18.78Q126.85-18.75 126.85-19.05L126.85-19.05L126.85-19.05Q126.85-19.35 127.15-19.65L127.15-19.65L127.15-19.65Q130.35-22.60 137.95-22.60L137.95-22.60L137.95-22.60Q140.55-22.60 142.05-22.15L142.05-22.15L142.55-22L142.55-22Q143.15-21.75 143.15-21.45L143.15-21.45L143.15-21.45Q143.15-21.20 142.80-21.05L142.80-21.05L142.80-21.05Q141.45-20.65 140.20-19.78L140.20-19.78L140.20-19.78Q138.95-18.90 138.95-18.55L138.95-18.55L139.25-18.20L139.25-18.20Q140.85-17.30 141.72-15.35L141.72-15.35L141.72-15.35Q142.60-13.40 142.70-11.90L142.70-11.90L142.80-10.35L142.80-10.35Q142.80-5.40 140.05-2.20L140.05-2.20L140.05-2.20Q137.30 1 132.55 1L132.55 1L132.55 1Q130.15 1 128.40 0.15L128.40 0.15L128.40 0.15Q126.65-0.70 125.83-1.78L125.83-1.78L125.83-1.78Q125-2.85 124.50-4.20L124.50-4.20L124.50-4.20Q123.90-6.05 123.90-8.03L123.90-8.03L123.90-8.03Q123.90-10 124.58-12L124.58-12L124.58-12Q125.25-14 126.13-14.95L126.13-14.95L126.13-14.95Q127-15.90 128.10-16.50L128.10-16.50L128.10-16.50Q129.50-17.25 130.35-17.25L130.35-17.25L130.35-17.25Q131.20-17.25 131.20-16.90L131.20-16.90L130.90-16.40L130.90-16.40Q129.80-15.10 129.33-13L129.33-13L129.33-13Q128.85-10.90 128.85-9.28L128.85-9.28L128.85-9.28Q128.85-7.65 129.25-6.05L129.25-6.05L129.25-6.05Q129.65-4.45 130.15-3.68L130.15-3.68L130.15-3.68Q130.65-2.90 131.30-2.50L131.30-2.50L131.30-2.50Q132.25-1.90 133.30-1.90L133.30-1.90L133.30-1.90Q134.35-1.90 135.35-2.73L135.35-2.73L135.35-2.73Q136.35-3.55 136.80-4.90L136.80-4.90L136.80-4.90Q137.70-7.40 137.70-10.05L137.70-10.05L137.70-10.05Q137.70-14.25 135.58-16.55L135.58-16.55L135.58-16.55Q133.45-18.85 129.30-18.85" fill="#3a554c" stroke="none" stroke-width="none" transform="translate(-86.64999198913574,14.076285569327217)" style="fill: rgb(203, 175, 104);"></path></g><g class="path" style="transform: scale(1); transform-origin: 72.275px 3.47628px; animation: 1s linear 0s infinite normal forwards running beat-eae994a4-111d-4791-ae03-6677820c97cc;"><path d="M163.85 1L163.85 1L163.85 1Q163.35 1.35 163.10 1.35L163.10 1.35L163.10 1.35Q162.55 1.35 162.35 0.90L162.35 0.90L162.35 0.90Q160.85-2.10 159.85-7.20L159.85-7.20L159.85-7.20Q159.80-7.40 159.70-7.40L159.70-7.40L159.40-7.20L159.40-7.20Q158.05-4.80 156.28-2.75L156.28-2.75L156.28-2.75Q154.50-0.70 153.40 0.15L153.40 0.15L152.30 1L152.30 1Q151.80 1.45 151.50 1.45L151.50 1.45L151.50 1.45Q150.95 1.45 150.75 0.95L150.75 0.95L150.75 0.95Q149.65-1.15 148.20-7.20L148.20-7.20L147.75-9.25L147.75-9.25Q146.80-13.65 145.83-16.30L145.83-16.30L145.83-16.30Q144.85-18.95 144.35-19.40L144.35-19.40L143.85-19.85L143.85-19.85Q143.40-20 143.40-20.35L143.40-20.35L143.40-20.35Q143.40-21.05 145.47-21.85L145.47-21.85L145.47-21.85Q147.55-22.65 148.70-22.65L148.70-22.65L148.70-22.65Q149.85-22.65 150.22-21.73L150.22-21.73L150.22-21.73Q150.60-20.80 151.40-16.55L151.40-16.55L151.40-16.55Q153.50-5.35 154.45-5.35L154.45-5.35L154.45-5.35Q154.75-5.35 155.13-5.88L155.13-5.88L155.13-5.88Q155.50-6.40 156.03-7.15L156.03-7.15L156.03-7.15Q156.55-7.90 157.45-9.75L157.45-9.75L157.45-9.75Q158.35-11.60 158.35-13L158.35-13L158.35-13Q158.35-13.25 158-14.83L158-14.83L158-14.83Q157.65-16.40 156.97-17.88L156.97-17.88L156.97-17.88Q156.30-19.35 155.90-19.55L155.90-19.55L155.90-19.55Q155-20.05 155-20.40L155-20.40L155-20.40Q155-21 157.05-21.83L157.05-21.83L157.05-21.83Q159.10-22.65 160.75-22.65L160.75-22.65L160.75-22.65Q161.50-22.65 161.80-21.75L161.80-21.75L161.80-21.75Q162.55-19.40 163.60-13.30L163.60-13.30L163.60-13.30Q164.95-5.50 166.10-5.50L166.10-5.50L166.10-5.50Q166.50-5.50 167.30-6.63L167.30-6.63L167.30-6.63Q168.10-7.75 168.88-9.90L168.88-9.90L168.88-9.90Q169.65-12.05 169.65-13.58L169.65-13.58L169.65-13.58Q169.65-15.10 169.53-15.93L169.53-15.93L169.53-15.93Q169.40-16.75 168.65-17.85L168.65-17.85L168.65-17.85Q167.90-18.95 166.95-19.13L166.95-19.13L166.95-19.13Q166-19.30 166-19.75L166-19.75L166-19.75Q166-20.45 168.08-21.55L168.08-21.55L168.08-21.55Q170.15-22.65 172.35-22.65L172.35-22.65L172.35-22.65Q174.45-22.65 174.45-18.45L174.45-18.45L174.45-18.45Q174.45-13.20 171.35-7.65L171.35-7.65L171.35-7.65Q168.25-2.10 163.85 1" fill="#3a554c" stroke="none" stroke-width="none" transform="translate(-86.64999198913574,14.076285569327217)" style="fill: rgb(58, 85, 76);"></path></g></g>
</g>
</g>
<style id="beat-eae994a4-111d-4791-ae03-6677820c97cc" data-anikit="">@keyframes beat-eae994a4-111d-4791-ae03-6677820c97cc
{
  0% {
    animation-timing-function: cubic-bezier(0.1028,0.2484,0.1372,0.849);
    transform: scale(1);
  }
  34% {
    animation-timing-function: cubic-bezier(0.7116,0.2095,0.8159,0.6876);
    transform: scale(1.2);
  }
  68% {
    animation-timing-function: cubic-bezier(0.1475,0.2888,0.294,0.883);
    transform: scale(1.0268);
  }
  84% {
    animation-timing-function: cubic-bezier(0.8176,0.2193,0.867,0.6889);
    transform: scale(1.0932);
  }
  100% {
    transform: scale(1);
  }
}</style></svg>