<?xml version="1.0" encoding="utf-8"?>
<svg xmlns="http://www.w3.org/2000/svg" style="margin: auto; background: none; display: block; shape-rendering: auto;" width="243" height="57" preserveAspectRatio="xMidYMid">
<style type="text/css">
  text {
    text-anchor: middle; font-size: 40px; opacity: 0;
  }
</style>
<g style="transform-origin:121.5px 28.5px;transform:scale(1)">
<g transform="translate(121.5,28.5)">
  <g transform="translate(0,0)"><g class="path" style="transform: scale(1); transform-origin: -102.28px -1.90465px; animation: 1s linear -0.6s infinite normal forwards running beat-8b275fa8-df89-4310-8e67-57a804cdbbb4;"><path d="M0.52-3.64L3.64-7.96L3.64-7.96Q7.04-4.56 10.44-4.56L10.44-4.56L10.44-4.56Q12.20-4.56 13.26-5.38L13.26-5.38L13.26-5.38Q14.32-6.20 14.32-7.50L14.32-7.50L14.32-7.50Q14.32-8.80 13.04-9.70L13.04-9.70L13.04-9.70Q11.76-10.60 9.94-11.28L9.94-11.28L9.94-11.28Q8.12-11.96 6.32-12.82L6.32-12.82L6.32-12.82Q4.52-13.68 3.24-15.28L3.24-15.28L3.24-15.28Q1.96-16.88 1.96-19.16L1.96-19.16L1.96-19.16Q1.96-22.76 4.96-25.38L4.96-25.38L4.96-25.38Q7.96-28 12.08-28L12.08-28L12.08-28Q13.96-28 15.72-27.60L15.72-27.60L15.72-27.60Q17.48-27.20 19.12-26.44L19.12-26.44L16.40-20.60L16.40-20.60Q15.28-21.48 13.34-22.22L13.34-22.22L13.34-22.22Q11.40-22.96 9.94-22.96L9.94-22.96L9.94-22.96Q8.48-22.96 7.58-22.26L7.58-22.26L7.58-22.26Q6.68-21.56 6.68-20.40L6.68-20.40L6.68-20.40Q6.68-19.24 7.96-18.34L7.96-18.34L7.96-18.34Q9.24-17.44 11.06-16.76L11.06-16.76L11.06-16.76Q12.88-16.08 14.70-15.26L14.70-15.26L14.70-15.26Q16.52-14.44 17.80-12.84L17.80-12.84L17.80-12.84Q19.08-11.24 19.08-8.96L19.08-8.96L19.08-8.96Q19.08-5.20 16.08-2.38L16.08-2.38L16.08-2.38Q13.08 0.44 9.08 0.44L9.08 0.44L9.08 0.44Q6.08 0.44 3.76-1L3.76-1L3.76-1Q1.72-2.24 0.88-3.20L0.88-3.20L0.52-3.64" fill="#ffffff" stroke="none" stroke-width="none" transform="translate(-112.09998035430908,11.875348163951525)" style="fill: rgb(255, 255, 255);"></path></g><g class="path" style="transform: scale(1); transform-origin: -83.86px 1.79535px; animation: 1s linear -0.54s infinite normal forwards running beat-8b275fa8-df89-4310-8e67-57a804cdbbb4;"><path d="M29.32-15.40L29.32-15.40L29.32-15.40Q27.56-15.40 26.60-14.14L26.60-14.14L26.60-14.14Q25.64-12.88 25.64-10.28L25.64-10.28L25.64-10.28Q25.64-7.68 26.62-6.10L26.62-6.10L26.62-6.10Q27.60-4.52 29.48-4.52L29.48-4.52L29.48-4.52Q30.44-4.52 31.36-5.12L31.36-5.12L31.36-5.12Q32.28-5.72 32.76-6.32L32.76-6.32L33.20-6.96L35.20-4.88L35.20-4.88Q35.08-4.68 34.90-4.32L34.90-4.32L34.90-4.32Q34.72-3.96 34.02-3.04L34.02-3.04L34.02-3.04Q33.32-2.12 32.54-1.42L32.54-1.42L32.54-1.42Q31.76-0.72 30.52-0.14L30.52-0.14L30.52-0.14Q29.28 0.44 27.92 0.44L27.92 0.44L27.92 0.44Q24.92 0.44 23.04-2L23.04-2L23.04-2Q21.16-4.44 21.16-8.36L21.16-8.36L21.16-8.36Q21.16-13.24 24-16.92L24-16.92L24-16.92Q26.84-20.60 30.64-20.60L30.64-20.60L30.64-20.60Q31.80-20.60 32.96-20.26L32.96-20.26L32.96-20.26Q34.12-19.92 35.32-19.20L35.32-19.20L32.52-14.28L32.52-14.28Q31.08-15.40 29.32-15.40" fill="#ffffff" stroke="none" stroke-width="none" transform="translate(-112.09998035430908,11.875348163951525)" style="fill: rgb(255, 255, 255);"></path></g><g class="path" style="transform: scale(1); transform-origin: -65.96px -3.50465px; animation: 1s linear -0.48s infinite normal forwards running beat-8b275fa8-df89-4310-8e67-57a804cdbbb4;"><path d="M49.52-10.12L49.52-10.12Q49.52-12.88 49.04-13.80L49.04-13.80L49.04-13.80Q48.56-14.72 46.80-14.72L46.80-14.72L46.80-14.72Q45.04-14.72 42.80-13.32L42.80-13.32L42.80-10.40L43.24-1L37.84 0L38.32-9.72L37.84-29.96L43.32-30.96L42.80-20.60L42.80-15.92L42.80-15.92Q43.40-16.72 44.16-17.48L44.16-17.48L44.16-17.48Q44.92-18.24 46.52-19.20L46.52-19.20L46.52-19.20Q48.12-20.16 49.94-20.16L49.94-20.16L49.94-20.16Q51.76-20.16 53-18.74L53-18.74L53-18.74Q54.24-17.32 54.24-14.88L54.24-14.88L54-10.40L54.44-0.80L49.04 0.20L49.52-10.12" fill="#ffffff" stroke="none" stroke-width="none" transform="translate(-112.09998035430908,11.875348163951525)" style="fill: rgb(255, 255, 255);"></path></g><g class="path" style="transform: scale(1); transform-origin: -46.72px 1.79535px; animation: 1s linear -0.42s infinite normal forwards running beat-8b275fa8-df89-4310-8e67-57a804cdbbb4;"><path d="M66.04-4.08L66.04-4.08L66.04-4.08Q67.20-4.08 68.48-4.68L68.48-4.68L68.48-4.68Q69.76-5.28 70.48-5.88L70.48-5.88L71.20-6.48L73.04-4.24L73.04-4.24Q72.64-3.56 71.80-2.68L71.80-2.68L71.80-2.68Q70.96-1.80 70.10-1.18L70.10-1.18L70.10-1.18Q69.24-0.56 67.82-0.06L67.82-0.06L67.82-0.06Q66.40 0.44 64.88 0.44L64.88 0.44L64.88 0.44Q61.64 0.44 59.60-2.02L59.60-2.02L59.60-2.02Q57.56-4.48 57.56-8.36L57.56-8.36L57.56-8.36Q57.56-13.24 60.40-16.92L60.40-16.92L60.40-16.92Q63.24-20.60 67.04-20.60L67.04-20.60L67.04-20.60Q69.96-20.60 71.58-18.96L71.58-18.96L71.58-18.96Q73.20-17.32 73.20-14.36L73.20-14.36L73.20-14.36Q73.20-12.60 72.60-10.36L72.60-10.36L71.80-9.52L61.80-8.60L61.80-8.60Q62.48-4.08 66.04-4.08zM66.04-16.48L66.04-16.48L66.04-16.48Q64.28-16.48 63.08-15.06L63.08-15.06L63.08-15.06Q61.88-13.64 61.68-11.44L61.68-11.44L68.48-12.28L68.48-12.28Q68.60-13.20 68.60-13.80L68.60-13.80L68.60-13.80Q68.60-16.48 66.04-16.48" fill="#ffffff" stroke="none" stroke-width="none" transform="translate(-112.09998035430908,11.875348163951525)" style="fill: rgb(255, 255, 255);"></path></g><g class="path" style="transform: scale(1); transform-origin: -27.98px -3.38465px; animation: 1s linear -0.36s infinite normal forwards running beat-8b275fa8-df89-4310-8e67-57a804cdbbb4;"><path d="M87.24-3.92L87.24-3.92L87.24-3.92Q84.12 0 81.84 0L81.84 0L81.84 0Q79 0 77.18-2.32L77.18-2.32L77.18-2.32Q75.36-4.64 75.36-8.28L75.36-8.28L75.36-8.28Q75.36-13.28 78.14-16.72L78.14-16.72L78.14-16.72Q80.92-20.16 84.96-20.16L84.96-20.16L87.20-19.84L87.20-20.60L86.72-29.96L92.20-30.96L91.68-10.40L91.68-6.88L91.68-6.88Q91.68-4.48 92.88-1.36L92.88-1.36L88.56 0.44L88.56 0.44Q87.40-1.96 87.24-3.92zM79.84-10.36L79.84-10.36L79.84-10.36Q79.84-7.80 80.78-6.36L80.78-6.36L80.78-6.36Q81.72-4.92 83.50-4.92L83.50-4.92L83.50-4.92Q85.28-4.92 87.20-6.36L87.20-6.36L87.20-15L87.20-15Q84.80-15.48 83.64-15.48L83.64-15.48L83.64-15.48Q81.84-15.48 80.84-14.20L80.84-14.20L80.84-14.20Q79.84-12.92 79.84-10.36" fill="#ffffff" stroke="none" stroke-width="none" transform="translate(-112.09998035430908,11.875348163951525)" style="fill: rgb(255, 255, 255);"></path></g><g class="path" style="transform: scale(1); transform-origin: -7.05998px 1.75535px; animation: 1s linear -0.3s infinite normal forwards running beat-8b275fa8-df89-4310-8e67-57a804cdbbb4;"><path d="M101.56 0L101.56 0L101.56 0Q99.40 0 98.06-1.42L98.06-1.42L98.06-1.42Q96.72-2.84 96.72-5.16L96.72-5.16L96.96-9.76L96.52-19.36L101.88-20.36L101.36-8.20L101.36-8.20Q101.36-6.48 101.98-5.68L101.98-5.68L101.98-5.68Q102.60-4.88 103.96-4.88L103.96-4.88L103.96-4.88Q105.32-4.88 107.72-6.24L107.72-6.24L107.72-8.64L107.28-19.16L112.68-20.16L112.20-10.16L112.24-6.88L112.24-6.88Q112.24-4.32 113.56-1.72L113.56-1.72L109.40 0.12L109.40 0.12Q108.08-2.48 107.80-4.04L107.80-4.04L107.80-4.04Q104.20 0 101.56 0" fill="#ffffff" stroke="none" stroke-width="none" transform="translate(-112.09998035430908,11.875348163951525)" style="fill: rgb(255, 255, 255);"></path></g><g class="path" style="transform: scale(1); transform-origin: 7.80003px -3.60465px; animation: 1s linear -0.24s infinite normal forwards running beat-8b275fa8-df89-4310-8e67-57a804cdbbb4;"><path d="M117.16-29.96L122.64-30.96L122.12-10.40L122.56-1L117.16 0L117.64-9.72L117.16-29.96" fill="#ffffff" stroke="none" stroke-width="none" transform="translate(-112.09998035430908,11.875348163951525)" style="fill: rgb(255, 255, 255);"></path></g><g class="path" style="transform: scale(1); transform-origin: 21.72px 1.79535px; animation: 1s linear -0.18s infinite normal forwards running beat-8b275fa8-df89-4310-8e67-57a804cdbbb4;"><path d="M134.48-4.08L134.48-4.08L134.48-4.08Q135.64-4.08 136.92-4.68L136.92-4.68L136.92-4.68Q138.20-5.28 138.92-5.88L138.92-5.88L139.64-6.48L141.48-4.24L141.48-4.24Q141.08-3.56 140.24-2.68L140.24-2.68L140.24-2.68Q139.40-1.80 138.54-1.18L138.54-1.18L138.54-1.18Q137.68-0.56 136.26-0.06L136.26-0.06L136.26-0.06Q134.84 0.44 133.32 0.44L133.32 0.44L133.32 0.44Q130.08 0.44 128.04-2.02L128.04-2.02L128.04-2.02Q126.00-4.48 126.00-8.36L126.00-8.36L126.00-8.36Q126.00-13.24 128.84-16.92L128.84-16.92L128.84-16.92Q131.68-20.60 135.48-20.60L135.48-20.60L135.48-20.60Q138.40-20.60 140.02-18.96L140.02-18.96L140.02-18.96Q141.64-17.32 141.64-14.36L141.64-14.36L141.64-14.36Q141.64-12.60 141.04-10.36L141.04-10.36L140.24-9.52L130.24-8.60L130.24-8.60Q130.92-4.08 134.48-4.08zM134.48-16.48L134.48-16.48L134.48-16.48Q132.72-16.48 131.52-15.06L131.52-15.06L131.52-15.06Q130.32-13.64 130.12-11.44L130.12-11.44L136.92-12.28L136.92-12.28Q137.04-13.20 137.04-13.80L137.04-13.80L137.04-13.80Q137.04-16.48 134.48-16.48" fill="#ffffff" stroke="none" stroke-width="none" transform="translate(-112.09998035430908,11.875348163951525)" style="fill: rgb(255, 255, 255);"></path></g><g class="path" style="transform: scale(1); transform-origin: 50.64px -1.92465px; animation: 1s linear -0.12s infinite normal forwards running beat-8b275fa8-df89-4310-8e67-57a804cdbbb4;"><path d="M168.44-27.08L173.32-27.68L172.80-10.40L173.24-0.88L168.52 0.12L156.60-19.16L156.60-10.40L157.16 0L152.16 0L152.64-9.72L152.16-27.48L156.96-27.72L168.84-8.16L168.44-27.08" fill="#ffffff" stroke="none" stroke-width="none" transform="translate(-112.09998035430908,11.875348163951525)" style="fill: rgb(255, 255, 255);"></path></g><g class="path" style="transform: scale(1); transform-origin: 74.06px 1.79535px; animation: 1s linear -0.06s infinite normal forwards running beat-8b275fa8-df89-4310-8e67-57a804cdbbb4;"><path d="M177.64-8.36L177.64-8.36Q177.64-13.48 180.40-17.04L180.40-17.04L180.40-17.04Q183.16-20.60 186.86-20.60L186.86-20.60L186.86-20.60Q190.56-20.60 192.62-18.20L192.62-18.20L192.62-18.20Q194.68-15.80 194.68-11.84L194.68-11.84L194.68-11.84Q194.68-6.56 192.02-3.06L192.02-3.06L192.02-3.06Q189.36 0.44 185.32 0.44L185.32 0.44L185.32 0.44Q182 0.44 179.82-2.06L179.82-2.06L179.82-2.06Q177.64-4.56 177.64-8.36L177.64-8.36zM190.20-9.76L190.20-9.76L190.20-9.76Q190.20-15.56 186.24-15.56L186.24-15.56L186.24-15.56Q182.12-15.56 182.12-10.12L182.12-10.12L182.12-10.12Q182.12-7.28 183.28-5.68L183.28-5.68L183.28-5.68Q184.44-4.08 186.34-4.08L186.34-4.08L186.34-4.08Q188.24-4.08 189.22-5.54L189.22-5.54L189.22-5.54Q190.20-7 190.20-9.76" fill="#ffffff" stroke="none" stroke-width="none" transform="translate(-112.09998035430908,11.875348163951525)" style="fill: rgb(255, 255, 255);"></path></g><g class="path" style="transform: scale(1); transform-origin: 98.4px 1.75535px; animation: 1s linear 0s infinite normal forwards running beat-8b275fa8-df89-4310-8e67-57a804cdbbb4;"><path d="M214.56-11.52L215.96-5L216.48-5L217.76-10.48L219.84-20.36L224.72-19.76L221.80-9.84L219.36-0.48L212.80 0.12L210.60-9.60L210.40-10.24L207.72-0.48L201.36 0.12L199.04-9.60L196.28-19.32L201.52-20.32L203.16-11.52L204.60-5L205.12-5L208.56-16.40L207.72-19.32L212.88-20.32L214.56-11.52" fill="#ffffff" stroke="none" stroke-width="none" transform="translate(-112.09998035430908,11.875348163951525)" style="fill: rgb(255, 255, 255);"></path></g></g>
</g>
</g>
<style id="beat-8b275fa8-df89-4310-8e67-57a804cdbbb4" data-anikit="">@keyframes beat-8b275fa8-df89-4310-8e67-57a804cdbbb4
{
  0% {
    animation-timing-function: cubic-bezier(0.1028,0.2484,0.1372,0.849);
    transform: scale(1);
  }
  34% {
    animation-timing-function: cubic-bezier(0.7116,0.2095,0.8159,0.6876);
    transform: scale(1.2);
  }
  68% {
    animation-timing-function: cubic-bezier(0.1475,0.2888,0.294,0.883);
    transform: scale(1.0268);
  }
  84% {
    animation-timing-function: cubic-bezier(0.8176,0.2193,0.867,0.6889);
    transform: scale(1.0932);
  }
  100% {
    transform: scale(1);
  }
}</style></svg>