<?xml version="1.0" encoding="utf-8"?>
<svg xmlns="http://www.w3.org/2000/svg" style="margin: auto; background: none; display: block; shape-rendering: auto;" width="280" height="57" preserveAspectRatio="xMidYMid">
<style type="text/css">
  text {
    text-anchor: middle; font-size: 40px; opacity: 0;
  }
</style>
<g style="transform-origin: 140px 28.5px; transform: scale(0.740741);">
<g transform="translate(140,28.5)">
  <g transform="translate(0,0)"><g class="path" style="opacity: 1; transform-origin: -149.77px -3.43177px; animation: 1s linear -0.616s infinite normal forwards running blink-22074f8f-14c4-4ffe-8e85-3fcefd4f19fa;"><path d="M13.18-37.64L19.98-16.85L20.52-16.85L28.40-37.37L35.86-37.15L36.07-13.93L37.10 0L29.81 0L30.08-14.04L29.48-28.24L23.00-10.37L16.36-10.04L10.31-28.24L9.83-14.04L10.21 0L3.51 0L4.27-13.12L4.59-36.29L13.18-37.64" fill="#000000" stroke="none" stroke-width="none" transform="translate(-170.07496309280396,15.388229815165195)" style="fill: rgb(0, 0, 0);"></path></g><g class="path" style="opacity: 1; transform-origin: -117.21px 1.56323px; animation: 1s linear -0.572s infinite normal forwards running blink-22074f8f-14c4-4ffe-8e85-3fcefd4f19fa;"><path d="M48.87 0L48.87 0Q45.68 0 43.66-2.02L43.66-2.02L43.66-2.02Q41.63-4.05 41.63-7.48L41.63-7.48L41.63-7.48Q41.63-10.91 44.77-13.42L44.77-13.42L44.77-13.42Q47.90-15.93 52.38-15.93L52.38-15.93L56.05-15.93L56.05-16.85L56.05-16.85Q56.05-19.49 54.97-20.47L54.97-20.47L54.97-20.47Q53.89-21.44 50.92-21.44L50.92-21.44L50.92-21.44Q49.68-21.44 47.98-20.93L47.98-20.93L47.98-20.93Q46.28-20.41 44.17-19.33L44.17-19.33L42.61-23.60L42.61-23.60Q44.93-25.22 48.25-26.51L48.25-26.51L48.25-26.51Q51.57-27.81 53.73-27.81L53.73-27.81L53.73-27.81Q62.21-27.81 62.21-19.60L62.21-19.60L62.21-9.02L62.21-9.02Q62.21-5.99 64.10-2.27L64.10-2.27L58.37 0.16L58.37 0.16Q57.02-2.43 56.38-4.48L56.38-4.48L56.38-4.48Q53.41 0 48.87 0L48.87 0zM51.14-5.51L51.14-5.51L51.14-5.51Q53.30-5.51 56.05-7.72L56.05-7.72L56.05-11.34L56.05-11.34Q53.19-11.99 51.41-11.99L51.41-11.99L51.41-11.99Q48.01-11.99 48.01-8.96L48.01-8.96L48.01-8.96Q48.01-7.40 48.87-6.45L48.87-6.45L48.87-6.45Q49.73-5.51 51.14-5.51" fill="#000000" stroke="none" stroke-width="none" transform="translate(-170.07496309280396,15.388229815165195)" style="fill: rgb(194, 157, 80);"></path></g><g class="path" style="opacity: 1; transform-origin: -94.15px 1.77823px; animation: 1s linear -0.528s infinite normal forwards running blink-22074f8f-14c4-4ffe-8e85-3fcefd4f19fa;"><path d="M76.95-5.02L76.95-5.02L76.95-5.02Q79.76-5.02 79.76-7.51L79.76-7.51L79.76-7.51Q79.76-8.37 78.54-9.13L78.54-9.13L78.54-9.13Q77.33-9.88 75.57-10.64L75.57-10.64L75.57-10.64Q73.82-11.39 72.06-12.34L72.06-12.34L72.06-12.34Q70.31-13.28 69.09-14.96L69.09-14.96L69.09-14.96Q67.88-16.63 67.88-18.79L67.88-18.79L67.88-18.79Q67.88-22.41 71.06-25.11L71.06-25.11L71.06-25.11Q74.25-27.81 78.41-27.81L78.41-27.81L78.41-27.81Q80.35-27.81 82.22-27.35L82.22-27.35L82.22-27.35Q84.08-26.89 85.81-25.92L85.81-25.92L82.19-19.33L82.19-19.33Q81.81-19.66 81.22-20.14L81.22-20.14L81.22-20.14Q80.62-20.63 78.97-21.41L78.97-21.41L78.97-21.41Q77.33-22.19 76.06-22.19L76.06-22.19L76.06-22.19Q74.79-22.19 74.12-21.63L74.12-21.63L74.12-21.63Q73.44-21.06 73.44-20.06L73.44-20.06L73.44-20.06Q73.44-19.06 75.30-18.06L75.30-18.06L75.30-18.06Q77.17-17.06 79.38-16.23L79.38-16.23L79.38-16.23Q81.59-15.39 83.46-13.47L83.46-13.47L83.46-13.47Q85.32-11.56 85.32-8.91L85.32-8.91L85.32-8.91Q85.32-5.13 82.22-2.27L82.22-2.27L82.22-2.27Q79.11 0.59 75.06 0.59L75.06 0.59L75.06 0.59Q72.47 0.59 70.23-0.54L70.23-0.54L70.23-0.54Q67.99-1.67 67.01-2.81L67.01-2.81L66.04-3.94L70.31-8.91L70.31-8.91Q70.63-8.48 71.23-7.83L71.23-7.83L71.23-7.83Q71.82-7.18 73.58-6.10L73.58-6.10L73.58-6.10Q75.33-5.02 76.95-5.02" fill="#000000" stroke="none" stroke-width="none" transform="translate(-170.07496309280396,15.388229815165195)" style="fill: rgb(0, 0, 0);"></path></g><g class="path" style="opacity: 1; transform-origin: -72.875px 1.77823px; animation: 1s linear -0.484s infinite normal forwards running blink-22074f8f-14c4-4ffe-8e85-3fcefd4f19fa;"><path d="M98.23-5.02L98.23-5.02L98.23-5.02Q101.03-5.02 101.03-7.51L101.03-7.51L101.03-7.51Q101.03-8.37 99.82-9.13L99.82-9.13L99.82-9.13Q98.60-9.88 96.85-10.64L96.85-10.64L96.85-10.64Q95.09-11.39 93.34-12.34L93.34-12.34L93.34-12.34Q91.58-13.28 90.37-14.96L90.37-14.96L90.37-14.96Q89.15-16.63 89.15-18.79L89.15-18.79L89.15-18.79Q89.15-22.41 92.34-25.11L92.34-25.11L92.34-25.11Q95.53-27.81 99.68-27.81L99.68-27.81L99.68-27.81Q101.63-27.81 103.49-27.35L103.49-27.35L103.49-27.35Q105.35-26.89 107.08-25.92L107.08-25.92L103.46-19.33L103.46-19.33Q103.09-19.66 102.49-20.14L102.49-20.14L102.49-20.14Q101.90-20.63 100.25-21.41L100.25-21.41L100.25-21.41Q98.60-22.19 97.33-22.19L97.33-22.19L97.33-22.19Q96.07-22.19 95.39-21.63L95.39-21.63L95.39-21.63Q94.72-21.06 94.72-20.06L94.72-20.06L94.72-20.06Q94.72-19.06 96.58-18.06L96.58-18.06L96.58-18.06Q98.44-17.06 100.66-16.23L100.66-16.23L100.66-16.23Q102.87-15.39 104.73-13.47L104.73-13.47L104.73-13.47Q106.60-11.56 106.60-8.91L106.60-8.91L106.60-8.91Q106.60-5.13 103.49-2.27L103.49-2.27L103.49-2.27Q100.39 0.59 96.34 0.59L96.34 0.59L96.34 0.59Q93.74 0.59 91.50-0.54L91.50-0.54L91.50-0.54Q89.26-1.67 88.29-2.81L88.29-2.81L87.32-3.94L91.58-8.91L91.58-8.91Q91.91-8.48 92.50-7.83L92.50-7.83L92.50-7.83Q93.10-7.18 94.85-6.10L94.85-6.10L94.85-6.10Q96.61-5.02 98.23-5.02" fill="#000000" stroke="none" stroke-width="none" transform="translate(-170.07496309280396,15.388229815165195)" style="fill: rgb(194, 157, 80);"></path></g><g class="path" style="opacity: 1; transform-origin: -49.33px 1.56323px; animation: 1s linear -0.44s infinite normal forwards running blink-22074f8f-14c4-4ffe-8e85-3fcefd4f19fa;"><path d="M116.75 0L116.75 0Q113.56 0 111.54-2.02L111.54-2.02L111.54-2.02Q109.51-4.05 109.51-7.48L109.51-7.48L109.51-7.48Q109.51-10.91 112.64-13.42L112.64-13.42L112.64-13.42Q115.78-15.93 120.26-15.93L120.26-15.93L123.93-15.93L123.93-16.85L123.93-16.85Q123.93-19.49 122.85-20.47L122.85-20.47L122.85-20.47Q121.77-21.44 118.80-21.44L118.80-21.44L118.80-21.44Q117.56-21.44 115.86-20.93L115.86-20.93L115.86-20.93Q114.16-20.41 112.05-19.33L112.05-19.33L110.48-23.60L110.48-23.60Q112.81-25.22 116.13-26.51L116.13-26.51L116.13-26.51Q119.45-27.81 121.61-27.81L121.61-27.81L121.61-27.81Q130.09-27.81 130.09-19.60L130.09-19.60L130.09-9.02L130.09-9.02Q130.09-5.99 131.98-2.27L131.98-2.27L126.25 0.16L126.25 0.16Q124.90-2.43 124.25-4.48L124.25-4.48L124.25-4.48Q121.28 0 116.75 0L116.75 0zM119.02-5.51L119.02-5.51L119.02-5.51Q121.18-5.51 123.93-7.72L123.93-7.72L123.93-11.34L123.93-11.34Q121.07-11.99 119.29-11.99L119.29-11.99L119.29-11.99Q115.88-11.99 115.88-8.96L115.88-8.96L115.88-8.96Q115.88-7.40 116.75-6.45L116.75-6.45L116.75-6.45Q117.61-5.51 119.02-5.51" fill="#000000" stroke="none" stroke-width="none" transform="translate(-170.07496309280396,15.388229815165195)" style="fill: rgb(0, 0, 0);"></path></g><g class="path" style="opacity: 1; transform-origin: -22.0649px 7.42323px; animation: 1s linear -0.396s infinite normal forwards running blink-22074f8f-14c4-4ffe-8e85-3fcefd4f19fa;"><path d="M134.78 5.35L134.78 5.35L134.78 5.35Q134.78 0.59 143.64-2.11L143.64-2.11L143.64-2.11Q141.53-3.19 141.53-4.91L141.53-4.91L141.53-4.91Q141.53-5.62 142.07-6.32L142.07-6.32L142.07-6.32Q142.61-7.02 143.64-7.78L143.64-7.78L143.64-8.21L143.64-8.21Q139.75-8.21 137.46-10.37L137.46-10.37L137.46-10.37Q135.16-12.53 135.16-16.15L135.16-16.15L135.16-16.15Q135.16-20.84 139.00-24.33L139.00-24.33L139.00-24.33Q142.83-27.81 148.07-27.81L148.07-27.81L148.07-27.81Q149.42-27.81 152.01-27.27L152.01-27.27L152.01-27.27Q154.60-26.73 157.09-26.73L157.09-26.73L161.24-26.73L160.70-22.03L156.65-22.52L156.65-22.52Q157.19-20.95 157.19-18.95L157.19-18.95L157.19-18.95Q157.19-16.96 156.25-14.98L156.25-14.98L156.25-14.98Q155.30-13.01 153.98-11.83L153.98-11.83L153.98-11.83Q152.66-10.64 151.34-9.75L151.34-9.75L151.34-9.75Q150.01-8.86 149.07-8.18L149.07-8.18L149.07-8.18Q148.12-7.51 148.12-6.97L148.12-6.97L148.12-6.97Q148.12-5.94 150.28-5.18L150.28-5.18L150.28-5.18Q156.01-2.86 158.03-1.24L158.03-1.24L158.03-1.24Q160.06 0.38 160.06 2.75L160.06 2.75L160.06 2.75Q160.06 6.75 156.03 9.31L156.03 9.31L156.03 9.31Q152.01 11.88 146.45 11.88L146.45 11.88L146.45 11.88Q140.89 11.88 137.84 10.10L137.84 10.10L137.84 10.10Q134.78 8.32 134.78 5.35zM151.09-17.33L151.09-17.33L151.09-17.33Q151.09-19.98 149.90-21.22L149.90-21.22L149.90-21.22Q148.72-22.46 146.18-22.46L146.18-22.46L146.18-22.46Q141.26-22.46 141.26-17.63L141.26-17.63L141.26-17.63Q141.26-12.80 146.50-12.80L146.50-12.80L146.50-12.80Q151.09-12.80 151.09-17.33zM153.04 3.56L153.04 3.56L153.04 3.56Q153.04 2.59 152.01 1.75L152.01 1.75L152.01 1.75Q150.98 0.92 148.34-0.22L148.34-0.22L148.34-0.22Q144.40 0.86 142.91 1.78L142.91 1.78L142.91 1.78Q141.43 2.70 141.43 4.05L141.43 4.05L141.43 4.05Q141.43 5.40 142.91 6.24L142.91 6.24L142.91 6.24Q144.40 7.07 147.04 7.07L147.04 7.07L147.04 7.07Q149.69 7.07 151.36 6.10L151.36 6.10L151.36 6.10Q153.04 5.13 153.04 3.56" fill="#000000" stroke="none" stroke-width="none" transform="translate(-170.07496309280396,15.388229815165195)" style="fill: rgb(194, 157, 80);"></path></g><g class="path" style="opacity: 1; transform-origin: 2.86005px 1.77823px; animation: 1s linear -0.352s infinite normal forwards running blink-22074f8f-14c4-4ffe-8e85-3fcefd4f19fa;"><path d="M173.83-5.51L173.83-5.51L173.83-5.51Q175.39-5.51 177.12-6.32L177.12-6.32L177.12-6.32Q178.85-7.13 179.82-7.94L179.82-7.94L180.79-8.75L183.28-5.72L183.28-5.72Q182.74-4.81 181.60-3.62L181.60-3.62L181.60-3.62Q180.47-2.43 179.31-1.59L179.31-1.59L179.31-1.59Q178.15-0.76 176.23-0.08L176.23-0.08L176.23-0.08Q174.31 0.59 172.26 0.59L172.26 0.59L172.26 0.59Q167.89 0.59 165.13-2.73L165.13-2.73L165.13-2.73Q162.38-6.05 162.38-11.29L162.38-11.29L162.38-11.29Q162.38-17.87 166.21-22.84L166.21-22.84L166.21-22.84Q170.05-27.81 175.18-27.81L175.18-27.81L175.18-27.81Q179.12-27.81 181.30-25.60L181.30-25.60L181.30-25.60Q183.49-23.38 183.49-19.39L183.49-19.39L183.49-19.39Q183.49-17.01 182.68-13.99L182.68-13.99L181.60-12.85L168.10-11.61L168.10-11.61Q169.02-5.51 173.83-5.51zM173.83-22.25L173.83-22.25L173.83-22.25Q171.45-22.25 169.83-20.33L169.83-20.33L169.83-20.33Q168.21-18.41 167.94-15.44L167.94-15.44L177.12-16.58L177.12-16.58Q177.28-17.82 177.28-18.63L177.28-18.63L177.28-18.63Q177.28-22.25 173.83-22.25" fill="#000000" stroke="none" stroke-width="none" transform="translate(-170.07496309280396,15.388229815165195)" style="fill: rgb(0, 0, 0);"></path></g><g class="path" style="opacity: 1; transform-origin: 34.775px 1.29323px; animation: 1s linear -0.308s infinite normal forwards running blink-22074f8f-14c4-4ffe-8e85-3fcefd4f19fa;"><path d="M194.72-16.52L202.12-16.52L202.12-24.46L207.52-24.95L207.52-16.52L215.41-16.52L214.97-11.61L207.52-11.61L207.52-3.73L202.12-3.24L202.12-11.61L194.29-11.61L194.72-16.52" fill="#000000" stroke="none" stroke-width="none" transform="translate(-170.07496309280396,15.388229815165195)" style="fill: rgb(194, 157, 80);"></path></g><g class="path" style="opacity: 1; transform-origin: 68.66px -3.24177px; animation: 1s linear -0.264s infinite normal forwards running blink-22074f8f-14c4-4ffe-8e85-3fcefd4f19fa;"><path d="M248.51-37.26L247.91-31.48L236.41-31.48L236.09-21.55L246.40-21.55L245.81-15.82L235.93-15.82L235.87-14.04L236.52 0L228.96 0L229.61-13.12L228.96-37.26L248.51-37.26" fill="#000000" stroke="none" stroke-width="none" transform="translate(-170.07496309280396,15.388229815165195)" style="fill: rgb(0, 0, 0);"></path></g><g class="path" style="opacity: 1; transform-origin: 90.96px 1.56323px; animation: 1s linear -0.22s infinite normal forwards running blink-22074f8f-14c4-4ffe-8e85-3fcefd4f19fa;"><path d="M257.04 0L257.04 0Q253.85 0 251.83-2.02L251.83-2.02L251.83-2.02Q249.80-4.05 249.80-7.48L249.80-7.48L249.80-7.48Q249.80-10.91 252.94-13.42L252.94-13.42L252.94-13.42Q256.07-15.93 260.55-15.93L260.55-15.93L264.22-15.93L264.22-16.85L264.22-16.85Q264.22-19.49 263.14-20.47L263.14-20.47L263.14-20.47Q262.06-21.44 259.09-21.44L259.09-21.44L259.09-21.44Q257.85-21.44 256.15-20.93L256.15-20.93L256.15-20.93Q254.45-20.41 252.34-19.33L252.34-19.33L250.78-23.60L250.78-23.60Q253.10-25.22 256.42-26.51L256.42-26.51L256.42-26.51Q259.74-27.81 261.90-27.81L261.90-27.81L261.90-27.81Q270.38-27.81 270.38-19.60L270.38-19.60L270.38-9.02L270.38-9.02Q270.38-5.99 272.27-2.27L272.27-2.27L266.54 0.16L266.54 0.16Q265.19-2.43 264.55-4.48L264.55-4.48L264.55-4.48Q261.58 0 257.04 0L257.04 0zM259.31-5.51L259.31-5.51L259.31-5.51Q261.47-5.51 264.22-7.72L264.22-7.72L264.22-11.34L264.22-11.34Q261.36-11.99 259.58-11.99L259.58-11.99L259.58-11.99Q256.18-11.99 256.18-8.96L256.18-8.96L256.18-8.96Q256.18-7.40 257.04-6.45L257.04-6.45L257.04-6.45Q257.90-5.51 259.31-5.51" fill="#000000" stroke="none" stroke-width="none" transform="translate(-170.07496309280396,15.388229815165195)" style="fill: rgb(194, 157, 80);"></path></g><g class="path" style="opacity: 1; transform-origin: 114.72px 1.77823px; animation: 1s linear -0.176s infinite normal forwards running blink-22074f8f-14c4-4ffe-8e85-3fcefd4f19fa;"><path d="M286.25-20.79L286.25-20.79L286.25-20.79Q283.88-20.79 282.58-19.09L282.58-19.09L282.58-19.09Q281.29-17.39 281.29-13.88L281.29-13.88L281.29-13.88Q281.29-10.37 282.61-8.23L282.61-8.23L282.61-8.23Q283.93-6.10 286.47-6.10L286.47-6.10L286.47-6.10Q287.77-6.10 289.01-6.91L289.01-6.91L289.01-6.91Q290.25-7.72 290.90-8.53L290.90-8.53L291.49-9.40L294.19-6.59L294.19-6.59Q294.03-6.32 293.79-5.83L293.79-5.83L293.79-5.83Q293.54-5.35 292.60-4.10L292.60-4.10L292.60-4.10Q291.65-2.86 290.60-1.92L290.60-1.92L290.60-1.92Q289.55-0.97 287.87-0.19L287.87-0.19L287.87-0.19Q286.20 0.59 284.36 0.59L284.36 0.59L284.36 0.59Q280.31 0.59 277.78-2.70L277.78-2.70L277.78-2.70Q275.24-5.99 275.24-11.29L275.24-11.29L275.24-11.29Q275.24-17.87 279.07-22.84L279.07-22.84L279.07-22.84Q282.91-27.81 288.04-27.81L288.04-27.81L288.04-27.81Q289.60-27.81 291.17-27.35L291.17-27.35L291.17-27.35Q292.73-26.89 294.35-25.92L294.35-25.92L290.57-19.28L290.57-19.28Q288.63-20.79 286.25-20.79" fill="#000000" stroke="none" stroke-width="none" transform="translate(-170.07496309280396,15.388229815165195)" style="fill: rgb(0, 0, 0);"></path></g><g class="path" style="opacity: 1; transform-origin: 131.27px 1.64323px; animation: 1s linear -0.132s infinite normal forwards running blink-22074f8f-14c4-4ffe-8e85-3fcefd4f19fa;"><path d="M297.76-26.14L304.99-27.49L304.34-14.04L304.94-1.35L297.70 0L298.35-13.12L297.76-26.14" fill="#000000" stroke="none" stroke-width="none" transform="translate(-170.07496309280396,15.388229815165195)" style="fill: rgb(194, 157, 80);"></path></g><g class="path" style="opacity: 1; transform-origin: 131.515px -20.2518px; animation: 1s linear -0.088s infinite normal forwards running blink-22074f8f-14c4-4ffe-8e85-3fcefd4f19fa;"><path d="M297.38-35.40L297.38-35.40L297.38-35.40Q297.38-37.21 298.78-38.64L298.78-38.64L298.78-38.64Q300.19-40.07 302.02-40.07L302.02-40.07L302.02-40.07Q303.86-40.07 304.83-39.07L304.83-39.07L304.83-39.07Q305.80-38.07 305.80-36.07L305.80-36.07L305.80-36.07Q305.80-34.07 304.43-32.64L304.43-32.64L304.43-32.64Q303.05-31.21 301.24-31.21L301.24-31.21L301.24-31.21Q299.43-31.21 298.40-32.40L298.40-32.40L298.40-32.40Q297.38-33.59 297.38-35.40" fill="#000000" stroke="none" stroke-width="none" transform="translate(-170.07496309280396,15.388229815165195)" style="fill: rgb(0, 0, 0);"></path></g><g class="path" style="opacity: 1; transform-origin: 150.255px 1.56323px; animation: 1s linear -0.044s infinite normal forwards running blink-22074f8f-14c4-4ffe-8e85-3fcefd4f19fa;"><path d="M316.33 0L316.33 0Q313.15 0 311.12-2.02L311.12-2.02L311.12-2.02Q309.10-4.05 309.10-7.48L309.10-7.48L309.10-7.48Q309.10-10.91 312.23-13.42L312.23-13.42L312.23-13.42Q315.36-15.93 319.84-15.93L319.84-15.93L323.51-15.93L323.51-16.85L323.51-16.85Q323.51-19.49 322.43-20.47L322.43-20.47L322.43-20.47Q321.35-21.44 318.38-21.44L318.38-21.44L318.38-21.44Q317.14-21.44 315.44-20.93L315.44-20.93L315.44-20.93Q313.74-20.41 311.63-19.33L311.63-19.33L310.07-23.60L310.07-23.60Q312.39-25.22 315.71-26.51L315.71-26.51L315.71-26.51Q319.03-27.81 321.19-27.81L321.19-27.81L321.19-27.81Q329.67-27.81 329.67-19.60L329.67-19.60L329.67-9.02L329.67-9.02Q329.67-5.99 331.56-2.27L331.56-2.27L325.84 0.16L325.84 0.16Q324.49-2.43 323.84-4.48L323.84-4.48L323.84-4.48Q320.87 0 316.33 0L316.33 0zM318.60-5.51L318.60-5.51L318.60-5.51Q320.76-5.51 323.51-7.72L323.51-7.72L323.51-11.34L323.51-11.34Q320.65-11.99 318.87-11.99L318.87-11.99L318.87-11.99Q315.47-11.99 315.47-8.96L315.47-8.96L315.47-8.96Q315.47-7.40 316.33-6.45L316.33-6.45L316.33-6.45Q317.20-5.51 318.60-5.51" fill="#000000" stroke="none" stroke-width="none" transform="translate(-170.07496309280396,15.388229815165195)" style="fill: rgb(194, 157, 80);"></path></g><g class="path" style="opacity: 1; transform-origin: 169.885px -5.51177px; animation: 1s linear 0s infinite normal forwards running blink-22074f8f-14c4-4ffe-8e85-3fcefd4f19fa;"><path d="M336.26-40.45L343.66-41.80L342.95-14.04L343.55-1.35L336.26 0L336.91-13.12L336.26-40.45" fill="#000000" stroke="none" stroke-width="none" transform="translate(-170.07496309280396,15.388229815165195)" style="fill: rgb(0, 0, 0);"></path></g></g>
</g>
</g>
<style id="blink-22074f8f-14c4-4ffe-8e85-3fcefd4f19fa" data-anikit="">@keyframes blink-22074f8f-14c4-4ffe-8e85-3fcefd4f19fa {
  0% { opacity: 1; }
  49.75% { opacity: 1; }
  50.25% { opacity: 0; }
  99.5% { opacity: 0; }
  100% { opacity: 1; }
}</style></svg>