<svg xmlns="http://www.w3.org/2000/svg" xmlns:xlink="http://www.w3.org/1999/xlink" zoomAndPan="magnify" preserveAspectRatio="xMidYMid meet" version="1.0" viewBox="-37.5 -37.5 450 450"><defs><filter x="0%" y="0%" width="100%" height="100%" id="7d60885c9e"><feColorMatrix values="0 0 0 0 1 0 0 0 0 1 0 0 0 0 1 0 0 0 1 0" color-interpolation-filters="sRGB"/></filter><g/><mask id="721e100938"><g filter="url(#7d60885c9e)"><rect x="-37.5" width="450" fill="#000000" y="-37.499999" height="449.999989" fill-opacity="0.298"/></g></mask><clipPath id="3846e1eb7a"><path d="M 1 64 L 10 64 L 10 76.625 L 1 76.625 Z M 1 64 " clip-rule="nonzero"/></clipPath><clipPath id="1bc67ee74f"><path d="M 55 0.875 L 69 0.875 L 69 14 L 55 14 Z M 55 0.875 " clip-rule="nonzero"/></clipPath><clipPath id="73bc9ff986"><rect x="0" width="70" y="0" height="77"/></clipPath></defs><g mask="url(#721e100938)"><g transform="matrix(1, 0, 0, 1, 157, 146)"><g clip-path="url(#73bc9ff986)"><path fill="#000000" d="M 5.875 64.425781 L 6.117188 64.902344 L 20.078125 50.898438 L 19.039062 49.859375 L 4.703125 64.238281 C 4.703125 64.238281 4.703125 64.242188 4.699219 64.242188 C 4.835938 64.105469 5.023438 64.019531 5.222656 64.019531 C 5.5 64.019531 5.75 64.175781 5.875 64.425781 " fill-opacity="1" fill-rule="nonzero"/><path fill="#000000" d="M 4.59375 64.386719 C 4.609375 64.355469 4.628906 64.328125 4.652344 64.300781 C 4.628906 64.328125 4.609375 64.359375 4.59375 64.386719 " fill-opacity="1" fill-rule="nonzero"/><g clip-path="url(#3846e1eb7a)"><path fill="#000000" d="M 8.960938 70.515625 L 6.117188 64.902344 L 5.742188 65.28125 C 5.6875 65.335938 5.621094 65.378906 5.554688 65.414062 L 8.304688 70.847656 C 9.167969 72.554688 8.488281 74.644531 6.785156 75.511719 C 5.085938 76.378906 3.003906 75.695312 2.140625 73.988281 C 1.621094 72.96875 1.667969 71.796875 2.140625 70.847656 L 4.890625 65.410156 C 4.824219 65.378906 4.761719 65.335938 4.703125 65.28125 C 4.464844 65.039062 4.429688 64.671875 4.59375 64.386719 C 4.585938 64.402344 4.574219 64.410156 4.566406 64.425781 L 1.484375 70.519531 C 0.882812 71.71875 0.886719 73.140625 1.484375 74.320312 C 2.203125 75.742188 3.636719 76.625 5.226562 76.625 C 5.878906 76.625 6.53125 76.464844 7.121094 76.167969 C 9.179688 75.117188 10.003906 72.582031 8.960938 70.515625 " fill-opacity="1" fill-rule="nonzero"/></g><path fill="#000000" d="M 4.652344 64.300781 C 4.667969 64.28125 4.683594 64.261719 4.699219 64.242188 C 4.683594 64.261719 4.667969 64.28125 4.652344 64.300781 " fill-opacity="1" fill-rule="nonzero"/><path fill="#000000" d="M 4.703125 65.28125 C 4.761719 65.335938 4.824219 65.378906 4.890625 65.410156 L 5.222656 64.757812 L 5.554688 65.414062 C 5.621094 65.378906 5.6875 65.335938 5.742188 65.28125 L 6.117188 64.902344 L 5.875 64.425781 C 5.75 64.175781 5.5 64.019531 5.222656 64.019531 C 5.023438 64.019531 4.835938 64.105469 4.699219 64.242188 C 4.683594 64.261719 4.667969 64.28125 4.652344 64.300781 C 4.628906 64.328125 4.609375 64.355469 4.59375 64.386719 C 4.429688 64.671875 4.464844 65.039062 4.703125 65.28125 " fill-opacity="1" fill-rule="nonzero"/><path fill="#000000" d="M 6.453125 74.851562 C 6.066406 75.050781 5.652344 75.148438 5.226562 75.148438 C 4.191406 75.148438 3.261719 74.578125 2.792969 73.65625 C 2.40625 72.886719 2.40625 71.960938 2.792969 71.183594 L 5.222656 66.386719 L 7.648438 71.183594 C 8.328125 72.523438 7.792969 74.171875 6.453125 74.851562 Z M 4.890625 65.410156 L 2.140625 70.847656 C 1.667969 71.796875 1.621094 72.96875 2.140625 73.988281 C 3.003906 75.695312 5.085938 76.378906 6.785156 75.511719 C 8.488281 74.644531 9.167969 72.554688 8.304688 70.847656 L 5.554688 65.414062 C 5.449219 65.464844 5.335938 65.496094 5.222656 65.496094 C 5.109375 65.496094 4.996094 65.464844 4.890625 65.410156 " fill-opacity="1" fill-rule="nonzero"/><path fill="#000000" d="M 4.890625 65.410156 C 4.996094 65.464844 5.109375 65.496094 5.222656 65.496094 C 5.335938 65.496094 5.449219 65.464844 5.554688 65.414062 L 5.222656 64.757812 L 4.890625 65.410156 " fill-opacity="1" fill-rule="nonzero"/><path fill="#000000" d="M 19.320312 49.097656 C 19.292969 49.070312 19.265625 49.039062 19.238281 49.007812 C 18.855469 48.535156 18.882812 47.84375 19.320312 47.402344 L 19.683594 47.039062 L 22.03125 44.683594 C 22.019531 44.671875 22.007812 44.664062 22 44.652344 C 21.847656 44.464844 21.722656 44.261719 21.625 44.050781 L 18.800781 46.882812 C 18.097656 47.585938 18.042969 48.703125 18.664062 49.46875 C 18.707031 49.519531 18.75 49.570312 18.800781 49.621094 L 19.039062 49.859375 L 19.558594 49.335938 L 19.320312 49.097656 " fill-opacity="1" fill-rule="nonzero"/><path fill="#000000" d="M 25.332031 47.996094 L 22.984375 50.347656 L 22.621094 50.710938 C 22.183594 51.152344 21.488281 51.179688 21.019531 50.796875 C 20.988281 50.769531 20.957031 50.742188 20.929688 50.710938 L 20.597656 50.378906 L 20.078125 50.898438 L 20.40625 51.230469 C 20.457031 51.28125 20.507812 51.328125 20.554688 51.367188 C 20.898438 51.644531 21.332031 51.800781 21.773438 51.800781 C 22.289062 51.800781 22.777344 51.597656 23.140625 51.234375 L 25.964844 48.402344 C 25.75 48.300781 25.546875 48.175781 25.363281 48.023438 C 25.351562 48.015625 25.339844 48.003906 25.332031 47.996094 " fill-opacity="1" fill-rule="nonzero"/><path fill="#000000" d="M 20.597656 50.378906 L 19.558594 49.335938 L 19.039062 49.859375 L 20.078125 50.898438 L 20.597656 50.378906 " fill-opacity="1" fill-rule="nonzero"/><path fill="#000000" d="M 19.84375 48.582031 C 19.832031 48.570312 19.824219 48.5625 19.808594 48.542969 C 19.660156 48.359375 19.671875 48.09375 19.839844 47.921875 L 22.539062 45.214844 L 22.199219 44.871094 C 22.140625 44.8125 22.085938 44.75 22.03125 44.683594 L 19.683594 47.039062 L 19.320312 47.402344 C 18.882812 47.84375 18.855469 48.535156 19.238281 49.007812 C 19.265625 49.039062 19.292969 49.070312 19.320312 49.097656 L 19.558594 49.335938 L 20.078125 48.816406 L 19.84375 48.582031 " fill-opacity="1" fill-rule="nonzero"/><path fill="#000000" d="M 21.019531 50.796875 C 21.488281 51.179688 22.183594 51.152344 22.621094 50.710938 L 22.984375 50.347656 L 25.332031 47.996094 C 25.265625 47.941406 25.203125 47.882812 25.140625 47.824219 L 24.800781 47.484375 L 22.101562 50.191406 C 21.941406 50.355469 21.664062 50.371094 21.480469 50.222656 C 21.46875 50.210938 21.460938 50.203125 21.449219 50.191406 L 21.117188 49.859375 L 20.597656 50.378906 L 20.929688 50.710938 C 20.957031 50.742188 20.988281 50.769531 21.019531 50.796875 " fill-opacity="1" fill-rule="nonzero"/><path fill="#000000" d="M 20.078125 48.816406 L 19.558594 49.335938 L 20.597656 50.378906 L 21.117188 49.859375 L 20.078125 48.816406 " fill-opacity="1" fill-rule="nonzero"/><path fill="#000000" d="M 29.425781 46.632812 L 28.757812 47.304688 C 28.15625 47.910156 27.285156 48.085938 26.527344 47.835938 L 25.964844 48.402344 C 26.351562 48.585938 26.777344 48.683594 27.210938 48.683594 C 27.992188 48.683594 28.726562 48.378906 29.277344 47.824219 L 36.042969 41.039062 L 35.523438 40.515625 L 29.425781 46.632812 " fill-opacity="1" fill-rule="nonzero"/><path fill="#000000" d="M 22.71875 41.246094 L 29.484375 34.460938 L 28.964844 33.9375 L 22.199219 40.722656 C 21.308594 41.621094 21.105469 42.953125 21.625 44.050781 L 22.1875 43.484375 C 21.9375 42.722656 22.117188 41.851562 22.71875 41.246094 " fill-opacity="1" fill-rule="nonzero"/><path fill="#000000" d="M 24.496094 46.132812 C 24.503906 46.332031 24.433594 46.53125 24.285156 46.683594 L 24.144531 46.820312 L 24.800781 47.484375 L 25.320312 46.960938 L 24.496094 46.132812 " fill-opacity="1" fill-rule="nonzero"/><path fill="#000000" d="M 23.242188 45.640625 C 23.394531 45.488281 23.59375 45.417969 23.792969 45.429688 L 23.058594 44.691406 L 22.539062 45.214844 L 23.105469 45.78125 L 23.242188 45.640625 " fill-opacity="1" fill-rule="nonzero"/><path fill="#000000" d="M 23.242188 45.640625 L 23.105469 45.78125 L 24.144531 46.820312 L 24.285156 46.683594 C 24.433594 46.53125 24.503906 46.332031 24.496094 46.132812 L 23.792969 45.429688 C 23.59375 45.417969 23.394531 45.488281 23.242188 45.640625 " fill-opacity="1" fill-rule="nonzero"/><path fill="#000000" d="M 22.03125 44.683594 L 22.550781 44.160156 C 22.386719 43.957031 22.265625 43.726562 22.1875 43.484375 L 21.625 44.050781 C 21.722656 44.261719 21.847656 44.464844 22 44.652344 C 22.007812 44.664062 22.019531 44.671875 22.03125 44.683594 " fill-opacity="1" fill-rule="nonzero"/><path fill="#000000" d="M 25.851562 47.472656 L 25.332031 47.996094 C 25.339844 48.003906 25.351562 48.015625 25.363281 48.023438 C 25.546875 48.175781 25.75 48.300781 25.964844 48.402344 L 26.527344 47.835938 C 26.289062 47.757812 26.058594 47.636719 25.851562 47.472656 " fill-opacity="1" fill-rule="nonzero"/><path fill="#000000" d="M 25.660156 47.304688 L 25.320312 46.960938 L 24.800781 47.484375 L 25.140625 47.824219 C 25.203125 47.882812 25.265625 47.941406 25.332031 47.996094 L 25.851562 47.472656 C 25.84375 47.464844 25.835938 47.460938 25.828125 47.453125 C 25.769531 47.40625 25.714844 47.359375 25.660156 47.304688 " fill-opacity="1" fill-rule="nonzero"/><path fill="#000000" d="M 22.539062 45.214844 L 23.058594 44.691406 L 22.71875 44.351562 C 22.667969 44.296875 22.617188 44.242188 22.570312 44.183594 C 22.5625 44.175781 22.558594 44.167969 22.550781 44.160156 L 22.03125 44.683594 C 22.085938 44.75 22.140625 44.8125 22.199219 44.871094 L 22.539062 45.214844 " fill-opacity="1" fill-rule="nonzero"/><path fill="#000000" d="M 28.238281 46.78125 C 27.964844 47.058594 27.597656 47.210938 27.210938 47.210938 C 27.191406 47.210938 27.175781 47.207031 27.15625 47.207031 L 26.527344 47.835938 C 27.285156 48.085938 28.15625 47.910156 28.757812 47.304688 L 35.523438 40.515625 L 35.003906 39.996094 L 28.238281 46.78125 " fill-opacity="1" fill-rule="nonzero"/><path fill="#000000" d="M 23.238281 41.769531 L 30.003906 34.980469 L 29.484375 34.460938 L 22.71875 41.246094 C 22.117188 41.851562 21.9375 42.722656 22.1875 43.484375 L 22.816406 42.851562 C 22.804688 42.460938 22.941406 42.066406 23.238281 41.769531 " fill-opacity="1" fill-rule="nonzero"/><path fill="#000000" d="M 24.285156 45.640625 C 24.417969 45.777344 24.488281 45.953125 24.496094 46.132812 L 25.320312 46.960938 L 25.839844 46.441406 L 23.578125 44.171875 L 23.058594 44.691406 L 23.792969 45.429688 C 23.96875 45.433594 24.148438 45.503906 24.285156 45.640625 " fill-opacity="1" fill-rule="nonzero"/><path fill="#000000" d="M 23.792969 45.429688 L 24.496094 46.132812 C 24.488281 45.953125 24.417969 45.777344 24.285156 45.640625 C 24.148438 45.503906 23.96875 45.433594 23.792969 45.429688 " fill-opacity="1" fill-rule="nonzero"/><path fill="#000000" d="M 22.816406 42.851562 L 22.1875 43.484375 C 22.265625 43.726562 22.386719 43.957031 22.550781 44.160156 L 23.082031 43.632812 C 22.914062 43.394531 22.828125 43.125 22.816406 42.851562 " fill-opacity="1" fill-rule="nonzero"/><path fill="#000000" d="M 26.378906 46.941406 L 25.851562 47.472656 C 26.058594 47.636719 26.289062 47.757812 26.527344 47.835938 L 27.15625 47.207031 C 26.878906 47.195312 26.609375 47.101562 26.378906 46.941406 " fill-opacity="1" fill-rule="nonzero"/><path fill="#000000" d="M 26.292969 46.882812 C 26.253906 46.851562 26.21875 46.820312 26.183594 46.78125 L 25.839844 46.441406 L 25.320312 46.960938 L 25.660156 47.304688 C 25.714844 47.359375 25.769531 47.40625 25.828125 47.453125 C 25.835938 47.460938 25.84375 47.464844 25.851562 47.472656 L 26.378906 46.941406 C 26.351562 46.921875 26.320312 46.90625 26.292969 46.882812 " fill-opacity="1" fill-rule="nonzero"/><path fill="#000000" d="M 22.71875 44.351562 L 23.058594 44.691406 L 23.578125 44.171875 L 23.238281 43.832031 C 23.203125 43.796875 23.171875 43.757812 23.140625 43.71875 C 23.117188 43.691406 23.101562 43.660156 23.082031 43.632812 L 22.550781 44.160156 C 22.558594 44.167969 22.5625 44.175781 22.570312 44.183594 C 22.617188 44.242188 22.667969 44.296875 22.71875 44.351562 " fill-opacity="1" fill-rule="nonzero"/><path fill="#000000" d="M 60.496094 14.523438 C 60.675781 14.703125 60.75 14.964844 60.691406 15.214844 L 60.640625 15.417969 L 63.605469 12.441406 L 63.085938 11.921875 L 60.496094 14.523438 " fill-opacity="1" fill-rule="nonzero"/><path fill="#000000" d="M 55.308594 9.316406 L 57.898438 6.71875 L 57.378906 6.195312 L 54.414062 9.171875 L 54.613281 9.121094 C 54.863281 9.0625 55.125 9.132812 55.308594 9.316406 " fill-opacity="1" fill-rule="nonzero"/><path fill="#000000" d="M 63.085938 11.921875 L 62.570312 11.402344 L 59.976562 14 L 55.824219 9.835938 L 58.417969 7.238281 L 57.898438 6.71875 L 55.308594 9.316406 L 60.496094 14.523438 L 63.085938 11.921875 " fill-opacity="1" fill-rule="nonzero"/><path fill="#000000" d="M 29.304688 33.238281 L 49.484375 12.996094 C 49.347656 12.859375 49.269531 12.671875 49.269531 12.476562 C 49.269531 12.28125 49.347656 12.09375 49.484375 11.957031 L 49.691406 11.75 C 49.691406 11.75 49.6875 11.75 49.6875 11.75 L 28.785156 32.71875 C 28.648438 32.855469 28.570312 33.042969 28.570312 33.238281 C 28.570312 33.433594 28.648438 33.621094 28.785156 33.757812 L 28.964844 33.9375 L 29.484375 33.417969 L 29.304688 33.238281 " fill-opacity="1" fill-rule="nonzero"/><path fill="#000000" d="M 57.347656 20.578125 C 57.160156 20.578125 56.96875 20.507812 56.828125 20.363281 L 36.648438 40.601562 L 36.5625 40.515625 L 36.042969 41.039062 L 36.128906 41.125 C 36.273438 41.269531 36.460938 41.339844 36.648438 41.339844 C 36.835938 41.339844 37.023438 41.269531 37.167969 41.125 L 58.070312 20.15625 L 57.867188 20.363281 C 57.722656 20.507812 57.535156 20.578125 57.347656 20.578125 " fill-opacity="1" fill-rule="nonzero"/><path fill="#000000" d="M 35.523438 39.476562 L 30.523438 34.460938 L 30.003906 34.980469 L 35.003906 39.996094 L 35.523438 39.476562 " fill-opacity="1" fill-rule="nonzero"/><path fill="#000000" d="M 30.003906 33.9375 L 29.484375 33.417969 L 28.964844 33.9375 L 29.484375 34.460938 L 30.003906 33.9375 " fill-opacity="1" fill-rule="nonzero"/><path fill="#000000" d="M 36.042969 39.996094 L 35.523438 40.515625 L 36.042969 41.039062 L 36.5625 40.515625 L 36.042969 39.996094 " fill-opacity="1" fill-rule="nonzero"/><path fill="#000000" d="M 30.523438 34.460938 L 30.003906 33.9375 L 29.484375 34.460938 L 30.003906 34.980469 L 30.523438 34.460938 " fill-opacity="1" fill-rule="nonzero"/><path fill="#000000" d="M 35.003906 39.996094 L 35.523438 40.515625 L 36.042969 39.996094 L 35.523438 39.476562 L 35.003906 39.996094 " fill-opacity="1" fill-rule="nonzero"/><path fill="#000000" d="M 35.285156 28.28125 L 50.003906 13.519531 L 49.484375 12.996094 L 29.304688 33.238281 L 29.484375 33.417969 L 33.8125 29.078125 C 34.222656 28.667969 34.730469 28.394531 35.285156 28.28125 " fill-opacity="1" fill-rule="nonzero"/><path fill="#000000" d="M 56.308594 19.839844 L 41.71875 34.476562 C 41.640625 35.097656 41.367188 35.699219 40.890625 36.179688 L 36.5625 40.515625 L 36.648438 40.601562 L 56.828125 20.363281 L 56.308594 19.839844 " fill-opacity="1" fill-rule="nonzero"/><path fill="#000000" d="M 36.042969 38.953125 L 31.042969 33.9375 L 30.523438 34.460938 L 35.523438 39.476562 L 36.042969 38.953125 " fill-opacity="1" fill-rule="nonzero"/><path fill="#000000" d="M 41.71875 34.476562 L 36.648438 39.558594 L 36.5625 39.476562 L 36.042969 39.996094 L 36.5625 40.515625 L 40.890625 36.179688 C 41.367188 35.699219 41.640625 35.097656 41.71875 34.476562 " fill-opacity="1" fill-rule="nonzero"/><path fill="#000000" d="M 30.34375 33.238281 L 35.285156 28.28125 C 34.730469 28.394531 34.222656 28.667969 33.8125 29.078125 L 29.484375 33.417969 L 30.003906 33.9375 L 30.523438 33.417969 L 30.34375 33.238281 " fill-opacity="1" fill-rule="nonzero"/><path fill="#000000" d="M 36.042969 38.953125 L 35.523438 39.476562 L 36.042969 39.996094 L 36.5625 39.476562 L 36.042969 38.953125 " fill-opacity="1" fill-rule="nonzero"/><path fill="#000000" d="M 31.042969 33.9375 L 30.523438 33.417969 L 30.003906 33.9375 L 30.523438 34.460938 L 31.042969 33.9375 " fill-opacity="1" fill-rule="nonzero"/><path fill="#000000" d="M 39.789062 27.171875 C 39.933594 27.316406 40.121094 27.386719 40.308594 27.386719 C 40.496094 27.386719 40.6875 27.316406 40.828125 27.171875 C 41.117188 26.882812 41.117188 26.417969 40.828125 26.128906 L 39.753906 25.050781 C 39.46875 24.761719 39.003906 24.761719 38.714844 25.046875 C 38.429688 25.335938 38.429688 25.804688 38.714844 26.09375 L 39.789062 27.171875 " fill-opacity="1" fill-rule="nonzero"/><path fill="#000000" d="M 41.640625 25.3125 C 41.785156 25.457031 41.972656 25.527344 42.160156 25.527344 C 42.347656 25.527344 42.539062 25.457031 42.679688 25.3125 C 42.96875 25.027344 42.96875 24.558594 42.679688 24.273438 L 41.605469 23.191406 C 41.320312 22.90625 40.855469 22.90625 40.566406 23.191406 C 40.28125 23.480469 40.28125 23.945312 40.566406 24.234375 L 41.640625 25.3125 " fill-opacity="1" fill-rule="nonzero"/><path fill="#000000" d="M 43.492188 23.457031 C 43.636719 23.597656 43.824219 23.671875 44.011719 23.671875 C 44.199219 23.671875 44.390625 23.597656 44.53125 23.457031 C 44.820312 23.167969 44.820312 22.699219 44.53125 22.414062 L 43.457031 21.335938 C 43.167969 21.046875 42.703125 21.046875 42.417969 21.335938 C 42.132812 21.621094 42.132812 22.089844 42.417969 22.378906 L 43.492188 23.457031 " fill-opacity="1" fill-rule="nonzero"/><path fill="#000000" d="M 45.34375 21.597656 C 45.488281 21.742188 45.675781 21.816406 45.863281 21.816406 C 46.050781 21.816406 46.242188 21.742188 46.382812 21.597656 C 46.671875 21.308594 46.671875 20.84375 46.382812 20.554688 L 45.308594 19.476562 C 45.023438 19.191406 44.558594 19.191406 44.269531 19.476562 C 43.984375 19.765625 43.984375 20.230469 44.269531 20.519531 L 45.34375 21.597656 " fill-opacity="1" fill-rule="nonzero"/><path fill="#000000" d="M 47.195312 19.742188 C 47.339844 19.886719 47.527344 19.957031 47.714844 19.957031 C 47.90625 19.957031 48.09375 19.886719 48.234375 19.742188 C 48.523438 19.453125 48.523438 18.988281 48.234375 18.699219 L 47.160156 17.621094 C 46.875 17.332031 46.40625 17.332031 46.121094 17.621094 C 45.835938 17.90625 45.835938 18.375 46.121094 18.664062 L 47.195312 19.742188 " fill-opacity="1" fill-rule="nonzero"/><path fill="#000000" d="M 50.726562 11.75 L 51.945312 10.527344 L 54.074219 10.011719 C 54.0625 9.953125 54.050781 9.894531 54.050781 9.835938 C 54.050781 9.640625 54.128906 9.453125 54.269531 9.316406 L 54.414062 9.171875 L 51.773438 9.8125 C 51.640625 9.84375 51.523438 9.910156 51.425781 10.007812 L 49.691406 11.75 C 49.976562 11.460938 50.441406 11.464844 50.726562 11.75 " fill-opacity="1" fill-rule="nonzero"/><path fill="#000000" d="M 59.976562 15.777344 C 59.917969 15.777344 59.863281 15.769531 59.804688 15.757812 L 59.289062 17.894531 L 58.070312 19.117188 C 58.207031 19.253906 58.285156 19.441406 58.285156 19.636719 C 58.285156 19.832031 58.207031 20.019531 58.070312 20.15625 L 59.808594 18.414062 C 59.902344 18.316406 59.972656 18.199219 60.003906 18.066406 L 60.640625 15.417969 L 60.496094 15.5625 C 60.351562 15.707031 60.164062 15.777344 59.976562 15.777344 " fill-opacity="1" fill-rule="nonzero"/><path fill="#000000" d="M 60.496094 14.523438 L 59.976562 15.042969 L 59.804688 15.757812 C 59.863281 15.769531 59.917969 15.777344 59.976562 15.777344 C 60.164062 15.777344 60.351562 15.707031 60.496094 15.5625 L 60.640625 15.417969 L 60.691406 15.214844 C 60.75 14.964844 60.675781 14.703125 60.496094 14.523438 " fill-opacity="1" fill-rule="nonzero"/><path fill="#000000" d="M 54.050781 9.835938 C 54.050781 9.894531 54.0625 9.953125 54.074219 10.011719 L 54.789062 9.835938 L 55.308594 9.316406 C 55.125 9.132812 54.863281 9.0625 54.613281 9.121094 L 54.414062 9.171875 L 54.269531 9.316406 C 54.128906 9.453125 54.050781 9.640625 54.050781 9.835938 " fill-opacity="1" fill-rule="nonzero"/><path fill="#000000" d="M 60.496094 14.523438 L 55.308594 9.316406 L 54.789062 9.835938 L 59.976562 15.042969 L 60.496094 14.523438 " fill-opacity="1" fill-rule="nonzero"/><path fill="#000000" d="M 56.511719 19.636719 L 50.207031 13.3125 L 50.003906 13.519531 L 56.308594 19.839844 L 56.511719 19.636719 " fill-opacity="1" fill-rule="nonzero"/><path fill="#000000" d="M 58.070312 19.117188 L 57.550781 19.636719 L 56.828125 20.363281 C 56.96875 20.507812 57.160156 20.578125 57.347656 20.578125 C 57.535156 20.578125 57.722656 20.507812 57.867188 20.363281 L 58.070312 20.15625 C 58.207031 20.019531 58.285156 19.832031 58.285156 19.636719 C 58.285156 19.441406 58.207031 19.253906 58.070312 19.117188 " fill-opacity="1" fill-rule="nonzero"/><path fill="#000000" d="M 49.269531 12.476562 C 49.269531 12.671875 49.347656 12.859375 49.484375 12.996094 L 50.207031 12.273438 L 50.726562 11.75 C 50.441406 11.464844 49.976562 11.460938 49.691406 11.75 L 49.484375 11.957031 C 49.347656 12.09375 49.269531 12.28125 49.269531 12.476562 " fill-opacity="1" fill-rule="nonzero"/><path fill="#000000" d="M 50.003906 13.519531 L 50.207031 13.3125 L 56.511719 19.636719 L 56.308594 19.839844 L 56.828125 20.363281 L 57.550781 19.636719 L 57.347656 19.839844 L 50.003906 12.476562 L 50.207031 12.273438 L 49.484375 12.996094 L 50.003906 13.519531 " fill-opacity="1" fill-rule="nonzero"/><path fill="#000000" d="M 52.320312 11.195312 L 54.558594 10.652344 L 58.933594 15.039062 L 54.269531 10.359375 C 54.171875 10.261719 54.109375 10.140625 54.074219 10.011719 L 51.945312 10.527344 L 50.726562 11.75 L 51.246094 12.273438 L 52.320312 11.195312 " fill-opacity="1" fill-rule="nonzero"/><path fill="#000000" d="M 59.167969 15.269531 L 58.625 17.519531 L 57.550781 18.59375 L 58.070312 19.117188 L 59.289062 17.894531 L 59.804688 15.757812 C 59.675781 15.726562 59.554688 15.664062 59.457031 15.5625 L 59.167969 15.269531 " fill-opacity="1" fill-rule="nonzero"/><path fill="#000000" d="M 58.933594 15.039062 L 59.457031 15.5625 C 59.554688 15.664062 59.675781 15.726562 59.804688 15.757812 L 59.976562 15.042969 L 54.789062 9.835938 L 54.074219 10.011719 C 54.109375 10.140625 54.171875 10.261719 54.269531 10.359375 L 58.933594 15.039062 " fill-opacity="1" fill-rule="nonzero"/><path fill="#000000" d="M 58.070312 19.117188 L 57.550781 18.59375 L 57.347656 18.800781 L 51.042969 12.476562 L 51.246094 12.273438 L 50.726562 11.75 L 50.207031 12.273438 L 57.550781 19.636719 L 58.070312 19.117188 " fill-opacity="1" fill-rule="nonzero"/><path fill="#000000" d="M 57.347656 19.839844 L 57.550781 19.636719 L 50.207031 12.273438 L 50.003906 12.476562 L 57.347656 19.839844 " fill-opacity="1" fill-rule="nonzero"/><g clip-path="url(#1bc67ee74f)"><path fill="#000000" d="M 57.046875 4.820312 C 56.507812 4.28125 56.507812 3.40625 57.046875 2.863281 L 57.464844 2.441406 L 57.886719 2.019531 C 58.425781 1.480469 59.300781 1.480469 59.839844 2.019531 L 67.769531 9.976562 C 68.308594 10.515625 68.308594 11.390625 67.769531 11.933594 L 66.929688 12.777344 C 66.390625 13.316406 65.515625 13.316406 64.976562 12.777344 L 64.125 11.921875 L 63.605469 12.441406 L 64.457031 13.296875 C 64.859375 13.699219 65.386719 13.917969 65.953125 13.917969 C 66.519531 13.917969 67.050781 13.699219 67.449219 13.296875 L 68.289062 12.457031 C 68.6875 12.054688 68.90625 11.523438 68.90625 10.953125 C 68.90625 10.386719 68.6875 9.855469 68.289062 9.453125 L 60.359375 1.5 C 59.957031 1.097656 59.425781 0.878906 58.863281 0.878906 C 58.296875 0.878906 57.765625 1.097656 57.367188 1.5 L 56.527344 2.339844 C 55.703125 3.167969 55.703125 4.515625 56.527344 5.34375 L 57.378906 6.195312 L 57.898438 5.675781 L 57.046875 4.820312 " fill-opacity="1" fill-rule="nonzero"/></g><path fill="#000000" d="M 58.417969 7.238281 L 62.570312 11.402344 L 58.417969 7.238281 " fill-opacity="1" fill-rule="nonzero"/><path fill="#000000" d="M 63.605469 11.402344 L 63.085938 11.921875 L 63.605469 12.441406 L 64.125 11.921875 L 63.605469 11.402344 " fill-opacity="1" fill-rule="nonzero"/><path fill="#000000" d="M 58.417969 6.195312 L 57.898438 5.675781 L 57.378906 6.195312 L 57.898438 6.71875 L 58.417969 6.195312 " fill-opacity="1" fill-rule="nonzero"/><path fill="#000000" d="M 58.417969 7.238281 L 62.570312 11.402344 L 63.085938 11.921875 L 63.605469 11.402344 L 58.417969 6.195312 L 57.898438 6.71875 L 58.417969 7.238281 " fill-opacity="1" fill-rule="nonzero"/><path fill="#000000" d="M 58.9375 5.675781 L 57.566406 4.300781 C 57.316406 4.046875 57.316406 3.636719 57.566406 3.386719 L 58.40625 2.542969 C 58.527344 2.421875 58.691406 2.351562 58.863281 2.351562 C 59.035156 2.351562 59.195312 2.421875 59.320312 2.542969 L 67.25 10.496094 C 67.371094 10.617188 67.4375 10.78125 67.4375 10.953125 C 67.4375 11.128906 67.371094 11.289062 67.25 11.414062 L 66.410156 12.253906 C 66.167969 12.5 65.742188 12.5 65.496094 12.257812 L 64.125 10.878906 C 64.414062 11.167969 64.414062 11.632812 64.125 11.921875 L 64.976562 12.777344 C 65.515625 13.316406 66.390625 13.316406 66.929688 12.777344 L 67.769531 11.933594 C 68.308594 11.390625 68.308594 10.515625 67.769531 9.976562 L 59.839844 2.019531 C 59.300781 1.480469 58.425781 1.480469 57.886719 2.019531 L 57.464844 2.441406 L 57.046875 2.863281 C 56.507812 3.40625 56.507812 4.28125 57.046875 4.820312 L 57.898438 5.675781 C 58.183594 5.386719 58.648438 5.386719 58.9375 5.675781 " fill-opacity="1" fill-rule="nonzero"/><path fill="#000000" d="M 63.605469 11.402344 L 64.125 11.921875 C 64.414062 11.632812 64.414062 11.167969 64.125 10.878906 L 58.9375 5.675781 C 58.648438 5.386719 58.183594 5.386719 57.898438 5.675781 L 58.417969 6.195312 L 63.605469 11.402344 " fill-opacity="1" fill-rule="nonzero"/><path fill="#000000" d="M 58.417969 6.195312 L 63.605469 11.402344 Z M 58.417969 6.195312 " fill-opacity="1" fill-rule="nonzero"/></g></g></g><g fill="#000000" fill-opacity="1"><g transform="translate(118.401141, 150.508804)"><g><path d="M -7.144531 -10.3125 L -8.644531 -8.351562 L 0.84375 -1.101562 L 2.34375 -3.066406 Z M -7.144531 -10.3125 "/></g></g></g><g fill="#000000" fill-opacity="1"><g transform="translate(127.264491, 139.728834)"><g><path d="M -2.449219 -8.742188 L 7.078125 -6.058594 L 8.988281 -7.695312 L 1.222656 -16.765625 L -0.628906 -15.175781 L 4.4375 -9.257812 L -4.570312 -11.804688 L -6.710938 -9.972656 L 1.054688 -0.902344 L 2.90625 -2.488281 Z M -2.449219 -8.742188 "/></g></g></g><g fill="#000000" fill-opacity="1"><g transform="translate(144.567029, 126.515337)"><g><path d="M 5.625 -6.96875 L 1.828125 -14.359375 L -0.367188 -13.230469 L 3.34375 -6.003906 C 3.816406 -5.082031 3.558594 -4.3125 2.746094 -3.894531 C 2.109375 -3.570312 1.378906 -3.65625 0.621094 -4.332031 L -0.707031 -2.34375 C 0.703125 -1.132812 2.28125 -1 3.867188 -1.816406 C 5.765625 -2.789062 6.761719 -4.757812 5.625 -6.96875 Z M 5.625 -6.96875 "/></g></g></g><g fill="#000000" fill-opacity="1"><g transform="translate(161.079426, 119.045459)"><g><path d="M -1.707031 -11.898438 L 1.339844 -0.355469 L 8.933594 -2.359375 L 8.34375 -4.585938 L 3.113281 -3.203125 L 2.453125 -5.695312 L 7.113281 -6.925781 L 6.519531 -9.164062 L 1.863281 -7.933594 L 1.242188 -10.28125 L 6.445312 -11.652344 L 5.855469 -13.894531 Z M -1.707031 -11.898438 "/></g></g></g><g fill="#000000" fill-opacity="1"><g transform="translate(179.331091, 115.106283)"><g><path d="M 0.511719 -5.976562 C 0.59375 -2.5 3.328125 0.0859375 6.800781 0.00390625 C 9.148438 -0.0546875 11.449219 -1.40625 12.21875 -3.683594 L 9.921875 -4.679688 C 9.4375 -3.371094 8.269531 -2.425781 6.773438 -2.390625 C 4.65625 -2.339844 3.121094 -3.996094 3.070312 -6.070312 C 3.023438 -8.109375 4.519531 -9.824219 6.59375 -9.875 C 8.085938 -9.910156 9.28125 -9.101562 9.816406 -7.800781 L 12.046875 -8.894531 C 11.183594 -11.113281 8.898438 -12.339844 6.550781 -12.285156 C 3.136719 -12.203125 0.425781 -9.421875 0.511719 -5.976562 Z M 0.511719 -5.976562 "/></g></g></g><g fill="#000000" fill-opacity="1"><g transform="translate(200.543341, 115.738715)"><g><path d="M 3.816406 0.816406 L 6.21875 1.328125 L 8.214844 -8.003906 L 11.71875 -7.253906 L 12.21875 -9.597656 L 2.808594 -11.609375 L 2.308594 -9.265625 L 5.8125 -8.519531 Z M 3.816406 0.816406 "/></g></g></g><g fill="#000000" fill-opacity="1"><g transform="translate(218.861466, 120.769177)"><g><path d="M 8.242188 -9.457031 L 5.972656 -10.429688 L 1.277344 0.546875 L 3.546875 1.519531 Z M 8.242188 -9.457031 "/></g></g></g><g fill="#000000" fill-opacity="1"><g transform="translate(231.489047, 126.690414)"><g><path d="M 3.984375 -4.480469 C 1.992188 -1.671875 2.667969 2.117188 5.464844 4.101562 C 8.261719 6.089844 12.117188 5.476562 14.128906 2.644531 C 16.113281 -0.15625 15.433594 -3.910156 12.636719 -5.894531 C 9.839844 -7.882812 5.972656 -7.28125 3.984375 -4.480469 Z M 6.058594 -3.03125 C 7.25 -4.707031 9.546875 -5.152344 11.226562 -3.960938 C 12.90625 -2.769531 13.242188 -0.453125 12.050781 1.222656 C 10.859375 2.902344 8.554688 3.359375 6.875 2.167969 C 5.195312 0.976562 4.867188 -1.351562 6.058594 -3.03125 Z M 6.058594 -3.03125 "/></g></g></g><g fill="#000000" fill-opacity="1"><g transform="translate(248.88085, 140.402077)"><g><path d="M 8.769531 -2.347656 L 5.976562 7.144531 L 7.589844 9.074219 L 16.75 1.414062 L 15.183594 -0.457031 L 9.207031 4.542969 L 11.859375 -4.433594 L 10.046875 -6.59375 L 0.890625 1.0625 L 2.457031 2.9375 Z M 8.769531 -2.347656 "/></g></g></g><g fill="#000000" fill-opacity="1"><g transform="translate(111.108419, 151.767876)"><g/></g></g><g fill="#000000" fill-opacity="1"><g transform="translate(106.398951, 164.028495)"><g><path d="M 9.84375 3.695312 L -0.316406 1.414062 L -1.164062 5.191406 C -1.59375 7.109375 -1.140625 8.96875 0.820312 9.410156 C 1.597656 9.585938 3.03125 9.386719 3.757812 7.972656 C 4.074219 9.539062 5.28125 9.933594 5.734375 10.035156 C 7.394531 10.410156 8.609375 9.195312 9.023438 7.339844 Z M 5.089844 3.730469 L 8.632812 4.527344 L 8.070312 7.03125 C 7.808594 8.199219 7.089844 9.210938 5.859375 8.933594 C 4.859375 8.707031 4.171875 7.832031 4.546875 6.15625 Z M 0.421875 2.683594 L 4.144531 3.519531 L 3.570312 6.074219 C 3.304688 7.257812 2.582031 8.660156 1.140625 8.335938 C -0.3125 8.011719 -0.445312 6.539062 -0.195312 5.433594 Z M 0.421875 2.683594 "/></g></g></g><g fill="#000000" fill-opacity="1"><g transform="translate(103.279148, 183.084079)"><g><path d="M 9.441406 7.917969 L 10.453125 7.914062 L 10.417969 1.398438 L 0.0078125 1.449219 L 0.0390625 8.019531 L 1.050781 8.011719 L 1.023438 2.535156 L 4.800781 2.515625 L 4.824219 7.476562 L 5.835938 7.472656 L 5.808594 2.511719 L 9.414062 2.492188 Z M 9.441406 7.917969 "/></g></g></g><g fill="#000000" fill-opacity="1"><g transform="translate(104.387465, 201.464195)"><g><path d="M 0.269531 1.125 L 3.121094 1.621094 L 4.4375 7.144531 L 2.113281 8.859375 L 2.382812 9.984375 L 11.46875 3.195312 L 11.179688 1.992188 L 0.0078125 0.0390625 Z M 5.308594 6.496094 L 4.1875 1.789062 L 10.21875 2.839844 Z M 5.308594 6.496094 "/></g></g></g><g fill="#000000" fill-opacity="1"><g transform="translate(110.123714, 220.553123)"><g><path d="M 13.433594 3.378906 L 12.9375 2.410156 L 7.21875 5.339844 C 5.492188 6.222656 4.039062 5.863281 3.21875 4.265625 C 2.484375 2.835938 2.683594 1.328125 4.707031 0.292969 L 10.363281 -2.609375 L 9.867188 -3.578125 L 4.164062 -0.65625 C 1.972656 0.46875 1.136719 2.449219 2.289062 4.699219 C 3.417969 6.898438 5.445312 7.472656 7.789062 6.273438 Z M 13.433594 3.378906 "/></g></g></g><g fill="#000000" fill-opacity="1"><g transform="translate(120.308914, 237.790214)"><g><path d="M 9.597656 -3.195312 L 2.433594 2.871094 L 3.144531 3.714844 L 10.308594 -2.351562 L 12.550781 0.296875 L 13.332031 -0.367188 L 8.125 -6.515625 L 7.34375 -5.855469 Z M 9.597656 -3.195312 "/></g></g></g><g fill="#000000" fill-opacity="1"><g transform="translate(132.808855, 250.989524)"><g><path d="M 7.023438 -0.238281 L 13.863281 -2.621094 L 12.863281 -3.371094 L 7.21875 -1.386719 L 7.574219 -7.335938 L 6.519531 -8.125 L 6.132812 -0.886719 L 3.5 2.625 L 4.382812 3.285156 Z M 7.023438 -0.238281 "/></g></g></g><g fill="#000000" fill-opacity="1"><g transform="translate(148.902652, 261.541408)"><g/></g></g><g fill="#000000" fill-opacity="1"><g transform="translate(160.98671, 266.6752)"><g><path d="M 3.527344 -3.429688 L 5.585938 -2.890625 L 7.484375 1.96875 L 8.769531 2.304688 L 6.777344 -2.769531 C 8.332031 -2.566406 9.847656 -3.199219 10.300781 -4.921875 C 10.710938 -6.492188 9.992188 -8.140625 7.535156 -8.785156 L 4.050781 -9.703125 L 1.402344 0.367188 L 2.457031 0.644531 Z M 3.78125 -4.394531 L 4.84375 -8.433594 L 7.210938 -7.8125 C 9.125 -7.308594 9.484375 -6.15625 9.222656 -5.164062 C 8.957031 -4.148438 7.949219 -3.300781 6.121094 -3.78125 Z M 3.78125 -4.394531 "/></g></g></g><g fill="#000000" fill-opacity="1"><g transform="translate(179.737091, 270.451288)"><g><path d="M 8.265625 -9.136719 L 8.300781 -10.148438 L 1.785156 -10.359375 L 1.449219 0.046875 L 8.015625 0.261719 L 8.046875 -0.75 L 2.570312 -0.925781 L 2.695312 -4.703125 L 7.652344 -4.542969 L 7.683594 -5.550781 L 2.726562 -5.710938 L 2.84375 -9.3125 Z M 8.265625 -9.136719 "/></g></g></g><g fill="#000000" fill-opacity="1"><g transform="translate(198.143153, 270.030489)"><g><path d="M -1.730469 -10.273438 L 4.410156 -0.875 L 5.609375 -1.113281 L 7.6875 -12.144531 L 6.527344 -11.914062 L 4.765625 -2.207031 L -0.542969 -10.507812 Z M -1.730469 -10.273438 "/></g></g></g><g fill="#000000" fill-opacity="1"><g transform="translate(217.409152, 265.081139)"><g><path d="M 7.84375 -9.539062 C 6.570312 -12.214844 3.558594 -13.34375 0.871094 -12.0625 C -1.855469 -10.765625 -2.859375 -7.679688 -1.574219 -4.980469 C -0.300781 -2.300781 2.710938 -1.171875 5.402344 -2.453125 C 8.125 -3.75 9.132812 -6.835938 7.84375 -9.539062 Z M 6.851562 -8.992188 C 7.851562 -6.890625 7.15625 -4.421875 4.996094 -3.394531 C 2.8125 -2.355469 0.429688 -3.398438 -0.582031 -5.523438 C -1.582031 -7.625 -0.886719 -10.09375 1.273438 -11.121094 C 3.457031 -12.164062 5.847656 -11.105469 6.851562 -8.992188 Z M 6.851562 -8.992188 "/></g></g></g><g fill="#000000" fill-opacity="1"><g transform="translate(236.17975, 254.645965)"><g><path d="M 1.339844 -2.390625 L -4.542969 -9.707031 L -5.390625 -9.023438 L 1.128906 -0.90625 L 5.824219 -4.679688 L 5.183594 -5.480469 Z M 1.339844 -2.390625 "/></g></g></g><g fill="#000000" fill-opacity="1"><g transform="translate(249.082028, 243.100449)"><g><path d="M -2.480469 -13.628906 L -3.15625 -12.773438 L 1.875 -8.78125 C 3.394531 -7.574219 3.667969 -6.101562 2.554688 -4.695312 C 1.554688 -3.433594 0.101562 -2.992188 -1.683594 -4.40625 L -6.660156 -8.355469 L -7.339844 -7.5 L -2.316406 -3.519531 C -0.390625 -1.988281 1.761719 -2.046875 3.332031 -4.027344 C 4.867188 -5.964844 4.550781 -8.050781 2.488281 -9.6875 Z M -2.480469 -13.628906 "/></g></g></g><g fill="#000000" fill-opacity="1"><g transform="translate(260.558283, 226.694863)"><g><path d="M -6.878906 -7.414062 L 1.609375 -3.402344 L 2.082031 -4.398438 L -6.40625 -8.414062 L -4.921875 -11.550781 L -5.847656 -11.988281 L -9.292969 -4.703125 L -8.367188 -4.265625 Z M -6.878906 -7.414062 "/></g></g></g><g fill="#000000" fill-opacity="1"><g transform="translate(267.243291, 210.001382)"><g><path d="M 0.636719 -2.457031 L -9.441406 -5.074219 L -9.714844 -4.019531 L 0.363281 -1.402344 Z M 0.636719 -2.457031 "/></g></g></g><g fill="#000000" fill-opacity="1"><g transform="translate(270.065437, 196.797842)"><g><path d="M -4.726562 -11.410156 C -7.691406 -11.542969 -10.101562 -9.414062 -10.238281 -6.441406 C -10.375 -3.425781 -8.125 -1.085938 -5.136719 -0.953125 C -2.171875 -0.816406 0.238281 -2.945312 0.375 -5.917969 C 0.511719 -8.933594 -1.738281 -11.273438 -4.726562 -11.410156 Z M -4.714844 -10.277344 C -2.386719 -10.171875 -0.539062 -8.398438 -0.648438 -6.007812 C -0.757812 -3.589844 -2.800781 -1.976562 -5.148438 -2.082031 C -7.476562 -2.1875 -9.324219 -3.960938 -9.214844 -6.355469 C -9.105469 -8.773438 -7.050781 -10.382812 -4.714844 -10.277344 Z M -4.714844 -10.277344 "/></g></g></g><g fill="#000000" fill-opacity="1"><g transform="translate(269.767309, 175.196111)"><g><path d="M -2.074219 -9.714844 L -12.257812 -7.539062 L -12.03125 -6.488281 L -3.527344 -8.304688 L -10.75 -0.480469 L -10.484375 0.757812 L -0.300781 -1.417969 L -0.527344 -2.472656 L -9.203125 -0.617188 L -1.828125 -8.570312 Z M -2.074219 -9.714844 "/></g></g></g><g fill="#000000" fill-opacity="1"><g transform="translate(264.112361, 155.168966)"><g/></g></g><g fill="#000000" fill-opacity="1"><g transform="translate(201.757178, 206.464903)"><g><path d="M 36.15625 -5.171875 L 36.15625 0 L 2.796875 0 L 12.140625 -13.90625 C 19.617188 -25.113281 24.273438 -32.019531 26.109375 -34.625 L 9.5625 -34.625 C 8.382812 -34.625 7.335938 -34.925781 6.421875 -35.53125 C 5.515625 -36.132812 5.0625 -36.945312 5.0625 -37.96875 L 5.0625 -41.703125 L 10 -41.703125 L 10 -41 C 10 -40.40625 10.109375 -40.046875 10.328125 -39.921875 C 10.546875 -39.796875 11.023438 -39.734375 11.765625 -39.734375 L 35.546875 -39.734375 L 11.984375 -5.171875 Z M 36.15625 -5.171875 "/></g></g></g><g fill="#000000" fill-opacity="1"><g transform="translate(136.022742, 206.464903)"><g><path d="M 31.546875 -39.734375 L 31.546875 -34.625 L 11.046875 -34.625 L 11.046875 -22.53125 L 29.34375 -22.53125 L 29.34375 -17.421875 L 11.046875 -17.421875 L 11.046875 -5.171875 L 32.3125 -5.171875 L 32.3125 0 L 5.71875 0 L 5.71875 -39.734375 Z M 31.546875 -39.734375 "/></g></g></g><path stroke-linecap="butt" transform="matrix(0.000000000000000046, -0.749107, 0.75, 0.000000000000000046, 186.746858, 231.803538)" fill="none" stroke-linejoin="miter" d="M -0.00153399 0.998981 L 118.14953 0.998981 " stroke="#000000" stroke-width="2" stroke-opacity="1" stroke-miterlimit="4"/></svg>