<svg xmlns="http://www.w3.org/2000/svg" xmlns:xlink="http://www.w3.org/1999/xlink" width="371.63" height="52.302" viewBox="0 0 371.63 52.302"><defs><clipPath id="clip-path"><rect id="Rectangle_7" data-name="Rectangle 7" width="371.63" height="52.302" fill="#f6f6f6"></rect></clipPath></defs><g id="Group_1" data-name="Group 1" clip-path="url(#clip-path)"><path id="Path_1" data-name="Path 1" d="M15.449,4.63A10.765,10.765,0,0,0,11.57,1.808,14.116,14.116,0,0,0,5.777.735H0V24.173H6.9a11.666,11.666,0,0,0,4.324-.809,11.278,11.278,0,0,0,3.647-2.328A10.985,10.985,0,0,0,17.4,17.389a11.949,11.949,0,0,0,.924-4.8,13,13,0,0,0-.693-4.126A11.5,11.5,0,0,0,15.449,4.63m.429,12.1a9.3,9.3,0,0,1-2.195,3.186,9.616,9.616,0,0,1-3.252,2.014,11.208,11.208,0,0,1-3.961.693H1.618V2.32h4.39a11.96,11.96,0,0,1,4.622.825A9.694,9.694,0,0,1,13.964,5.39a9.378,9.378,0,0,1,2.03,3.252,11.006,11.006,0,0,1,.677,3.846,10.753,10.753,0,0,1-.792,4.241" transform="translate(0 -0.24)" fill="#f6f6f6"></path><path id="Path_2" data-name="Path 2" d="M52.848,13.741a6.35,6.35,0,0,0,2.311-1.585,6.065,6.065,0,0,0,1.287-2.228,8.344,8.344,0,0,0,.4-2.559,6.377,6.377,0,0,0-.66-3A6.124,6.124,0,0,0,54.449,2.3a7.333,7.333,0,0,0-2.377-1.188,9.365,9.365,0,0,0-2.624-.38H44.1V24.173h1.618V14.336h3.631a11.623,11.623,0,0,0,1.761-.13l6.129,9.967H59.12L52.773,13.767c.024-.009.051-.016.075-.026m-3.6-.957H45.718V2.287h3.961a6.046,6.046,0,0,1,2.278.413,5.328,5.328,0,0,1,1.75,1.122,4.849,4.849,0,0,1,1.106,1.634,5.176,5.176,0,0,1,.38,1.981,6.389,6.389,0,0,1-.281,1.832A4.861,4.861,0,0,1,53.97,11a4.744,4.744,0,0,1-1.816,1.288,7.421,7.421,0,0,1-2.9.494" transform="translate(-14.39 -0.24)" fill="#f6f6f6"></path><path id="Path_3" data-name="Path 3" d="M85.082,30.5a1.838,1.838,0,0,0-1.3-.552,1.745,1.745,0,0,0-1.271.552,1.808,1.808,0,0,0-.552,1.325,1.84,1.84,0,0,0,1.823,1.879,1.889,1.889,0,0,0,1.3-.525,1.744,1.744,0,0,0,.58-1.354,1.767,1.767,0,0,0-.58-1.325" transform="translate(-26.744 -9.773)" fill="#f6f6f6"></path><path id="Path_4" data-name="Path 4" d="M141.585,20.69a5.335,5.335,0,0,0,.691-2.757,4.8,4.8,0,0,0-1.027-3.054,7.218,7.218,0,0,0-2.726-2.08,9.9,9.9,0,0,0-1.59-.556,6.577,6.577,0,0,0,1.329-.616,5.429,5.429,0,0,0,2-2.113,6.04,6.04,0,0,0,.672-2.838,5.051,5.051,0,0,0-2.111-4.539,10.713,10.713,0,0,0-5.957-1.4H127V24.173h6.909a12.651,12.651,0,0,0,3.137-.381,8.7,8.7,0,0,0,2.671-1.155,5.909,5.909,0,0,0,1.867-1.948M128.83,2.287h4.108A8.046,8.046,0,0,1,137.4,3.376a3.98,3.98,0,0,1,1.662,3.6,4.774,4.774,0,0,1-1.251,3.367,5.35,5.35,0,0,1-4.09,1.353H128.83Zm8.291,19.889a10.1,10.1,0,0,1-3.287.512h-5V13.247h4.892a10.473,10.473,0,0,1,3.137.478,5.937,5.937,0,0,1,2.54,1.518A3.8,3.8,0,0,1,140.409,18a3.89,3.89,0,0,1-.9,2.608,5.3,5.3,0,0,1-2.39,1.568" transform="translate(-41.441 -0.24)" fill="#f6f6f6"></path><path id="Path_5" data-name="Path 5" d="M175.282,13.741a6.349,6.349,0,0,0,2.311-1.585,6.065,6.065,0,0,0,1.287-2.228,8.345,8.345,0,0,0,.4-2.559,6.377,6.377,0,0,0-.66-3A6.124,6.124,0,0,0,176.883,2.3a7.334,7.334,0,0,0-2.377-1.188,9.365,9.365,0,0,0-2.624-.38h-5.348V24.173h1.618V14.336h3.631a11.623,11.623,0,0,0,1.761-.13l7.476,9.967H182.9l-7.694-10.407c.024-.009.051-.016.075-.026m-3.6-.957h-3.532V2.287h3.961a6.046,6.046,0,0,1,2.278.413,5.328,5.328,0,0,1,1.75,1.122,4.849,4.849,0,0,1,1.106,1.634,5.176,5.176,0,0,1,.38,1.981,6.389,6.389,0,0,1-.281,1.832A4.861,4.861,0,0,1,176.4,11a4.744,4.744,0,0,1-1.816,1.288,7.421,7.421,0,0,1-2.9.494" transform="translate(-54.341 -0.24)" fill="#f6f6f6"></path><rect id="Rectangle_2" data-name="Rectangle 2" width="1.618" height="23.438" transform="translate(139.573 0.495)" fill="#f6f6f6"></rect><path id="Path_6" data-name="Path 6" d="M236.011.1,225.235,23.966H227l3.379-7.57h11.257l3.323,7.57h1.976L236.155.1Zm-4.976,14.817L236.05,3.681l4.932,11.234Z" transform="translate(-73.495 -0.032)" fill="#f6f6f6"></path><path id="Path_7" data-name="Path 7" d="M290.048,20.507,272.587,0h-.1V23.933h1.533l-.031-19.784,17.461,20.345h.063V.5h-1.5Z" transform="translate(-88.915 0)" fill="#f6f6f6"></path><path id="Path_8" data-name="Path 8" d="M357.805,11.629H343.677V.735h-1.618V24.174h1.618V13.147h14.129V24.174h1.618V.735h-1.618Z" transform="translate(-111.616 -0.24)" fill="#f6f6f6"></path><path id="Path_9" data-name="Path 9" d="M395.266.736h-.141l-10.63,23.438h1.736l3.333-7.434h11.106l3.278,7.434H405.9Zm-5.05,14.55,4.947-11.032,4.865,11.032Z" transform="translate(-125.463 -0.24)" fill="#f6f6f6"></path><path id="Path_10" data-name="Path 10" d="M440.5,13.741a6.335,6.335,0,0,0,2.31-1.585A6.068,6.068,0,0,0,444.1,9.929a8.384,8.384,0,0,0,.4-2.559,6.385,6.385,0,0,0-.66-3A6.13,6.13,0,0,0,442.1,2.3a7.34,7.34,0,0,0-2.378-1.188A9.349,9.349,0,0,0,437.1.735h-5.348V24.173h1.618V14.336H437a11.614,11.614,0,0,0,1.76-.13l6.8,9.967h1.882l-7.021-10.407c.024-.009.051-.015.075-.026m-3.6-.957h-3.532V2.287h3.962a6.051,6.051,0,0,1,2.278.413,5.329,5.329,0,0,1,1.748,1.122,4.852,4.852,0,0,1,1.107,1.634,5.175,5.175,0,0,1,.379,1.981,6.388,6.388,0,0,1-.28,1.832,4.861,4.861,0,0,1-.94,1.733A4.747,4.747,0,0,1,439.8,12.29a7.414,7.414,0,0,1-2.9.494" transform="translate(-140.882 -0.24)" fill="#f6f6f6"></path><path id="Path_11" data-name="Path 11" d="M480.138,13.741a6.335,6.335,0,0,0,2.31-1.585,6.068,6.068,0,0,0,1.289-2.228,8.385,8.385,0,0,0,.4-2.559,6.385,6.385,0,0,0-.66-3A6.129,6.129,0,0,0,481.739,2.3a7.34,7.34,0,0,0-2.378-1.188,9.349,9.349,0,0,0-2.623-.38H471.39V24.173h1.617V14.336h3.631a11.614,11.614,0,0,0,1.76-.13l6.8,9.967h1.882l-7.021-10.407c.024-.009.051-.015.075-.026m-3.6-.957h-3.532V2.287h3.962a6.051,6.051,0,0,1,2.278.413A5.329,5.329,0,0,1,481,3.821,4.852,4.852,0,0,1,482.1,5.456a5.175,5.175,0,0,1,.379,1.981,6.388,6.388,0,0,1-.28,1.832A4.861,4.861,0,0,1,481.26,11a4.747,4.747,0,0,1-1.816,1.288,7.414,7.414,0,0,1-2.9.494" transform="translate(-153.817 -0.24)" fill="#f6f6f6"></path><rect id="Rectangle_3" data-name="Rectangle 3" width="1.617" height="23.438" transform="translate(344.279 0.494)" fill="#f6f6f6"></rect><path id="Path_12" data-name="Path 12" d="M543.955,15a5.535,5.535,0,0,0-1.469-1.882,9.6,9.6,0,0,0-2.063-1.287q-1.139-.529-2.295-.958-1.453-.561-2.74-1.172a6.556,6.556,0,0,1-2.08-1.485,3.15,3.15,0,0,1-.792-2.195A3.629,3.629,0,0,1,533.9,3.114a5.593,5.593,0,0,1,3.7-1.155,10.687,10.687,0,0,1,2.972.428,16.094,16.094,0,0,1,2.508.924l.628-1.254A13.439,13.439,0,0,0,540.753.969,13.66,13.66,0,0,0,537.4.539a7.928,7.928,0,0,0-3.35.743,5.818,5.818,0,0,0-2.328,1.964,5.07,5.07,0,0,0-.858,2.937,4.6,4.6,0,0,0,.545,2.311,5.179,5.179,0,0,0,1.469,1.633,10.2,10.2,0,0,0,2.047,1.156q1.121.479,2.245.907a23.909,23.909,0,0,1,2.739,1.189,6.371,6.371,0,0,1,2.113,1.7,4.263,4.263,0,0,1,.825,2.724,4.6,4.6,0,0,1-.875,2.888,5.353,5.353,0,0,1-2.212,1.7,7.034,7.034,0,0,1-2.756.562,8.532,8.532,0,0,1-2.442-.363A13.407,13.407,0,0,1,532.3,21.7a13.127,13.127,0,0,1-1.766-1.056l-.759,1.32q.625.4,1.7.974a13.284,13.284,0,0,0,2.509,1.006,11.109,11.109,0,0,0,3.186.429A8.445,8.445,0,0,0,541,23.548a6.222,6.222,0,0,0,2.576-2.326,6.454,6.454,0,0,0,.924-3.45A6.327,6.327,0,0,0,543.955,15" transform="translate(-172.869 -0.176)" fill="#f6f6f6"></path><path id="Path_13" data-name="Path 13" d="M90.1,69.942a2.63,2.63,0,0,0-.467-.182,1.772,1.772,0,0,0,.391-.2,1.7,1.7,0,0,0,.577-.689,2.187,2.187,0,0,0,.194-.928,1.732,1.732,0,0,0-.609-1.481A2.815,2.815,0,0,0,88.466,66H86.774v7.654h1.994a3.28,3.28,0,0,0,.905-.124,2.371,2.371,0,0,0,.771-.378,1.846,1.846,0,0,0,.539-.636,1.922,1.922,0,0,0,.2-.9,1.7,1.7,0,0,0-.3-1,2.123,2.123,0,0,0-.787-.679m-2.8-3.434h1.186a2.12,2.12,0,0,1,1.288.356,1.37,1.37,0,0,1,.48,1.176,1.68,1.68,0,0,1-.361,1.1,1.438,1.438,0,0,1-1.18.443H87.3Zm3.083,5.983A1.535,1.535,0,0,1,89.7,73a2.61,2.61,0,0,1-.949.167H87.3V70.088h1.412a2.705,2.705,0,0,1,.905.156,1.689,1.689,0,0,1,.733.5,1.336,1.336,0,0,1,.291.9,1.381,1.381,0,0,1-.259.852" transform="translate(-28.315 -21.537)" fill="#f6f6f6"></path><path id="Path_14" data-name="Path 14" d="M111.9,71.069a2.3,2.3,0,0,1-.275,1.153,1.916,1.916,0,0,1-.755.749,2.232,2.232,0,0,1-1.094.264,2.178,2.178,0,0,1-1.078-.264,1.929,1.929,0,0,1-.749-.749,2.3,2.3,0,0,1-.275-1.153V66h-.528v5.1a2.786,2.786,0,0,0,.345,1.423,2.311,2.311,0,0,0,.943.905,3.037,3.037,0,0,0,2.684,0,2.349,2.349,0,0,0,.949-.905,2.747,2.747,0,0,0,.35-1.423V66H111.9Z" transform="translate(-34.961 -21.537)" fill="#f6f6f6"></path><rect id="Rectangle_4" data-name="Rectangle 4" width="0.528" height="7.653" transform="translate(87.25 44.466)" fill="#f6f6f6"></rect><path id="Path_15" data-name="Path 15" d="M145.43,66H144.9v7.653h4.721v-.507H145.43Z" transform="translate(-47.282 -21.537)" fill="#f6f6f6"></path><path id="Path_16" data-name="Path 16" d="M170.587,67.276a3.5,3.5,0,0,0-1.267-.922A4.6,4.6,0,0,0,167.428,66h-1.886v7.653h2.253a3.81,3.81,0,0,0,1.412-.263,3.7,3.7,0,0,0,1.191-.76,3.6,3.6,0,0,0,.825-1.192,3.9,3.9,0,0,0,.3-1.568,4.242,4.242,0,0,0-.226-1.347,3.749,3.749,0,0,0-.711-1.25m.14,3.95a3.032,3.032,0,0,1-.717,1.04,3.14,3.14,0,0,1-1.062.658,3.667,3.667,0,0,1-1.294.226H166.07V66.521H167.5a3.9,3.9,0,0,1,1.509.269,3.17,3.17,0,0,1,1.089.734,3.059,3.059,0,0,1,.663,1.061,3.61,3.61,0,0,1,.221,1.256,3.514,3.514,0,0,1-.259,1.385" transform="translate(-54.017 -21.537)" fill="#f6f6f6"></path><rect id="Rectangle_5" data-name="Rectangle 5" width="0.528" height="7.653" transform="translate(126.863 44.466)" fill="#f6f6f6"></rect><path id="Path_17" data-name="Path 17" d="M209.63,72.459l-5.9-6.7H203.7v7.815h.517l-.011-6.461,5.9,6.644h.022V65.925h-.507Z" transform="translate(-66.469 -21.459)" fill="#f6f6f6"></path><path id="Path_18" data-name="Path 18" d="M231.136,70.639h1.725v2.123a2.959,2.959,0,0,1-.852.313,4.454,4.454,0,0,1-.949.108,3.677,3.677,0,0,1-1.391-.253,3.1,3.1,0,0,1-1.073-.711,3.21,3.21,0,0,1-.69-1.067,3.7,3.7,0,0,1,.016-2.679,3.293,3.293,0,0,1,1.811-1.811,3.517,3.517,0,0,1,1.358-.259,3.37,3.37,0,0,1,.652.065,4.366,4.366,0,0,1,.641.178,3.106,3.106,0,0,1,.561.264l.194-.474a3.981,3.981,0,0,0-.965-.41,4.171,4.171,0,0,0-1.137-.151,3.945,3.945,0,0,0-1.509.291,3.807,3.807,0,0,0-1.25.825,3.859,3.859,0,0,0-.846,1.267,4.113,4.113,0,0,0-.307,1.606,4.053,4.053,0,0,0,.275,1.5,3.585,3.585,0,0,0,.792,1.218,3.682,3.682,0,0,0,1.245.819,4.3,4.3,0,0,0,1.633.3,4.253,4.253,0,0,0,.62-.049,5.412,5.412,0,0,0,.641-.135,5.083,5.083,0,0,0,.587-.2,2.7,2.7,0,0,0,.469-.243V70.133h-2.253Z" transform="translate(-74.113 -21.496)" fill="#f6f6f6"></path><path id="Path_19" data-name="Path 19" d="M270.953,73.038a3.231,3.231,0,0,1-1.029.156,3.438,3.438,0,0,1-1.369-.263A3.126,3.126,0,0,1,267.5,72.2a3.2,3.2,0,0,1-.668-1.079,3.666,3.666,0,0,1-.232-1.3,3.486,3.486,0,0,1,.259-1.347,3.407,3.407,0,0,1,.717-1.094,3.341,3.341,0,0,1,1.062-.733,3.16,3.16,0,0,1,1.283-.265,3.083,3.083,0,0,1,1,.162,4.1,4.1,0,0,1,.852.4l.226-.485a4.369,4.369,0,0,0-.959-.42,3.85,3.85,0,0,0-1.132-.162,3.8,3.8,0,0,0-3.568,2.4,4.141,4.141,0,0,0-.291,1.563,3.99,3.99,0,0,0,.275,1.481,3.77,3.77,0,0,0,.781,1.229,3.635,3.635,0,0,0,1.218.841,3.957,3.957,0,0,0,1.585.307,4.122,4.122,0,0,0,.841-.081,3.651,3.651,0,0,0,.711-.221,4.63,4.63,0,0,0,.571-.291l-.248-.464a3.638,3.638,0,0,1-.835.393" transform="translate(-86.815 -21.496)" fill="#f6f6f6"></path><path id="Path_20" data-name="Path 20" d="M294.214,67.034a3.952,3.952,0,0,0-1.25-.852,3.792,3.792,0,0,0-1.52-.307,3.753,3.753,0,0,0-1.514.307,4.008,4.008,0,0,0-2.086,2.1,3.809,3.809,0,0,0-.3,1.514,3.93,3.93,0,0,0,.3,1.552,3.786,3.786,0,0,0,.841,1.24,3.88,3.88,0,0,0,1.245.819,3.932,3.932,0,0,0,1.514.29,3.847,3.847,0,0,0,1.52-.3,3.9,3.9,0,0,0,1.25-.841,3.978,3.978,0,0,0,.846-1.245,3.887,3.887,0,0,0,0-3.029,4.046,4.046,0,0,0-.846-1.25m.351,4.09a3.41,3.41,0,0,1-1.806,1.806,3.331,3.331,0,0,1-1.325.263,3.242,3.242,0,0,1-1.3-.263,3.45,3.45,0,0,1-1.073-.728,3.355,3.355,0,0,1-.981-2.394,3.428,3.428,0,0,1,2.037-3.153,3.338,3.338,0,0,1,2.64-.005,3.452,3.452,0,0,1,1.806,1.827,3.447,3.447,0,0,1,0,2.646" transform="translate(-93.827 -21.496)" fill="#f6f6f6"></path><path id="Path_21" data-name="Path 21" d="M318.414,72.459l-5.9-6.7h-.032v7.815H313l-.011-6.461,5.9,6.644h.022V65.925H318.4Z" transform="translate(-101.966 -21.459)" fill="#f6f6f6"></path><path id="Path_22" data-name="Path 22" d="M336.07,73.656h.528V70.164h3.331v-.5H336.6V66.51h3.762V66h-4.29Z" transform="translate(-109.661 -21.537)" fill="#f6f6f6"></path><rect id="Rectangle_6" data-name="Rectangle 6" width="0.528" height="7.653" transform="translate(239.667 44.466)" fill="#f6f6f6"></rect><path id="Path_23" data-name="Path 23" d="M375.627,67.276a3.5,3.5,0,0,0-1.267-.922A4.6,4.6,0,0,0,372.468,66h-1.886v7.653h2.252a3.814,3.814,0,0,0,1.413-.263,3.7,3.7,0,0,0,1.191-.76,3.6,3.6,0,0,0,.825-1.192,3.907,3.907,0,0,0,.3-1.568,4.242,4.242,0,0,0-.226-1.347,3.761,3.761,0,0,0-.711-1.25m.14,3.95a3.032,3.032,0,0,1-.717,1.04,3.142,3.142,0,0,1-1.062.658,3.664,3.664,0,0,1-1.293.226H371.11V66.521h1.434a3.9,3.9,0,0,1,1.509.269,3.17,3.17,0,0,1,1.089.734,3.06,3.06,0,0,1,.663,1.061,3.61,3.61,0,0,1,.221,1.256,3.514,3.514,0,0,1-.259,1.385" transform="translate(-120.923 -21.537)" fill="#f6f6f6"></path><path id="Path_24" data-name="Path 24" d="M393.317,70.056h3.773v-.507h-3.773v-3.04h4.194V66H392.79v7.654h4.872V73.15h-4.344Z" transform="translate(-128.17 -21.537)" fill="#f6f6f6"></path><path id="Path_25" data-name="Path 25" d="M419.374,72.459l-5.9-6.7h-.032v7.815h.517l-.01-6.46,5.9,6.643h.022V65.924h-.507Z" transform="translate(-134.91 -21.459)" fill="#f6f6f6"></path><path id="Path_26" data-name="Path 26" d="M441.208,73.038a3.23,3.23,0,0,1-1.029.156,3.441,3.441,0,0,1-1.37-.263,3.123,3.123,0,0,1-1.05-.728,3.177,3.177,0,0,1-.668-1.079,3.651,3.651,0,0,1-.232-1.3,3.486,3.486,0,0,1,.259-1.347,3.4,3.4,0,0,1,.716-1.094,3.341,3.341,0,0,1,1.062-.733,3.163,3.163,0,0,1,1.283-.265,3.082,3.082,0,0,1,1,.162,4.111,4.111,0,0,1,.852.4l.226-.485a4.383,4.383,0,0,0-.959-.42,3.854,3.854,0,0,0-1.133-.162,3.8,3.8,0,0,0-3.568,2.4,4.141,4.141,0,0,0-.29,1.563,3.977,3.977,0,0,0,.275,1.481,3.768,3.768,0,0,0,.781,1.229,3.641,3.641,0,0,0,1.218.841,3.962,3.962,0,0,0,1.585.307,4.123,4.123,0,0,0,.841-.081,3.657,3.657,0,0,0,.712-.221,4.669,4.669,0,0,0,.571-.291l-.248-.464a3.613,3.613,0,0,1-.835.393" transform="translate(-142.37 -21.496)" fill="#f6f6f6"></path><path id="Path_27" data-name="Path 27" d="M459.045,70.056h3.773v-.507h-3.773v-3.04h4.193V66h-4.721v7.654h4.872V73.15h-4.344Z" transform="translate(-149.617 -21.537)" fill="#f6f6f6"></path></g></svg>