<svg xmlns="http://www.w3.org/2000/svg" width="263.357" height="80.022" viewBox="0 0 263.357 80.022"><g id="Group_150" data-name="Group 150" transform="translate(-9961 -6408)"><path id="Path_236" data-name="Path 236" d="M1170.468,587.4c-12.808-11.4-28.787-68.595-4.6-68,10.128,2.383,11.319,2.894,19.405-2.723-12,4.936-25.523-11.949-33.49-8.6C1144.426,511.234,1123.758,556.723,1170.468,587.4Z" transform="translate(8820.156 5900.619)" fill="#b9cc1e" style="isolation: isolate"></path><path id="Path_237" data-name="Path 237" d="M1175.234,525.021c21.021.6,46.213-25.7,52.17,5.362,3.538-6.227,1.107-21.7-17.106-22.979C1200.512,506.718,1187.064,521.787,1175.234,525.021Z" transform="translate(8820.156 5900.619)" fill="#54ab34"></path><g id="Group_148" data-name="Group 148" transform="translate(8820.156 5900.619)" style="isolation: isolate"><path id="Path_238" data-name="Path 238" d="M1204.9,529.971l-8.4,27.865h-6.38l-5.646-18.869-5.829,18.869H1172.3l-8.433-27.865h6.16l5.793,19.585,6.049-19.585h5.5l5.866,19.744,5.977-19.744Z" fill="#fff"></path><path id="Path_239" data-name="Path 239" d="M1226.252,538.489q2.255,2.389,2.255,7.086v12.261h-5.72V546.53a5.923,5.923,0,0,0-1.026-3.8,3.619,3.619,0,0,0-2.971-1.254,4.365,4.365,0,0,0-3.446,1.453,6.347,6.347,0,0,0-1.283,4.319v10.589h-5.72V528.3h5.72v10.349a7.537,7.537,0,0,1,2.75-1.89,9.223,9.223,0,0,1,3.519-.657A7.765,7.765,0,0,1,1226.252,538.489Z" fill="#fff"></path><path id="Path_240" data-name="Path 240" d="M1233.971,532.438a3.569,3.569,0,0,1,0-4.936,3.46,3.46,0,0,1,2.566-.995,3.54,3.54,0,0,1,2.567.956,3.182,3.182,0,0,1,.99,2.388,3.528,3.528,0,0,1-.99,2.568,3.778,3.778,0,0,1-5.133.019Zm-.294,3.981h5.719v21.417h-5.719Z" fill="#fff"></path><path id="Path_241" data-name="Path 241" d="M1257.435,556.8a5.658,5.658,0,0,1-2.072,1.015,9.712,9.712,0,0,1-2.585.338,7.3,7.3,0,0,1-5.444-1.95,7.834,7.834,0,0,1-1.925-5.732v-8.8h-3.044V536.9h3.044v-5.214h5.72V536.9h4.913v4.778h-4.913v8.718a3.074,3.074,0,0,0,.642,2.089,2.268,2.268,0,0,0,1.814.737,3.485,3.485,0,0,0,2.31-.8Z" fill="#fff"></path><path id="Path_242" data-name="Path 242" d="M1279.251,548.879h-14.923a5.091,5.091,0,0,0,1.906,3.145,5.958,5.958,0,0,0,3.741,1.155,7.035,7.035,0,0,0,2.731-.5,6.584,6.584,0,0,0,2.218-1.573l3.044,3.583q-2.789,3.464-8.14,3.463a12.028,12.028,0,0,1-5.9-1.413,9.879,9.879,0,0,1-3.96-3.921,11.52,11.52,0,0,1-1.394-5.692,11.686,11.686,0,0,1,1.375-5.673,10.042,10.042,0,0,1,3.777-3.941,10.877,10.877,0,0,1,10.615-.06,9.492,9.492,0,0,1,3.684,3.882,12.367,12.367,0,0,1,1.338,5.871Q1279.36,547.327,1279.251,548.879Zm-13.383-6.887a5.219,5.219,0,0,0-1.613,3.265h9.716a5.27,5.27,0,0,0-1.614-3.244,4.589,4.589,0,0,0-3.226-1.215A4.683,4.683,0,0,0,1265.868,541.992Z" fill="#fff"></path><path id="Path_243" data-name="Path 243" d="M1332.745,529.971l-8.4,27.865h-6.38l-5.647-18.869-5.829,18.869h-6.344l-8.432-27.865h6.16l5.793,19.585,6.049-19.585h5.5l5.866,19.744,5.977-19.744Z" fill="#fff"></path><path id="Path_244" data-name="Path 244" d="M1337.969,556.741a10.036,10.036,0,0,1-3.868-3.921,12.319,12.319,0,0,1,0-11.384,10.039,10.039,0,0,1,3.868-3.922,11.733,11.733,0,0,1,11.164,0,10.082,10.082,0,0,1,3.85,3.922,12.326,12.326,0,0,1,0,11.384,10.079,10.079,0,0,1-3.85,3.921,11.733,11.733,0,0,1-11.164,0Zm9.2-5.3a7.314,7.314,0,0,0,0-8.637,4.584,4.584,0,0,0-3.611-1.613,4.636,4.636,0,0,0-3.63,1.613,7.236,7.236,0,0,0,0,8.637,4.639,4.639,0,0,0,3.63,1.613A4.587,4.587,0,0,0,1347.172,551.446Z" fill="#fff"></path><path id="Path_245" data-name="Path 245" d="M1361.984,556.741a10.049,10.049,0,0,1-3.868-3.921,12.326,12.326,0,0,1,0-11.384,10.052,10.052,0,0,1,3.868-3.922,11.732,11.732,0,0,1,11.164,0,10.09,10.09,0,0,1,3.851,3.922,12.326,12.326,0,0,1,0,11.384,10.088,10.088,0,0,1-3.851,3.921,11.732,11.732,0,0,1-11.164,0Zm9.2-5.3a7.314,7.314,0,0,0,0-8.637,4.585,4.585,0,0,0-3.612-1.613,4.636,4.636,0,0,0-3.63,1.613,7.239,7.239,0,0,0,0,8.637,4.639,4.639,0,0,0,3.63,1.613A4.588,4.588,0,0,0,1371.188,551.446Z" fill="#fff"></path><path id="Path_246" data-name="Path 246" d="M1402.3,528.3v29.537h-5.463v-2.468a7.278,7.278,0,0,1-6.16,2.786,9.606,9.606,0,0,1-5.041-1.353,9.334,9.334,0,0,1-3.538-3.862,13.806,13.806,0,0,1,0-11.624,9.337,9.337,0,0,1,3.538-3.861,9.615,9.615,0,0,1,5.041-1.353,7.224,7.224,0,0,1,5.9,2.587V528.3Zm-7.04,23.147a7.236,7.236,0,0,0,0-8.637,4.849,4.849,0,0,0-7.223,0,7.236,7.236,0,0,0,0,8.637,4.849,4.849,0,0,0,7.223,0Z" fill="#fff"></path></g><g id="Group_149" data-name="Group 149" transform="translate(8820.156 5900.619)" style="isolation: isolate"><path id="Path_247" data-name="Path 247" d="M1230.042,566.024h7.836a9.553,9.553,0,0,1,4.966,1.278,8.726,8.726,0,0,1,3.353,3.595,12.82,12.82,0,0,1,0,10.805,8.735,8.735,0,0,1-3.353,3.6,9.562,9.562,0,0,1-4.966,1.277h-7.836Zm7.64,16.647a5.273,5.273,0,0,0,4.128-1.718,7.8,7.8,0,0,0,0-9.307,5.272,5.272,0,0,0-4.128-1.717h-3.648v12.742Z" fill="#54ab34"></path><path id="Path_248" data-name="Path 248" d="M1278.048,582.759h0a3.816,3.816,0,0,1-3.816,3.816h-7.109a2.431,2.431,0,0,1-2.431-2.431v-18.12h13.036v3.817h-9.07V574.3h8.01V578h-8.01v4.756Z" fill="#54ab34"></path><path id="Path_249" data-name="Path 249" d="M1311.343,566.024v20.551h-3.277l-8.6-12.477v12.477h-3.942V566.024h3.3L1307.4,578.5V566.024Z" fill="#54ab34"></path><path id="Path_250" data-name="Path 250" d="M1333.3,569.9h-5.52v-3.875h15.033V569.9h-5.521v16.676H1333.3Z" fill="#54ab34"></path><path id="Path_251" data-name="Path 251" d="M1369.749,582.172h-8.008l-1.529,4.4h-4.091l7.689-20.551h3.943l7.714,20.551h-1.474a3.816,3.816,0,0,1-3.606-2.565Zm-1.257-3.611-2.735-7.869-2.735,7.869Z" fill="#54ab34"></path><path id="Path_252" data-name="Path 252" d="M1391.56,566.024h3.992V582.7h8.649v.059a3.815,3.815,0,0,1-3.816,3.816h-8.825Z" fill="#54ab34"></path></g></g></svg>