<svg width="100" height="100" viewBox="0 0 100 100" fill="none" xmlns="http://www.w3.org/2000/svg">
<g clip-path="url(#clip0_0_36)">
<path d="M67.0418 51.7267C67.0418 50.9172 66.3857 50.2618 65.577 50.2618C64.7683 50.2618 64.1121 50.9172 64.1121 51.7267C64.1121 52.5636 63.4308 53.2449 62.5939 53.2449C61.7569 53.2449 61.0756 52.5636 61.0756 51.7267C61.0756 50.9172 60.4195 50.2618 59.6108 50.2618C58.8021 50.2618 58.1459 50.9172 58.1459 51.7267C58.1459 54.1795 60.141 56.1746 62.5939 56.1746C65.0467 56.1746 67.0418 54.1788 67.0418 51.7267Z" fill="#3C3D31"/>
<path d="M80.6206 51.7267C80.6206 50.9172 79.9645 50.2618 79.1558 50.2618C78.3463 50.2618 77.6909 50.9172 77.6909 51.7267C77.6909 52.5636 77.0096 53.2449 76.1727 53.2449C75.335 53.2449 74.6544 52.5636 74.6544 51.7267C74.6544 50.9172 73.9983 50.2618 73.1896 50.2618C72.3801 50.2618 71.7247 50.9172 71.7247 51.7267C71.7247 54.1795 73.7198 56.1746 76.1727 56.1746C78.6248 56.1746 80.6206 54.1788 80.6206 51.7267Z" fill="#3C3D31"/>
<path d="M92.5737 85.5387L89.9393 84.4165C89.1946 84.0983 88.3348 84.4455 88.0174 85.1893C87.7 85.934 88.0464 86.7945 88.791 87.1112L91.4255 88.2342C93.5899 89.1566 94.9892 91.273 94.9892 93.6259V97.0706H43.7721V93.6259C43.7721 91.273 45.1714 89.1566 47.3358 88.2342L60.5248 82.6144C62.3505 81.8362 63.5308 80.0509 63.5308 78.0665V77.3921C65.4282 78.0833 67.405 78.4335 69.3833 78.4335C71.3593 78.4335 73.3346 78.084 75.2305 77.3936V78.0665C75.2305 80.0509 76.41 81.8362 78.2365 82.6144L82.5174 84.4386C83.2612 84.756 84.1218 84.4088 84.4392 83.665C84.7566 82.9203 84.4102 82.0605 83.6656 81.7431L79.3847 79.9189C78.6409 79.6023 78.1602 78.8745 78.1602 78.0665V76.1195C83.6213 73.392 87.8694 69.2438 90.8105 63.7583C92.5943 60.4304 93.8676 56.6774 94.6168 52.5606C95.128 52.3066 95.5255 51.9655 95.7124 51.7893C99.8865 48.0196 99.2532 36.2222 99.1663 34.8741C98.6353 27.6544 96.3167 23.8809 93.8615 19.8854C93.5922 19.4474 93.3206 19.0057 93.049 18.554C92.9872 18.4518 92.9689 18.3274 92.9994 18.2138L93.3015 17.0846C93.5403 16.192 93.3984 15.2284 92.9109 14.441C90.3673 10.3288 87.1263 6.82534 83.2795 4.02992C78.0381 0.220555 71.3113 -0.978788 65.2848 0.82099C55.3376 3.79112 54.139 12.1591 54.0375 13.0754C53.8727 14.0405 53.8399 14.9758 53.9193 15.8799C52.0821 16.4323 50.4135 17.2128 48.938 18.2214C46.228 20.0746 45.4949 21.6523 45.3865 24.653C45.3865 24.6629 45.385 24.6728 45.385 24.6835C45.385 24.6927 45.3842 24.7125 45.3842 24.7377C45.3751 25.0276 45.3713 25.3305 45.372 25.6486C44.0773 25.3328 42.8383 25.8325 41.9342 27.0501C41.1903 28.0519 39.8933 30.6863 39.5645 37.0737C39.4257 39.7752 39.6194 42.3883 40.1405 44.8419C40.6097 47.0545 41.5604 49.0984 43.1305 51.2743C43.3815 51.6222 43.7058 51.89 44.0697 52.0693C44.4496 54.291 44.9791 56.4234 45.6619 58.4383C45.9213 59.2043 46.7537 59.6155 47.5189 59.3554C48.2857 59.096 48.6962 58.2644 48.4368 57.4976C47.8035 55.6299 47.3129 53.647 46.9597 51.5787C47.2664 51.269 47.4961 50.8776 47.6174 50.4305C48.8533 45.8658 50.1595 42.3898 52.8496 39.1672C55.1888 36.3649 58.2955 34.1157 61.834 32.6631L61.966 32.6089C63.2561 32.0802 64.9346 31.3898 66.4773 30.4353C69.5336 32.1229 72.0178 33.0629 72.3031 33.1689C77.3774 35.058 84.2988 38.5622 88.4546 44.5238C90.9196 48.0608 91.2507 50.8379 91.253 50.8577C91.2591 50.9165 91.2683 50.9752 91.2813 51.0332C91.3789 51.4696 91.5422 51.8007 91.7314 52.0533C91.0364 55.8619 89.866 59.3218 88.2287 62.3751C85.1991 68.0254 80.6276 72.1018 74.6407 74.4891C71.251 75.8418 67.5172 75.841 64.1267 74.4891C58.5373 72.2605 54.1741 68.5534 51.1574 63.4714C50.7447 62.7756 49.8459 62.5467 49.1501 62.9595C48.4543 63.3723 48.2254 64.2718 48.6382 64.9668C51.5389 69.8534 55.5565 73.5919 60.6019 76.1141V78.0665C60.6019 78.8752 60.1212 79.6023 59.3773 79.9197L46.1876 85.5395C42.9413 86.9227 40.8432 90.0966 40.8432 93.6259V98.5355C40.8432 99.3442 41.4993 100 42.3081 100H96.4548C97.2635 100 97.9196 99.3442 97.9196 98.5355V93.6259C97.9189 90.0966 95.8208 86.922 92.5737 85.5387V85.5387ZM60.8536 29.8974L60.7209 29.9524C56.7429 31.5851 53.2433 34.1226 50.5997 37.2896C47.4732 41.0349 46.0427 45.1677 45.0134 48.8481C43.9713 47.2727 43.3426 45.8216 43.0054 44.2331C42.5377 42.029 42.3645 39.6707 42.4904 37.224C42.6918 33.3017 43.3968 29.9936 44.2856 28.7965C44.4702 28.5478 44.5648 28.4898 44.6411 28.4898C44.6716 28.4898 44.6999 28.4997 44.7296 28.5097C44.9776 28.5943 45.2263 28.6424 45.4727 28.6615C45.5666 30.4407 45.7535 32.4769 46.1273 34.015C46.2898 34.6849 46.8895 35.1343 47.5495 35.1343C47.6639 35.1343 47.7799 35.1213 47.8958 35.0923C48.6824 34.9016 49.1646 34.1096 48.9739 33.3238C48.2468 30.3285 48.3132 24.7789 48.3139 24.7224C48.3139 24.714 48.3132 24.7049 48.3132 24.6965C48.3887 22.5045 48.8541 21.8271 50.5913 20.6392C51.7647 19.8373 53.0953 19.2056 54.5662 18.7432C56.083 22.9074 59.8786 26.2643 63.5758 28.6897C62.5916 29.1849 61.6105 29.5877 60.8536 29.8974V29.8974ZM73.3231 30.4223C73.2766 30.4048 68.6204 28.66 64.2457 25.5929C58.6731 21.6867 56.2127 17.6278 56.9321 13.5293C56.9382 13.4934 56.9436 13.4507 56.9474 13.4149C56.9726 13.16 57.5654 7.96822 63.0196 4.92561C64.9857 7.88125 68.3648 9.53454 71.695 10.9727C75.2328 12.4993 78.2769 13.981 79.696 16.6505C79.9592 17.1464 80.4658 17.4287 80.9907 17.4287C81.2219 17.4287 81.4576 17.373 81.6766 17.257C82.3915 16.8771 82.6623 15.9906 82.2831 15.2757C80.2659 11.4816 75.9835 9.6322 72.8562 8.28256C70.0242 7.06032 67.3615 5.77629 65.7777 3.73924C65.8929 3.70186 66.0043 3.66295 66.1225 3.62785C67.6957 3.15788 69.3253 2.92747 70.9588 2.92747C74.6819 2.92747 78.4242 4.12224 81.5568 6.39962C85.0946 8.97073 88.0762 12.1949 90.4191 15.9822C90.4832 16.0852 90.5023 16.211 90.471 16.3278L90.1689 17.4569C89.9347 18.3351 90.0697 19.2857 90.5397 20.0662C90.8159 20.5247 91.0913 20.9733 91.3652 21.4189C93.7265 25.2618 95.7658 28.5806 96.2434 35.0755C96.5227 39.438 96.132 47.0217 93.9539 49.4104C93.1505 46.0794 89.4761 36.4366 73.3231 30.4223V30.4223Z" fill="#3C3D31"/>
<path d="M44.7632 72.352C44.9013 71.7516 44.844 71.1374 44.6098 70.5805L46.4355 69.4391C47.8309 68.5663 48.2559 66.7208 47.3831 65.3254L46.7079 64.2458L51.7326 60.7447C52.3964 60.2823 52.5597 59.3691 52.0973 58.7053C51.635 58.0415 50.7217 57.879 50.058 58.3406L45.1523 61.7586L44.5541 60.8019C44.1307 60.1259 43.4707 59.6552 42.6933 59.4759C41.9166 59.2974 41.1163 59.4309 40.4403 59.8543L38.6146 60.9957C38.2164 60.5409 37.6892 60.2213 37.0887 60.0824C36.3334 59.9085 35.5552 60.0389 34.8983 60.4502L28.7536 64.2939C28.7536 64.2939 28.7528 64.2939 28.7528 64.2946C28.7528 64.2946 28.7528 64.2946 28.7521 64.2946L22.6089 68.1376C22.6081 68.1376 22.6081 68.1376 22.6081 68.1376L12.2672 74.6058L11.1953 72.8914C10.7665 72.2056 9.86242 71.9973 9.17654 72.4268C8.49065 72.8556 8.28237 73.7597 8.7119 74.4455L10.5605 77.4012L11.8445 79.4543L8.80041 81.3586L8.55703 80.9695C7.78188 79.7289 6.14232 79.3513 4.90178 80.1272L2.4184 81.6805C1.81797 82.0559 1.39911 82.6434 1.24042 83.3338C1.08097 84.0243 1.20075 84.7353 1.57612 85.3358L6.51692 93.2345C6.89229 93.8349 7.47975 94.2538 8.17022 94.4125C8.36934 94.4583 8.57076 94.4812 8.77065 94.4812C9.26198 94.4812 9.74493 94.3438 10.1722 94.0768L12.6563 92.5234C13.8961 91.7475 14.2737 90.108 13.4978 88.8674L13.2545 88.4791L16.2986 86.5748L19.432 91.5843C19.7097 92.0283 20.1865 92.2724 20.6748 92.2724C20.9403 92.2724 21.2089 92.2 21.4507 92.0489C22.1366 91.6201 22.3449 90.716 21.9154 90.0302L20.8434 88.3166L31.1843 81.8484L43.4738 74.161C44.1314 73.7497 44.5892 73.1074 44.7632 72.352V72.352ZM8.85305 91.4462L4.20674 84.0174L6.22014 82.7578L7.09371 84.154L9.99365 88.7904L10.8664 90.1866L8.85305 91.4462ZM11.7011 85.995L10.3545 83.8419L13.3979 81.9384L14.7445 84.0907L11.7011 85.995ZM19.2893 85.8324L15.1054 79.1422L13.8213 77.0891L17.4834 74.7988L19.0787 77.3485C19.3565 77.7926 19.8341 78.0367 20.3223 78.0367C20.5871 78.0367 20.8556 77.965 21.0975 77.8132C21.7834 77.3844 21.9917 76.4803 21.5629 75.7944L19.9676 73.2447L22.9202 71.3984L28.3889 80.1409L19.2893 85.8324ZM30.8723 78.5876L25.4043 69.8443L29.0641 67.5547L30.6594 70.1052C30.9371 70.5492 31.414 70.7933 31.9023 70.7933C32.1678 70.7933 32.4363 70.7209 32.6782 70.5698C33.3641 70.141 33.5723 69.237 33.1428 68.5511L31.5483 66.0013L36.428 62.9488L37.1338 64.0757L41.3833 70.8704C41.3833 70.8712 41.3841 70.8712 41.3841 70.8719L41.8968 71.6921L30.8723 78.5876ZM40.2031 63.4584L41.9937 62.3377C41.9998 62.3339 42.0128 62.3262 42.0349 62.3308C42.057 62.3361 42.0654 62.3491 42.0692 62.356L44.899 66.8795C44.9028 66.8856 44.9112 66.8985 44.9058 66.9207C44.9013 66.9428 44.8883 66.9512 44.8814 66.955L43.0908 68.075L40.2031 63.4584Z" fill="#3C3D31"/>
</g>
<defs>
<clipPath id="clip0_0_36">
<rect width="100" height="100" fill="white"/>
</clipPath>
</defs>
</svg>
