<?xml version="1.0" encoding="utf-8"?>
<svg xmlns="http://www.w3.org/2000/svg" style="margin: auto; background: none; display: block; shape-rendering: auto;" width="243" height="94" preserveAspectRatio="xMidYMid">
<style type="text/css">
  text {
    text-anchor: middle; font-size: 56px; opacity: 0;
  }
</style>
<g style="transform-origin:121.5px 47px;transform:scale(1)">
<g transform="translate(121.5,47)">
  <g transform="translate(0,0)"><g class="path" style="transform: scale(0.91); transform-origin: -94.4999px -2.35732px; animation: 0.537634s linear -0.304147s infinite normal forwards running breath-7cd0af25-4cca-4acf-aa49-7d9ac991cae1;"><path d="M4.48-38.64L16.63-38.64L16.63-38.64Q22.01-38.64 25.14-36.20L25.14-36.20L25.14-36.20Q28.28-33.77 28.28-29.68L28.28-29.68L28.28-29.68Q28.28-23.13 22.90-20.55L22.90-20.55L22.90-20.55Q30.18-18.03 30.18-11.26L30.18-11.26L30.18-11.26Q30.18-6.16 25.82-2.77L25.82-2.77L25.82-2.77Q21.45 0.62 14.84 0.62L14.84 0.62L14.84 0.62Q11.37 0.62 4.48 0L4.48 0L5.15-13.61L4.48-38.64zM15.90-16.63L15.90-16.63L11.37-16.63L11.31-14.56L11.70-5.43L11.70-5.43Q14.95-5.15 16.69-5.15L16.69-5.15L16.69-5.15Q19.66-5.15 21.31-6.64L21.31-6.64L21.31-6.64Q22.96-8.12 22.96-10.98L22.96-10.98L22.96-10.98Q22.96-13.83 21.28-15.23L21.28-15.23L21.28-15.23Q19.60-16.63 15.90-16.63zM14.62-32.98L14.62-32.98L11.87-32.98L11.54-22.06L15.18-22.06L15.18-22.06Q18.03-22.06 19.54-23.60L19.54-23.60L19.54-23.60Q21.06-25.14 21.06-28L21.06-28L21.06-28Q21.06-32.98 14.62-32.98" fill="#ffffff" stroke="none" stroke-width="none" transform="translate(-111.82995796203613,16.652687176295693)" style="fill: rgb(255, 255, 255);"></path></g><g class="path" style="transform: scale(0.91); transform-origin: -65.855px 2.54269px; animation: 0.537634s linear -0.253456s infinite normal forwards running breath-7cd0af25-4cca-4acf-aa49-7d9ac991cae1;"><path d="M34.05-11.70L34.05-11.70Q34.05-18.87 37.91-23.86L37.91-23.86L37.91-23.86Q41.78-28.84 46.96-28.84L46.96-28.84L46.96-28.84Q52.14-28.84 55.02-25.48L55.02-25.48L55.02-25.48Q57.90-22.12 57.90-16.58L57.90-16.58L57.90-16.58Q57.90-9.18 54.18-4.28L54.18-4.28L54.18-4.28Q50.46 0.62 44.80 0.62L44.80 0.62L44.80 0.62Q40.15 0.62 37.10-2.88L37.10-2.88L37.10-2.88Q34.05-6.38 34.05-11.70L34.05-11.70zM51.63-13.66L51.63-13.66L51.63-13.66Q51.63-21.78 46.09-21.78L46.09-21.78L46.09-21.78Q40.32-21.78 40.32-14.17L40.32-14.17L40.32-14.17Q40.32-10.19 41.94-7.95L41.94-7.95L41.94-7.95Q43.57-5.71 46.23-5.71L46.23-5.71L46.23-5.71Q48.89-5.71 50.26-7.76L50.26-7.76L50.26-7.76Q51.63-9.80 51.63-13.66" fill="#ffffff" stroke="none" stroke-width="none" transform="translate(-111.82995796203613,16.652687176295693)" style="fill: rgb(255, 255, 255);"></path></g><g class="path" style="transform: scale(0.91); transform-origin: -38.8599px 2.54269px; animation: 0.537634s linear -0.202765s infinite normal forwards running breath-7cd0af25-4cca-4acf-aa49-7d9ac991cae1;"><path d="M61.04-11.70L61.04-11.70Q61.04-18.87 64.90-23.86L64.90-23.86L64.90-23.86Q68.77-28.84 73.95-28.84L73.95-28.84L73.95-28.84Q79.13-28.84 82.01-25.48L82.01-25.48L82.01-25.48Q84.90-22.12 84.90-16.58L84.90-16.58L84.90-16.58Q84.90-9.18 81.17-4.28L81.17-4.28L81.17-4.28Q77.45 0.62 71.79 0.62L71.79 0.62L71.79 0.62Q67.14 0.62 64.09-2.88L64.09-2.88L64.09-2.88Q61.04-6.38 61.04-11.70L61.04-11.70zM78.62-13.66L78.62-13.66L78.62-13.66Q78.62-21.78 73.08-21.78L73.08-21.78L73.08-21.78Q67.31-21.78 67.31-14.17L67.31-14.17L67.31-14.17Q67.31-10.19 68.94-7.95L68.94-7.95L68.94-7.95Q70.56-5.71 73.22-5.71L73.22-5.71L73.22-5.71Q75.88-5.71 77.25-7.76L77.25-7.76L77.25-7.76Q78.62-9.80 78.62-13.66" fill="#ffffff" stroke="none" stroke-width="none" transform="translate(-111.82995796203613,16.652687176295693)" style="fill: rgb(255, 255, 255);"></path></g><g class="path" style="transform: scale(0.91); transform-origin: -10.1899px -4.73731px; animation: 0.537634s linear -0.152074s infinite normal forwards running breath-7cd0af25-4cca-4acf-aa49-7d9ac991cae1;"><path d="M113.57-3.70L107.18 0.56L96.66-14.95L96.66-14.56L97.27-1.40L89.71 0L90.38-13.61L89.71-41.94L97.38-43.34L96.66-16.30L107.86-28.56L113.12-24.98L103.32-15.79L113.57-3.70" fill="#ffffff" stroke="none" stroke-width="none" transform="translate(-111.82995796203613,16.652687176295693)" style="fill: rgb(255, 255, 255);"></path></g><g class="path" style="transform: scale(0.91); transform-origin: 29.54px -2.66732px; animation: 0.537634s linear -0.101382s infinite normal forwards running breath-7cd0af25-4cca-4acf-aa49-7d9ac991cae1;"><path d="M149.35-37.91L156.18-38.75L155.46-14.56L156.07-1.23L149.46 0.17L132.78-26.82L132.78-14.56L133.56 0L126.56 0L127.23-13.61L126.56-38.47L133.28-38.81L149.91-11.42L149.35-37.91" fill="#ffffff" stroke="none" stroke-width="none" transform="translate(-111.82995796203613,16.652687176295693)" style="fill: rgb(255, 255, 255);"></path></g><g class="path" style="transform: scale(0.91); transform-origin: 62.33px 2.54269px; animation: 0.537634s linear -0.0506912s infinite normal forwards running breath-7cd0af25-4cca-4acf-aa49-7d9ac991cae1;"><path d="M162.23-11.70L162.23-11.70Q162.23-18.87 166.10-23.86L166.10-23.86L166.10-23.86Q169.96-28.84 175.14-28.84L175.14-28.84L175.14-28.84Q180.32-28.84 183.20-25.48L183.20-25.48L183.20-25.48Q186.09-22.12 186.09-16.58L186.09-16.58L186.09-16.58Q186.09-9.18 182.36-4.28L182.36-4.28L182.36-4.28Q178.64 0.62 172.98 0.62L172.98 0.62L172.98 0.62Q168.34 0.62 165.28-2.88L165.28-2.88L165.28-2.88Q162.23-6.38 162.23-11.70L162.23-11.70zM179.82-13.66L179.82-13.66L179.82-13.66Q179.82-21.78 174.27-21.78L174.27-21.78L174.27-21.78Q168.50-21.78 168.50-14.17L168.50-14.17L168.50-14.17Q168.50-10.19 170.13-7.95L170.13-7.95L170.13-7.95Q171.75-5.71 174.41-5.71L174.41-5.71L174.41-5.71Q177.07-5.71 178.44-7.76L178.44-7.76L178.44-7.76Q179.82-9.80 179.82-13.66" fill="#ffffff" stroke="none" stroke-width="none" transform="translate(-111.82995796203613,16.652687176295693)" style="fill: rgb(255, 255, 255);"></path></g><g class="path" style="transform: scale(0.91); transform-origin: 96.4051px 2.48769px; animation: 0.537634s linear 0s infinite normal forwards running breath-7cd0af25-4cca-4acf-aa49-7d9ac991cae1;"><path d="M213.92-16.13L215.88-7L216.61-7L218.40-14.67L221.31-28.50L228.14-27.66L224.06-13.78L220.64-0.67L211.46 0.17L208.38-13.44L208.10-14.34L204.34-0.67L195.44 0.17L192.19-13.44L188.33-27.05L195.66-28.45L197.96-16.13L199.98-7L200.70-7L205.52-22.96L204.34-27.05L211.57-28.45L213.92-16.13" fill="#ffffff" stroke="none" stroke-width="none" transform="translate(-111.82995796203613,16.652687176295693)" style="fill: rgb(255, 255, 255);"></path></g></g>
</g>
</g>
<style id="breath-7cd0af25-4cca-4acf-aa49-7d9ac991cae1" data-anikit="">@keyframes breath-7cd0af25-4cca-4acf-aa49-7d9ac991cae1
{
  0% {
    animation-timing-function: cubic-bezier(0.9647,0.2413,-0.0705,0.7911);
    transform: scale(0.9099999999999999);
  }
  51% {
    animation-timing-function: cubic-bezier(0.9226,0.2631,-0.0308,0.7628);
    transform: scale(1.02994);
  }
  100% {
    transform: scale(0.9099999999999999);
  }
}</style></svg>