<?xml version="1.0" encoding="utf-8"?>
<svg xmlns="http://www.w3.org/2000/svg" style="margin: auto; background: none; display: block; shape-rendering: auto;" width="280" height="57" preserveAspectRatio="xMidYMid">
<style type="text/css">
  text {
    text-anchor: middle; font-size: 54px; opacity: 0;
  }
</style>
<g style="transform-origin:140px 28.5px;transform:scale(1)">
<g transform="translate(140,28.5)">
  <g transform="translate(0,0)"><g class="path" style="transform: scale(1); transform-origin: -91.125px -2.2762px; animation: 0.75188s linear -0.425349s infinite normal forwards running beat-5ada1559-f4f6-41c0-a15a-672cd749e6f2;"><path d="M4.32-37.26L16.04-37.26L16.04-37.26Q21.22-37.26 24.25-34.91L24.25-34.91L24.25-34.91Q27.27-32.56 27.27-28.62L27.27-28.62L27.27-28.62Q27.27-22.30 22.09-19.82L22.09-19.82L22.09-19.82Q29.11-17.39 29.11-10.85L29.11-10.85L29.11-10.85Q29.11-5.94 24.89-2.67L24.89-2.67L24.89-2.67Q20.68 0.59 14.31 0.59L14.31 0.59L14.31 0.59Q10.96 0.59 4.32 0L4.32 0L4.97-13.12L4.32-37.26zM15.34-16.04L15.34-16.04L10.96-16.04L10.91-14.04L11.29-5.24L11.29-5.24Q14.42-4.97 16.09-4.97L16.09-4.97L16.09-4.97Q18.95-4.97 20.55-6.40L20.55-6.40L20.55-6.40Q22.14-7.83 22.14-10.58L22.14-10.58L22.14-10.58Q22.14-13.34 20.52-14.69L20.52-14.69L20.52-14.69Q18.90-16.04 15.34-16.04zM14.09-31.81L14.09-31.81L11.45-31.81L11.12-21.28L14.63-21.28L14.63-21.28Q17.39-21.28 18.85-22.76L18.85-22.76L18.85-22.76Q20.30-24.25 20.30-27L20.30-27L20.30-27Q20.30-31.81 14.09-31.81" fill="#ffffff" stroke="none" stroke-width="none" transform="translate(-107.84000587463379,16.0588037109375)" style="fill: rgb(255, 255, 255);"></path></g><g class="path" style="transform: scale(1); transform-origin: -63.505px 2.4488px; animation: 0.75188s linear -0.354458s infinite normal forwards running beat-5ada1559-f4f6-41c0-a15a-672cd749e6f2;"><path d="M32.83-11.29L32.83-11.29Q32.83-18.20 36.56-23.00L36.56-23.00L36.56-23.00Q40.28-27.81 45.28-27.81L45.28-27.81L45.28-27.81Q50.27-27.81 53.05-24.57L53.05-24.57L53.05-24.57Q55.84-21.33 55.84-15.98L55.84-15.98L55.84-15.98Q55.84-8.86 52.25-4.13L52.25-4.13L52.25-4.13Q48.65 0.59 43.20 0.59L43.20 0.59L43.20 0.59Q38.72 0.59 35.77-2.78L35.77-2.78L35.77-2.78Q32.83-6.16 32.83-11.29L32.83-11.29zM49.79-13.18L49.79-13.18L49.79-13.18Q49.79-21.01 44.44-21.01L44.44-21.01L44.44-21.01Q38.88-21.01 38.88-13.66L38.88-13.66L38.88-13.66Q38.88-9.83 40.45-7.67L40.45-7.67L40.45-7.67Q42.01-5.51 44.58-5.51L44.58-5.51L44.58-5.51Q47.14-5.51 48.47-7.48L48.47-7.48L48.47-7.48Q49.79-9.45 49.79-13.18" fill="#ffffff" stroke="none" stroke-width="none" transform="translate(-107.84000587463379,16.0588037109375)" style="fill: rgb(255, 255, 255);"></path></g><g class="path" style="transform: scale(1); transform-origin: -37.48px 2.4488px; animation: 0.75188s linear -0.283566s infinite normal forwards running beat-5ada1559-f4f6-41c0-a15a-672cd749e6f2;"><path d="M58.86-11.29L58.86-11.29Q58.86-18.20 62.59-23.00L62.59-23.00L62.59-23.00Q66.31-27.81 71.31-27.81L71.31-27.81L71.31-27.81Q76.30-27.81 79.08-24.57L79.08-24.57L79.08-24.57Q81.86-21.33 81.86-15.98L81.86-15.98L81.86-15.98Q81.86-8.86 78.27-4.13L78.27-4.13L78.27-4.13Q74.68 0.59 69.23 0.59L69.23 0.59L69.23 0.59Q64.75 0.59 61.80-2.78L61.80-2.78L61.80-2.78Q58.86-6.16 58.86-11.29L58.86-11.29zM75.82-13.18L75.82-13.18L75.82-13.18Q75.82-21.01 70.47-21.01L70.47-21.01L70.47-21.01Q64.91-21.01 64.91-13.66L64.91-13.66L64.91-13.66Q64.91-9.83 66.47-7.67L66.47-7.67L66.47-7.67Q68.04-5.51 70.61-5.51L70.61-5.51L70.61-5.51Q73.17-5.51 74.49-7.48L74.49-7.48L74.49-7.48Q75.82-9.45 75.82-13.18" fill="#ffffff" stroke="none" stroke-width="none" transform="translate(-107.84000587463379,16.0588037109375)" style="fill: rgb(255, 255, 255);"></path></g><g class="path" style="transform: scale(1); transform-origin: -9.83px -4.5712px; animation: 0.75188s linear -0.212675s infinite normal forwards running beat-5ada1559-f4f6-41c0-a15a-672cd749e6f2;"><path d="M109.51-3.56L103.36 0.54L93.20-14.42L93.20-14.04L93.80-1.35L86.51 0L87.16-13.12L86.51-40.45L93.91-41.80L93.20-15.71L104.00-27.54L109.08-24.08L99.63-15.23L109.51-3.56" fill="#ffffff" stroke="none" stroke-width="none" transform="translate(-107.84000587463379,16.0588037109375)" style="fill: rgb(255, 255, 255);"></path></g><g class="path" style="transform: scale(1); transform-origin: 28.485px -2.5712px; animation: 0.75188s linear -0.141783s infinite normal forwards running beat-5ada1559-f4f6-41c0-a15a-672cd749e6f2;"><path d="M144.02-36.56L150.61-37.37L149.90-14.04L150.50-1.19L144.13 0.16L128.03-25.87L128.03-14.04L128.79 0L122.04 0L122.69-13.12L122.04-37.10L128.52-37.42L144.56-11.02L144.02-36.56" fill="#ffffff" stroke="none" stroke-width="none" transform="translate(-107.84000587463379,16.0588037109375)" style="fill: rgb(255, 255, 255);"></path></g><g class="path" style="transform: scale(1); transform-origin: 60.1px 2.4488px; animation: 0.75188s linear -0.0708915s infinite normal forwards running beat-5ada1559-f4f6-41c0-a15a-672cd749e6f2;"><path d="M156.44-11.29L156.44-11.29Q156.44-18.20 160.16-23.00L160.16-23.00L160.16-23.00Q163.89-27.81 168.88-27.81L168.88-27.81L168.88-27.81Q173.88-27.81 176.66-24.57L176.66-24.57L176.66-24.57Q179.44-21.33 179.44-15.98L179.44-15.98L179.44-15.98Q179.44-8.86 175.85-4.13L175.85-4.13L175.85-4.13Q172.26 0.59 166.81 0.59L166.81 0.59L166.81 0.59Q162.32 0.59 159.38-2.78L159.38-2.78L159.38-2.78Q156.44-6.16 156.44-11.29L156.44-11.29zM173.39-13.18L173.39-13.18L173.39-13.18Q173.39-21.01 168.05-21.01L168.05-21.01L168.05-21.01Q162.49-21.01 162.49-13.66L162.49-13.66L162.49-13.66Q162.49-9.83 164.05-7.67L164.05-7.67L164.05-7.67Q165.62-5.51 168.18-5.51L168.18-5.51L168.18-5.51Q170.75-5.51 172.07-7.48L172.07-7.48L172.07-7.48Q173.39-9.45 173.39-13.18" fill="#ffffff" stroke="none" stroke-width="none" transform="translate(-107.84000587463379,16.0588037109375)" style="fill: rgb(255, 255, 255);"></path></g><g class="path" style="transform: scale(1); transform-origin: 92.96px 2.3938px; animation: 0.75188s linear 0s infinite normal forwards running beat-5ada1559-f4f6-41c0-a15a-672cd749e6f2;"><path d="M206.28-15.55L208.17-6.75L208.87-6.75L210.60-14.15L213.41-27.49L220.00-26.68L216.05-13.28L212.76-0.65L203.90 0.16L200.93-12.96L200.66-13.82L197.05-0.65L188.46 0.16L185.33-12.96L181.60-26.08L188.68-27.43L190.89-15.55L192.83-6.75L193.54-6.75L198.18-22.14L197.05-26.08L204.01-27.43L206.28-15.55" fill="#ffffff" stroke="none" stroke-width="none" transform="translate(-107.84000587463379,16.0588037109375)" style="fill: rgb(255, 255, 255);"></path></g></g>
</g>
</g>
<style id="beat-5ada1559-f4f6-41c0-a15a-672cd749e6f2" data-anikit="">@keyframes beat-5ada1559-f4f6-41c0-a15a-672cd749e6f2
{
  0% {
    animation-timing-function: cubic-bezier(0.1028,0.2484,0.1372,0.849);
    transform: scale(1);
  }
  34% {
    animation-timing-function: cubic-bezier(0.7116,0.2095,0.8159,0.6876);
    transform: scale(1.2);
  }
  68% {
    animation-timing-function: cubic-bezier(0.1475,0.2888,0.294,0.883);
    transform: scale(1.0268);
  }
  84% {
    animation-timing-function: cubic-bezier(0.8176,0.2193,0.867,0.6889);
    transform: scale(1.0932);
  }
  100% {
    transform: scale(1);
  }
}</style></svg>