<svg xmlns="http://www.w3.org/2000/svg" width="159.573" height="22.502" viewBox="0 0 159.573 22.502"><g id="Group_12" data-name="Group 12" style="isolation: isolate"><path id="Path_1" data-name="Path 1" d="M116.5,19.073v11.1H105.92v-11.1H105V40.356h.921V31.1H116.5v9.253h.921V19.073Z" transform="translate(6.294 -17.854)" fill="#fff"></path><path id="Path_2" data-name="Path 2" d="M105.01,19.073H93.194V20h5.448V40.356h.921V20h5.448Z" transform="translate(2.998 -17.854)" fill="#fff"></path><g id="Group_1" data-name="Group 1" transform="translate(41.171 1.147)"><path id="Path_3" data-name="Path 3" d="M60.808,40.372A10.678,10.678,0,1,1,62.58,19.165l-.152.913a9.748,9.748,0,1,0-1.62,19.369Z" transform="translate(-50.184 -19.017)" fill="#fff"></path></g><g id="Group_2" data-name="Group 2" transform="translate(43.856 3.845)"><path id="Path_4" data-name="Path 4" d="M60.222,37.073a7.978,7.978,0,1,1,7.939-7.978,8.084,8.084,0,0,1-.1,1.295l-.908-.149a7.121,7.121,0,0,0,.092-1.146,7.018,7.018,0,1,0-7.018,7.053Z" transform="translate(-52.283 -21.116)" fill="#fff"></path></g><g id="Group_3" data-name="Group 3" transform="translate(51.795 0.356)"><path id="Path_5" data-name="Path 5" d="M59.859,19.288l.061-.886-1.431,1.254,1.246,1.439.06-.881a9.752,9.752,0,0,1-1.306,19.409v.924a10.677,10.677,0,0,0,1.37-21.259Z" transform="translate(-58.489 -18.402)" fill="#006eb2"></path><path id="Path_6" data-name="Path 6" d="M58.489,34.375V35.3A7.9,7.9,0,0,0,66.3,28.707l.88.081-1.215-1.466-1.458,1.22.872.08A6.982,6.982,0,0,1,58.489,34.375Z" transform="translate(-58.489 -15.854)" fill="#006eb2"></path></g><g id="Group_5" data-name="Group 5" transform="translate(24.469 0.687)"><g id="Group_4" data-name="Group 4"><path id="Path_7" data-name="Path 7" d="M50.38,39.991H49.355L43.4,27.807h.743a3.747,3.747,0,0,0,3.732-3.75v-.721a3.748,3.748,0,0,0-3.732-3.752H38.049V39.991h-.921V18.659h7.01a4.67,4.67,0,0,1,4.653,4.676v.721a4.679,4.679,0,0,1-3.941,4.621Z" transform="translate(-37.128 -18.659)" fill="#fff"></path></g></g><g id="Group_7" data-name="Group 7" transform="translate(0 0.684)"><g id="Group_6" data-name="Group 6"><path id="Path_8" data-name="Path 8" d="M28.624,40.012a10.678,10.678,0,1,1,7.865-17.838l-.682.621A9.752,9.752,0,1,0,35.688,36V29.95h.921v6.412l-.12.132A10.613,10.613,0,0,1,28.624,40.012Z" transform="translate(-18 -18.657)" fill="#fff"></path></g></g><g id="Group_8" data-name="Group 8" transform="translate(128.09 0)"><path id="Path_9" data-name="Path 9" d="M128.745,19.021a7.239,7.239,0,0,0-3.559-.9,6.779,6.779,0,0,0-3.531.966,7.3,7.3,0,0,0-3.527,6.295,7.274,7.274,0,0,0,.942,3.628,7.193,7.193,0,0,0,2.55,2.65,6.633,6.633,0,0,0,3.5.982A8.117,8.117,0,0,0,128,32.181a5.951,5.951,0,0,0,1.178-.613,22.925,22.925,0,0,1-2.7,3.181,38.343,38.343,0,0,1-6.029,4.8l-.215.141.766.936.175-.131c2.2-1.639,4.078-3.158,5.57-4.511a20.95,20.95,0,0,0,3.871-4.733,11.177,11.177,0,0,0,1.623-5.833,7.66,7.66,0,0,0-.942-3.845A6.607,6.607,0,0,0,128.745,19.021Zm2.41,6.1v.433a5.493,5.493,0,0,1-5.936,6,5.772,5.772,0,0,1-3-.816A5.994,5.994,0,0,1,120.05,28.5a6.248,6.248,0,0,1-.8-3.116,6.157,6.157,0,0,1,.8-3.1,6.025,6.025,0,0,1,2.171-2.215,5.773,5.773,0,0,1,3-.818,5.958,5.958,0,0,1,2.906.738,5.714,5.714,0,0,1,2.15,2.083A6.3,6.3,0,0,1,131.156,25.119Z" transform="translate(-118.129 -18.125)" fill="#006eb2"></path><path id="Path_10" data-name="Path 10" d="M144.88,21.573a6.619,6.619,0,0,0-2.559-2.552,7.23,7.23,0,0,0-3.558-.9,6.784,6.784,0,0,0-3.532.966,7.3,7.3,0,0,0-3.526,6.295,7.286,7.286,0,0,0,.94,3.628,7.2,7.2,0,0,0,2.551,2.65,6.633,6.633,0,0,0,3.5.982,8.1,8.1,0,0,0,2.882-.464,5.916,5.916,0,0,0,1.178-.613,23,23,0,0,1-2.7,3.181,38.359,38.359,0,0,1-6.03,4.8l-.214.141.765.936.177-.131c2.2-1.639,4.077-3.158,5.57-4.511a20.985,20.985,0,0,0,3.871-4.733,11.176,11.176,0,0,0,1.623-5.833A7.66,7.66,0,0,0,144.88,21.573Zm-.148,3.546v.433a5.975,5.975,0,0,1-1.589,4.415A5.916,5.916,0,0,1,138.8,31.55a5.769,5.769,0,0,1-3-.816,5.985,5.985,0,0,1-2.171-2.232,6.236,6.236,0,0,1-.8-3.116,6.157,6.157,0,0,1,.8-3.1,6.019,6.019,0,0,1,2.172-2.215,5.77,5.77,0,0,1,3-.818,5.953,5.953,0,0,1,2.905.738,5.708,5.708,0,0,1,2.152,2.083A6.283,6.283,0,0,1,144.731,25.119Z" transform="translate(-114.338 -18.125)" fill="#006eb2"></path></g><path id="Path_11" data-name="Path 11" d="M86.84,38.171,83.278,30.4l5.35-11.324H87.609L82.777,29.3,78.09,19.073H77.077l5.185,11.319-3.676,7.78-8.75-19.1H68.823l9.75,21.283,4.19-8.869,4.063,8.869L96.882,19.073H95.863Z" transform="translate(-3.808 -17.854)" fill="#fff"></path></g></svg>