<svg xmlns="http://www.w3.org/2000/svg" xmlns:xlink="http://www.w3.org/1999/xlink" id="Layer_1" x="0px" y="0px" viewBox="0 0 314.1 43" style="enable-background:new 0 0 314.1 43;" xml:space="preserve"><style type="text/css">	.st0{fill:#F3704E;}	.st1{opacity:0.3;fill:#F3704E;}	.st2{opacity:0.6;fill:#F3704E;}	.st3{opacity:0.3;fill:#FFFFFF;}	.st4{fill:#FFFFFF;}	.st5{opacity:0.6;fill:#FFFFFF;}	.st6{opacity:0.3;}	.st7{opacity:0.6;}</style><g>	<polygon points="4.5,0.5 0,0.5 0,42.5 24.3,42.5 24.3,38.6 4.5,38.6  "></polygon>	<rect x="45.1" y="0.5" width="4.5" height="42"></rect>	<path d="M102.1,28.9c0,1.8,0.3,4.8,0.3,4.8s-1.7-2.5-2.9-3.9L74.4,0.1h-0.7v42.5h4.2V14.2c0-1.8-0.4-4.8-0.4-4.8s1.7,2.5,2.9,3.9  L105.5,43h0.7V0.5h-4.1V28.9z"></path>	<path d="M197.2,0c-11.9,0-21.6,8.8-21.6,21.5c0,12.7,9.6,21.5,21.6,21.5c12,0,21.6-8.8,21.6-21.5C218.8,8.8,209.2,0,197.2,0z   M197.2,39c-9.8,0-16.9-7.5-16.9-17.5c0-10,7.2-17.5,16.9-17.5c9.8,0,17,7.5,17,17.5C214.2,31.5,207,39,197.2,39z"></path>	<path d="M262.6,27.9c0,7.5-4.1,11.2-10.6,11.2c-6.6,0-10.6-3.7-10.6-11.2V0.5h-4.4v27.7c0,9.8,6.5,14.8,15.1,14.8  c8.5,0,15.1-5,15.1-14.8V0.5h-4.4V27.9z"></path>	<polygon points="283.8,0.5 283.8,4.5 296.7,4.5 296.7,42.5 301.2,42.5 301.2,4.5 314.1,4.5 314.1,0.5  "></polygon>	<rect x="130.4" y="0.2" width="25.8" height="4.1"></rect>	<rect x="130.4" y="38.2" width="25.8" height="4.1"></rect>	<rect x="130.4" y="19.2" width="25.8" height="4.1"></rect></g></svg>