<svg xmlns="http://www.w3.org/2000/svg" xmlns:xlink="http://www.w3.org/1999/xlink" id="Layer_1" x="0px" y="0px" viewBox="0 0 314.1 43" style="enable-background:new 0 0 314.1 43;" xml:space="preserve"><style type="text/css">	.st0{fill:#F3704E;}	.st1{opacity:0.3;fill:#F3704E;}	.st2{opacity:0.6;fill:#F3704E;}	.st3{opacity:0.3;fill:#FFFFFF;}	.st4{fill:#FFFFFF;}	.st5{opacity:0.6;fill:#FFFFFF;}	.st6{opacity:0.3;}	.st7{opacity:0.6;}</style><g>	<g>		<path class="st0" d="M0,0.5h4.5v38.1h19.8v4H0V0.5z"></path>		<path class="st0" d="M45.1,0.5h4.5v42h-4.5V0.5z"></path>		<path class="st0" d="M80.4,13.3c-1.2-1.4-2.9-3.9-2.9-3.9s0.4,3,0.4,4.8v28.4h-4.2V0.1h0.7l25.1,29.7c1.2,1.4,2.9,3.9,2.9,3.9   s-0.3-3-0.3-4.8V0.5h4.1V43h-0.7L80.4,13.3z"></path>		<path class="st0" d="M175.6,21.5c0-12.7,9.6-21.5,21.6-21.5c12,0,21.6,8.8,21.6,21.5c0,12.7-9.6,21.5-21.6,21.5   C185.2,43,175.6,34.2,175.6,21.5z M214.2,21.5c0-10-7.2-17.5-17-17.5c-9.8,0-16.9,7.5-16.9,17.5c0,10,7.2,17.5,16.9,17.5   C207,39,214.2,31.5,214.2,21.5z"></path>		<path class="st0" d="M236.9,28.2V0.5h4.4v27.4c0,7.5,4.1,11.2,10.6,11.2c6.5,0,10.6-3.7,10.6-11.2V0.5h4.4v27.7   C267,38,260.5,43,252,43C243.4,43,236.9,38,236.9,28.2z"></path>		<path class="st0" d="M296.7,4.5h-12.9v-4h30.3v4h-12.9v38.1h-4.5V4.5z"></path>	</g>	<rect x="130.4" y="0.2" class="st1" width="25.8" height="4.1"></rect>	<rect x="130.4" y="38.2" class="st0" width="25.8" height="4.1"></rect>	<rect x="130.4" y="19.2" class="st2" width="25.8" height="4.1"></rect></g></svg>