<?xml version="1.0" encoding="utf-8"?>
<svg xmlns="http://www.w3.org/2000/svg" style="margin: auto; background: none; display: block; shape-rendering: auto;" width="210" height="44" preserveAspectRatio="xMidYMid">
<style type="text/css">
  text {
    text-anchor: middle; font-size: 29px; opacity: 0;
  }
</style>
<g style="transform-origin: 105px 22px; transform: scale(0.805556);">
<g transform="translate(105,22)">
  <g transform="translate(0,0)"><g class="path" style="transform: scale(0.91); transform-origin: -106.185px -1.88236px; animation: 0.537634s linear -0.322581s infinite normal forwards running breath-652a782d-3763-48df-8e5d-d3fbdc724ecb;"><path d="M17.35-6.77L17.35-6.77L17.35-6.77Q17.35-5.40 16.81-4.08L16.81-4.08L16.81-4.08Q16.28-2.76 15.12-1.72L15.12-1.72L15.12-1.72Q13.96-0.69 12.15-0.05L12.15-0.05L12.15-0.05Q10.34 0.58 7.80 0.58L7.80 0.58L7.80 0.58Q6.33 0.58 5.16 0.37L5.16 0.37L5.16 0.37Q3.99 0.16 3.15-0.09L3.15-0.09L3.15-0.09Q2.18-0.39 1.41-0.76L1.41-0.76L1.41-7.14L3.67-7.14L4.15-3.06L4.15-3.06Q4.18-2.85 4.37-2.60L4.37-2.60L4.37-2.60Q4.55-2.36 4.75-2.27L4.75-2.27L5.04-2.11L5.04-2.11Q5.31-1.99 5.77-1.84L5.77-1.84L5.77-1.84Q6.22-1.69 6.88-1.56L6.88-1.56L6.88-1.56Q7.54-1.44 8.38-1.44L8.38-1.44L8.38-1.44Q9.53-1.44 10.50-1.73L10.50-1.73L10.50-1.73Q11.48-2.02 12.18-2.57L12.18-2.57L12.18-2.57Q12.88-3.11 13.28-3.90L13.28-3.90L13.28-3.90Q13.68-4.69 13.68-5.70L13.68-5.70L13.68-5.70Q13.68-6.79 13.05-7.60L13.05-7.60L13.05-7.60Q12.43-8.42 11.49-9.06L11.49-9.06L11.49-9.06Q10.55-9.70 9.44-10.21L9.44-10.21L9.44-10.21Q8.33-10.72 7.35-11.20L7.35-11.20L7.35-11.20Q6.24-11.72 5.23-12.29L5.23-12.29L5.23-12.29Q4.22-12.85 3.45-13.59L3.45-13.59L3.45-13.59Q2.69-14.33 2.24-15.32L2.24-15.32L2.24-15.32Q1.79-16.31 1.79-17.68L1.79-17.68L1.79-17.68Q1.79-19.28 2.43-20.58L2.43-20.58L2.43-20.58Q3.06-21.88 4.17-22.81L4.17-22.81L4.17-22.81Q5.29-23.73 6.81-24.23L6.81-24.23L6.81-24.23Q8.33-24.73 10.11-24.73L10.11-24.73L10.11-24.73Q11.07-24.73 11.92-24.63L11.92-24.63L11.92-24.63Q12.76-24.52 13.51-24.35L13.51-24.35L13.51-24.35Q14.26-24.19 14.91-23.99L14.91-23.99L14.91-23.99Q15.56-23.78 16.14-23.61L16.14-23.61L16.45-23.50L16.45-17.89L14.40-17.89L13.85-21.34L13.85-21.34Q13.82-21.59 13.63-21.70L13.63-21.70L13.63-21.70Q13.45-21.81 13.29-21.97L13.29-21.97L13.29-21.97Q13.22-22.03 13.01-22.16L13.01-22.16L13.01-22.16Q12.80-22.29 12.42-22.43L12.42-22.43L12.42-22.43Q12.04-22.57 11.48-22.68L11.48-22.68L11.48-22.68Q10.92-22.78 10.16-22.78L10.16-22.78L10.16-22.78Q9.07-22.78 8.21-22.46L8.21-22.46L8.21-22.46Q7.35-22.15 6.75-21.58L6.75-21.58L6.75-21.58Q6.15-21.01 5.83-20.23L5.83-20.23L5.83-20.23Q5.50-19.46 5.50-18.54L5.50-18.54L5.50-18.54Q5.50-17.72 5.83-17.04L5.83-17.04L5.83-17.04Q6.15-16.37 6.79-15.79L6.79-15.79L6.79-15.79Q7.44-15.22 8.37-14.73L8.37-14.73L8.37-14.73Q9.30-14.24 10.51-13.78L10.51-13.78L10.51-13.78Q12.15-13.17 13.42-12.50L13.42-12.50L13.42-12.50Q14.70-11.83 15.57-11.00L15.57-11.00L15.57-11.00Q16.44-10.18 16.89-9.15L16.89-9.15L16.89-9.15Q17.35-8.12 17.35-6.77" fill="#ffffff" stroke="none" stroke-width="none" transform="translate(-115.56498050689697,10.192639038779523)" style="fill: rgb(255, 255, 255);"></path></g><g class="path" style="transform: scale(0.91); transform-origin: -88.415px 1.51764px; animation: 0.537634s linear -0.290323s infinite normal forwards running breath-652a782d-3763-48df-8e5d-d3fbdc724ecb;"><path d="M34.31-3.39L34.31-1.34L34.31-1.34Q33.70-1.02 33.02-0.69L33.02-0.69L33.02-0.69Q32.34-0.37 31.58-0.12L31.58-0.12L31.58-0.12Q30.81 0.12 29.98 0.28L29.98 0.28L29.98 0.28Q29.14 0.44 28.23 0.44L28.23 0.44L28.23 0.44Q26.33 0.44 24.81-0.24L24.81-0.24L24.81-0.24Q23.29-0.91 22.22-2.12L22.22-2.12L22.22-2.12Q21.15-3.32 20.57-4.97L20.57-4.97L20.57-4.97Q19.99-6.63 19.99-8.56L19.99-8.56L19.99-8.56Q19.99-10.83 20.69-12.55L20.69-12.55L20.69-12.55Q21.39-14.27 22.59-15.44L22.59-15.44L22.59-15.44Q23.78-16.61 25.36-17.20L25.36-17.20L25.36-17.20Q26.93-17.79 28.65-17.79L28.65-17.79L28.65-17.79Q29.83-17.79 30.86-17.55L30.86-17.55L30.86-17.55Q31.89-17.31 32.63-16.86L32.63-16.86L32.63-16.86Q33.38-16.40 33.81-15.73L33.81-15.73L33.81-15.73Q34.24-15.06 34.24-14.19L34.24-14.19L34.24-14.19Q34.24-13.66 34.06-13.26L34.06-13.26L34.06-13.26Q33.87-12.87 33.57-12.59L33.57-12.59L33.57-12.59Q33.28-12.32 32.90-12.19L32.90-12.19L32.90-12.19Q32.52-12.06 32.12-12.06L32.12-12.06L32.12-12.06Q31.52-12.06 31.08-12.26L31.08-12.26L31.08-12.26Q30.64-12.46 30.30-12.67L30.30-12.67L30.30-15.80L30.30-15.80Q29.94-16.01 29.54-16.15L29.54-16.15L29.54-16.15Q29.14-16.28 28.79-16.28L28.79-16.28L28.79-16.28Q27.60-16.28 26.64-15.73L26.64-15.73L26.64-15.73Q25.68-15.19 25.02-14.22L25.02-14.22L25.02-14.22Q24.36-13.25 24.01-11.93L24.01-11.93L24.01-11.93Q23.66-10.60 23.66-9.04L23.66-9.04L23.66-9.04Q23.66-7.54 24.04-6.22L24.04-6.22L24.04-6.22Q24.42-4.90 25.16-3.93L25.16-3.93L25.16-3.93Q25.91-2.95 27.03-2.39L27.03-2.39L27.03-2.39Q28.14-1.83 29.62-1.83L29.62-1.83L29.62-1.83Q30.88-1.83 32.02-2.22L32.02-2.22L32.02-2.22Q33.15-2.62 34.31-3.39L34.31-3.39" fill="#ffffff" stroke="none" stroke-width="none" transform="translate(-115.56498050689697,10.192639038779523)" style="fill: rgb(255, 255, 255);"></path></g><g class="path" style="transform: scale(0.91); transform-origin: -69.855px -3.07236px; animation: 0.537634s linear -0.258065s infinite normal forwards running breath-652a782d-3763-48df-8e5d-d3fbdc724ecb;"><path d="M55.35 0L47.34 0L47.34-1.41L48.81-1.51L48.81-1.51Q49.13-1.55 49.37-1.76L49.37-1.76L49.37-1.76Q49.61-1.97 49.61-2.30L49.61-2.30L49.61-11.58L49.61-11.58Q49.61-12.36 49.44-13.01L49.44-13.01L49.44-13.01Q49.27-13.66 48.86-14.13L48.86-14.13L48.86-14.13Q48.45-14.61 47.76-14.88L47.76-14.88L47.76-14.88Q47.07-15.15 46.04-15.15L46.04-15.15L46.04-15.15Q45.56-15.15 45.04-15.07L45.04-15.07L45.04-15.07Q44.51-14.99 43.99-14.85L43.99-14.85L43.99-14.85Q43.47-14.71 42.99-14.52L42.99-14.52L42.99-14.52Q42.50-14.33 42.12-14.12L42.12-14.12L42.12-2.30L42.12-2.30Q42.12-1.97 42.31-1.76L42.31-1.76L42.31-1.76Q42.50-1.55 42.84-1.51L42.84-1.51L44.38-1.41L44.38 0L36.28 0L36.28-1.41L38.00-1.51L38.00-1.51Q38.34-1.55 38.55-1.76L38.55-1.76L38.55-1.76Q38.76-1.97 38.76-2.30L38.76-2.30L38.76-23.94L36.07-23.94L36.07-25.14L40.68-26.53L42.12-26.53L42.12-15.56L42.12-15.56Q42.61-15.86 43.33-16.24L43.33-16.24L43.33-16.24Q44.05-16.63 44.87-16.97L44.87-16.97L44.87-16.97Q45.69-17.31 46.52-17.55L46.52-17.55L46.52-17.55Q47.36-17.79 48.06-17.79L48.06-17.79L48.06-17.79Q49.10-17.79 49.98-17.46L49.98-17.46L49.98-17.46Q50.87-17.12 51.53-16.45L51.53-16.45L51.53-16.45Q52.19-15.79 52.57-14.76L52.57-14.76L52.57-14.76Q52.95-13.73 52.95-12.34L52.95-12.34L52.95-2.30L52.95-2.30Q52.95-1.97 53.18-1.76L53.18-1.76L53.18-1.76Q53.42-1.55 53.74-1.51L53.74-1.51L55.35-1.41L55.35 0" fill="#ffffff" stroke="none" stroke-width="none" transform="translate(-115.56498050689697,10.192639038779523)" style="fill: rgb(255, 255, 255);"></path></g><g class="path" style="transform: scale(0.91); transform-origin: -50.54px 1.51764px; animation: 0.537634s linear -0.225806s infinite normal forwards running breath-652a782d-3763-48df-8e5d-d3fbdc724ecb;"><path d="M72.62-3.99L72.62-1.79L72.62-1.79Q71.86-1.32 71.04-0.91L71.04-0.91L71.04-0.91Q70.22-0.51 69.35-0.21L69.35-0.21L69.35-0.21Q68.48 0.09 67.59 0.26L67.59 0.26L67.59 0.26Q66.69 0.44 65.78 0.44L65.78 0.44L65.78 0.44Q64.14 0.44 62.63-0.11L62.63-0.11L62.63-0.11Q61.12-0.67 59.97-1.78L59.97-1.78L59.97-1.78Q58.82-2.88 58.12-4.56L58.12-4.56L58.12-4.56Q57.43-6.24 57.43-8.49L57.43-8.49L57.43-8.49Q57.43-10.60 58.06-12.31L58.06-12.31L58.06-12.31Q58.69-14.03 59.82-15.25L59.82-15.25L59.82-15.25Q60.94-16.47 62.49-17.13L62.49-17.13L62.49-17.13Q64.04-17.79 65.88-17.79L65.88-17.79L65.88-17.79Q67.55-17.79 68.82-17.24L68.82-17.24L68.82-17.24Q70.08-16.68 70.93-15.71L70.93-15.71L70.93-15.71Q71.77-14.73 72.19-13.37L72.19-13.37L72.19-13.37Q72.62-12.01 72.62-10.41L72.62-10.41L72.62-9.93L72.62-9.93Q72.62-9.65 72.58-9.40L72.58-9.40L60.91-9.40L60.91-9.40Q60.91-8.03 61.20-6.66L61.20-6.66L61.20-6.66Q61.49-5.29 62.17-4.20L62.17-4.20L62.17-4.20Q62.86-3.11 64.02-2.43L64.02-2.43L64.02-2.43Q65.18-1.76 66.92-1.76L66.92-1.76L66.92-1.76Q67.69-1.76 68.45-1.96L68.45-1.96L68.45-1.96Q69.21-2.16 69.93-2.48L69.93-2.48L69.93-2.48Q70.66-2.79 71.33-3.19L71.33-3.19L71.33-3.19Q72-3.59 72.62-3.99L72.62-3.99zM69.01-11.02L69.01-11.81L69.01-11.81Q69.01-12.71 68.80-13.47L68.80-13.47L68.80-13.47Q68.59-14.24 68.16-14.80L68.16-14.80L68.16-14.80Q67.73-15.36 67.07-15.69L67.07-15.69L67.07-15.69Q66.41-16.01 65.51-16.01L65.51-16.01L65.51-16.01Q64.62-16.01 63.84-15.67L63.84-15.67L63.84-15.67Q63.07-15.33 62.48-14.68L62.48-14.68L62.48-14.68Q61.89-14.03 61.53-13.10L61.53-13.10L61.53-13.10Q61.17-12.18 61.10-11.02L61.10-11.02L69.01-11.02" fill="#ffffff" stroke="none" stroke-width="none" transform="translate(-115.56498050689697,10.192639038779523)" style="fill: rgb(255, 255, 255);"></path></g><g class="path" style="transform: scale(0.91); transform-origin: -31.415px -2.85236px; animation: 0.537634s linear -0.193548s infinite normal forwards running breath-652a782d-3763-48df-8e5d-d3fbdc724ecb;"><path d="M93.22 0L87.56 0L87.56-1.92L87.56-1.92Q86.94-1.44 86.28-1.01L86.28-1.01L86.28-1.01Q85.62-0.58 84.93-0.26L84.93-0.26L84.93-0.26Q84.23 0.05 83.50 0.25L83.50 0.25L83.50 0.25Q82.78 0.44 81.98 0.44L81.98 0.44L81.98 0.44Q80.17 0.44 78.86-0.34L78.86-0.34L78.86-0.34Q77.55-1.13 76.71-2.36L76.71-2.36L76.71-2.36Q75.87-3.60 75.47-5.14L75.47-5.14L75.47-5.14Q75.08-6.68 75.08-8.21L75.08-8.21L75.08-8.21Q75.08-10.04 75.64-11.77L75.64-11.77L75.64-11.77Q76.20-13.50 77.34-14.84L77.34-14.84L77.34-14.84Q78.49-16.17 80.21-16.98L80.21-16.98L80.21-16.98Q81.93-17.79 84.25-17.79L84.25-17.79L84.25-17.79Q84.67-17.79 85.17-17.74L85.17-17.74L85.17-17.74Q85.66-17.68 86.12-17.62L86.12-17.62L86.12-17.62Q86.59-17.56 86.97-17.48L86.97-17.48L86.97-17.48Q87.35-17.40 87.56-17.35L87.56-17.35L87.56-23.94L84.83-23.94L84.83-25.14L89.47-26.53L90.91-26.53L90.91-2.30L90.91-2.30Q90.91-1.97 91.13-1.76L91.13-1.76L91.13-1.76Q91.34-1.55 91.67-1.51L91.67-1.51L93.22-1.41L93.22 0zM87.56-3.27L87.56-15.52L87.56-15.52Q87.33-15.59 86.97-15.69L86.97-15.69L86.97-15.69Q86.61-15.79 86.19-15.86L86.19-15.86L86.19-15.86Q85.78-15.94 85.33-16.00L85.33-16.00L85.33-16.00Q84.88-16.05 84.50-16.05L84.50-16.05L84.50-16.05Q83.16-16.05 82.07-15.53L82.07-15.53L82.07-15.53Q80.98-15.01 80.22-14.07L80.22-14.07L80.22-14.07Q79.45-13.13 79.04-11.79L79.04-11.79L79.04-11.79Q78.63-10.46 78.63-8.82L78.63-8.82L78.63-8.82Q78.63-7.35 78.98-6.11L78.98-6.11L78.98-6.11Q79.33-4.87 80.00-3.96L80.00-3.96L80.00-3.96Q80.67-3.04 81.63-2.53L81.63-2.53L81.63-2.53Q82.60-2.02 83.85-2.02L83.85-2.02L83.85-2.02Q84.39-2.02 84.90-2.14L84.90-2.14L84.90-2.14Q85.41-2.25 85.89-2.43L85.89-2.43L85.89-2.43Q86.36-2.62 86.78-2.84L86.78-2.84L86.78-2.84Q87.21-3.06 87.56-3.27L87.56-3.27" fill="#ffffff" stroke="none" stroke-width="none" transform="translate(-115.56498050689697,10.192639038779523)" style="fill: rgb(255, 255, 255);"></path></g><g class="path" style="transform: scale(0.91); transform-origin: -11.18px 1.51764px; animation: 0.537634s linear -0.16129s infinite normal forwards running breath-652a782d-3763-48df-8e5d-d3fbdc724ecb;"><path d="M113.87 0L108.16 0L108.16-2.06L108.16-2.06Q107.70-1.71 107.04-1.27L107.04-1.27L107.04-1.27Q106.38-0.83 105.62-0.45L105.62-0.45L105.62-0.45Q104.85-0.07 104.02 0.18L104.02 0.18L104.02 0.18Q103.18 0.44 102.39 0.44L102.39 0.44L102.39 0.44Q101.23 0.44 100.31 0.10L100.31 0.10L100.31 0.10Q99.39-0.25 98.75-0.96L98.75-0.96L98.75-0.96Q98.10-1.67 97.76-2.77L97.76-2.77L97.76-2.77Q97.42-3.87 97.42-5.40L97.42-5.40L97.42-15.15L94.90-15.15L94.90-16.38L99.33-17.79L100.78-17.79L100.78-6.08L100.78-6.08Q100.78-5.13 100.96-4.38L100.96-4.38L100.96-4.38Q101.14-3.62 101.56-3.09L101.56-3.09L101.56-3.09Q101.97-2.57 102.64-2.29L102.64-2.29L102.64-2.29Q103.31-2.02 104.26-2.02L104.26-2.02L104.26-2.02Q104.80-2.02 105.36-2.13L105.36-2.13L105.36-2.13Q105.93-2.23 106.44-2.40L106.44-2.40L106.44-2.40Q106.95-2.57 107.39-2.75L107.39-2.75L107.39-2.75Q107.84-2.94 108.16-3.09L108.16-3.09L108.16-15.15L105.63-15.15L105.63-16.38L110.02-17.79L111.50-17.79L111.50-2.30L111.50-2.30Q111.50-1.97 111.74-1.76L111.74-1.76L111.74-1.76Q111.97-1.55 112.29-1.51L112.29-1.51L113.87-1.41L113.87 0" fill="#ffffff" stroke="none" stroke-width="none" transform="translate(-115.56498050689697,10.192639038779523)" style="fill: rgb(255, 255, 255);"></path></g><g class="path" style="transform: scale(0.91); transform-origin: 4.39003px -3.07236px; animation: 0.537634s linear -0.129032s infinite normal forwards running breath-652a782d-3763-48df-8e5d-d3fbdc724ecb;"><path d="M124.35 0L115.59 0L115.59-1.41L117.51-1.51L117.51-1.51Q117.76-1.51 118.03-1.77L118.03-1.77L118.03-1.77Q118.30-2.02 118.30-2.27L118.30-2.27L118.30-23.94L115.56-23.94L115.56-25.14L120.16-26.53L121.64-26.53L121.64-2.27L121.64-2.27Q121.64-2.02 121.90-1.77L121.90-1.77L121.90-1.77Q122.15-1.51 122.40-1.51L122.40-1.51L124.35-1.41L124.35 0" fill="#ffffff" stroke="none" stroke-width="none" transform="translate(-115.56498050689697,10.192639038779523)" style="fill: rgb(255, 255, 255);"></path></g><g class="path" style="transform: scale(0.91); transform-origin: 18.57px 1.51764px; animation: 0.537634s linear -0.0967742s infinite normal forwards running breath-652a782d-3763-48df-8e5d-d3fbdc724ecb;"><path d="M141.73-3.99L141.73-1.79L141.73-1.79Q140.98-1.32 140.16-0.91L140.16-0.91L140.16-0.91Q139.34-0.51 138.47-0.21L138.47-0.21L138.47-0.21Q137.60 0.09 136.71 0.26L136.71 0.26L136.71 0.26Q135.81 0.44 134.89 0.44L134.89 0.44L134.89 0.44Q133.26 0.44 131.75-0.11L131.75-0.11L131.75-0.11Q130.24-0.67 129.08-1.78L129.08-1.78L129.08-1.78Q127.93-2.88 127.24-4.56L127.24-4.56L127.24-4.56Q126.54-6.24 126.54-8.49L126.54-8.49L126.54-8.49Q126.54-10.60 127.18-12.31L127.18-12.31L127.18-12.31Q127.81-14.03 128.94-15.25L128.94-15.25L128.94-15.25Q130.06-16.47 131.61-17.13L131.61-17.13L131.61-17.13Q133.15-17.79 135-17.79L135-17.79L135-17.79Q136.67-17.79 137.94-17.24L137.94-17.24L137.94-17.24Q139.20-16.68 140.04-15.71L140.04-15.71L140.04-15.71Q140.89-14.73 141.31-13.37L141.31-13.37L141.31-13.37Q141.73-12.01 141.73-10.41L141.73-10.41L141.73-9.93L141.73-9.93Q141.73-9.65 141.70-9.40L141.70-9.40L130.03-9.40L130.03-9.40Q130.03-8.03 130.32-6.66L130.32-6.66L130.32-6.66Q130.61-5.29 131.29-4.20L131.29-4.20L131.29-4.20Q131.98-3.11 133.14-2.43L133.14-2.43L133.14-2.43Q134.30-1.76 136.04-1.76L136.04-1.76L136.04-1.76Q136.81-1.76 137.57-1.96L137.57-1.96L137.57-1.96Q138.32-2.16 139.05-2.48L139.05-2.48L139.05-2.48Q139.78-2.79 140.45-3.19L140.45-3.19L140.45-3.19Q141.12-3.59 141.73-3.99L141.73-3.99zM138.13-11.02L138.13-11.81L138.13-11.81Q138.13-12.71 137.92-13.47L137.92-13.47L137.92-13.47Q137.71-14.24 137.28-14.80L137.28-14.80L137.28-14.80Q136.85-15.36 136.19-15.69L136.19-15.69L136.19-15.69Q135.53-16.01 134.63-16.01L134.63-16.01L134.63-16.01Q133.73-16.01 132.96-15.67L132.96-15.67L132.96-15.67Q132.19-15.33 131.60-14.68L131.60-14.68L131.60-14.68Q131.01-14.03 130.65-13.10L130.65-13.10L130.65-13.10Q130.29-12.18 130.22-11.02L130.22-11.02L138.13-11.02" fill="#ffffff" stroke="none" stroke-width="none" transform="translate(-115.56498050689697,10.192639038779523)" style="fill: rgb(255, 255, 255);"></path></g><g class="path" style="transform: scale(0.91); transform-origin: 56.51px -1.88236px; animation: 0.537634s linear -0.0645161s infinite normal forwards running breath-652a782d-3763-48df-8e5d-d3fbdc724ecb;"><path d="M184.08-22.61L182.07-22.46L182.07-22.46Q181.69-22.43 181.50-22.18L181.50-22.18L181.50-22.18Q181.32-21.94 181.32-21.67L181.32-21.67L181.32 0L178.51 0L165.11-20.16L165.11-2.48L165.11-2.48Q165.11-2.21 165.30-1.97L165.30-1.97L165.30-1.97Q165.48-1.72 165.87-1.69L165.87-1.69L167.92-1.55L167.92 0L160.14 0L160.14-1.55L162.19-1.69L162.19-1.69Q162.58-1.72 162.78-1.97L162.78-1.97L162.78-1.97Q162.98-2.21 162.98-2.48L162.98-2.48L162.98-21.67L162.98-21.67Q162.98-21.94 162.78-22.18L162.78-22.18L162.78-22.18Q162.58-22.43 162.19-22.46L162.19-22.46L160.07-22.61L160.07-24.15L167.20-24.15L167.20-23.26L179.19-5.15L179.19-21.67L179.19-21.67Q179.19-21.94 179.00-22.18L179.00-22.18L179.00-22.18Q178.80-22.43 178.44-22.46L178.44-22.46L176.38-22.61L176.38-24.15L184.08-24.15L184.08-22.61" fill="#ffffff" stroke="none" stroke-width="none" transform="translate(-115.56498050689697,10.192639038779523)" style="fill: rgb(255, 255, 255);"></path></g><g class="path" style="transform: scale(0.91); transform-origin: 79.355px 1.51764px; animation: 0.537634s linear -0.0322581s infinite normal forwards running breath-652a782d-3763-48df-8e5d-d3fbdc724ecb;"><path d="M203.48-8.65L203.48-8.65L203.48-8.65Q203.48-6.73 202.88-5.07L202.88-5.07L202.88-5.07Q202.27-3.41 201.16-2.19L201.16-2.19L201.16-2.19Q200.04-0.97 198.45-0.26L198.45-0.26L198.45-0.26Q196.86 0.44 194.89 0.44L194.89 0.44L194.89 0.44Q192.92 0.44 191.34-0.25L191.34-0.25L191.34-0.25Q189.76-0.95 188.65-2.16L188.65-2.16L188.65-2.16Q187.54-3.38 186.95-5.04L186.95-5.04L186.95-5.04Q186.36-6.70 186.36-8.65L186.36-8.65L186.36-8.65Q186.36-10.56 186.96-12.23L186.96-12.23L186.96-12.23Q187.56-13.90 188.68-15.14L188.68-15.14L188.68-15.14Q189.81-16.38 191.40-17.09L191.40-17.09L191.40-17.09Q192.99-17.79 194.99-17.79L194.99-17.79L194.99-17.79Q197.00-17.79 198.58-17.07L198.58-17.07L198.58-17.07Q200.16-16.35 201.25-15.11L201.25-15.11L201.25-15.11Q202.34-13.87 202.91-12.21L202.91-12.21L202.91-12.21Q203.48-10.55 203.48-8.65zM199.74-8.68L199.74-8.68L199.74-8.68Q199.74-10.16 199.45-11.51L199.45-11.51L199.45-11.51Q199.16-12.87 198.56-13.90L198.56-13.90L198.56-13.90Q197.96-14.94 197.07-15.56L197.07-15.56L197.07-15.56Q196.17-16.17 194.96-16.17L194.96-16.17L194.96-16.17Q193.71-16.17 192.80-15.56L192.80-15.56L192.80-15.56Q191.88-14.94 191.29-13.90L191.29-13.90L191.29-13.90Q190.71-12.87 190.42-11.51L190.42-11.51L190.42-11.51Q190.14-10.16 190.14-8.68L190.14-8.68L190.14-8.68Q190.14-7.22 190.43-5.87L190.43-5.87L190.43-5.87Q190.72-4.52 191.32-3.48L191.32-3.48L191.32-3.48Q191.92-2.44 192.81-1.82L192.81-1.82L192.81-1.82Q193.71-1.20 194.92-1.20L194.92-1.20L194.92-1.20Q196.15-1.20 197.07-1.81L197.07-1.81L197.07-1.81Q197.98-2.43 198.57-3.46L198.57-3.46L198.57-3.46Q199.16-4.50 199.45-5.85L199.45-5.85L199.45-5.85Q199.74-7.21 199.74-8.68" fill="#ffffff" stroke="none" stroke-width="none" transform="translate(-115.56498050689697,10.192639038779523)" style="fill: rgb(255, 255, 255);"></path></g><g class="path" style="transform: scale(0.91); transform-origin: 103.24px 1.51764px; animation: 0.537634s linear 0s infinite normal forwards running breath-652a782d-3763-48df-8e5d-d3fbdc724ecb;"><path d="M232.54-15.94L230.71-15.73L225.77 0L223.22 0L218.97-13.46L214.22 0L211.66 0L207.05-15.73L205.07-15.94L205.07-17.35L212.96-17.35L212.96-15.94L211.27-15.84L211.27-15.84Q211.03-15.80 210.87-15.64L210.87-15.64L210.87-15.64Q210.71-15.49 210.71-15.24L210.71-15.24L210.71-15.24Q210.71-15.12 210.73-15.05L210.73-15.05L213.71-3.85L218.36-17.35L220.92-17.35L225.09-3.85L228.41-15.05L228.41-15.05Q228.43-15.10 228.43-15.22L228.43-15.22L228.43-15.22Q228.43-15.45 228.29-15.64L228.29-15.64L228.29-15.64Q228.15-15.82 227.90-15.84L227.90-15.84L226.25-15.94L226.25-17.35L232.54-17.35L232.54-15.94" fill="#ffffff" stroke="none" stroke-width="none" transform="translate(-115.56498050689697,10.192639038779523)" style="fill: rgb(255, 255, 255);"></path></g></g>
</g>
</g>
<style id="breath-652a782d-3763-48df-8e5d-d3fbdc724ecb" data-anikit="">@keyframes breath-652a782d-3763-48df-8e5d-d3fbdc724ecb
{
  0% {
    animation-timing-function: cubic-bezier(0.9647,0.2413,-0.0705,0.7911);
    transform: scale(0.9099999999999999);
  }
  51% {
    animation-timing-function: cubic-bezier(0.9226,0.2631,-0.0308,0.7628);
    transform: scale(1.02994);
  }
  100% {
    transform: scale(0.9099999999999999);
  }
}</style></svg>