<?xml version="1.0" encoding="utf-8"?>
<svg xmlns="http://www.w3.org/2000/svg" style="margin: auto; background: rgb(213, 123, 60); display: block; shape-rendering: auto;" width="224" height="57" preserveAspectRatio="xMidYMid">
<style type="text/css">
  text {
    text-anchor: middle; font-size: 42px; opacity: 0;
  }
</style>
<g style="transform-origin: 112px 28.5px; transform: scale(0.75);">
<g transform="translate(112,28.5)">
  <g transform="translate(0,0)"><g class="path" style="transform: scale(0.91); transform-origin: -99.935px 0.825039px; animation: 0.460829s linear -0.273733s infinite normal forwards running breath-57c2e95f-d57f-4bd8-b779-4c432a0d42c5;"><path d="M65.91 6.27L65.91 6.27L65.91 6.27Q69.61 6.27 70.95 2.18L70.95 2.18L72.18 2.18L72.18 2.18Q72.13 2.41 72.04 2.80L72.04 2.80L72.04 2.80Q71.96 3.19 71.40 4.20L71.40 4.20L71.40 4.20Q70.84 5.21 70 5.99L70 5.99L70 5.99Q69.16 6.78 67.45 7.39L67.45 7.39L67.45 7.39Q65.74 8.01 63.56 8.01L63.56 8.01L63.56 8.01Q58.86 8.01 55.94 5.68L55.94 5.68L55.94 5.68Q53.03 3.36 51.02-1.34L51.02-1.34L43.23-22.01L37.58-11.70L37.58-11.70Q31.47-0.28 26.15 4.31L26.15 4.31L26.15 4.31Q20.83 8.90 13.61 8.90L13.61 8.90L13.61 8.90Q7.84 8.90 4.03 4.82L4.03 4.82L4.03 4.82Q1.06 1.51 1.06-3.30L1.06-3.30L1.06-3.30Q1.06-4.14 1.18-5.04L1.18-5.04L2.24-4.87L2.24-4.87Q2.18-4.14 2.18-3.42L2.18-3.42L2.18-3.42Q2.18 1.01 4.82 4.03L4.82 4.03L4.82 4.03Q8.12 7.78 13.61 7.78L13.61 7.78L13.61 7.78Q20.44 7.78 25.59 3.30L25.59 3.30L25.59 3.30Q30.74-1.18 36.68-12.26L36.68-12.26L46.20-29.62L46.20-29.62Q40.43-29.74 35.28-31.39L35.28-31.39L35.28-31.39Q30.13-33.04 25.87-33.04L25.87-33.04L25.87-33.04Q21.62-33.04 18.79-30.13L18.79-30.13L18.79-30.13Q15.96-27.22 15.96-22.57L15.96-22.57L14.90-22.57L14.90-22.57Q14.90-27.66 18.03-30.91L18.03-30.91L18.03-30.91Q21.17-34.16 26.10-34.16L26.10-34.16L26.10-34.16Q30.02-34.16 35.64-32.45L35.64-32.45L35.64-32.45Q41.27-30.74 47.71-30.74L47.71-30.74L56.67-6.38L56.67-6.38Q61.15-13.50 63.98-18.54L63.98-18.54L63.98-18.54Q66.81-23.58 68.52-26.21L68.52-26.21L68.52-26.21Q70.22-28.84 71.57-30.24L71.57-30.24L71.57-30.24Q74.65-33.38 78.57-33.38L78.57-33.38L78.57-32.26L78.57-32.26Q76.38-32.26 74.56-31.11L74.56-31.11L74.56-31.11Q72.74-29.96 70.76-27.24L70.76-27.24L70.76-27.24Q68.77-24.53 67.14-21.78L67.14-21.78L67.14-21.78Q65.52-19.04 62.61-14.03L62.61-14.03L62.61-14.03Q59.70-9.02 57.18-5.10L57.18-5.10L57.18-5.10Q58.80-1.12 60.00 1.23L60.00 1.23L60.00 1.23Q61.21 3.58 62.52 4.93L62.52 4.93L62.52 4.93Q63.84 6.27 65.91 6.27" fill="#ffffff" stroke="none" stroke-width="none" transform="translate(-139.75002193450928,13.455040975570675)" style="fill: rgb(255, 255, 255);"></path></g><g class="path" style="transform: scale(0.91); transform-origin: -54.74px 2.81504px; animation: 0.460829s linear -0.243318s infinite normal forwards running breath-57c2e95f-d57f-4bd8-b779-4c432a0d42c5;"><path d="M87.47-21.78L87.47-21.78L87.47-21.78Q94.58-21.78 94.58-16.13L94.58-16.13L94.58-16.13Q94.58-12.60 91.25-10.78L91.25-10.78L91.25-10.78Q87.92-8.96 81.76-8.90L81.76-8.90L81.76-8.90Q81.65-6.89 81.65-5.71L81.65-5.71L81.65-5.71Q81.65-3.19 82.80-1.99L82.80-1.99L82.80-1.99Q83.94-0.78 85.68-0.78L85.68-0.78L85.68-0.78Q87.42-0.78 88.84-1.46L88.84-1.46L88.84-1.46Q90.27-2.13 91.11-3.05L91.11-3.05L91.11-3.05Q91.95-3.98 92.57-4.98L92.57-4.98L92.57-4.98Q93.69-6.83 93.69-7.34L93.69-7.34L94.70-6.89L94.70-6.89Q94.53-5.99 93.69-4.51L93.69-4.51L93.69-4.51Q92.85-3.02 91.84-2.07L91.84-2.07L91.84-2.07Q90.83-1.12 88.87-0.31L88.87-0.31L88.87-0.31Q86.91 0.50 84.50 0.50L84.50 0.50L84.50 0.50Q79.97 0.50 77.64-1.65L77.64-1.65L77.64-1.65Q75.32-3.81 75.32-7.56L75.32-7.56L75.32-7.56Q75.32-14.22 78.62-18.00L78.62-18.00L78.62-18.00Q81.93-21.78 87.47-21.78zM93.18-16.13L93.18-16.13Q93.18-17.98 92.09-19.18L92.09-19.18L92.09-19.18Q91-20.38 88.84-20.38L88.84-20.38L88.84-20.38Q86.69-20.38 84.64-17.81L84.64-17.81L84.64-17.81Q82.60-15.23 81.93-10.19L81.93-10.19L81.93-10.19Q93.18-10.25 93.18-16.13L93.18-16.13" fill="#ffffff" stroke="none" stroke-width="none" transform="translate(-139.75002193450928,13.455040975570675)" style="fill: rgb(255, 255, 255);"></path></g><g class="path" style="transform: scale(0.91); transform-origin: -24.335px 2.81504px; animation: 0.460829s linear -0.212903s infinite normal forwards running breath-57c2e95f-d57f-4bd8-b779-4c432a0d42c5;"><path d="M126.11-14.84L126.11-14.84L126.11-14.84Q124.94-16.02 124.94-17.70L124.94-17.70L124.94-17.70Q124.94-19.38 126.11-20.58L126.11-20.58L126.11-20.58Q127.29-21.78 128.77-21.78L128.77-21.78L128.77-21.78Q130.26-21.78 131.29-21.03L131.29-21.03L131.29-21.03Q132.33-20.27 132.78-19.10L132.78-19.10L132.78-19.10Q132.83-19.04 132.83-18.98L132.83-18.98L132.83-18.93L132.83-18.93Q133.50-17.47 133.50-14.92L133.50-14.92L133.50-14.92Q133.50-12.38 133.17-10.58L133.17-10.58L133.17-10.58Q132.83-8.79 131.94-6.78L131.94-6.78L131.94-6.78Q131.04-4.76 129.75-3.16L129.75-3.16L129.75-3.16Q128.46-1.57 126.31-0.53L126.31-0.53L126.31-0.53Q124.15 0.50 121.52 0.50L121.52 0.50L121.52 0.50Q117.04 0.50 114.80-2.74L114.80-2.74L114.80-2.74Q112.11 0.50 107.46 0.50L107.46 0.50L107.46 0.50Q103.88 0.50 101.61-1.74L101.61-1.74L101.61-1.74Q99.34-3.98 99.34-6.89L99.34-6.89L99.34-6.89Q99.34-9.80 100.38-14.08L100.38-14.08L100.38-14.08Q101.42-18.37 101.53-20.66L101.53-20.66L101.53-20.66Q100.63-20.61 99.79-20.02L99.79-20.02L99.79-20.02Q98.95-19.43 98.56-18.87L98.56-18.87L98.17-18.31L97.33-18.98L97.33-18.98Q97.50-19.32 97.83-19.77L97.83-19.77L97.83-19.77Q98.17-20.22 99.54-21L99.54-21L99.54-21Q100.91-21.78 102.98-21.78L102.98-21.78L102.98-21.78Q105.06-21.78 106.32-20.44L106.32-20.44L106.32-20.44Q107.58-19.10 107.58-17.02L107.58-17.02L107.58-17.02Q107.58-14.95 106.46-10.61L106.46-10.61L106.46-10.61Q105.34-6.27 105.34-4.51L105.34-4.51L105.34-4.51Q105.34-2.74 106.15-1.74L106.15-1.74L106.15-1.74Q106.96-0.73 108.47-0.73L108.47-0.73L108.47-0.73Q111.72-0.73 114.02-4.09L114.02-4.09L114.02-4.09Q113.40-5.66 113.40-7.73L113.40-7.73L113.40-7.73Q113.40-9.80 114.44-14.08L114.44-14.08L114.44-14.08Q115.47-18.37 115.58-20.66L115.58-20.66L115.58-20.66Q114.69-20.61 113.85-20.02L113.85-20.02L113.85-20.02Q113.01-19.43 112.62-18.87L112.62-18.87L112.22-18.31L111.38-18.98L111.38-18.98Q111.55-19.32 111.89-19.77L111.89-19.77L111.89-19.77Q112.22-20.22 113.60-21L113.60-21L113.60-21Q114.97-21.78 117.04-21.78L117.04-21.78L117.04-21.78Q119.11-21.78 120.37-20.44L120.37-20.44L120.37-20.44Q121.63-19.10 121.63-17.02L121.63-17.02L121.63-17.02Q121.63-14.95 120.51-10.61L120.51-10.61L120.51-10.61Q119.39-6.27 119.39-4.51L119.39-4.51L119.39-4.51Q119.39-2.74 120.20-1.74L120.20-1.74L120.20-1.74Q121.02-0.73 122.53-0.73L122.53-0.73L122.53-0.73Q126.28-0.73 129.25-4.79L129.25-4.79L129.25-4.79Q132.22-8.85 132.22-13.94L132.22-13.94L132.22-13.94Q132.22-14.34 132.10-15.12L132.10-15.12L132.10-15.12Q130.93-13.66 129.11-13.66L129.11-13.66L129.11-13.66Q127.29-13.66 126.11-14.84" fill="#ffffff" stroke="none" stroke-width="none" transform="translate(-139.75002193450928,13.455040975570675)" style="fill: rgb(255, 255, 255);"></path></g><g class="path" style="transform: scale(0.91); transform-origin: 26.74px -1.21496px; animation: 0.460829s linear -0.182488s infinite normal forwards running breath-57c2e95f-d57f-4bd8-b779-4c432a0d42c5;"><path d="M156.58-7.62L156.58-7.62L156.58-7.62Q156.58 0.78 162.01 3.47L162.01 3.47L162.01 3.47Q163.35 3.64 165.56 3.64L165.56 3.64L165.56 3.64Q167.78 3.64 170.24 2.80L170.24 2.80L170.24 2.80Q172.70 1.96 174.05 0.73L174.05 0.73L174.05 0.73Q176.90-1.90 177.63-3.81L177.63-3.81L177.91-4.65L179.03-4.20L179.03-4.20Q178.64-2.91 177.52-1.23L177.52-1.23L177.52-1.23Q176.40 0.45 174.97 1.62L174.97 1.62L174.97 1.62Q173.54 2.80 170.83 3.78L170.83 3.78L170.83 3.78Q168.11 4.76 164.81 4.76L164.81 4.76L164.81 4.76Q157.75 4.76 153.86 0.67L153.86 0.67L153.86 0.67Q149.97-3.42 149.97-10.86L149.97-10.86L149.97-10.86Q149.97-21 156.52-27.55L156.52-27.55L156.52-27.55Q163.07-34.10 173.71-34.10L173.71-34.10L173.71-34.10Q178.64-34.10 180.82-32.34L180.82-32.34L180.82-32.34Q183.01-30.58 183.01-26.82L183.01-26.82L183.01-26.82Q183.01-24.30 180.54-20.61L180.54-20.61L180.54-20.61Q178.30-17.02 178.30-15.01L178.30-15.01L177.07-15.01L177.07-15.01Q177.07-16.13 177.52-17.42L177.52-17.42L177.52-17.42Q177.97-18.70 178.30-19.26L178.30-19.26L178.30-19.26Q178.64-19.82 179.54-21.28L179.54-21.28L179.54-21.28Q181.72-24.58 181.72-26.71L181.72-26.71L181.72-26.71Q181.72-31.19 178.02-32.37L178.02-32.37L178.02-32.37Q176.29-32.93 174.38-32.93L174.38-32.93L174.38-32.93Q172.48-32.93 170.35-32.70L170.35-32.70L170.35-32.70Q168.39-32.09 166.63-31.11L166.63-31.11L166.63-31.11Q164.86-30.13 162.96-28.14L162.96-28.14L162.96-28.14Q161.06-26.15 159.71-23.52L159.71-23.52L159.71-23.52Q158.37-20.89 157.47-16.77L157.47-16.77L157.47-16.77Q156.58-12.66 156.58-7.62" fill="#ffffff" stroke="none" stroke-width="none" transform="translate(-139.75002193450928,13.455040975570675)" style="fill: rgb(255, 255, 255);"></path></g><g class="path" style="transform: scale(0.91); transform-origin: 52.525px -4.43996px; animation: 0.460829s linear -0.152074s infinite normal forwards running breath-57c2e95f-d57f-4bd8-b779-4c432a0d42c5;"><path d="M194.43-2.02L194.43-2.02L194.43-2.02Q193.70-1.06 192.44-0.28L192.44-0.28L192.44-0.28Q191.18 0.50 189.17 0.50L189.17 0.50L189.17 0.50Q187.15 0.50 185.75-0.78L185.75-0.78L185.75-0.78Q184.35-2.07 184.35-4.42L184.35-4.42L184.35-4.42Q184.35-4.87 184.46-5.88L184.46-5.88L188.10-26.04L188.10-26.04Q189.11-31.58 190.88-33.94L190.88-33.94L190.88-33.94Q192.64-36.29 195.55-36.29L195.55-36.29L195.55-36.29Q197.57-36.29 198.88-34.78L198.88-34.78L198.88-34.78Q200.20-33.26 200.20-30.18L200.20-30.18L200.20-30.18Q200.20-27.10 197.82-21.39L197.82-21.39L197.82-21.39Q195.44-15.68 195.44-13.05L195.44-13.05L194.43-13.05L194.43-13.05Q194.43-16.02 196.78-21.53L196.78-21.53L196.78-21.53Q199.14-27.05 199.14-30.35L199.14-30.35L199.14-30.35Q199.14-32.37 198.21-33.82L198.21-33.82L198.21-33.82Q197.29-35.28 195.94-35.28L195.94-35.28L195.94-35.28Q195.89-33.82 194.01-22.20L194.01-22.20L194.01-22.20Q192.14-10.58 190.29-0.62L190.29-0.62L190.29-0.62Q191.86-0.62 193.20-2.24L193.20-2.24L193.20-2.24Q194.54-3.86 195.10-5.49L195.10-5.49L195.72-7.17L196.73-6.72L196.73-6.72Q196.56-5.94 195.86-4.45L195.86-4.45L195.86-4.45Q195.16-2.97 194.43-2.02" fill="#ffffff" stroke="none" stroke-width="none" transform="translate(-139.75002193450928,13.455040975570675)" style="fill: rgb(255, 255, 255);"></path></g><g class="path" style="transform: scale(0.91); transform-origin: 65.69px 2.81504px; animation: 0.460829s linear -0.121659s infinite normal forwards running breath-57c2e95f-d57f-4bd8-b779-4c432a0d42c5;"><path d="M210.11-1.51L210.11-1.51Q208.43 0.50 205.91 0.50L205.91 0.50L205.91 0.50Q203.39 0.50 201.96-0.78L201.96-0.78L201.96-0.78Q200.54-2.07 200.54-4.14L200.54-4.14L200.54-4.14Q200.54-4.87 201.43-10.25L201.43-10.25L203.28-20.27L200.93-20.27L201.04-21.28L203.45-21.28L203.45-21.28Q207.59-21.28 209.55-21.62L209.55-21.62L210.34-21.78L206.47-0.62L206.47-0.62Q208.15-0.78 209.27-2.18L209.27-2.18L210.11-1.51" fill="#ffffff" stroke="none" stroke-width="none" transform="translate(-139.75002193450928,13.455040975570675)" style="fill: rgb(255, 255, 255);"></path></g><g class="path" style="transform: scale(0.91); transform-origin: 68.32px -16.585px; animation: 0.460829s linear -0.0912442s infinite normal forwards running breath-57c2e95f-d57f-4bd8-b779-4c432a0d42c5;"><path d="M205.18-27.16L205.18-27.16L205.18-27.16Q204.01-28.34 204.01-30.02L204.01-30.02L204.01-30.02Q204.01-31.70 205.18-32.90L205.18-32.90L205.18-32.90Q206.36-34.10 208.04-34.10L208.04-34.10L208.04-34.10Q209.72-34.10 210.92-32.90L210.92-32.90L210.92-32.90Q212.13-31.70 212.13-30.02L212.13-30.02L212.13-30.02Q212.13-28.34 210.92-27.16L210.92-27.16L210.92-27.16Q209.72-25.98 208.04-25.98L208.04-25.98L208.04-25.98Q206.36-25.98 205.18-27.16" fill="#ffffff" stroke="none" stroke-width="none" transform="translate(-139.75002193450928,13.455040975570675)" style="fill: rgb(255, 255, 255);"></path></g><g class="path" style="transform: scale(0.91); transform-origin: 83.185px 2.81504px; animation: 0.460829s linear -0.0608295s infinite normal forwards running breath-57c2e95f-d57f-4bd8-b779-4c432a0d42c5;"><path d="M225.40-21.78L225.40-21.78L225.40-21.78Q232.51-21.78 232.51-16.13L232.51-16.13L232.51-16.13Q232.51-12.60 229.18-10.78L229.18-10.78L229.18-10.78Q225.85-8.96 219.69-8.90L219.69-8.90L219.69-8.90Q219.58-6.89 219.58-5.71L219.58-5.71L219.58-5.71Q219.58-3.19 220.72-1.99L220.72-1.99L220.72-1.99Q221.87-0.78 223.61-0.78L223.61-0.78L223.61-0.78Q225.34-0.78 226.77-1.46L226.77-1.46L226.77-1.46Q228.20-2.13 229.04-3.05L229.04-3.05L229.04-3.05Q229.88-3.98 230.50-4.98L230.50-4.98L230.50-4.98Q231.62-6.83 231.62-7.34L231.62-7.34L232.62-6.89L232.62-6.89Q232.46-5.99 231.62-4.51L231.62-4.51L231.62-4.51Q230.78-3.02 229.77-2.07L229.77-2.07L229.77-2.07Q228.76-1.12 226.80-0.31L226.80-0.31L226.80-0.31Q224.84 0.50 222.43 0.50L222.43 0.50L222.43 0.50Q217.90 0.50 215.57-1.65L215.57-1.65L215.57-1.65Q213.25-3.81 213.25-7.56L213.25-7.56L213.25-7.56Q213.25-14.22 216.55-18.00L216.55-18.00L216.55-18.00Q219.86-21.78 225.40-21.78zM231.11-16.13L231.11-16.13Q231.11-17.98 230.02-19.18L230.02-19.18L230.02-19.18Q228.93-20.38 226.77-20.38L226.77-20.38L226.77-20.38Q224.62-20.38 222.57-17.81L222.57-17.81L222.57-17.81Q220.53-15.23 219.86-10.19L219.86-10.19L219.86-10.19Q231.11-10.25 231.11-16.13L231.11-16.13" fill="#ffffff" stroke="none" stroke-width="none" transform="translate(-139.75002193450928,13.455040975570675)" style="fill: rgb(255, 255, 255);"></path></g><g class="path" style="transform: scale(0.91); transform-origin: 108.525px 2.81504px; animation: 0.460829s linear -0.0304147s infinite normal forwards running breath-57c2e95f-d57f-4bd8-b779-4c432a0d42c5;"><path d="M257.21-0.62L257.21-0.62L257.21-0.62Q258.55-0.62 260.01-2.18L260.01-2.18L260.85-1.51L260.85-1.51Q260.46-0.73 259.11-0.11L259.11-0.11L259.11-0.11Q257.77 0.50 256.14 0.50L256.14 0.50L256.14 0.50Q251.05 0.50 251.05-4.09L251.05-4.09L251.05-4.09Q251.05-6.05 252.06-11.09L252.06-11.09L252.06-11.09Q253.06-16.13 253.06-17.70L253.06-17.70L253.06-17.70Q253.06-20.10 250.77-20.10L250.77-20.10L250.77-20.10Q248.92-20.10 247.21-17.70L247.21-17.70L247.21-17.70Q245.50-15.29 244.38-11.09L244.38-11.09L242.48-0.62L242.48-0.62Q244.22-0.78 245.34-2.18L245.34-2.18L246.18-1.51L246.18-1.51Q244.50 0.50 241.98 0.50L241.98 0.50L241.98 0.50Q239.46 0.50 238.03-0.78L238.03-0.78L238.03-0.78Q236.60-2.07 236.60-4.14L236.60-4.14L236.60-4.14Q236.60-4.93 237.50-10.30L237.50-10.30L239.34-20.66L239.34-20.66Q237.66-20.50 236.54-19.10L236.54-19.10L235.70-19.77L235.70-19.77Q237.38-21.78 239.93-21.78L239.93-21.78L239.93-21.78Q242.48-21.78 243.88-20.50L243.88-20.50L243.88-20.50Q245.28-19.21 245.28-16.86L245.28-16.86L245.28-16.52L245.28-16.52Q247.58-21.78 252.45-21.78L252.45-21.78L252.45-21.78Q255.75-21.78 257.60-19.91L257.60-19.91L257.60-19.91Q259.45-18.03 259.45-14.73L259.45-14.73L259.45-14.73Q259.45-12.99 258.38-8.04L258.38-8.04L258.38-8.04Q257.32-3.08 257.21-0.62" fill="#ffffff" stroke="none" stroke-width="none" transform="translate(-139.75002193450928,13.455040975570675)" style="fill: rgb(255, 255, 255);"></path></g><g class="path" style="transform: scale(0.91); transform-origin: 132.52px -1.32996px; animation: 0.460829s linear 0s infinite normal forwards running breath-57c2e95f-d57f-4bd8-b779-4c432a0d42c5;"><path d="M264.10-21.28L266.95-21.28L268.46-29.57L268.46-29.57Q272.61-29.57 274.62-29.90L274.62-29.90L275.35-30.07L275.35-30.07Q274.57-26.15 273.62-21.28L273.62-21.28L280.56-21.28L280.45-20.27L273.45-20.27L273.45-20.27Q270.65-5.82 270.65-2.86L270.65-2.86L270.65-2.86Q270.65-1.06 272.55-1.06L272.55-1.06L272.55-1.06Q274.46-1.06 276.02-3.47L276.02-3.47L276.02-3.47Q277.59-5.88 278.26-8.68L278.26-8.68L279.27-8.34L279.27-8.34Q277.20 0.50 270.70 0.50L270.70 0.50L270.70 0.50Q268.02 0.50 266.22-0.98L266.22-0.98L266.22-0.98Q264.43-2.46 264.43-5.12L264.43-5.12L264.43-5.12Q264.43-7.78 266.73-20.27L266.73-20.27L263.98-20.27L264.10-21.28" fill="#ffffff" stroke="none" stroke-width="none" transform="translate(-139.75002193450928,13.455040975570675)" style="fill: rgb(255, 255, 255);"></path></g></g>
</g>
</g>
<style id="breath-57c2e95f-d57f-4bd8-b779-4c432a0d42c5" data-anikit="">@keyframes breath-57c2e95f-d57f-4bd8-b779-4c432a0d42c5
{
  0% {
    animation-timing-function: cubic-bezier(0.9647,0.2413,-0.0705,0.7911);
    transform: scale(0.9099999999999999);
  }
  51% {
    animation-timing-function: cubic-bezier(0.9226,0.2631,-0.0308,0.7628);
    transform: scale(1.02994);
  }
  100% {
    transform: scale(0.9099999999999999);
  }
}</style></svg>