<?xml version="1.0" encoding="utf-8"?>
<svg xmlns="http://www.w3.org/2000/svg" style="margin: auto; background: rgb(213, 123, 60); display: block; shape-rendering: auto; animation-play-state: running; animation-delay: 0s;" width="224" height="57" preserveAspectRatio="xMidYMid">
<style type="text/css" style="animation-play-state: running; animation-delay: 0s;">
  text {
    text-anchor: middle; font-size: 56px; opacity: 0;
  }
</style>
<g style="transform-origin: 112px 28.5px; transform: scale(1); animation-play-state: running; animation-delay: 0s;">
<g transform="translate(112,28.5)" style="animation-play-state: running; animation-delay: 0s;">
  <g transform="translate(0,0)" style="animation-play-state: running; animation-delay: 0s;"><g class="path" style="transform: scale(0.91); transform-origin: -59.97px 1.26642px; animation: 0.460829s linear -0.266129s infinite normal forwards running breath-57c2e95f-d57f-4bd8-b779-4c432a0d42c5;"><path d="M17.30 10.86L17.30 10.86L17.30 10.86Q23.18 10.86 26.46 8.46L26.46 8.46L26.46 8.46Q29.74 6.05 29.74 2.07L29.74 2.07L29.74 2.07Q29.74-0.78 28.31-2.97L28.31-2.97L28.31-2.97Q26.88-5.15 24.75-6.58L24.75-6.58L24.75-6.58Q22.62-8.01 20.41-9.41L20.41-9.41L20.41-9.41Q18.20-10.81 16.30-12.94L16.30-12.94L16.30-12.94Q14.39-15.06 13.78-17.75L13.78-17.75L13.78-17.75Q8.68-19.26 7.06-24.08L7.06-24.08L7.06-24.08Q6.44-25.93 6.44-27.94L6.44-27.94L6.44-27.94Q6.44-29.96 7.06-32.14L7.06-32.14L7.06-32.14Q8.34-36.46 11.26-38.64L11.26-38.64L11.87-37.74L11.87-37.74Q9.24-35.84 8.06-31.81L8.06-31.81L8.06-31.81Q7.50-29.79 7.50-27.94L7.50-27.94L7.50-27.94Q7.50-26.10 8.06-24.42L8.06-24.42L8.06-24.42Q9.41-20.33 13.61-18.93L13.61-18.93L13.61-18.93Q13.50-19.54 13.50-20.83L13.50-20.83L13.50-20.83Q13.50-28.17 18.82-32.70L18.82-32.70L18.82-32.70Q24.14-37.24 31.81-37.24L31.81-37.24L31.81-37.24Q36.85-37.24 39.87-34.50L39.87-34.50L39.87-34.50Q42.45-32.09 42.45-28.59L42.45-28.59L42.45-28.59Q42.45-25.09 40.10-22.54L40.10-22.54L40.10-22.54Q37.74-19.99 33.77-19.99L33.77-19.99L33.77-19.99Q31.58-19.99 30.18-20.83L30.18-20.83L30.18-20.83Q27.33-18.65 23.41-17.70L23.41-17.70L23.41-17.70Q24.53-16.63 28.64-13.78L28.64-13.78L28.64-13.78Q32.76-10.92 34.80-8.32L34.80-8.32L34.80-8.32Q36.85-5.71 36.85-2.24L36.85-2.24L36.85-2.24Q36.85 4.14 31.89 8.12L31.89 8.12L31.89 8.12Q26.94 12.10 19.35 12.10L19.35 12.10L19.35 12.10Q11.76 12.10 7.90 8.74L7.90 8.74L7.90 8.74Q4.54 5.88 4.54 1.76L4.54 1.76L4.54 1.76Q4.54-2.35 7.20-5.29L7.20-5.29L7.20-5.29Q9.86-8.23 13.83-8.23L13.83-8.23L13.83-8.23Q17.81-8.23 19.71-6.47L19.71-6.47L19.71-6.47Q21.62-4.70 21.62-2.18L21.62-2.18L21.62-2.18Q21.62 0.34 20.08 2.30L20.08 2.30L20.08 2.30Q18.54 4.26 16.07 4.26L16.07 4.26L16.07 4.26Q13.61 4.26 12.15 2.69L12.15 2.69L12.15 2.69Q10.81 1.34 10.64-0.67L10.64-0.67L10.64-0.67Q10.58-1.23 10.64-1.34L10.64-1.34L11.70-1.29L11.70-1.29Q11.65 0.67 12.94 1.96L12.94 1.96L12.94 1.96Q14 3.14 16.04 3.14L16.04 3.14L16.04 3.14Q18.09 3.14 19.32 1.54L19.32 1.54L19.32 1.54Q20.55-0.06 20.55-2.16L20.55-2.16L20.55-2.16Q20.55-4.26 19.10-5.54L19.10-5.54L19.10-5.54Q17.47-7.17 13.89-7.17L13.89-7.17L13.89-7.17Q10.30-7.17 7.95-4.56L7.95-4.56L7.95-4.56Q5.60-1.96 5.60 1.71L5.60 1.71L5.60 1.71Q5.60 5.38 8.62 7.95L8.62 7.95L8.62 7.95Q10.42 9.52 12.29 10.19L12.29 10.19L12.29 10.19Q14.17 10.86 17.30 10.86zM26.82-27.66L26.82-27.66L26.82-27.66Q26.82-30.13 28.08-31.75L28.08-31.75L28.08-31.75Q29.34-33.38 31.53-33.38L31.53-33.38L31.53-33.38Q35.28-33.38 35.28-29.26L35.28-29.26L35.28-29.26Q35.28-25.14 31.19-21.50L31.19-21.50L31.19-21.50Q32.42-20.94 33.77-20.94L33.77-20.94L33.77-20.94Q37.24-20.94 39.31-23.21L39.31-23.21L39.31-23.21Q41.38-25.48 41.38-28.53L41.38-28.53L41.38-28.53Q41.38-31.58 39.14-33.71L39.14-33.71L39.14-33.71Q36.40-36.18 31.92-36.18L31.92-36.18L31.92-36.18Q27.44-36.18 24.30-33.99L24.30-33.99L24.30-33.99Q19.43-30.52 19.43-25.03L19.43-25.03L19.43-25.03Q19.43-20.50 22.46-18.42L22.46-18.42L22.46-18.42Q26.21-19.26 29.40-21.45L29.40-21.45L29.40-21.45Q26.82-23.74 26.82-27.66zM31.47-32.37L31.47-32.37L31.47-32.37Q29.79-32.37 28.87-31.08L28.87-31.08L28.87-31.08Q27.94-29.79 27.94-27.66L27.94-27.66L27.94-27.66Q27.94-24.02 30.24-22.12L30.24-22.12L30.24-22.12Q31.92-23.30 33.04-25.31L33.04-25.31L33.04-25.31Q34.16-27.33 34.16-29.29L34.16-29.29L34.16-29.29Q34.16-32.37 31.47-32.37" fill="#ffffff" stroke="none" stroke-width="none" transform="translate(-83.46497535705566,14.536424262523651)" style="fill: rgb(255, 255, 255); animation-play-state: running; animation-delay: 0s;"></path></g><g class="path" style="transform: scale(0.91); transform-origin: -28.98px 7.59142px; animation: 0.460829s linear -0.228111s infinite normal forwards running breath-57c2e95f-d57f-4bd8-b779-4c432a0d42c5;"><path d="M54.26 0.45L54.26 0.45L54.26 0.45Q51.69 0.45 50.18-0.73L50.18-0.73L48.50 8.29L41.83 8.29L47.10-21.06L47.10-21.06Q45.42-20.89 44.30-19.49L44.30-19.49L43.46-20.16L43.46-20.16Q45.14-22.18 47.63-22.18L47.63-22.18L47.63-22.18Q50.12-22.18 51.52-20.97L51.52-20.97L51.52-20.97Q52.92-19.77 53.03-17.58L53.03-17.58L53.03-17.58Q55.50-21.78 59.30-21.78L59.30-21.78L59.30-21.78Q63.11-21.78 65.13-19.63L65.13-19.63L65.13-19.63Q67.14-17.47 67.14-13.72L67.14-13.72L67.14-13.72Q67.14-7.11 63.56-3.33L63.56-3.33L63.56-3.33Q59.98 0.45 54.26 0.45zM52.58-13.94L50.57-2.97L50.57-2.97Q51.52-0.84 54.18-0.84L54.18-0.84L54.18-0.84Q56.84-0.84 58.83-5.32L58.83-5.32L58.83-5.32Q60.82-9.80 60.82-16.02L60.82-16.02L60.82-16.02Q60.82-18.59 60.28-19.54L60.28-19.54L60.28-19.54Q59.75-20.50 58.35-20.50L58.35-20.50L58.35-20.50Q56.95-20.50 55.47-18.82L55.47-18.82L55.47-18.82Q53.98-17.14 53.31-15.65L53.31-15.65L53.31-15.65Q52.64-14.17 52.64-13.94L52.64-13.94L52.58-13.94" fill="#ffffff" stroke="none" stroke-width="none" transform="translate(-83.46497535705566,14.536424262523651)" style="fill: rgb(255, 255, 255); animation-play-state: running; animation-delay: 0s;"></path></g><g class="path" style="transform: scale(0.91); transform-origin: -3.94497px 3.89642px; animation: 0.460829s linear -0.190092s infinite normal forwards running breath-57c2e95f-d57f-4bd8-b779-4c432a0d42c5;"><path d="M81.98-21.78L81.98-21.78L81.98-21.78Q89.10-21.78 89.10-16.13L89.10-16.13L89.10-16.13Q89.10-12.60 85.76-10.78L85.76-10.78L85.76-10.78Q82.43-8.96 76.27-8.90L76.27-8.90L76.27-8.90Q76.16-6.89 76.16-5.71L76.16-5.71L76.16-5.71Q76.16-3.19 77.31-1.99L77.31-1.99L77.31-1.99Q78.46-0.78 80.19-0.78L80.19-0.78L80.19-0.78Q81.93-0.78 83.36-1.46L83.36-1.46L83.36-1.46Q84.78-2.13 85.62-3.05L85.62-3.05L85.62-3.05Q86.46-3.98 87.08-4.98L87.08-4.98L87.08-4.98Q88.20-6.83 88.20-7.34L88.20-7.34L89.21-6.89L89.21-6.89Q89.04-5.99 88.20-4.51L88.20-4.51L88.20-4.51Q87.36-3.02 86.35-2.07L86.35-2.07L86.35-2.07Q85.34-1.12 83.38-0.31L83.38-0.31L83.38-0.31Q81.42 0.50 79.02 0.50L79.02 0.50L79.02 0.50Q74.48 0.50 72.16-1.65L72.16-1.65L72.16-1.65Q69.83-3.81 69.83-7.56L69.83-7.56L69.83-7.56Q69.83-14.22 73.14-18.00L73.14-18.00L73.14-18.00Q76.44-21.78 81.98-21.78zM87.70-16.13L87.70-16.13Q87.70-17.98 86.60-19.18L86.60-19.18L86.60-19.18Q85.51-20.38 83.36-20.38L83.36-20.38L83.36-20.38Q81.20-20.38 79.16-17.81L79.16-17.81L79.16-17.81Q77.11-15.23 76.44-10.19L76.44-10.19L76.44-10.19Q87.70-10.25 87.70-16.13L87.70-16.13" fill="#ffffff" stroke="none" stroke-width="none" transform="translate(-83.46497535705566,14.536424262523651)" style="fill: rgb(255, 255, 255); animation-play-state: running; animation-delay: 0s;"></path></g><g class="path" style="transform: scale(0.91); transform-origin: 18.79px 3.89642px; animation: 0.460829s linear -0.152074s infinite normal forwards running breath-57c2e95f-d57f-4bd8-b779-4c432a0d42c5;"><path d="M105.62-11.70L105.62-11.70L105.62-11.70Q104.44-12.88 104.44-14.56L104.44-14.56L104.44-14.56Q104.44-16.24 105.62-17.44L105.62-17.44L105.62-17.44Q106.79-18.65 108.47-18.65L108.47-18.65L108.47-18.65Q108.98-18.65 109.76-18.42L109.76-18.42L109.76-18.42Q108.70-20.38 105.78-20.38L105.78-20.38L105.78-20.38Q102.87-20.38 100.63-16.69L100.63-16.69L100.63-16.69Q98.39-12.99 98.39-5.71L98.39-5.71L98.39-5.71Q98.39-3.19 99.54-1.99L99.54-1.99L99.54-1.99Q100.69-0.78 102.42-0.78L102.42-0.78L102.42-0.78Q104.16-0.78 105.59-1.46L105.59-1.46L105.59-1.46Q107.02-2.13 107.86-3.05L107.86-3.05L107.86-3.05Q108.70-3.98 109.31-4.98L109.31-4.98L109.31-4.98Q110.43-6.83 110.43-7.34L110.43-7.34L111.44-6.89L111.44-6.89Q111.27-5.99 110.43-4.51L110.43-4.51L110.43-4.51Q109.59-3.02 108.58-2.07L108.58-2.07L108.58-2.07Q107.58-1.12 105.62-0.31L105.62-0.31L105.62-0.31Q103.66 0.50 101.25 0.50L101.25 0.50L101.25 0.50Q96.71 0.50 94.39-1.65L94.39-1.65L94.39-1.65Q92.06-3.81 92.06-7.56L92.06-7.56L92.06-7.56Q92.06-14.22 95.40-18.00L95.40-18.00L95.40-18.00Q98.73-21.78 104.44-21.78L104.44-21.78L104.44-21.78Q108.30-21.78 110.38-19.82L110.38-19.82L110.38-19.82Q112.45-17.86 112.45-14.67L112.45-14.67L112.45-14.67Q112.45-12.66 111.24-11.59L111.24-11.59L111.24-11.59Q110.04-10.53 108.42-10.53L108.42-10.53L108.42-10.53Q106.79-10.53 105.62-11.70" fill="#ffffff" stroke="none" stroke-width="none" transform="translate(-83.46497535705566,14.536424262523651)" style="fill: rgb(255, 255, 255); animation-play-state: running; animation-delay: 0s;"></path></g><g class="path" style="transform: scale(0.91); transform-origin: 37.015px 3.89642px; animation: 0.460829s linear -0.114055s infinite normal forwards running breath-57c2e95f-d57f-4bd8-b779-4c432a0d42c5;"><path d="M125.16-1.51L125.16-1.51Q123.48 0.50 120.96 0.50L120.96 0.50L120.96 0.50Q118.44 0.50 117.01-0.78L117.01-0.78L117.01-0.78Q115.58-2.07 115.58-4.14L115.58-4.14L115.58-4.14Q115.58-4.87 116.48-10.25L116.48-10.25L118.33-20.27L115.98-20.27L116.09-21.28L118.50-21.28L118.50-21.28Q122.64-21.28 124.60-21.62L124.60-21.62L125.38-21.78L121.52-0.62L121.52-0.62Q123.20-0.78 124.32-2.18L124.32-2.18L125.16-1.51" fill="#ffffff" stroke="none" stroke-width="none" transform="translate(-83.46497535705566,14.536424262523651)" style="fill: rgb(255, 255, 255); animation-play-state: running; animation-delay: 0s;"></path></g><g class="path" style="transform: scale(0.91); transform-origin: 39.655px -15.5036px; animation: 0.460829s linear -0.0760369s infinite normal forwards running breath-57c2e95f-d57f-4bd8-b779-4c432a0d42c5;"><path d="M120.23-27.16L120.23-27.16L120.23-27.16Q119.06-28.34 119.06-30.02L119.06-30.02L119.06-30.02Q119.06-31.70 120.23-32.90L120.23-32.90L120.23-32.90Q121.41-34.10 123.09-34.10L123.09-34.10L123.09-34.10Q124.77-34.10 125.97-32.90L125.97-32.90L125.97-32.90Q127.18-31.70 127.18-30.02L127.18-30.02L127.18-30.02Q127.18-28.34 125.97-27.16L125.97-27.16L125.97-27.16Q124.77-25.98 123.09-25.98L123.09-25.98L123.09-25.98Q121.41-25.98 120.23-27.16" fill="#ffffff" stroke="none" stroke-width="none" transform="translate(-83.46497535705566,14.536424262523651)" style="fill: rgb(255, 255, 255); animation-play-state: running; animation-delay: 0s;"></path></g><g class="path" style="transform: scale(0.91); transform-origin: 56.98px 3.89642px; animation: 0.460829s linear -0.0380184s infinite normal forwards running breath-57c2e95f-d57f-4bd8-b779-4c432a0d42c5;"><path d="M148.12 0.50L148.12 0.50L148.12 0.50Q143.19 0.50 142.74-3.81L142.74-3.81L142.74-3.81Q140.28 0.50 136.53 0.50L136.53 0.50L136.53 0.50Q132.78 0.50 130.56-1.76L130.56-1.76L130.56-1.76Q128.35-4.03 128.35-8.12L128.35-8.12L128.35-8.12Q128.35-14.50 131.49-18.14L131.49-18.14L131.49-18.14Q134.62-21.78 139.61-21.78L139.61-21.78L139.61-21.78Q143.70-21.78 145.04-17.92L145.04-17.92L145.04-17.92Q145.32-19.60 145.66-21.28L145.66-21.28L145.66-21.28Q149.80-21.28 151.82-21.62L151.82-21.62L152.54-21.78L148.68-0.62L148.68-0.62Q150.36-0.78 151.48-2.18L151.48-2.18L152.32-1.51L152.32-1.51Q150.64 0.50 148.12 0.50zM134.68-5.26L134.68-5.26Q134.68-2.74 135.32-1.76L135.32-1.76L135.32-1.76Q135.97-0.78 137.31-0.78L137.31-0.78L137.31-0.78Q138.66-0.78 140.06-2.24L140.06-2.24L140.06-2.24Q141.90-4.14 143.02-7.06L143.02-7.06L143.02-7.06Q143.19-7.78 143.67-10.56L143.67-10.56L143.67-10.56Q144.14-13.33 144.48-15.12L144.48-15.12L144.48-15.12Q144.31-17.25 143.30-18.82L143.30-18.82L143.30-18.82Q142.30-20.38 140.78-20.38L140.78-20.38L140.78-20.38Q138.04-20.38 136.36-15.48L136.36-15.48L136.36-15.48Q134.68-10.58 134.68-5.26L134.68-5.26" fill="#ffffff" stroke="none" stroke-width="none" transform="translate(-83.46497535705566,14.536424262523651)" style="fill: rgb(255, 255, 255); animation-play-state: running; animation-delay: 0s;"></path></g><g class="path" style="transform: scale(0.91); transform-origin: 80.08px -3.35858px; animation: 0.460829s linear 0s infinite normal forwards running breath-57c2e95f-d57f-4bd8-b779-4c432a0d42c5;"><path d="M165.70-2.02L165.70-2.02L165.70-2.02Q164.98-1.06 163.72-0.28L163.72-0.28L163.72-0.28Q162.46 0.50 160.44 0.50L160.44 0.50L160.44 0.50Q158.42 0.50 157.02-0.78L157.02-0.78L157.02-0.78Q155.62-2.07 155.62-4.42L155.62-4.42L155.62-4.42Q155.62-4.87 155.74-5.88L155.74-5.88L159.38-26.04L159.38-26.04Q160.38-31.58 162.15-33.94L162.15-33.94L162.15-33.94Q163.91-36.29 166.82-36.29L166.82-36.29L166.82-36.29Q168.84-36.29 170.16-34.78L170.16-34.78L170.16-34.78Q171.47-33.26 171.47-30.18L171.47-30.18L171.47-30.18Q171.47-27.10 169.09-21.39L169.09-21.39L169.09-21.39Q166.71-15.68 166.71-13.05L166.71-13.05L165.70-13.05L165.70-13.05Q165.70-16.02 168.06-21.53L168.06-21.53L168.06-21.53Q170.41-27.05 170.41-30.35L170.41-30.35L170.41-30.35Q170.41-32.37 169.48-33.82L169.48-33.82L169.48-33.82Q168.56-35.28 167.22-35.28L167.22-35.28L167.22-35.28Q167.16-33.82 165.28-22.20L165.28-22.20L165.28-22.20Q163.41-10.58 161.56-0.62L161.56-0.62L161.56-0.62Q163.13-0.62 164.47-2.24L164.47-2.24L164.47-2.24Q165.82-3.86 166.38-5.49L166.38-5.49L166.99-7.17L168-6.72L168-6.72Q167.83-5.94 167.13-4.45L167.13-4.45L167.13-4.45Q166.43-2.97 165.70-2.02" fill="#ffffff" stroke="none" stroke-width="none" transform="translate(-83.46497535705566,14.536424262523651)" style="fill: rgb(255, 255, 255); animation-play-state: running; animation-delay: 0s;"></path></g></g>
</g>
</g>
<style id="breath-57c2e95f-d57f-4bd8-b779-4c432a0d42c5" data-anikit="">@keyframes breath-57c2e95f-d57f-4bd8-b779-4c432a0d42c5
{
  0% {
    animation-timing-function: cubic-bezier(0.9647,0.2413,-0.0705,0.7911);
    transform: scale(0.9099999999999999);
  }
  51% {
    animation-timing-function: cubic-bezier(0.9226,0.2631,-0.0308,0.7628);
    transform: scale(1.02994);
  }
  100% {
    transform: scale(0.9099999999999999);
  }
}</style></svg>