<?xml version="1.0" encoding="utf-8"?>
<svg xmlns="http://www.w3.org/2000/svg" style="margin: auto; background: none; display: block; shape-rendering: auto;" width="281" height="69" preserveAspectRatio="xMidYMid">
<style type="text/css">
  text {
    text-anchor: middle; font-size: 56px; opacity: 0;
  }
</style>
<g style="transform-origin:140.5px 34.5px;transform:scale(1)">
<g transform="translate(140.5,34.5)">
  <g transform="translate(0,0)"><g class="path" style="opacity: 1; transform-origin: -89px -3.04335px; animation: 1s linear -0.5775s infinite normal forwards running blink-9c93bb74-a23e-4fb7-8801-3a20a67c7c0e;"><path d="M36.72-12.03L36.72-12.03L36.72-12.03Q36.72-9.49 36.08-7.55L36.08-7.55L36.08-7.55Q35.44-5.61 34.28-4.18L34.28-4.18L34.28-4.18Q33.11-2.76 31.53-1.80L31.53-1.80L31.53-1.80Q29.94-0.85 28.07-0.27L28.07-0.27L28.07-0.27Q26.20 0.30 24.10 0.55L24.10 0.55L24.10 0.55Q22.01 0.79 19.85 0.79L19.85 0.79L19.85 0.79Q17.01 0.79 14.60 0.37L14.60 0.37L14.60 0.37Q12.20-0.05 10.08-0.97L10.08-0.97L10.08-0.97Q7.96-1.89 6.00-3.34L6.00-3.34L6.00-3.34Q4.05-4.79 2.11-6.86L2.11-6.86L7.68-12.52L7.68-12.52Q8.45-10.64 9.79-9.04L9.79-9.04L9.79-9.04Q11.13-7.44 12.73-6.29L12.73-6.29L12.73-6.29Q14.33-5.14 16.05-4.48L16.05-4.48L16.05-4.48Q17.77-3.83 19.30-3.83L19.30-3.83L19.30-3.83Q21.11-3.83 22.70-4.09L22.70-4.09L22.70-4.09Q24.28-4.35 25.46-4.95L25.46-4.95L25.46-4.95Q26.63-5.55 27.30-6.55L27.30-6.55L27.30-6.55Q27.97-7.55 27.97-9.05L27.97-9.05L27.97-9.05Q27.97-10.20 27.45-11.02L27.45-11.02L27.45-11.02Q26.93-11.84 26.10-12.43L26.10-12.43L26.10-12.43Q25.27-13.02 24.20-13.43L24.20-13.43L24.20-13.43Q23.13-13.84 22.03-14.12L22.03-14.12L22.03-14.12Q20.92-14.41 19.85-14.64L19.85-14.64L19.85-14.64Q18.79-14.88 17.96-15.12L17.96-15.12L17.96-15.12Q16.35-15.59 14.60-16.12L14.60-16.12L14.60-16.12Q12.85-16.65 11.16-17.34L11.16-17.34L11.16-17.34Q9.46-18.02 7.94-18.91L7.94-18.91L7.94-18.91Q6.43-19.80 5.28-21.01L5.28-21.01L5.28-21.01Q4.13-22.23 3.45-23.83L3.45-23.83L3.45-23.83Q2.76-25.43 2.76-27.51L2.76-27.51L2.76-27.51Q2.76-30.00 3.38-31.92L3.38-31.92L3.38-31.92Q3.99-33.85 5.11-35.27L5.11-35.27L5.11-35.27Q6.23-36.70 7.77-37.67L7.77-37.67L7.77-37.67Q9.30-38.64 11.13-39.22L11.13-39.22L11.13-39.22Q12.96-39.81 15.03-40.07L15.03-40.07L15.03-40.07Q17.09-40.33 19.25-40.33L19.25-40.33L19.25-40.33Q22.20-40.33 24.62-39.79L24.62-39.79L24.62-39.79Q27.04-39.24 29.09-38.23L29.09-38.23L29.09-38.23Q31.14-37.21 32.85-35.81L32.85-35.81L32.85-35.81Q34.56-34.40 36.07-32.68L36.07-32.68L30.49-27.02L30.49-27.02Q29.83-28.98 28.67-30.57L28.67-30.57L28.67-30.57Q27.51-32.16 26.09-33.29L26.09-33.29L26.09-33.29Q24.66-34.43 23.11-35.04L23.11-35.04L23.11-35.04Q21.55-35.66 20.10-35.66L20.10-35.66L20.10-35.66Q18.21-35.66 16.63-35.40L16.63-35.40L16.63-35.40Q15.04-35.14 13.90-34.55L13.90-34.55L13.90-34.55Q12.77-33.96 12.14-32.96L12.14-32.96L12.14-32.96Q11.51-31.96 11.51-30.49L11.51-30.49L11.51-30.49Q11.51-29.31 11.98-28.49L11.98-28.49L11.98-28.49Q12.44-27.67 13.22-27.10L13.22-27.10L13.22-27.10Q14-26.52 14.98-26.15L14.98-26.15L14.98-26.15Q15.97-25.79 17.02-25.51L17.02-25.51L17.02-25.51Q18.07-25.24 19.10-25.03L19.10-25.03L19.10-25.03Q20.13-24.83 20.97-24.58L20.97-24.58L20.97-24.58Q22.61-24.12 24.42-23.60L24.42-23.60L24.42-23.60Q26.22-23.08 27.97-22.38L27.97-22.38L27.97-22.38Q29.72-21.68 31.31-20.78L31.31-20.78L31.31-20.78Q32.89-19.88 34.10-18.63L34.10-18.63L34.10-18.63Q35.30-17.39 36.01-15.76L36.01-15.76L36.01-15.76Q36.72-14.14 36.72-12.03" fill="#ffffff" stroke="none" stroke-width="none" transform="translate(-108.41497564315796,16.72664892911911)" style="fill: rgb(255, 255, 255);"></path></g><g class="path" style="opacity: 1; transform-origin: -48.75px 7.83665px; animation: 1s linear -0.495s infinite normal forwards running blink-9c93bb74-a23e-4fb7-8801-3a20a67c7c0e;"><path d="M76.45-15.86L76.45-15.86L76.45-15.86Q76.45-12.41 75.41-9.41L75.41-9.41L75.41-9.41Q74.38-6.40 72.41-4.17L72.41-4.17L72.41-4.17Q70.44-1.94 67.59-0.66L67.59-0.66L67.59-0.66Q64.75 0.63 61.14 0.63L61.14 0.63L61.14 0.63Q58.38 0.63 56.07-0.45L56.07-0.45L56.07-0.45Q53.76-1.53 52.12-3.77L52.12-3.77L52.12 14.57L42.88 14.57L42.88-31.58L46.43-31.58L50.53-24.72L50.53-24.72Q51.13-26.44 52.19-27.85L52.19-27.85L52.19-27.85Q53.24-29.26 54.62-30.26L54.62-30.26L54.62-30.26Q56-31.25 57.65-31.80L57.65-31.80L57.65-31.80Q59.31-32.35 61.14-32.35L61.14-32.35L61.14-32.35Q64.75-32.35 67.59-31.06L67.59-31.06L67.59-31.06Q70.44-29.78 72.41-27.55L72.41-27.55L72.41-27.55Q74.38-25.32 75.41-22.31L75.41-22.31L75.41-22.31Q76.45-19.30 76.45-15.86zM67.07-15.86L67.07-15.86L67.07-15.86Q67.07-17.06 66.95-18.42L66.95-18.42L66.95-18.42Q66.83-19.77 66.53-21.11L66.53-21.11L66.53-21.11Q66.23-22.45 65.69-23.68L65.69-23.68L65.69-23.68Q65.16-24.91 64.34-25.85L64.34-25.85L64.34-25.85Q63.52-26.80 62.36-27.36L62.36-27.36L62.36-27.36Q61.20-27.92 59.66-27.92L59.66-27.92L59.66-27.92Q58.08-27.92 56.92-27.37L56.92-27.37L56.92-27.37Q55.75-26.82 54.92-25.88L54.92-25.88L54.92-25.88Q54.09-24.94 53.55-23.72L53.55-23.72L53.55-23.72Q53.02-22.50 52.72-21.16L52.72-21.16L52.72-21.16Q52.42-19.82 52.29-18.46L52.29-18.46L52.29-18.46Q52.17-17.09 52.17-15.86L52.17-15.86L52.17-15.86Q52.17-14.77 52.34-13.44L52.34-13.44L52.34-13.44Q52.50-12.11 52.86-10.77L52.86-10.77L52.86-10.77Q53.21-9.43 53.79-8.18L53.79-8.18L53.79-8.18Q54.36-6.92 55.19-5.93L55.19-5.93L55.19-5.93Q56.03-4.95 57.13-4.36L57.13-4.36L57.13-4.36Q58.24-3.77 59.66-3.77L59.66-3.77L59.66-3.77Q61.22-3.77 62.37-4.33L62.37-4.33L62.37-4.33Q63.52-4.89 64.34-5.84L64.34-5.84L64.34-5.84Q65.16-6.78 65.69-8.01L65.69-8.01L65.69-8.01Q66.23-9.24 66.53-10.58L66.53-10.58L66.53-10.58Q66.83-11.92 66.95-13.29L66.95-13.29L66.95-13.29Q67.07-14.66 67.07-15.86" fill="#ffffff" stroke="none" stroke-width="none" transform="translate(-108.41497564315796,16.72664892911911)" style="fill: rgb(255, 255, 255);"></path></g><g class="path" style="opacity: 1; transform-origin: -11.755px 0.866648px; animation: 1s linear -0.4125s infinite normal forwards running blink-9c93bb74-a23e-4fb7-8801-3a20a67c7c0e;"><path d="M89.99-14.98L89.99-14.98L89.99-14.98Q91.68-14.60 93.38-14.38L93.38-14.38L93.38-14.38Q95.07-14.16 96.80-14.16L96.80-14.16L96.80-14.16Q98.60-14.16 100.15-14.51L100.15-14.51L100.15-14.51Q101.69-14.85 102.83-15.65L102.83-15.65L102.83-15.65Q103.96-16.46 104.62-17.80L104.62-17.80L104.62-17.80Q105.27-19.14 105.27-21.14L105.27-21.14L105.27-21.14Q105.27-22.75 104.84-24.09L104.84-24.09L104.84-24.09Q104.40-25.43 103.54-26.39L103.54-26.39L103.54-26.39Q102.68-27.34 101.42-27.88L101.42-27.88L101.42-27.88Q100.16-28.41 98.49-28.41L98.49-28.41L98.49-28.41Q96.93-28.41 95.69-27.84L95.69-27.84L95.69-27.84Q94.45-27.26 93.50-26.29L93.50-26.29L93.50-26.29Q92.56-25.32 91.89-24.04L91.89-24.04L91.89-24.04Q91.22-22.75 90.78-21.36L90.78-21.36L90.78-21.36Q90.34-19.96 90.15-18.54L90.15-18.54L90.15-18.54Q89.96-17.12 89.96-15.86L89.96-15.86L89.96-15.86Q89.96-15.64 89.96-15.42L89.96-15.42L89.96-15.42Q89.96-15.20 89.99-14.98zM112.77-21.22L112.77-21.22L112.77-21.22Q112.77-19.28 112.14-17.76L112.14-17.76L112.14-17.76Q111.51-16.24 110.43-15.09L110.43-15.09L110.43-15.09Q109.35-13.95 107.93-13.15L107.93-13.15L107.93-13.15Q106.50-12.36 104.89-11.85L104.89-11.85L104.89-11.85Q103.28-11.35 101.57-11.13L101.57-11.13L101.57-11.13Q99.86-10.91 98.25-10.91L98.25-10.91L98.25-10.91Q96.20-10.91 94.20-11.20L94.20-11.20L94.20-11.20Q92.20-11.48 90.26-12.11L90.26-12.11L90.26-12.11Q90.56-10.31 91.22-8.68L91.22-8.68L91.22-8.68Q91.88-7.05 92.97-5.84L92.97-5.84L92.97-5.84Q94.06-4.62 95.66-3.91L95.66-3.91L95.66-3.91Q97.26-3.20 99.45-3.20L99.45-3.20L99.45-3.20Q100.90-3.20 102.21-3.64L102.21-3.64L102.21-3.64Q103.52-4.07 104.62-4.87L104.62-4.87L104.62-4.87Q105.71-5.66 106.54-6.75L106.54-6.75L106.54-6.75Q107.38-7.85 107.90-9.19L107.90-9.19L111.89-7.71L111.89-7.71Q110.99-5.55 109.42-3.98L109.42-3.98L109.42-3.98Q107.84-2.41 105.86-1.38L105.86-1.38L105.86-1.38Q103.88-0.36 101.65 0.14L101.65 0.14L101.65 0.14Q99.42 0.63 97.23 0.63L97.23 0.63L97.23 0.63Q93.63 0.63 90.56-0.59L90.56-0.59L90.56-0.59Q87.50-1.80 85.29-3.99L85.29-3.99L85.29-3.99Q83.07-6.18 81.81-9.21L81.81-9.21L81.81-9.21Q80.55-12.25 80.55-15.86L80.55-15.86L80.55-15.86Q80.55-19.47 81.81-22.50L81.81-22.50L81.81-22.50Q83.07-25.54 85.29-27.73L85.29-27.73L85.29-27.73Q87.50-29.91 90.56-31.13L90.56-31.13L90.56-31.13Q93.63-32.35 97.23-32.35L97.23-32.35L97.23-32.35Q98.98-32.35 100.82-32.10L100.82-32.10L100.82-32.10Q102.65-31.86 104.37-31.32L104.37-31.32L104.37-31.32Q106.09-30.79 107.63-29.94L107.63-29.94L107.63-29.94Q109.16-29.09 110.29-27.85L110.29-27.85L110.29-27.85Q111.43-26.61 112.10-24.96L112.10-24.96L112.10-24.96Q112.77-23.32 112.77-21.22" fill="#ffffff" stroke="none" stroke-width="none" transform="translate(-108.41497564315796,16.72664892911911)" style="fill: rgb(255, 255, 255);"></path></g><g class="path" style="opacity: 1; transform-origin: 23.775px 0.866648px; animation: 1s linear -0.33s infinite normal forwards running blink-9c93bb74-a23e-4fb7-8801-3a20a67c7c0e;"><path d="M147.68-23.76L147.68-23.76L143.69-22.18L143.69-22.18Q142.73-25.18 140.49-26.80L140.49-26.80L140.49-26.80Q138.25-28.41 135.11-28.41L135.11-28.41L135.11-28.41Q133.41-28.41 132.08-27.88L132.08-27.88L132.08-27.88Q130.76-27.34 129.76-26.41L129.76-26.41L129.76-26.41Q128.76-25.48 128.06-24.25L128.06-24.25L128.06-24.25Q127.37-23.02 126.93-21.63L126.93-21.63L126.93-21.63Q126.49-20.23 126.30-18.74L126.30-18.74L126.30-18.74Q126.11-17.25 126.11-15.86L126.11-15.86L126.11-15.86Q126.11-14.36 126.27-12.82L126.27-12.82L126.27-12.82Q126.44-11.29 126.83-9.88L126.83-9.88L126.83-9.88Q127.23-8.48 127.89-7.26L127.89-7.26L127.89-7.26Q128.54-6.04 129.54-5.14L129.54-5.14L129.54-5.14Q130.54-4.24 131.92-3.72L131.92-3.72L131.92-3.72Q133.30-3.20 135.11-3.20L135.11-3.20L135.11-3.20Q136.55-3.20 137.87-3.64L137.87-3.64L137.87-3.64Q139.18-4.07 140.27-4.87L140.27-4.87L140.27-4.87Q141.37-5.66 142.21-6.75L142.21-6.75L142.21-6.75Q143.06-7.85 143.55-9.19L143.55-9.19L147.57-7.71L147.57-7.71Q146.67-5.55 145.18-3.98L145.18-3.98L145.18-3.98Q143.69-2.41 141.80-1.38L141.80-1.38L141.80-1.38Q139.92-0.36 137.76 0.14L137.76 0.14L137.76 0.14Q135.60 0.63 133.38 0.63L133.38 0.63L133.38 0.63Q129.80 0.63 126.74-0.59L126.74-0.59L126.74-0.59Q123.68-1.80 121.45-4.01L121.45-4.01L121.45-4.01Q119.22-6.21 117.96-9.23L117.96-9.23L117.96-9.23Q116.70-12.25 116.70-15.86L116.70-15.86L116.70-15.86Q116.70-19.50 117.95-22.53L117.95-22.53L117.95-22.53Q119.19-25.57 121.41-27.75L121.41-27.75L121.41-27.75Q123.62-29.94 126.68-31.14L126.68-31.14L126.68-31.14Q129.75-32.35 133.38-32.35L133.38-32.35L133.38-32.35Q135.68-32.35 137.87-31.84L137.87-31.84L137.87-31.84Q140.05-31.34 141.93-30.28L141.93-30.28L141.93-30.28Q143.80-29.23 145.29-27.62L145.29-27.62L145.29-27.62Q146.78-26.00 147.68-23.76" fill="#ffffff" stroke="none" stroke-width="none" transform="translate(-108.41497564315796,16.72664892911911)" style="fill: rgb(255, 255, 255);"></path></g><g class="path" style="opacity: 1; transform-origin: 49.4px -22.4684px; animation: 1s linear -0.2475s infinite normal forwards running blink-9c93bb74-a23e-4fb7-8801-3a20a67c7c0e;"><path d="M162.86-39.21L162.86-39.21L162.86-39.21Q162.86-38.17 162.46-37.24L162.46-37.24L162.46-37.24Q162.07-36.31 161.38-35.63L161.38-35.63L161.38-35.63Q160.70-34.95 159.77-34.55L159.77-34.55L159.77-34.55Q158.84-34.15 157.80-34.15L157.80-34.15L157.80-34.15Q156.76-34.15 155.85-34.55L155.85-34.55L155.85-34.55Q154.93-34.95 154.25-35.63L154.25-35.63L154.25-35.63Q153.56-36.31 153.17-37.24L153.17-37.24L153.17-37.24Q152.77-38.17 152.77-39.21L152.77-39.21L152.77-39.21Q152.77-40.25 153.17-41.17L153.17-41.17L153.17-41.17Q153.56-42.08 154.25-42.77L154.25-42.77L154.25-42.77Q154.93-43.45 155.85-43.85L155.85-43.85L155.85-43.85Q156.76-44.24 157.80-44.24L157.80-44.24L157.80-44.24Q158.84-44.24 159.77-43.85L159.77-43.85L159.77-43.85Q160.70-43.45 161.38-42.77L161.38-42.77L161.38-42.77Q162.07-42.08 162.46-41.17L162.46-41.17L162.46-41.17Q162.86-40.25 162.86-39.21" fill="#ffffff" stroke="none" stroke-width="none" transform="translate(-108.41497564315796,16.72664892911911)" style="fill: rgb(255, 255, 255);"></path></g><g class="path" style="opacity: 1; transform-origin: 49.4px 0.951647px; animation: 1s linear -0.165s infinite normal forwards running blink-9c93bb74-a23e-4fb7-8801-3a20a67c7c0e;"><path d="M162.45-31.55L162.45 0L153.18 0L153.18-31.55L162.45-31.55" fill="#ffffff" stroke="none" stroke-width="none" transform="translate(-108.41497564315796,16.72664892911911)" style="fill: rgb(255, 255, 255);"></path></g><g class="path" style="opacity: 1; transform-origin: 76.785px 0.866648px; animation: 1s linear -0.0825s infinite normal forwards running blink-9c93bb74-a23e-4fb7-8801-3a20a67c7c0e;"><path d="M201.99-31.58L201.99 0L192.75 0L192.75-3.77L192.75-3.77Q191.11-1.53 188.79-0.45L188.79-0.45L188.79-0.45Q186.48 0.63 183.72 0.63L183.72 0.63L183.72 0.63Q180.11 0.63 177.27-0.66L177.27-0.66L177.27-0.66Q174.43-1.94 172.46-4.17L172.46-4.17L172.46-4.17Q170.49-6.40 169.45-9.41L169.45-9.41L169.45-9.41Q168.41-12.41 168.41-15.86L168.41-15.86L168.41-15.86Q168.41-19.30 169.45-22.31L169.45-22.31L169.45-22.31Q170.49-25.32 172.46-27.55L172.46-27.55L172.46-27.55Q174.43-29.78 177.27-31.06L177.27-31.06L177.27-31.06Q180.11-32.35 183.72-32.35L183.72-32.35L183.72-32.35Q185.55-32.35 187.21-31.80L187.21-31.80L187.21-31.80Q188.86-31.25 190.24-30.26L190.24-30.26L190.24-30.26Q191.63-29.26 192.68-27.85L192.68-27.85L192.68-27.85Q193.73-26.44 194.33-24.72L194.33-24.72L198.43-31.58L201.99-31.58zM192.69-15.86L192.69-15.86L192.69-15.86Q192.69-17.09 192.57-18.46L192.57-18.46L192.57-18.46Q192.45-19.82 192.14-21.16L192.14-21.16L192.14-21.16Q191.84-22.50 191.31-23.72L191.31-23.72L191.31-23.72Q190.78-24.94 189.94-25.88L189.94-25.88L189.94-25.88Q189.11-26.82 187.93-27.37L187.93-27.37L187.93-27.37Q186.76-27.92 185.20-27.92L185.20-27.92L185.20-27.92Q183.64-27.92 182.49-27.36L182.49-27.36L182.49-27.36Q181.34-26.80 180.52-25.85L180.52-25.85L180.52-25.85Q179.70-24.91 179.17-23.68L179.17-23.68L179.17-23.68Q178.64-22.45 178.34-21.11L178.34-21.11L178.34-21.11Q178.04-19.77 177.91-18.42L177.91-18.42L177.91-18.42Q177.79-17.06 177.79-15.86L177.79-15.86L177.79-15.86Q177.79-14.66 177.91-13.29L177.91-13.29L177.91-13.29Q178.04-11.92 178.34-10.58L178.34-10.58L178.34-10.58Q178.64-9.24 179.17-8.01L179.17-8.01L179.17-8.01Q179.70-6.78 180.52-5.84L180.52-5.84L180.52-5.84Q181.34-4.89 182.49-4.33L182.49-4.33L182.49-4.33Q183.64-3.77 185.20-3.77L185.20-3.77L185.20-3.77Q186.62-3.77 187.73-4.36L187.73-4.36L187.73-4.36Q188.84-4.95 189.67-5.93L189.67-5.93L189.67-5.93Q190.50-6.92 191.08-8.18L191.08-8.18L191.08-8.18Q191.65-9.43 192.01-10.77L192.01-10.77L192.01-10.77Q192.36-12.11 192.53-13.44L192.53-13.44L192.53-13.44Q192.69-14.77 192.69-15.86" fill="#ffffff" stroke="none" stroke-width="none" transform="translate(-108.41497564315796,16.72664892911911)" style="fill: rgb(255, 255, 255);"></path></g><g class="path" style="opacity: 1; transform-origin: 105.905px -6.33835px; animation: 1s linear 0s infinite normal forwards running blink-9c93bb74-a23e-4fb7-8801-3a20a67c7c0e;"><path d="M218.94-36.53L218.94 0L209.70 0L209.70-46.13L213.25-46.13L218.94-36.53" fill="#ffffff" stroke="none" stroke-width="none" transform="translate(-108.41497564315796,16.72664892911911)" style="fill: rgb(255, 255, 255);"></path></g></g>
</g>
</g>
<style id="blink-9c93bb74-a23e-4fb7-8801-3a20a67c7c0e" data-anikit="">@keyframes blink-9c93bb74-a23e-4fb7-8801-3a20a67c7c0e {
  0% { opacity: 1; }
  49.75% { opacity: 1; }
  50.25% { opacity: 0; }
  99.5% { opacity: 0; }
  100% { opacity: 1; }
}</style></svg>