<?xml version="1.0" encoding="utf-8"?>
<svg xmlns="http://www.w3.org/2000/svg" style="margin: auto; background: none; display: block; shape-rendering: auto;" width="253" height="57" preserveAspectRatio="xMidYMid">
<style type="text/css">
  text {
    text-anchor: middle; font-size: 48px; opacity: 0;
  }
</style>
<g style="transform-origin: 126.5px 28.5px; transform: scale(1.2);">
<g transform="translate(126.5,28.5)">
  <g transform="translate(0,0)"><g class="path" style="opacity: 1; transform-origin: -86.18px -3.3676px; animation: 1s linear -0.594s infinite normal forwards running blink-9c93bb74-a23e-4fb7-8801-3a20a67c7c0e;"><path d="M25.80-27.24L23.60-27.24L23.60 0L18 0L4.28-25.88L4.28-0.76L6.48-0.76L6.48 0L1 0L1-0.76L3.20-0.76L3.20-27.24L1-27.24L1-28L12.04-28L22.52-7.92L22.52-27.24L20.32-27.24L20.32-28L25.80-28L25.80-27.24" fill="#ffffff" stroke="none" stroke-width="none" transform="translate(-99.57998180389404,10.63239748859406)" style="fill: rgb(255, 255, 255);"></path></g><g class="path" style="opacity: 1; transform-origin: -63.0731px 1.1124px; animation: 1s linear -0.528s infinite normal forwards running blink-9c93bb74-a23e-4fb7-8801-3a20a67c7c0e;"><path d="M37.32 0.40L37.32 0.40Q32.16 0.40 29.58-2.26L29.58-2.26L29.58-2.26Q27.00-4.92 27.00-9.66L27.00-9.66L27.00-9.66Q27.00-14.40 29.90-16.92L29.90-16.92L29.90-16.92Q32.80-19.44 37.28-19.44L37.28-19.44L37.28-19.44Q46.36-19.44 46-10.32L46-10.32L34.72-10.32L34.72-8.76L34.72-8.76Q34.72-4.84 35.72-2.84L35.72-2.84L35.72-2.84Q36.72-0.84 39.20-0.84L39.20-0.84L39.20-0.84Q43.84-0.84 45.28-5.80L45.28-5.80L46-5.68L46-5.68Q45.24-2.80 43.26-1.20L43.26-1.20L43.26-1.20Q41.28 0.40 37.32 0.40L37.32 0.40zM34.76-13.08L34.76-11.12L38.88-11.12L38.88-13.08L38.88-13.08Q38.88-16.32 38.50-17.50L38.50-17.50L38.50-17.50Q38.12-18.68 36.98-18.68L36.98-18.68L36.98-18.68Q35.84-18.68 35.30-17.42L35.30-17.42L35.30-17.42Q34.76-16.16 34.76-13.08L34.76-13.08" fill="#ffffff" stroke="none" stroke-width="none" transform="translate(-99.57998180389404,10.63239748859406)" style="fill: rgb(255, 255, 255);"></path></g><g class="path" style="opacity: 1; transform-origin: -37.32px 1.1124px; animation: 1s linear -0.462s infinite normal forwards running blink-9c93bb74-a23e-4fb7-8801-3a20a67c7c0e;"><path d="M61.40-18.32L59.92-18.32L59.92-19.04L70.24-19.04L70.24-18.32L68.60-18.32L72.20-4.84L75.76-18.32L73-18.32L73-19.04L78.40-19.04L78.40-18.32L76.72-18.32L71.92 0L66.44 0L62.96-12.28L59.20 0L53.84 0L47.92-18.32L46.12-18.32L46.12-19.04L58.24-19.04L58.24-18.32L55.84-18.32L59.52-4.72L62.40-14.08L61.40-18.32" fill="#ffffff" stroke="none" stroke-width="none" transform="translate(-99.57998180389404,10.63239748859406)" style="fill: rgb(255, 255, 255);"></path></g><g class="path" style="opacity: 1; transform-origin: 0.180031px -3.3876px; animation: 1s linear -0.396s infinite normal forwards running blink-9c93bb74-a23e-4fb7-8801-3a20a67c7c0e;"><path d="M102.40-27.64L102.40-27.64L102.40-27.64Q96.20-27.64 96.20-15.68L96.20-15.68L96.20-12.52L96.20-12.52Q96.20-6.84 97.84-3.62L97.84-3.62L97.84-3.62Q99.48-0.40 102.68-0.40L102.68-0.40L102.68-0.40Q107.08-0.40 110.76-8.96L110.76-8.96L111.48-8.96L111.20-0.04L110.76-0.04L110.76-0.04Q110.52-0.48 110.32-0.66L110.32-0.66L110.32-0.66Q110.12-0.84 109.74-0.84L109.74-0.84L109.74-0.84Q109.36-0.84 106.84-0.22L106.84-0.22L106.84-0.22Q104.32 0.40 101.72 0.40L101.72 0.40L101.72 0.40Q95.20 0.40 91.62-3.12L91.62-3.12L91.62-3.12Q88.04-6.64 88.04-13.70L88.04-13.70L88.04-13.70Q88.04-20.76 91.78-24.60L91.78-24.60L91.78-24.60Q95.52-28.44 101.84-28.44L101.84-28.44L101.84-28.44Q104.28-28.44 106.62-27.82L106.62-27.82L106.62-27.82Q108.96-27.20 109.36-27.20L109.36-27.20L109.36-27.20Q109.76-27.20 109.96-27.38L109.96-27.38L109.96-27.38Q110.16-27.56 110.40-28L110.40-28L110.84-28L111.16-19.32L110.44-19.32L110.44-19.32Q108.64-23.36 106.74-25.50L106.74-25.50L106.74-25.50Q104.84-27.64 102.40-27.64" fill="#ffffff" stroke="none" stroke-width="none" transform="translate(-99.57998180389404,10.63239748859406)" style="fill: rgb(255, 255, 255);"></path></g><g class="path" style="opacity: 1; transform-origin: 20.68px -4.3676px; animation: 1s linear -0.33s infinite normal forwards running blink-9c93bb74-a23e-4fb7-8801-3a20a67c7c0e;"><path d="M114.24-29.28L114.24-30L124.04-30L124.04-0.72L126.28-0.72L126.28 0L114.40 0L114.40-0.72L116.60-0.72L116.60-29.28L114.24-29.28" fill="#ffffff" stroke="none" stroke-width="none" transform="translate(-99.57998180389404,10.63239748859406)" style="fill: rgb(255, 255, 255);"></path></g><g class="path" style="opacity: 1; transform-origin: 33.44px -14.8876px; animation: 1s linear -0.264s infinite normal forwards running blink-9c93bb74-a23e-4fb7-8801-3a20a67c7c0e;"><path d="M132.92-21.80L132.92-21.80L132.92-21.80Q130.80-21.80 129.90-22.88L129.90-22.88L129.90-22.88Q129-23.96 129-25.56L129-25.56L129-25.56Q129-27.16 129.98-28.20L129.98-28.20L129.98-28.20Q130.96-29.24 132.96-29.24L132.96-29.24L132.96-29.24Q134.96-29.24 136-28.30L136-28.30L136-28.30Q137.04-27.36 137.04-25.62L137.04-25.62L137.04-25.62Q137.04-23.88 136.04-22.84L136.04-22.84L136.04-22.84Q135.04-21.80 132.92-21.80" fill="#ffffff" stroke="none" stroke-width="none" transform="translate(-99.57998180389404,10.63239748859406)" style="fill: rgb(255, 255, 255);"></path></g><g class="path" style="opacity: 1; transform-origin: 33.32px 1.1124px; animation: 1s linear -0.198s infinite normal forwards running blink-9c93bb74-a23e-4fb7-8801-3a20a67c7c0e;"><path d="M126.88-18.32L126.88-19.04L136.68-19.04L136.68-0.72L138.92-0.72L138.92 0L127.04 0L127.04-0.72L129.24-0.72L129.24-18.32L126.88-18.32" fill="#ffffff" stroke="none" stroke-width="none" transform="translate(-99.57998180389404,10.63239748859406)" style="fill: rgb(255, 255, 255);"></path></g><g class="path" style="opacity: 1; transform-origin: 49.8469px 1.1124px; animation: 1s linear -0.132s infinite normal forwards running blink-9c93bb74-a23e-4fb7-8801-3a20a67c7c0e;"><path d="M150.24 0.40L150.24 0.40Q145.08 0.40 142.50-2.26L142.50-2.26L142.50-2.26Q139.92-4.92 139.92-9.66L139.92-9.66L139.92-9.66Q139.92-14.40 142.82-16.92L142.82-16.92L142.82-16.92Q145.72-19.44 150.20-19.44L150.20-19.44L150.20-19.44Q159.28-19.44 158.92-10.32L158.92-10.32L147.64-10.32L147.64-8.76L147.64-8.76Q147.64-4.84 148.64-2.84L148.64-2.84L148.64-2.84Q149.64-0.84 152.12-0.84L152.12-0.84L152.12-0.84Q156.76-0.84 158.20-5.80L158.20-5.80L158.92-5.68L158.92-5.68Q158.16-2.80 156.18-1.20L156.18-1.20L156.18-1.20Q154.20 0.40 150.24 0.40L150.24 0.40zM147.68-13.08L147.68-11.12L151.80-11.12L151.80-13.08L151.80-13.08Q151.80-16.32 151.42-17.50L151.42-17.50L151.42-17.50Q151.04-18.68 149.90-18.68L149.90-18.68L149.90-18.68Q148.76-18.68 148.22-17.42L148.22-17.42L148.22-17.42Q147.68-16.16 147.68-13.08L147.68-13.08" fill="#ffffff" stroke="none" stroke-width="none" transform="translate(-99.57998180389404,10.63239748859406)" style="fill: rgb(255, 255, 255);"></path></g><g class="path" style="opacity: 1; transform-origin: 72.88px 0.912397px; animation: 1s linear -0.066s infinite normal forwards running blink-9c93bb74-a23e-4fb7-8801-3a20a67c7c0e;"><path d="M160.44-18.32L160.44-19.04L170.08-19.04L170.08-15.36L170.08-15.36Q170.72-17.20 172.04-18.32L172.04-18.32L172.04-18.32Q173.36-19.44 176.04-19.44L176.04-19.44L176.04-19.44Q182.24-19.44 182.24-12.76L182.24-12.76L182.24-0.72L184.48-0.72L184.48 0L173.16 0L173.16-0.72L174.80-0.72L174.80-13.72L174.80-13.72Q174.80-16.12 174.48-16.82L174.48-16.82L174.48-16.82Q174.16-17.52 173.32-17.52L173.32-17.52L173.32-17.52Q172.04-17.52 171.06-15.84L171.06-15.84L171.06-15.84Q170.08-14.16 170.08-11.76L170.08-11.76L170.08-0.72L171.80-0.72L171.80 0L160.44 0L160.44-0.72L162.64-0.72L162.64-18.32L160.44-18.32" fill="#ffffff" stroke="none" stroke-width="none" transform="translate(-99.57998180389404,10.63239748859406)" style="fill: rgb(255, 255, 255);"></path></g><g class="path" style="opacity: 1; transform-origin: 92.8px -2.1876px; animation: 1s linear 0s infinite normal forwards running blink-9c93bb74-a23e-4fb7-8801-3a20a67c7c0e;"><path d="M186.80-5.72L186.80-5.72L186.80-18.32L184.60-18.32L184.60-19.04L186.80-19.04L186.80-24.20L194.24-26.04L194.24-19.04L199.44-19.04L199.44-18.32L194.24-18.32L194.24-4.84L194.24-4.84Q194.24-2.96 194.62-2.08L194.62-2.08L194.62-2.08Q195.00-1.20 196.20-1.20L196.20-1.20L196.20-1.20Q197.40-1.20 198.30-2.40L198.30-2.40L198.30-2.40Q199.20-3.60 199.48-5.68L199.48-5.68L200.16-5.60L200.16-5.60Q199.84-2.84 198.40-1.22L198.40-1.22L198.40-1.22Q196.96 0.40 193.64 0.40L193.64 0.40L193.64 0.40Q190.32 0.40 188.56-0.92L188.56-0.92L188.56-0.92Q186.80-2.24 186.80-5.72" fill="#ffffff" stroke="none" stroke-width="none" transform="translate(-99.57998180389404,10.63239748859406)" style="fill: rgb(255, 255, 255);"></path></g></g>
</g>
</g>
<style id="blink-9c93bb74-a23e-4fb7-8801-3a20a67c7c0e" data-anikit="">@keyframes blink-9c93bb74-a23e-4fb7-8801-3a20a67c7c0e {
  0% { opacity: 1; }
  49.75% { opacity: 1; }
  50.25% { opacity: 0; }
  99.5% { opacity: 0; }
  100% { opacity: 1; }
}</style></svg>