<?xml version="1.0" encoding="UTF-8"?>
<!-- Generator: Adobe Illustrator 27.2.0, SVG Export Plug-In . SVG Version: 6.00 Build 0)  -->
<svg xmlns="http://www.w3.org/2000/svg" xmlns:xlink="http://www.w3.org/1999/xlink" version="1.1" id="Layer_1" x="0px" y="0px" viewBox="0 0 2160 500" style="enable-background:new 0 0 2160 500;" xml:space="preserve">
<style type="text/css">
	.st0{fill:#23AAE2;}
	.st1{fill:#27292A;}
	.st2{fill:#191A1C;}
</style>
<path class="st0" d="M1872.2,52.7c-7.2-4-14.8-7-22.8-9.1c-8-2.1-16.1-3.1-24.3-3.1c-8.3,0-16.4,1.2-24.3,3.4s-15.5,5.5-22.6,9.7  c-1.3,0.8-2.7,1.7-4,2.5c-1.3,0.9-2.6,1.8-3.8,2.7c-1.3,0.9-2.5,1.9-3.7,2.9c-1.2,1-2.4,2-3.6,3.1c-1.2,1.1-2.3,2.1-3.4,3.3  c-1.1,1.1-2.2,2.3-3.3,3.4c-1.1,1.2-2.1,2.4-3.1,3.6c-1,1.2-2,2.5-2.9,3.7c-0.9,1.3-1.9,2.5-2.7,3.8c-0.9,1.3-1.7,2.6-2.5,4  c-0.8,1.3-1.6,2.7-2.3,4.1c-0.8,1.4-1.5,2.8-2.1,4.2c-0.7,1.4-1.3,2.9-1.9,4.3c-0.6,1.5-1.2,2.9-1.7,4.4c-0.5,1.5-1.1,3-1.5,4.5  c-0.5,1.5-0.9,3-1.3,4.5c-0.4,1.5-0.8,3.1-1.1,4.6c-0.3,1.5-0.6,3.1-0.9,4.6c-0.2,1.6-0.5,3.1-0.6,4.7c-0.2,1.6-0.3,3.1-0.4,4.7  c-0.1,1.6-0.2,3.1-0.2,4.7c0,1.6,0,3.2,0,4.7c0,1.6,0.1,3.1,0.3,4.7c0.1,1.6,0.3,3.1,0.5,4.7s0.4,3.1,0.7,4.7  c0.3,1.6,0.6,3.1,0.9,4.6c0.3,1.5,0.7,3.1,1.2,4.6s0.9,3,1.4,4.5c0.5,1.5,1,3,1.6,4.4c0.6,1.5,1.2,2.9,1.8,4.4  c0.6,1.4,1.3,2.9,2,4.3c0.7,1.4,1.4,2.8,2.2,4.2c4.1,7.2,9,13.9,14.8,19.8c5.8,6,12.2,11.1,19.3,15.4c7,4.3,14.5,7.6,22.5,9.8  c7.9,2.2,16,3.3,24.3,3.3c13.2,0.3,26.1-1.8,38.6-6.2c5.4-2.1,10.6-4.8,15.4-8.1c-10.8,15.2-22.9,29.3-36.4,42.3  c-24.7,23.9-51.6,45.1-80.6,63.7l-2.8,1.9l10.2,12.5l2.4-1.7c29.4-21.8,54.5-42,74.7-59.8c20.5-18.5,37.7-39.7,51.9-63.4  c3.5-5.8,6.6-11.9,9.3-18.1c2.7-6.3,5-12.7,6.8-19.2s3.2-13.2,4.1-20c0.9-6.8,1.3-13.5,1.3-20.3c0.2-8.9-0.7-17.6-2.8-26.3  c-2.1-8.6-5.2-16.9-9.5-24.7c-4.1-7.2-9.1-13.6-15-19.4C1886.1,61.5,1879.5,56.7,1872.2,52.7z M1904.5,133.9v5.8  c0.3,5.4,0.1,10.7-0.7,16c-0.8,5.3-2.1,10.5-3.9,15.6c-1.8,5.1-4.2,9.9-7,14.5c-2.8,4.6-6.1,8.8-9.7,12.8c-3.9,3.6-8.1,6.8-12.6,9.6  c-4.5,2.8-9.3,5.1-14.3,6.9c-5,1.8-10.1,3.2-15.4,4c-5.3,0.8-10.5,1.1-15.8,0.8c-7.1,0.1-14-0.7-20.8-2.5c-6.8-1.8-13.3-4.4-19.4-8  c-6.1-3.6-11.6-8-16.5-13c-4.9-5.1-9.1-10.7-12.6-16.9c-3.6-6.4-6.3-13.1-8.1-20.2c-1.8-7.1-2.6-14.3-2.5-21.6  c-0.1-7.2,0.8-14.3,2.6-21.2c1.8-7,4.4-13.6,8-19.9c3.5-6.1,7.7-11.6,12.6-16.6c4.9-5,10.4-9.3,16.5-12.8c6.1-3.7,12.5-6.5,19.3-8.4  s13.8-2.9,20.9-2.9c6.8,0,13.4,0.8,20,2.4s12.8,4.1,18.8,7.4c5.9,3.3,11.3,7.3,16.2,12c4.9,4.7,9.1,10,12.6,15.8  c3.6,6.2,6.5,12.7,8.5,19.5C1903.2,119.8,1904.3,126.8,1904.5,133.9z"></path>
<path class="st0" d="M2138.8,86.7c-4-7.2-8.9-13.6-14.8-19.4c-5.8-5.8-12.3-10.6-19.5-14.6c-7.3-4-14.9-7.1-23-9.1  c-8.1-2.1-16.2-3.1-24.5-3c-8.3,0-16.5,1.1-24.5,3.4c-8,2.2-15.6,5.5-22.7,9.7c-1.8,1.1-3.5,2.2-5.3,3.4c-1.7,1.2-3.4,2.4-5,3.8  c-1.6,1.3-3.2,2.7-4.8,4.1s-3,2.9-4.5,4.4c-1.5,1.5-2.9,3-4.2,4.6s-2.7,3.2-3.9,4.9c-1.2,1.7-2.4,3.4-3.6,5.1  c-1.1,1.8-2.2,3.5-3.3,5.4c-1,1.8-2,3.7-2.9,5.6c-0.9,1.9-1.8,3.8-2.5,5.7s-1.5,3.9-2.2,5.9c-0.7,2-1.3,4-1.8,6  c-0.5,2-1,4.1-1.4,6.1s-0.7,4.1-1,6.2c-0.3,2.1-0.5,4.2-0.6,6.2c-0.1,2.1-0.2,4.2-0.2,6.3c0,2.1,0.1,4.2,0.2,6.3  c0.1,2.1,0.3,4.2,0.6,6.2c0.3,2.1,0.6,4.1,1,6.2c0.4,2.1,0.8,4.1,1.4,6.1c0.5,2,1.1,4,1.8,6c0.7,2,1.4,4,2.1,5.9  c0.8,1.9,1.6,3.9,2.5,5.7c0.9,1.9,1.9,3.7,2.9,5.6c1,1.8,2.1,3.6,3.2,5.4c1.1,1.8,2.3,3.5,3.6,5.2c1.2,1.7,2.5,3.3,3.9,4.9  c1.3,1.6,2.7,3.2,4.2,4.7c1.4,1.5,2.9,3,4.5,4.4c1.5,1.4,3.1,2.8,4.8,4.1c1.6,1.3,3.3,2.6,5,3.8c1.7,1.2,3.5,2.4,5.2,3.5  c7.1,4.3,14.6,7.6,22.5,9.8c8,2.2,16.1,3.3,24.3,3.3c13.2,0.3,26.1-1.8,38.6-6.2c5.5-2.1,10.8-4.8,15.7-8.1  c-10.8,15.2-22.9,29.3-36.4,42.3c-24.7,23.9-51.6,45.2-80.6,63.7l-2.8,1.9l10.3,12.5l2.2-1.7c29.9-21.8,54.5-42,74.7-59.8  c20.3-18.6,37.4-39.7,51.5-63.3c3.6-5.8,6.7-11.8,9.4-18.1c2.7-6.2,5-12.7,6.8-19.2c1.8-6.6,3.2-13.2,4.1-20  c0.9-6.8,1.3-13.5,1.3-20.4c0.2-8.9-0.7-17.6-2.8-26.3C2146.2,102.7,2143.1,94.5,2138.8,86.7z M2136.9,133.9v5.8  c0.3,5.4,0.1,10.7-0.7,16c-0.8,5.3-2.1,10.5-3.9,15.6c-1.8,5.1-4.1,9.9-6.9,14.5c-2.8,4.6-6,8.8-9.7,12.8c-3.9,3.6-8.1,6.9-12.6,9.6  c-4.5,2.8-9.3,5.1-14.3,6.9c-5,1.8-10.1,3.2-15.4,4c-5.3,0.8-10.6,1.1-15.9,0.8c-7,0.1-14-0.7-20.8-2.5s-13.3-4.4-19.3-8  c-6.1-3.6-11.6-7.9-16.5-13c-4.9-5.1-9.1-10.7-12.5-16.9c-3.6-6.4-6.3-13.1-8.1-20.2c-1.8-7.1-2.7-14.3-2.6-21.6  c-0.1-7.2,0.8-14.3,2.6-21.3c1.8-7,4.5-13.6,8.1-19.9c3.5-6.1,7.6-11.6,12.6-16.6c4.9-5,10.4-9.2,16.5-12.7  c6.1-3.7,12.5-6.4,19.3-8.3c6.8-1.9,13.8-2.7,20.8-2.7c6.8,0,13.5,0.8,20,2.4s12.8,4.1,18.8,7.4c5.9,3.2,11.4,7.1,16.3,11.8  c4.9,4.6,9.1,9.8,12.7,15.6c3.6,6.2,6.5,12.7,8.4,19.5C2135.6,119.8,2136.7,126.8,2136.9,133.9z"></path>
<path class="st1" d="M1659.4,57v147.8h-141.5V57h-12.3v283.4h12.3V217.2h141.5v123.2h12.3V57H1659.4z"></path>
<path class="st1" d="M1376.4,57h-72.9v12.3h72.9v271h12.3v-271h72.9V57H1376.4z"></path>
<path class="st1" d="M579.4,198.3c0-2.1,0.1-4.3,0.2-6.4c0.1-2.1,0.3-4.2,0.5-6.4c0.2-2.1,0.5-4.2,0.8-6.3c0.3-2.1,0.7-4.2,1.1-6.3  c0.4-2.1,0.9-4.2,1.4-6.2c0.5-2.1,1.1-4.1,1.7-6.2c0.6-2,1.3-4.1,2-6.1c0.7-2,1.5-4,2.3-6c0.8-2,1.7-3.9,2.6-5.8  c0.9-1.9,1.9-3.8,2.9-5.7c1-1.9,2.1-3.7,3.2-5.6c1.1-1.8,2.2-3.6,3.4-5.4s2.4-3.5,3.7-5.2c1.3-1.7,2.6-3.4,3.9-5  c1.4-1.6,2.7-3.2,4.2-4.8c1.4-1.6,2.9-3.1,4.4-4.6c1.5-1.5,3.1-3,4.6-4.4c1.6-1.4,3.2-2.8,4.8-4.2c1.7-1.3,3.3-2.7,5-3.9  c1.7-1.3,3.5-2.5,5.2-3.7c1.8-1.2,3.6-2.3,5.4-3.4c1.8-1.1,3.7-2.1,5.6-3.1c1.9-1,3.8-2,5.7-2.9c1.9-0.9,3.9-1.8,5.8-2.6  c2-0.8,4-1.6,6-2.3c2-0.7,4-1.4,6.1-2c2-0.6,4.1-1.2,6.2-1.7c2.1-0.5,4.1-1,6.2-1.4c2.1-0.4,4.2-0.8,6.3-1.1  c2.1-0.3,4.2-0.6,6.3-0.8c2.1-0.2,4.2-0.4,6.4-0.4c2.1-0.1,4.3-0.1,6.4-0.1c7.3,0,14.5,0.6,21.7,1.8l2.1-12.1  c-7.9-1.3-15.8-2-23.8-2c-2.3,0-4.7,0.1-7,0.2c-2.3,0.1-4.6,0.3-7,0.5c-2.3,0.2-4.6,0.5-6.9,0.9c-2.3,0.3-4.6,0.7-6.9,1.2  s-4.6,1-6.8,1.5c-2.3,0.6-4.5,1.2-6.7,1.9c-2.2,0.7-4.4,1.4-6.6,2.2c-2.2,0.8-4.4,1.6-6.5,2.5c-2.2,0.9-4.3,1.8-6.4,2.8  c-2.1,1-4.2,2-6.2,3.1c-2.1,1.1-4.1,2.2-6.1,3.4c-2,1.2-4,2.4-5.9,3.7c-1.9,1.3-3.8,2.6-5.7,4c-1.9,1.4-3.7,2.8-5.5,4.3  c-1.8,1.5-3.6,3-5.3,4.6c-1.7,1.6-3.4,3.2-5.1,4.8c-1.6,1.6-3.2,3.3-4.8,5.1c-1.6,1.7-3.1,3.5-4.6,5.3c-1.5,1.8-2.9,3.6-4.3,5.5  c-1.4,1.9-2.7,3.8-4,5.7c-1.3,1.9-2.5,3.9-3.7,5.9c-1.2,2-2.3,4-3.4,6.1c-1.1,2.1-2.1,4.1-3.1,6.2c-1,2.1-1.9,4.2-2.8,6.4  c-0.9,2.2-1.7,4.3-2.5,6.5c-0.8,2.2-1.5,4.4-2.2,6.6c-0.7,2.2-1.3,4.5-1.9,6.7c-0.6,2.3-1.1,4.5-1.5,6.8c-0.5,2.3-0.9,4.6-1.2,6.9  c-0.3,2.3-0.6,4.6-0.9,6.9c-0.2,2.3-0.4,4.6-0.5,7c-0.1,2.3-0.2,4.7-0.2,7s0.1,4.7,0.2,7c0.1,2.3,0.3,4.6,0.5,7  c0.2,2.3,0.5,4.6,0.9,6.9c0.3,2.3,0.7,4.6,1.2,6.9s1,4.6,1.5,6.8c0.6,2.3,1.2,4.5,1.9,6.7c0.7,2.2,1.4,4.4,2.2,6.6  c0.8,2.2,1.6,4.4,2.5,6.5c0.9,2.1,1.8,4.3,2.8,6.4c1,2.1,2,4.2,3.1,6.2s2.2,4.1,3.4,6.1c1.2,2,2.4,4,3.7,5.9c1.3,1.9,2.6,3.8,4,5.7  s2.8,3.7,4.3,5.5c1.5,1.8,3,3.6,4.6,5.3c1.6,1.7,3.2,3.4,4.8,5.1c1.6,1.6,3.3,3.2,5.1,4.8c1.7,1.6,3.5,3.1,5.3,4.6  c1.8,1.5,3.6,2.9,5.5,4.3c1.9,1.4,3.8,2.7,5.7,4c1.9,1.3,3.9,2.5,5.9,3.7c2,1.2,4,2.3,6.1,3.4c2.1,1.1,4.1,2.1,6.2,3.1  c2.1,1,4.2,1.9,6.4,2.8c2.1,0.9,4.3,1.7,6.5,2.5c2.2,0.8,4.4,1.5,6.6,2.2c2.2,0.7,4.5,1.3,6.7,1.9c2.3,0.6,4.5,1.1,6.8,1.5  c2.3,0.5,4.6,0.8,6.9,1.2c2.3,0.3,4.6,0.6,6.9,0.9c2.3,0.2,4.6,0.4,7,0.5c2.3,0.1,4.7,0.2,7,0.2V328c-2.1,0-4.3,0-6.4-0.1  c-2.1-0.1-4.2-0.2-6.4-0.4c-2.1-0.2-4.2-0.5-6.3-0.8c-2.1-0.3-4.2-0.7-6.3-1.1c-2.1-0.4-4.2-0.9-6.2-1.4c-2.1-0.5-4.1-1.1-6.2-1.7  c-2-0.6-4.1-1.3-6.1-2c-2-0.7-4-1.5-6-2.3c-2-0.8-3.9-1.7-5.8-2.6c-1.9-0.9-3.8-1.9-5.7-2.8c-1.9-1-3.7-2-5.6-3.1  c-1.8-1.1-3.6-2.2-5.4-3.4c-1.8-1.2-3.5-2.4-5.2-3.7c-1.7-1.3-3.4-2.6-5-3.9c-1.7-1.3-3.3-2.7-4.8-4.2c-1.6-1.4-3.1-2.9-4.6-4.4  c-1.5-1.5-3-3-4.4-4.6c-1.4-1.6-2.8-3.2-4.2-4.8c-1.4-1.6-2.7-3.3-3.9-5c-1.3-1.7-2.5-3.4-3.7-5.2c-1.2-1.8-2.3-3.6-3.4-5.4  c-1.1-1.8-2.2-3.7-3.2-5.5c-1-1.9-2-3.8-2.9-5.7c-0.9-1.9-1.8-3.9-2.6-5.8c-0.8-2-1.6-3.9-2.3-6c-0.7-2-1.4-4-2-6.1  c-0.6-2-1.2-4.1-1.7-6.2c-0.5-2.1-1-4.1-1.4-6.2c-0.4-2.1-0.8-4.2-1.1-6.3c-0.3-2.1-0.6-4.2-0.8-6.3c-0.2-2.1-0.4-4.2-0.5-6.4  C579.4,202.6,579.4,200.5,579.4,198.3L579.4,198.3z"></path>
<path class="st1" d="M709.8,92c-1.7,0-3.4,0.1-5.1,0.3c-1.7,0.1-3.4,0.3-5.1,0.5c-1.7,0.2-3.4,0.5-5.1,0.8c-1.7,0.3-3.4,0.6-5,1  c-1.7,0.4-3.3,0.8-5,1.2c-1.7,0.5-3.3,0.9-4.9,1.5s-3.2,1.1-4.8,1.7c-1.6,0.6-3.2,1.3-4.7,1.9c-1.6,0.7-3.1,1.4-4.6,2.2  c-1.5,0.8-3,1.6-4.5,2.4c-1.5,0.8-3,1.7-4.4,2.6c-1.5,0.9-2.9,1.8-4.3,2.8c-1.4,1-2.8,2-4.1,3c-1.4,1-2.7,2.1-4,3.2  c-1.3,1.1-2.6,2.2-3.8,3.4c-1.2,1.2-2.5,2.4-3.7,3.6c-1.2,1.2-2.4,2.5-3.5,3.8c-1.1,1.3-2.2,2.6-3.3,3.9c-1.1,1.3-2.1,2.7-3.1,4.1  c-1,1.4-2,2.8-2.9,4.2c-0.9,1.4-1.8,2.9-2.7,4.4c-0.9,1.5-1.7,3-2.5,4.5c-0.8,1.5-1.5,3-2.3,4.6c-0.7,1.6-1.4,3.1-2,4.7  c-0.6,1.6-1.2,3.2-1.8,4.8c-0.6,1.6-1.1,3.2-1.6,4.9c-0.5,1.6-0.9,3.3-1.3,4.9c-0.4,1.7-0.8,3.3-1.1,5s-0.6,3.4-0.9,5.1  c-0.2,1.7-0.5,3.4-0.6,5.1c-0.2,1.7-0.3,3.4-0.4,5.1c-0.1,1.7-0.1,3.4-0.1,5.1c0,1.7,0,3.4,0.1,5.1c0.1,1.7,0.2,3.4,0.4,5.1  c0.2,1.7,0.4,3.4,0.6,5.1c0.2,1.7,0.5,3.4,0.9,5.1c0.3,1.7,0.7,3.3,1.1,5c0.4,1.7,0.9,3.3,1.3,4.9c0.5,1.6,1,3.3,1.6,4.9  c0.6,1.6,1.2,3.2,1.8,4.8c0.6,1.6,1.3,3.2,2,4.7c0.7,1.6,1.5,3.1,2.3,4.6c0.8,1.5,1.6,3,2.5,4.5c0.9,1.5,1.8,2.9,2.7,4.4  c0.9,1.4,1.9,2.8,2.9,4.2c1,1.4,2,2.7,3.1,4.1c1.1,1.3,2.2,2.6,3.3,3.9c1.1,1.3,2.3,2.5,3.5,3.8c1.2,1.2,2.4,2.4,3.7,3.6  c1.2,1.2,2.5,2.3,3.8,3.4s2.6,2.2,4,3.2c1.4,1,2.7,2,4.1,3c1.4,1,2.8,1.9,4.3,2.8c1.4,0.9,2.9,1.8,4.4,2.6c1.5,0.8,3,1.6,4.5,2.4  c1.5,0.8,3.1,1.5,4.6,2.2c1.6,0.7,3.2,1.3,4.7,1.9c1.6,0.6,3.2,1.2,4.8,1.7s3.3,1,4.9,1.5c1.7,0.5,3.3,0.9,5,1.2  c1.7,0.4,3.3,0.7,5,1c1.7,0.3,3.4,0.5,5.1,0.8c1.7,0.2,3.4,0.4,5.1,0.5c1.7,0.1,3.4,0.2,5.1,0.3v-12.4c-1.5,0-3.1,0-4.6-0.1  c-1.5-0.1-3.1-0.2-4.6-0.3c-1.5-0.2-3.1-0.3-4.6-0.6c-1.5-0.2-3-0.5-4.5-0.8c-1.5-0.3-3-0.6-4.5-1c-1.5-0.4-3-0.8-4.4-1.2  c-1.5-0.4-2.9-0.9-4.4-1.4s-2.9-1.1-4.3-1.7c-1.4-0.6-2.8-1.2-4.2-1.9s-2.8-1.3-4.1-2.1c-1.4-0.7-2.7-1.5-4-2.3  c-1.3-0.8-2.6-1.6-3.9-2.5c-1.3-0.9-2.5-1.7-3.8-2.7c-1.2-0.9-2.4-1.9-3.6-2.8s-2.4-2-3.5-3c-1.1-1-2.3-2.1-3.3-3.2  c-1.1-1.1-2.1-2.2-3.2-3.3c-1-1.1-2-2.3-3-3.5c-1-1.2-1.9-2.4-2.8-3.6c-0.9-1.2-1.8-2.5-2.7-3.8c-0.9-1.3-1.7-2.6-2.5-3.9  c-0.8-1.3-1.5-2.7-2.3-4c-0.7-1.4-1.4-2.7-2.1-4.1c-0.7-1.4-1.3-2.8-1.9-4.2c-0.6-1.4-1.1-2.9-1.7-4.3c-0.5-1.4-1-2.9-1.4-4.4  c-0.4-1.5-0.9-2.9-1.2-4.4c-0.4-1.5-0.7-3-1-4.5c-0.3-1.5-0.6-3-0.8-4.5c-0.2-1.5-0.4-3-0.6-4.6c-0.2-1.5-0.3-3.1-0.3-4.6  c-0.1-1.5-0.1-3.1-0.1-4.6c0-1.5,0-3.1,0.1-4.6c0.1-1.5,0.2-3.1,0.3-4.6c0.1-1.5,0.3-3.1,0.6-4.6s0.5-3,0.8-4.5c0.3-1.5,0.6-3,1-4.5  c0.4-1.5,0.8-3,1.2-4.4c0.4-1.5,0.9-2.9,1.4-4.4c0.5-1.4,1.1-2.9,1.7-4.3c0.6-1.4,1.2-2.8,1.9-4.2s1.3-2.8,2.1-4.1  c0.7-1.4,1.5-2.7,2.3-4c0.8-1.3,1.6-2.6,2.5-3.9c0.9-1.3,1.7-2.5,2.7-3.8c0.9-1.2,1.9-2.4,2.8-3.6s2-2.4,3-3.5  c1-1.1,2.1-2.2,3.2-3.3c1.1-1.1,2.2-2.2,3.3-3.2c1.1-1,2.3-2,3.5-3c1.2-1,2.4-1.9,3.6-2.8s2.5-1.8,3.8-2.7c1.3-0.9,2.6-1.7,3.9-2.5  c1.3-0.8,2.7-1.6,4-2.3c1.4-0.7,2.7-1.4,4.1-2.1s2.8-1.3,4.2-1.9c1.4-0.6,2.9-1.1,4.3-1.7c1.4-0.5,2.9-1,4.4-1.4  c1.5-0.4,2.9-0.9,4.4-1.2c1.5-0.4,3-0.7,4.5-1c1.5-0.3,3-0.6,4.5-0.8c1.5-0.2,3-0.4,4.6-0.6c1.5-0.2,3.1-0.3,4.6-0.3  c1.5-0.1,3.1-0.1,4.6-0.1c1.5,0,3.1,0,4.6,0.1c1.5,0.1,3.1,0.2,4.6,0.3c1.5,0.1,3.1,0.3,4.6,0.6c1.5,0.2,3,0.5,4.5,0.8  c1.5,0.3,3,0.6,4.5,1c1.5,0.4,3,0.8,4.4,1.2c1.5,0.4,2.9,0.9,4.4,1.4c1.4,0.5,2.9,1.1,4.3,1.7c1.4,0.6,2.8,1.2,4.2,1.9  s2.8,1.3,4.1,2.1c1.4,0.7,2.7,1.5,4,2.3c1.3,0.8,2.6,1.6,3.9,2.5c1.3,0.9,2.5,1.7,3.8,2.7c1.2,0.9,2.4,1.9,3.6,2.8  c1.2,1,2.4,2,3.5,3c1.1,1,2.3,2.1,3.3,3.2c1.1,1.1,2.1,2.2,3.2,3.3c1,1.1,2,2.3,3,3.5c1,1.2,1.9,2.4,2.8,3.6s1.8,2.5,2.7,3.8  c0.9,1.3,1.7,2.6,2.5,3.9c0.8,1.3,1.5,2.7,2.3,4c0.7,1.4,1.4,2.7,2.1,4.1c0.7,1.4,1.3,2.8,1.9,4.2c0.6,1.4,1.1,2.9,1.7,4.3  c0.5,1.4,1,2.9,1.4,4.4c0.4,1.5,0.9,3,1.2,4.4s0.7,3,1,4.5c0.3,1.5,0.6,3,0.8,4.5c0.2,1.5,0.4,3,0.6,4.6c0.2,1.5,0.3,3.1,0.3,4.6  c0.1,1.5,0.1,3.1,0.1,4.6c0,5-0.4,10-1.2,14.9l12.2,1.9c1-5.7,1.4-11.4,1.4-17.2c0-1.7-0.1-3.5-0.2-5.2c-0.1-1.7-0.2-3.5-0.4-5.2  c-0.2-1.7-0.4-3.4-0.7-5.2c-0.3-1.7-0.6-3.4-0.9-5.1c-0.3-1.7-0.7-3.4-1.2-5.1c-0.4-1.7-0.9-3.3-1.4-5c-0.5-1.7-1.1-3.3-1.7-4.9  c-0.6-1.6-1.2-3.2-1.9-4.8c-0.7-1.6-1.4-3.2-2.1-4.7c-0.8-1.6-1.5-3.1-2.4-4.6c-0.8-1.5-1.7-3-2.6-4.5c-0.9-1.5-1.8-2.9-2.8-4.4  s-2-2.9-3-4.2c-1-1.4-2.1-2.8-3.2-4.1c-1.1-1.3-2.2-2.6-3.4-3.9s-2.4-2.5-3.6-3.8c-1.2-1.2-2.5-2.4-3.8-3.6  c-1.3-1.2-2.6-2.3-3.9-3.4c-1.3-1.1-2.7-2.2-4.1-3.2c-1.4-1-2.8-2-4.3-3c-1.4-1-2.9-1.9-4.4-2.8c-1.5-0.9-3-1.7-4.5-2.6  c-1.5-0.8-3.1-1.6-4.6-2.3c-1.6-0.7-3.2-1.4-4.8-2.1c-1.6-0.7-3.2-1.3-4.9-1.9c-1.6-0.6-3.3-1.1-4.9-1.6c-1.7-0.5-3.3-1-5-1.4  c-1.7-0.4-3.4-0.8-5.1-1.1c-1.7-0.3-3.4-0.6-5.1-0.9c-1.7-0.3-3.4-0.5-5.2-0.6c-1.7-0.2-3.5-0.3-5.2-0.4  C713.2,92.1,711.5,92,709.8,92z"></path>
<path class="st1" d="M500,121.8v-9.6c0-2-0.1-4.1-0.3-6.1c-0.2-2-0.5-4-0.9-6c-0.4-2-0.9-4-1.5-5.9c-0.6-1.9-1.3-3.9-2.1-5.8  c-0.8-1.9-1.7-3.7-2.6-5.5c-1-1.8-2-3.5-3.1-5.2c-1.1-1.7-2.3-3.3-3.6-4.9c-1.3-1.6-2.7-3.1-4.1-4.5c-1.4-1.4-2.9-2.8-4.5-4.1  c-1.6-1.3-3.2-2.5-4.9-3.6c-1.7-1.1-3.4-2.2-5.2-3.1c-1.8-1-3.6-1.8-5.5-2.6c-1.9-0.8-3.8-1.5-5.8-2.1c-1.9-0.6-3.9-1.1-5.9-1.5  c-2-0.4-4-0.7-6-0.9c-2-0.2-4.1-0.3-6.1-0.3H344v284h12.3V62.3h82.2c1.6,0,3.3,0.1,4.9,0.2c1.6,0.2,3.2,0.4,4.8,0.7  c1.6,0.3,3.2,0.7,4.8,1.2c1.6,0.5,3.1,1,4.6,1.7s3,1.3,4.4,2.1c1.4,0.8,2.8,1.6,4.2,2.5c1.4,0.9,2.7,1.9,3.9,2.9  c1.3,1,2.5,2.1,3.6,3.3c1.2,1.2,2.2,2.4,3.3,3.6c1,1.3,2,2.6,2.9,3.9c0.9,1.4,1.8,2.8,2.5,4.2c0.8,1.4,1.5,2.9,2.1,4.4  c0.6,1.5,1.2,3,1.7,4.6c0.5,1.6,0.9,3.2,1.2,4.8c0.3,1.6,0.6,3.2,0.7,4.8c0.2,1.6,0.2,3.3,0.2,4.9v9.6c0,1.6-0.1,3.3-0.2,4.9  c-0.2,1.6-0.4,3.2-0.7,4.8c-0.3,1.6-0.7,3.2-1.2,4.8c-0.5,1.6-1,3.1-1.7,4.6c-0.6,1.5-1.3,3-2.1,4.4c-0.8,1.4-1.6,2.8-2.5,4.2  s-1.9,2.7-2.9,3.9c-1,1.3-2.1,2.5-3.3,3.6c-1.2,1.2-2.4,2.3-3.6,3.3c-1.3,1-2.6,2-3.9,2.9s-2.8,1.8-4.2,2.5  c-1.4,0.8-2.9,1.5-4.4,2.1c-1.5,0.6-3,1.2-4.6,1.7c-1.6,0.5-3.1,0.9-4.8,1.2c-1.6,0.3-3.2,0.6-4.8,0.7c-1.6,0.2-3.3,0.2-4.9,0.2  h-10.6l79.7,162.2h13.7l-74-150.6c1.8-0.3,3.6-0.6,5.4-1.1c1.8-0.4,3.5-1,5.3-1.6c1.7-0.6,3.4-1.3,5.1-2c1.7-0.8,3.3-1.6,4.9-2.5  c1.6-0.9,3.2-1.9,4.7-2.9c1.5-1,3-2.1,4.4-3.3c1.4-1.2,2.8-2.4,4.1-3.7c1.3-1.3,2.6-2.6,3.8-4c1.2-1.4,2.3-2.8,3.4-4.3  c1.1-1.5,2.1-3,3-4.6c0.9-1.6,1.8-3.2,2.6-4.9c0.8-1.7,1.5-3.4,2.1-5.1c0.6-1.7,1.2-3.5,1.7-5.2c0.5-1.8,0.9-3.6,1.2-5.4  c0.3-1.8,0.6-3.6,0.7-5.5C499.9,125.5,500,123.7,500,121.8z"></path>
<path class="st1" d="M253.2,280.8c-1.5,1.6-2.9,3.1-4.5,4.5c-1.5,1.5-3.1,2.9-4.7,4.3c-1.6,1.4-3.2,2.8-4.9,4.1  c-1.7,1.3-3.4,2.6-5.1,3.8c-1.7,1.2-3.5,2.4-5.3,3.6c-1.8,1.2-3.6,2.3-5.4,3.3c-1.8,1.1-3.7,2.1-5.6,3s-3.8,1.9-5.7,2.8  c-1.9,0.9-3.9,1.7-5.9,2.5c-2,0.8-4,1.5-6,2.2c-2,0.7-4,1.3-6.1,1.9c-2,0.6-4.1,1.1-6.2,1.6c-2.1,0.5-4.1,0.9-6.2,1.3  c-2.1,0.4-4.2,0.7-6.3,1c-2.1,0.3-4.2,0.5-6.3,0.7c-2.1,0.2-4.2,0.3-6.4,0.4c-2.1,0.1-4.2,0.1-6.4,0s-4.2-0.1-6.4-0.3  c-2.1-0.1-4.2-0.3-6.3-0.6s-4.2-0.5-6.3-0.9s-4.2-0.7-6.3-1.2c-2.1-0.4-4.1-0.9-6.2-1.5c-2.1-0.6-4.1-1.2-6.1-1.8  c-2-0.7-4-1.3-6-2.1c-2-0.8-4-1.5-5.9-2.4c-1.9-0.8-3.9-1.7-5.8-2.7c-1.9-0.9-3.8-1.9-5.6-3c-1.9-1-3.7-2.1-5.5-3.2  c-1.8-1.1-3.6-2.3-5.3-3.5c-1.7-1.2-3.5-2.5-5.1-3.8c-1.7-1.3-3.3-2.6-5-4c-1.6-1.4-3.2-2.8-4.8-4.2c-1.5-1.5-3.1-2.9-4.5-4.5  c-1.5-1.5-2.9-3.1-4.3-4.7c-1.4-1.6-2.8-3.2-4.1-4.9c-1.3-1.7-2.6-3.4-3.8-5.1c-1.2-1.7-2.4-3.5-3.6-5.3c-1.2-1.8-2.3-3.6-3.3-5.4  c-1.1-1.8-2.1-3.7-3-5.6s-1.9-3.8-2.8-5.7s-1.7-3.9-2.5-5.9c-0.8-2-1.5-4-2.2-6c-0.7-2-1.3-4-1.9-6.1c-0.6-2-1.1-4.1-1.6-6.2  c-0.5-2.1-0.9-4.2-1.3-6.2c-0.4-2.1-0.7-4.2-1-6.3c-0.3-2.1-0.5-4.2-0.7-6.3c-0.2-2.1-0.3-4.2-0.4-6.4c-0.1-2.1-0.1-4.2,0-6.4  c0-2.1,0.1-4.2,0.3-6.4c0.1-2.1,0.3-4.2,0.6-6.3c0.2-2.1,0.5-4.2,0.9-6.3c0.3-2.1,0.8-4.2,1.2-6.3c0.5-2.1,1-4.1,1.5-6.2  c0.6-2.1,1.2-4.1,1.8-6.1c0.7-2,1.3-4,2.1-6c0.8-2,1.6-4,2.4-5.9c0.8-1.9,1.7-3.9,2.7-5.8c0.9-1.9,1.9-3.8,3-5.6  c1-1.9,2.1-3.7,3.2-5.5c1.1-1.8,2.3-3.6,3.5-5.3c1.2-1.7,2.5-3.5,3.8-5.1c1.3-1.7,2.6-3.3,4-5c1.4-1.6,2.8-3.2,4.2-4.8  c1.5-1.6,2.9-3.1,4.5-4.5c1.5-1.5,3.1-2.9,4.7-4.3c1.6-1.4,3.2-2.8,4.9-4.1c1.7-1.3,3.4-2.6,5.1-3.8s3.5-2.4,5.3-3.6  c1.8-1.2,3.6-2.3,5.4-3.3c1.8-1.1,3.7-2.1,5.6-3s3.8-1.9,5.7-2.8c1.9-0.9,3.9-1.7,5.9-2.5c2-0.8,4-1.5,6-2.2c2-0.7,4-1.3,6.1-1.9  c2-0.6,4.1-1.1,6.2-1.6c2.1-0.5,4.1-0.9,6.2-1.3c2.1-0.4,4.2-0.7,6.3-1c2.1-0.3,4.2-0.5,6.3-0.7c2.1-0.2,4.2-0.3,6.4-0.4  c2.1-0.1,4.2-0.1,6.4,0c2.1,0,4.2,0.1,6.4,0.3s4.2,0.3,6.3,0.6c2.1,0.2,4.2,0.5,6.3,0.9c2.1,0.3,4.2,0.8,6.3,1.2  c2.1,0.5,4.1,1,6.2,1.5c2.1,0.6,4.1,1.2,6.1,1.8c2,0.7,4,1.4,6,2.1c2,0.8,4,1.5,5.9,2.4c1.9,0.8,3.9,1.7,5.8,2.7  c1.9,0.9,3.8,1.9,5.6,3c1.9,1,3.7,2.1,5.5,3.2c1.8,1.1,3.6,2.3,5.3,3.5c1.7,1.2,3.5,2.5,5.1,3.8c1.7,1.3,3.3,2.6,5,4  c1.6,1.4,3.2,2.8,4.8,4.2c2.6,2.4,5.1,5,7.5,7.5l9.1-8.3c-1.6-1.7-3.2-3.4-4.8-5c-1.6-1.6-3.3-3.2-5-4.8c-1.7-1.6-3.5-3.1-5.3-4.5  c-1.8-1.5-3.6-2.9-5.5-4.3c-1.9-1.4-3.8-2.7-5.7-4c-1.9-1.3-3.9-2.5-5.9-3.7c-2-1.2-4-2.3-6.1-3.4c-2-1.1-4.1-2.1-6.2-3.1  c-2.1-1-4.2-1.9-6.4-2.8c-2.1-0.9-4.3-1.7-6.5-2.5c-2.2-0.8-4.4-1.5-6.6-2.2c-2.2-0.7-4.5-1.3-6.7-1.9c-2.2-0.6-4.5-1.1-6.8-1.5  c-2.3-0.4-4.6-0.8-6.9-1.2c-2.3-0.3-4.6-0.6-6.9-0.8c-2.3-0.2-4.6-0.4-6.9-0.5c-2.3-0.1-4.6-0.2-7-0.2c-2.3,0-4.6,0.1-7,0.2  c-2.3,0.1-4.6,0.3-6.9,0.5c-2.3,0.2-4.6,0.5-6.9,0.9c-2.3,0.3-4.6,0.7-6.9,1.2c-2.3,0.5-4.5,1-6.8,1.5c-2.2,0.6-4.5,1.2-6.7,1.9  c-2.2,0.7-4.4,1.4-6.6,2.2c-2.2,0.8-4.3,1.6-6.5,2.5c-2.1,0.9-4.3,1.8-6.4,2.8c-2.1,1-4.2,2-6.2,3.1s-4.1,2.2-6.1,3.4  c-2,1.2-4,2.4-5.9,3.7c-1.9,1.3-3.8,2.6-5.7,4c-1.9,1.4-3.7,2.8-5.5,4.3c-1.8,1.5-3.6,3-5.3,4.5c-1.7,1.6-3.4,3.2-5,4.8  s-3.2,3.3-4.8,5c-1.6,1.7-3.1,3.5-4.5,5.3c-1.5,1.8-2.9,3.6-4.3,5.5c-1.4,1.9-2.7,3.8-4,5.7c-1.3,1.9-2.5,3.9-3.7,5.9  c-1.2,2-2.3,4-3.4,6.1c-1.1,2-2.1,4.1-3.1,6.2c-1,2.1-1.9,4.2-2.8,6.4s-1.7,4.3-2.5,6.5c-0.8,2.2-1.5,4.4-2.2,6.6  c-0.7,2.2-1.3,4.5-1.9,6.7c-0.6,2.2-1.1,4.5-1.5,6.8c-0.5,2.3-0.9,4.6-1.2,6.9c-0.3,2.3-0.6,4.6-0.9,6.9c-0.2,2.3-0.4,4.6-0.5,6.9  c-0.1,2.3-0.2,4.6-0.2,7c0,2.3,0.1,4.6,0.2,7c0.1,2.3,0.3,4.6,0.5,6.9c0.2,2.3,0.5,4.6,0.8,6.9c0.3,2.3,0.7,4.6,1.2,6.9  c0.4,2.3,1,4.5,1.5,6.8c0.6,2.3,1.2,4.5,1.9,6.7s1.4,4.4,2.2,6.6c0.8,2.2,1.6,4.4,2.5,6.5c0.9,2.1,1.8,4.3,2.8,6.4  c1,2.1,2,4.2,3.1,6.2c1.1,2.1,2.2,4.1,3.4,6.1c1.2,2,2.4,4,3.7,5.9c1.3,1.9,2.6,3.8,4,5.7c1.4,1.9,2.8,3.7,4.3,5.5s3,3.6,4.5,5.3  c1.6,1.7,3.2,3.4,4.8,5.1c1.6,1.6,3.3,3.2,5,4.8s3.5,3.1,5.3,4.6c1.8,1.5,3.6,2.9,5.5,4.3c1.9,1.4,3.8,2.7,5.7,4  c1.9,1.3,3.9,2.5,5.9,3.7c2,1.2,4,2.3,6.1,3.4c2,1.1,4.1,2.1,6.2,3.1c2.1,1,4.2,1.9,6.4,2.8c2.1,0.9,4.3,1.7,6.5,2.5  c2.2,0.8,4.4,1.5,6.6,2.2s4.5,1.3,6.7,1.9c2.2,0.6,4.5,1.1,6.8,1.5c2.3,0.5,4.6,0.9,6.9,1.2c2.3,0.3,4.6,0.6,6.9,0.9  c2.3,0.2,4.6,0.4,6.9,0.5c2.3,0.1,4.6,0.2,7,0.2c2.3,0,4.6,0,7-0.2c2.3-0.1,4.6-0.3,6.9-0.5c2.3-0.2,4.6-0.5,6.9-0.8  c2.3-0.3,4.6-0.7,6.9-1.2c2.3-0.4,4.5-0.9,6.8-1.5c2.2-0.6,4.5-1.2,6.7-1.8c2.2-0.7,4.4-1.4,6.6-2.2s4.4-1.6,6.5-2.5  c2.2-0.9,4.3-1.8,6.4-2.8c2.1-1,4.2-2,6.2-3.1c2.1-1.1,4.1-2.2,6.1-3.4c2-1.2,4-2.4,5.9-3.7c1.9-1.3,3.8-2.6,5.7-4  c1.9-1.4,3.7-2.8,5.5-4.3s3.6-3,5.3-4.5c3.4-3.1,6.7-6.4,9.8-9.8l1.6-1.7v-86h-12.2V280.8z"></path>
<path class="st1" d="M1127.5,311.3l-47.7-103.5L1151.4,57h-13.7l-64.6,136.2L1010.4,57h-13.5l69.3,150.7L1017,311.3L900,57h-13.6  l130.4,283.4l56.1-118.1l54.4,118.1L1261.8,57h-13.6L1127.5,311.3z"></path>
<path class="st0" d="M727.9,57.3l0.8-12l-18.9,16.7l16.4,19.7l0.8-11.4c2,0.3,4,0.7,5.9,1c2,0.4,3.9,0.8,5.9,1.3  c1.9,0.5,3.9,1,5.8,1.6c1.9,0.6,3.8,1.2,5.7,1.9c1.9,0.7,3.8,1.4,5.6,2.1c1.9,0.8,3.7,1.5,5.5,2.4c1.8,0.8,3.6,1.7,5.4,2.6  c1.8,0.9,3.5,1.9,5.3,2.9c1.7,1,3.5,2,5.2,3.1c1.7,1.1,3.4,2.2,5,3.4c1.6,1.2,3.2,2.4,4.8,3.6c1.6,1.2,3.1,2.5,4.7,3.8  c1.5,1.3,3,2.7,4.5,4c1.5,1.4,2.9,2.8,4.3,4.2c1.4,1.4,2.8,2.9,4.1,4.4c1.3,1.5,2.6,3,3.9,4.6c1.3,1.6,2.5,3.2,3.7,4.8  c1.2,1.6,2.3,3.3,3.4,5c1.1,1.7,2.2,3.4,3.2,5.1c1,1.7,2,3.5,3,5.2c0.9,1.8,1.9,3.6,2.7,5.4c0.9,1.8,1.7,3.7,2.5,5.5  c0.8,1.9,1.5,3.7,2.2,5.6c0.7,1.9,1.3,3.8,1.9,5.7c0.6,1.9,1.2,3.8,1.7,5.8c0.5,1.9,1,3.9,1.4,5.9c0.4,2,0.8,3.9,1.1,5.9  c0.3,2,0.6,4,0.9,6c0.2,2,0.4,4,0.6,6c0.1,2,0.2,4,0.3,6c0.1,2,0.1,4,0,6c0,2-0.1,4-0.3,6c-0.1,2-0.3,4-0.5,6c-0.2,2-0.5,4-0.8,6  c-0.3,2-0.7,4-1.1,5.9c-0.4,2-0.9,3.9-1.4,5.9c-0.5,1.9-1,3.9-1.6,5.8s-1.2,3.8-1.9,5.7c-0.7,1.9-1.4,3.8-2.2,5.6  c-0.8,1.9-1.6,3.7-2.4,5.5c-0.9,1.8-1.8,3.6-2.7,5.4c-0.9,1.8-1.9,3.5-2.9,5.3c-1,1.7-2.1,3.4-3.2,5.1c-1.1,1.7-2.2,3.3-3.4,5  c-1.2,1.6-2.4,3.2-3.6,4.8c-1.2,1.6-2.5,3.1-3.9,4.6c-1.3,1.5-2.7,3-4.1,4.4c-1.4,1.5-2.8,2.9-4.3,4.3c-1.5,1.4-2.9,2.7-4.5,4.1  c-1.5,1.3-3.1,2.6-4.6,3.8c-1.6,1.2-3.2,2.4-4.8,3.6c-1.6,1.2-3.3,2.3-5,3.4s-3.4,2.1-5.1,3.2c-1.7,1-3.5,2-5.3,2.9  c-1.8,0.9-3.6,1.8-5.4,2.7c-1.8,0.8-3.7,1.7-5.5,2.4c-1.9,0.8-3.7,1.5-5.6,2.2c-1.9,0.7-3.8,1.3-5.7,1.9c-1.9,0.6-3.9,1.1-5.8,1.6  c-1.9,0.5-3.9,0.9-5.9,1.4s-3.9,0.8-5.9,1.1c-2,0.3-4,0.6-6,0.8c-2,0.2-4,0.4-6,0.5c-2,0.1-4,0.2-6,0.2v12.4c2.3,0,4.5,0,6.8-0.1  c2.3-0.1,4.5-0.2,6.8-0.4c2.2-0.2,4.5-0.4,6.7-0.7c2.2-0.3,4.5-0.6,6.7-1c2.2-0.4,4.4-0.8,6.6-1.3c2.2-0.5,4.4-1,6.6-1.6  s4.3-1.3,6.5-2s4.3-1.5,6.4-2.3c2.1-0.8,4.2-1.7,6.2-2.6c2.1-0.9,4.1-1.9,6.1-2.9c2-1,4-2,6-3.1c2-1.1,3.9-2.2,5.8-3.4  c1.9-1.2,3.8-2.4,5.7-3.7c1.9-1.3,3.7-2.6,5.5-4c1.8-1.4,3.6-2.8,5.3-4.2c1.7-1.4,3.4-2.9,5.1-4.5c1.7-1.5,3.3-3.1,4.9-4.7  c1.6-1.6,3.1-3.2,4.6-4.9c1.5-1.7,3-3.4,4.4-5.1c1.4-1.8,2.8-3.5,4.1-5.3c1.3-1.8,2.6-3.7,3.9-5.5c1.2-1.9,2.4-3.8,3.6-5.7  c1.2-1.9,2.3-3.9,3.3-5.9c1.1-2,2.1-4,3-6c1-2,1.9-4.1,2.8-6.2c0.9-2.1,1.7-4.2,2.5-6.3c0.8-2.1,1.5-4.2,2.2-6.4  c0.7-2.2,1.3-4.3,1.8-6.5c0.6-2.2,1.1-4.4,1.5-6.6c0.5-2.2,0.9-4.4,1.2-6.6c0.4-2.2,0.7-4.5,0.9-6.7c0.2-2.2,0.4-4.5,0.6-6.7  c0.1-2.2,0.2-4.5,0.3-6.8c0-2.2,0-4.5-0.1-6.8c-0.1-2.2-0.2-4.5-0.4-6.7c-0.2-2.2-0.4-4.5-0.7-6.7c-0.3-2.2-0.6-4.5-1-6.7  s-0.8-4.4-1.3-6.6c-0.5-2.2-1-4.4-1.6-6.6c-0.6-2.2-1.3-4.3-2-6.5c-0.7-2.1-1.5-4.3-2.3-6.4c-0.8-2.1-1.7-4.2-2.6-6.2  c-0.9-2.1-1.9-4.1-2.9-6.1c-1-2-2-4-3.1-6c-1.1-2-2.2-3.9-3.4-5.8c-1.2-1.9-2.4-3.8-3.7-5.7c-1.3-1.9-2.6-3.7-4-5.5  c-1.4-1.8-2.8-3.6-4.2-5.3c-1.4-1.7-2.9-3.4-4.5-5.1c-1.5-1.7-3.1-3.3-4.7-4.9c-1.6-1.6-3.2-3.1-4.9-4.6c-1.7-1.5-3.4-3-5.1-4.4  c-1.7-1.4-3.5-2.8-5.3-4.1c-1.8-1.3-3.7-2.6-5.5-3.9c-1.9-1.2-3.8-2.5-5.7-3.6c-1.9-1.2-3.9-2.3-5.9-3.3c-2-1.1-4-2.1-6-3.1  c-2-1-4.1-1.9-6.2-2.8c-2.1-0.9-4.2-1.7-6.3-2.5c-2.1-0.8-4.2-1.5-6.4-2.2c-2.2-0.7-4.3-1.3-6.5-1.9c-2.2-0.6-4.4-1.1-6.6-1.5  c-2.2-0.5-4.4-0.9-6.6-1.2c-2.2-0.4-4.5-0.7-6.7-0.9L727.9,57.3z"></path>
<path class="st0" d="M709.8,292.1v12.4c3.1,0,6.2-0.1,9.3-0.4c3.1-0.3,6.2-0.7,9.2-1.2c3-0.5,6.1-1.2,9.1-2c3-0.8,5.9-1.7,8.8-2.8  c2.9-1.1,5.8-2.2,8.6-3.5c2.8-1.3,5.6-2.7,8.2-4.3c2.7-1.5,5.3-3.2,7.8-5c2.5-1.8,5-3.7,7.4-5.6c2.4-2,4.7-4.1,6.8-6.3  c2.2-2.2,4.3-4.5,6.3-6.8c2-2.4,3.9-4.8,5.6-7.4c1.8-2.5,3.4-5.1,5-7.8c1.5-2.7,3-5.4,4.3-8.2c1.3-2.8,2.5-5.7,3.5-8.6  c1.1-2.9,2-5.9,2.8-8.9c0.8-3,1.4-6,2-9.1l11.7,1l-16.3-19.4l-19.4,16.2l11.6,1c-0.5,2.7-1.1,5.3-1.8,7.9c-0.7,2.6-1.5,5.2-2.5,7.7  c-0.9,2.5-2,5-3.1,7.5c-1.2,2.5-2.4,4.9-3.8,7.2c-1.4,2.3-2.8,4.6-4.4,6.8c-1.6,2.2-3.2,4.4-5,6.4c-1.8,2.1-3.6,4.1-5.5,6  c-1.9,1.9-3.9,3.7-6,5.5c-2.1,1.7-4.2,3.4-6.5,4.9c-2.2,1.5-4.5,3-6.9,4.3c-2.4,1.3-4.8,2.6-7.2,3.7c-2.5,1.1-5,2.2-7.5,3.1  c-2.6,0.9-5.1,1.7-7.8,2.4c-2.6,0.7-5.3,1.3-7.9,1.7c-2.7,0.5-5.4,0.8-8.1,1S712.5,292.1,709.8,292.1z"></path>
<g>
	<g transform="translate(24.474966, 359.219117)">
		<g>
			<path class="st2" d="M19.9,108.6l0.7,4.7l1-4.2l7-24.8h4l6.8,24.8l1,4.3l0.8-4.8l5.5-24.3h4.7l-8.6,35.5h-4.3l-7.3-25.9l-0.6-2.7     l-0.6,2.7l-7.6,25.9h-4.3L9.6,84.3h4.7L19.9,108.6z"></path>
		</g>
	</g>
</g>
<g>
	<g transform="translate(62.98286, 359.219117)">
		<g>
			<path class="st2" d="M45.2,103.3H29.8v12.6h17.9v3.8H25.1V84.3h22.3v3.9H29.8v11.4h15.4V103.3z"></path>
		</g>
	</g>
</g>
<g>
	<g transform="translate(89.561793, 359.219117)">
		<g>
			<path class="st2" d="M34,119.7V84.3h11.6c3.8,0,6.7,0.8,8.7,2.4c1.9,1.6,2.9,4,2.9,7.1c0,1.7-0.5,3.1-1.4,4.4     c-0.9,1.3-2.2,2.3-3.9,3c1.9,0.5,3.4,1.6,4.5,3.1c1.1,1.5,1.7,3.3,1.7,5.4c0,3.2-1,5.7-3.1,7.5c-2.1,1.8-5,2.7-8.8,2.7H34z      M38.6,103.2v12.8h7.7c2.2,0,3.9-0.6,5.1-1.7c1.3-1.1,1.9-2.7,1.9-4.7c0-4.3-2.3-6.4-7-6.4H38.6z M38.6,99.4h7.1     c2.1,0,3.7-0.5,4.9-1.5c1.2-1,1.8-2.4,1.8-4.2c0-1.9-0.6-3.4-1.7-4.2c-1.1-0.9-2.9-1.3-5.2-1.3h-6.9V99.4z"></path>
		</g>
	</g>
</g>
<g>
	<g transform="translate(118.168464, 359.219117)">
		<g>
			<path class="st2" d="M54,103.9c-4-1.2-6.9-2.6-8.8-4.3c-1.8-1.7-2.7-3.8-2.7-6.2c0-2.8,1.1-5.1,3.4-6.9c2.2-1.8,5.1-2.8,8.7-2.8     c2.4,0,4.6,0.5,6.5,1.4c1.9,0.9,3.4,2.2,4.4,3.9c1.1,1.7,1.6,3.5,1.6,5.4h-4.7c0-2.2-0.7-3.8-2.1-5.1c-1.4-1.2-3.3-1.8-5.8-1.8     c-2.3,0-4.1,0.5-5.4,1.5c-1.3,1-1.9,2.4-1.9,4.2c0,1.4,0.6,2.7,1.8,3.7c1.2,1,3.3,1.9,6.3,2.8c2.9,0.8,5.2,1.7,6.9,2.7     c1.7,1,2.9,2.2,3.7,3.5c0.8,1.3,1.2,2.9,1.2,4.7c0,2.9-1.1,5.2-3.4,6.9c-2.2,1.7-5.2,2.6-9,2.6c-2.4,0-4.7-0.5-6.8-1.4     c-2.1-0.9-3.7-2.2-4.9-3.8c-1.1-1.6-1.7-3.5-1.7-5.5H46c0,2.2,0.8,3.9,2.4,5.1c1.6,1.2,3.7,1.9,6.4,1.9c2.5,0,4.4-0.5,5.7-1.5     c1.3-1,2-2.4,2-4.1c0-1.7-0.6-3.1-1.8-4C59.4,105.8,57.2,104.9,54,103.9z"></path>
		</g>
	</g>
</g>
<g>
	<g transform="translate(145.679065, 359.219117)">
		<g>
			<path class="st2" d="M57.7,119.7H53V84.3h4.7V119.7z"></path>
		</g>
	</g>
</g>
<g>
	<g transform="translate(161.169366, 359.219117)">
		<g>
			<path class="st2" d="M82.3,88.1H71v31.6h-4.7V88.1H54.9v-3.9h27.4V88.1z"></path>
		</g>
	</g>
</g>
<g>
	<g transform="translate(188.807842, 359.219117)">
		<g>
			<path class="st2" d="M87.1,103.3H71.7v12.6h17.9v3.8H67.1V84.3h22.3v3.9H71.7v11.4h15.4V103.3z"></path>
		</g>
	</g>
</g>
<g>
	<g transform="translate(215.386779, 359.219117)">
		<g>
			<path class="st2" d="M86.4,103.9c-4-1.2-6.9-2.6-8.8-4.3c-1.8-1.7-2.7-3.8-2.7-6.2c0-2.8,1.1-5.1,3.4-6.9     c2.2-1.8,5.1-2.8,8.7-2.8c2.4,0,4.6,0.5,6.5,1.4c1.9,0.9,3.4,2.2,4.4,3.9c1.1,1.7,1.6,3.5,1.6,5.4h-4.7c0-2.2-0.7-3.8-2.1-5.1     c-1.4-1.2-3.3-1.8-5.8-1.8c-2.3,0-4.1,0.5-5.4,1.5c-1.3,1-1.9,2.4-1.9,4.2c0,1.4,0.6,2.7,1.8,3.7c1.2,1,3.3,1.9,6.3,2.8     c2.9,0.8,5.2,1.7,6.9,2.7c1.7,1,2.9,2.2,3.7,3.5c0.8,1.3,1.2,2.9,1.2,4.7c0,2.9-1.1,5.2-3.4,6.9c-2.2,1.7-5.2,2.6-9,2.6     c-2.4,0-4.7-0.5-6.8-1.4c-2.1-0.9-3.7-2.2-4.9-3.8c-1.1-1.6-1.7-3.5-1.7-5.5h4.7c0,2.2,0.8,3.9,2.4,5.1c1.6,1.2,3.7,1.9,6.4,1.9     c2.5,0,4.4-0.5,5.7-1.5c1.3-1,2-2.4,2-4.1c0-1.7-0.6-3.1-1.8-4C91.8,105.8,89.6,104.9,86.4,103.9z"></path>
		</g>
	</g>
</g>
<g>
	<g transform="translate(242.887893, 359.219117)">
	</g>
</g>
<g>
	<g transform="translate(257.464794, 359.219117)">
	</g>
</g>
<g>
	<g transform="translate(272.018218, 359.219117)">
		<g>
			<path class="st2" d="M98.6,126.3h-3.6V84.3h3.6V126.3z"></path>
		</g>
	</g>
</g>
<g>
	<g transform="translate(286.441469, 359.219117)">
	</g>
</g>
<g>
	<g transform="translate(301.01837, 359.219117)">
	</g>
</g>
<g>
	<g transform="translate(315.571802, 359.219117)">
		<g>
			<path class="st2" d="M135.4,108.5c-0.4,3.8-1.8,6.6-4.1,8.7c-2.3,2-5.4,3-9.3,3c-4.2,0-7.6-1.5-10.1-4.5c-2.5-3-3.8-7-3.8-12.1     v-3.4c0-3.3,0.6-6.2,1.8-8.7c1.2-2.5,2.8-4.4,5-5.8c2.2-1.3,4.7-2,7.5-2c3.8,0,6.8,1.1,9.1,3.2c2.3,2.1,3.6,5,4,8.7h-4.7     c-0.4-2.8-1.3-4.9-2.6-6.1c-1.3-1.3-3.2-1.9-5.7-1.9c-3,0-5.3,1.1-7,3.3c-1.7,2.2-2.5,5.3-2.5,9.4v3.4c0,3.8,0.8,6.9,2.4,9.2     c1.6,2.3,3.9,3.4,6.8,3.4c2.6,0,4.6-0.6,6-1.8c1.4-1.2,2.3-3.2,2.8-6.1H135.4z"></path>
		</g>
	</g>
</g>
<g>
	<g transform="translate(345.238016, 359.219117)">
		<g>
			<path class="st2" d="M132.2,105.4h-8.3v14.4h-4.7V84.3h11.8c4,0,7.1,0.9,9.2,2.7c2.2,1.8,3.2,4.5,3.2,8c0,2.2-0.6,4.1-1.8,5.8     c-1.2,1.6-2.9,2.9-5,3.7l8.3,15.1v0.3h-5L132.2,105.4z M123.9,101.6h7.2c2.3,0,4.2-0.6,5.5-1.8c1.4-1.2,2.1-2.8,2.1-4.8     c0-2.2-0.7-3.9-2-5c-1.3-1.2-3.2-1.8-5.7-1.8h-7.2V101.6z"></path>
		</g>
	</g>
</g>
<g>
	<g transform="translate(373.588939, 359.219117)">
		<g>
			<path class="st2" d="M134.7,84.3l11.6,29l11.6-29h6.1v35.5h-4.7v-13.8l0.4-14.9l-11.6,28.7h-3.6l-11.6-28.6l0.5,14.8v13.8h-4.7     V84.3H134.7z"></path>
		</g>
	</g>
</g>
<g>
	<g transform="translate(411.554801, 359.219117)">
	</g>
</g>
<g>
	<g transform="translate(426.131702, 359.219117)">
	</g>
</g>
<g>
	<g transform="translate(440.685117, 359.219117)">
		<g>
			<path class="st2" d="M154.8,126.3h-3.6V84.3h3.6V126.3z"></path>
		</g>
	</g>
</g>
<g>
	<g transform="translate(455.108377, 359.219117)">
	</g>
</g>
<g>
	<g transform="translate(469.685278, 359.219117)">
	</g>
</g>
<g>
	<g transform="translate(484.238693, 359.219117)">
		<g>
			<path class="st2" d="M171.6,84.3l11.6,29l11.6-29h6.1v35.5h-4.7v-13.8l0.4-14.9L185,119.7h-3.6l-11.6-28.6l0.5,14.8v13.8h-4.7     V84.3H171.6z"></path>
		</g>
	</g>
</g>
<g>
	<g transform="translate(522.216817, 359.219117)">
		<g>
			<path class="st2" d="M197.8,110.5h-14.9l-3.4,9.2h-4.8l13.5-35.5h4.1l13.6,35.5h-4.8L197.8,110.5z M184.3,106.6h12.1l-6-16.6     L184.3,106.6z"></path>
		</g>
	</g>
</g>
<g>
	<g transform="translate(551.937835, 359.219117)">
		<g>
			<path class="st2" d="M201.1,105.4h-8.3v14.4h-4.7V84.3h11.8c4,0,7.1,0.9,9.2,2.7c2.2,1.8,3.2,4.5,3.2,8c0,2.2-0.6,4.1-1.8,5.8     c-1.2,1.6-2.9,2.9-5,3.7l8.3,15.1v0.3h-5L201.1,105.4z M192.8,101.6h7.2c2.3,0,4.2-0.6,5.5-1.8c1.4-1.2,2.1-2.8,2.1-4.8     c0-2.2-0.7-3.9-2-5c-1.3-1.2-3.2-1.8-5.7-1.8h-7.2V101.6z"></path>
		</g>
	</g>
</g>
<g>
	<g transform="translate(580.288755, 359.219117)">
		<g>
			<path class="st2" d="M206.6,103.2l-4.3,4.5v12h-4.7V84.3h4.7v17.5L218,84.3h5.6l-14,15.7l15.1,19.8h-5.6L206.6,103.2z"></path>
		</g>
	</g>
</g>
<g>
	<g transform="translate(609.059842, 359.219117)">
		<g>
			<path class="st2" d="M227.2,103.3h-15.4v12.6h17.9v3.8h-22.5V84.3h22.3v3.9h-17.6v11.4h15.4V103.3z"></path>
		</g>
	</g>
</g>
<g>
	<g transform="translate(635.638779, 359.219117)">
		<g>
			<path class="st2" d="M240.5,88.1h-11.4v31.6h-4.7V88.1h-11.4v-3.9h27.4V88.1z"></path>
		</g>
	</g>
</g>
<g>
	<g transform="translate(663.277256, 359.219117)">
		<g>
			<path class="st2" d="M230.2,119.7h-4.7V84.3h4.7V119.7z"></path>
		</g>
	</g>
</g>
<g>
	<g transform="translate(678.767556, 359.219117)">
		<g>
			<path class="st2" d="M257.6,119.7h-4.7l-17.9-27.3v27.3h-4.7V84.3h4.7l17.9,27.5V84.3h4.6V119.7z"></path>
		</g>
	</g>
</g>
<g>
	<g transform="translate(710.753788, 359.219117)">
		<g>
			<path class="st2" d="M267.2,115.1c-1.2,1.7-2.9,3-5,3.9c-2.2,0.8-4.7,1.3-7.5,1.3c-2.9,0-5.5-0.7-7.7-2c-2.2-1.4-4-3.3-5.2-5.8     c-1.2-2.5-1.8-5.4-1.9-8.7v-3.1c0-5.3,1.2-9.5,3.7-12.4c2.5-2.9,6-4.4,10.5-4.4c3.7,0,6.7,0.9,8.9,2.8c2.3,1.9,3.6,4.6,4.1,8.1     h-4.7c-0.9-4.7-3.7-7-8.4-7c-3.1,0-5.5,1.1-7.1,3.3c-1.6,2.2-2.4,5.4-2.5,9.5v2.9c0,4,0.9,7.2,2.7,9.5c1.8,2.3,4.3,3.5,7.4,3.5     c1.8,0,3.3-0.2,4.6-0.6c1.3-0.4,2.4-1,3.3-2v-8h-8.2v-3.8h12.9V115.1z"></path>
		</g>
	</g>
</g>
<g>
	<g transform="translate(741.552616, 359.219117)">
	</g>
</g>
<g>
	<g transform="translate(756.12952, 359.219117)">
		<g>
			<path class="st2" d="M275.8,110.5h-14.9l-3.4,9.2h-4.8l13.5-35.5h4.1l13.6,35.5h-4.8L275.8,110.5z M262.3,106.6h12.1l-6-16.6     L262.3,106.6z"></path>
		</g>
	</g>
</g>
<g>
	<g transform="translate(785.850542, 359.219117)">
		<g>
			<path class="st2" d="M291,84.3v24.1c0,3.3-1.1,6.1-3.1,8.2c-2.1,2.1-4.9,3.3-8.5,3.6l-1.2,0c-3.9,0-7-1-9.3-3.1     c-2.3-2.1-3.5-5-3.5-8.7V84.3h4.6v24c0,2.6,0.7,4.6,2.1,6c1.4,1.4,3.4,2.1,6.1,2.1c2.6,0,4.7-0.7,6.1-2.1c1.4-1.4,2.1-3.4,2.1-6     V84.3H291z"></path>
		</g>
	</g>
</g>
<g>
	<g transform="translate(815.42542, 359.219117)">
		<g>
			<path class="st2" d="M300.4,88.1H289v31.6h-4.7V88.1H273v-3.9h27.4V88.1z"></path>
		</g>
	</g>
</g>
<g>
	<g transform="translate(843.063896, 359.219117)">
		<g>
			<path class="st2" d="M312.4,103.2c0,3.5-0.6,6.5-1.8,9.1c-1.2,2.6-2.8,4.6-5,5.9c-2.1,1.4-4.6,2-7.5,2c-2.8,0-5.3-0.7-7.4-2     c-2.2-1.4-3.8-3.3-5-5.9c-1.2-2.5-1.8-5.5-1.8-8.8v-2.6c0-3.4,0.6-6.4,1.8-9c1.2-2.6,2.9-4.6,5-6c2.2-1.4,4.6-2.1,7.4-2.1     c2.8,0,5.4,0.7,7.5,2.1c2.2,1.4,3.8,3.4,5,6c1.2,2.6,1.8,5.6,1.8,9.1V103.2z M307.8,100.9c0-4.2-0.8-7.4-2.5-9.7     c-1.7-2.2-4-3.4-7.1-3.4c-3,0-5.3,1.1-7,3.4c-1.7,2.2-2.6,5.4-2.6,9.4v2.6c0,4.1,0.9,7.3,2.6,9.6c1.7,2.3,4.1,3.5,7.1,3.5     c3,0,5.4-1.1,7-3.3c1.7-2.2,2.5-5.4,2.6-9.5V100.9z"></path>
		</g>
	</g>
</g>
<g>
	<g transform="translate(874.100209, 359.219117)">
		<g>
			<path class="st2" d="M301.5,84.3l11.6,29l11.6-29h6.1v35.5h-4.7v-13.8l0.4-14.9l-11.6,28.7h-3.6l-11.6-28.6l0.5,14.8v13.8h-4.7     V84.3H301.5z"></path>
		</g>
	</g>
</g>
<g>
	<g transform="translate(912.078336, 359.219117)">
		<g>
			<path class="st2" d="M327.7,110.5h-14.9l-3.4,9.2h-4.8l13.5-35.5h4.1l13.6,35.5h-4.8L327.7,110.5z M314.3,106.6h12.1l-6-16.6     L314.3,106.6z"></path>
		</g>
	</g>
</g>
<g>
	<g transform="translate(941.799333, 359.219117)">
		<g>
			<path class="st2" d="M342.6,88.1h-11.4v31.6h-4.7V88.1h-11.4v-3.9h27.4V88.1z"></path>
		</g>
	</g>
</g>
<g>
	<g transform="translate(969.437784, 359.219117)">
		<g>
			<path class="st2" d="M332.3,119.7h-4.7V84.3h4.7V119.7z"></path>
		</g>
	</g>
</g>
<g>
	<g transform="translate(984.928085, 359.219117)">
		<g>
			<path class="st2" d="M359.7,103.2c0,3.5-0.6,6.5-1.8,9.1c-1.2,2.6-2.8,4.6-5,5.9c-2.1,1.4-4.6,2-7.5,2c-2.8,0-5.3-0.7-7.4-2     c-2.2-1.4-3.8-3.3-5-5.9c-1.2-2.5-1.8-5.5-1.8-8.8v-2.6c0-3.4,0.6-6.4,1.8-9c1.2-2.6,2.9-4.6,5-6c2.2-1.4,4.6-2.1,7.4-2.1     c2.8,0,5.4,0.7,7.5,2.1c2.2,1.4,3.8,3.4,5,6c1.2,2.6,1.8,5.6,1.8,9.1V103.2z M355.1,100.9c0-4.2-0.8-7.4-2.5-9.7     c-1.7-2.2-4-3.4-7.1-3.4c-3,0-5.3,1.1-7,3.4c-1.7,2.2-2.6,5.4-2.6,9.4v2.6c0,4.1,0.9,7.3,2.6,9.6c1.7,2.3,4.1,3.5,7.1,3.5     c3,0,5.4-1.1,7-3.3c1.7-2.2,2.5-5.4,2.6-9.5V100.9z"></path>
		</g>
	</g>
</g>
<g>
	<g transform="translate(1015.964372, 359.219117)">
		<g>
			<path class="st2" d="M370,119.7h-4.7l-17.9-27.3v27.3h-4.7V84.3h4.7l17.9,27.5V84.3h4.6V119.7z"></path>
		</g>
	</g>
</g>
<g>
	<g transform="translate(1047.932408, 359.219117)">
	</g>
</g>
<g>
	<g transform="translate(1062.509309, 359.219117)">
	</g>
</g>
<g>
	<g transform="translate(1077.062724, 359.219117)">
		<g>
			<path class="st2" d="M366.9,126.3h-3.6V84.3h3.6V126.3z"></path>
		</g>
	</g>
</g>
<g>
	<g transform="translate(1091.485984, 359.219117)">
	</g>
</g>
<g>
	<g transform="translate(1106.062885, 359.219117)">
	</g>
</g>
<g>
	<g transform="translate(1120.6163, 359.219117)">
		<g>
			<path class="st2" d="M382.3,105.8v13.9h-4.7V84.3h13.1c3.9,0,6.9,1,9.1,3c2.2,2,3.3,4.6,3.3,7.9c0,3.4-1.1,6.1-3.2,8     c-2.2,1.8-5.2,2.8-9.2,2.8H382.3z M382.3,102h8.4c2.5,0,4.4-0.6,5.8-1.8c1.3-1.2,2-2.9,2-5.1c0-2.1-0.7-3.8-2-5.1     c-1.3-1.3-3.2-1.9-5.5-2h-8.7V102z"></path>
		</g>
	</g>
</g>
<g>
	<g transform="translate(1149.53353, 359.219117)">
		<g>
			<path class="st2" d="M406.9,110.5H392l-3.4,9.2h-4.8l13.5-35.5h4.1l13.6,35.5h-4.8L406.9,110.5z M393.4,106.6h12.1l-6-16.6     L393.4,106.6z"></path>
		</g>
	</g>
</g>
<g>
	<g transform="translate(1179.254548, 359.219117)">
		<g>
			<path class="st2" d="M421.7,88.1h-11.4v31.6h-4.7V88.1h-11.4v-3.9h27.4V88.1z"></path>
		</g>
	</g>
</g>
<g>
	<g transform="translate(1206.893018, 359.219117)">
		<g>
			<path class="st2" d="M411.4,119.7h-4.7V84.3h4.7V119.7z"></path>
		</g>
	</g>
</g>
<g>
	<g transform="translate(1222.383319, 359.219117)">
		<g>
			<path class="st2" d="M431.6,103.3h-15.4v12.6h17.9v3.8h-22.5V84.3h22.3v3.9h-17.6v11.4h15.4V103.3z"></path>
		</g>
	</g>
</g>
<g>
	<g transform="translate(1248.962255, 359.219117)">
		<g>
			<path class="st2" d="M447.7,119.7H443l-17.9-27.3v27.3h-4.7V84.3h4.7l17.9,27.5V84.3h4.6V119.7z"></path>
		</g>
	</g>
</g>
<g>
	<g transform="translate(1280.9485, 359.219117)">
		<g>
			<path class="st2" d="M455.6,88.1h-11.4v31.6h-4.7V88.1h-11.4v-3.9h27.4V88.1z"></path>
		</g>
	</g>
</g>
<g>
	<g transform="translate(1308.586977, 359.219117)">
	</g>
</g>
<g>
	<g transform="translate(1323.163881, 359.219117)">
		<g>
			<path class="st2" d="M464.8,110.5h-14.9l-3.4,9.2h-4.8l13.5-35.5h4.1l13.6,35.5h-4.8L464.8,110.5z M451.3,106.6h12.1l-6-16.6     L451.3,106.6z"></path>
		</g>
	</g>
</g>
<g>
	<g transform="translate(1352.884889, 359.219117)">
		<g>
			<path class="st2" d="M481.2,108.5c-0.4,3.8-1.8,6.6-4.1,8.7c-2.3,2-5.4,3-9.3,3c-4.2,0-7.6-1.5-10.1-4.5c-2.5-3-3.8-7-3.8-12.1     v-3.4c0-3.3,0.6-6.2,1.8-8.7c1.2-2.5,2.8-4.4,5-5.8c2.2-1.3,4.7-2,7.5-2c3.8,0,6.8,1.1,9.1,3.2c2.3,2.1,3.6,5,4,8.7h-4.7     c-0.4-2.8-1.3-4.9-2.6-6.1c-1.3-1.3-3.2-1.9-5.7-1.9c-3,0-5.3,1.1-7,3.3c-1.7,2.2-2.5,5.3-2.5,9.4v3.4c0,3.8,0.8,6.9,2.4,9.2     c1.6,2.3,3.9,3.4,6.8,3.4c2.6,0,4.6-0.6,6-1.8c1.4-1.2,2.3-3.2,2.8-6.1H481.2z"></path>
		</g>
	</g>
</g>
<g>
	<g transform="translate(1382.551107, 359.219117)">
		<g>
			<path class="st2" d="M492.1,103.2c0,3.4-0.6,6.4-1.6,8.9c-1.1,2.5-2.6,4.4-4.6,5.8l6.3,5l-3.2,3l-7.5-6c-1.2,0.3-2.4,0.4-3.7,0.4     c-2.8,0-5.3-0.7-7.4-2c-2.2-1.4-3.8-3.3-5-5.9c-1.2-2.5-1.8-5.5-1.9-8.8v-2.6c0-3.4,0.6-6.4,1.8-9c1.2-2.6,2.9-4.6,5-6     c2.2-1.4,4.7-2.1,7.5-2.1c2.8,0,5.4,0.7,7.5,2.1c2.2,1.4,3.9,3.4,5,6c1.2,2.6,1.8,5.6,1.8,9.1V103.2z M487.4,100.9     c0-4.2-0.8-7.4-2.5-9.7c-1.7-2.3-4-3.4-7.1-3.4c-2.9,0-5.3,1.1-7,3.4c-1.7,2.2-2.6,5.4-2.6,9.4v2.6c0,4.1,0.8,7.3,2.5,9.6     c1.7,2.3,4,3.5,7.1,3.5c3,0,5.4-1.1,7-3.3c1.7-2.2,2.5-5.4,2.6-9.5V100.9z"></path>
		</g>
	</g>
</g>
<g>
	<g transform="translate(1413.58742, 359.219117)">
		<g>
			<path class="st2" d="M500.3,84.3v24.1c0,3.3-1.1,6.1-3.1,8.2s-4.9,3.3-8.5,3.6l-1.2,0c-3.9,0-7-1-9.3-3.1c-2.3-2.1-3.5-5-3.5-8.7     V84.3h4.6v24c0,2.6,0.7,4.6,2.1,6c1.4,1.4,3.4,2.1,6.1,2.1c2.6,0,4.7-0.7,6.1-2.1c1.4-1.4,2.1-3.4,2.1-6V84.3H500.3z"></path>
		</g>
	</g>
</g>
<g>
	<g transform="translate(1443.162298, 359.219117)">
		<g>
			<path class="st2" d="M490.2,119.7h-4.7V84.3h4.7V119.7z"></path>
		</g>
	</g>
</g>
<g>
	<g transform="translate(1458.652598, 359.219117)">
		<g>
			<path class="st2" d="M500.8,103.9c-4-1.2-6.9-2.6-8.8-4.3c-1.8-1.7-2.7-3.8-2.7-6.2c0-2.8,1.1-5.1,3.4-6.9     c2.2-1.8,5.1-2.8,8.7-2.8c2.4,0,4.6,0.5,6.5,1.4c1.9,0.9,3.4,2.2,4.4,3.9c1.1,1.7,1.6,3.5,1.6,5.4h-4.7c0-2.2-0.7-3.8-2.1-5.1     c-1.4-1.2-3.3-1.8-5.8-1.8c-2.3,0-4.1,0.5-5.4,1.5c-1.3,1-1.9,2.4-1.9,4.2c0,1.4,0.6,2.7,1.8,3.7c1.2,1,3.3,1.9,6.3,2.8     c2.9,0.8,5.2,1.7,6.9,2.7s2.9,2.2,3.7,3.5c0.8,1.3,1.2,2.9,1.2,4.7c0,2.9-1.1,5.2-3.4,6.9c-2.2,1.7-5.2,2.6-9,2.6     c-2.4,0-4.7-0.5-6.8-1.4c-2.1-0.9-3.7-2.2-4.9-3.8c-1.1-1.6-1.7-3.5-1.7-5.5h4.7c0,2.2,0.8,3.9,2.4,5.1c1.6,1.2,3.7,1.9,6.4,1.9     c2.5,0,4.4-0.5,5.7-1.5c1.3-1,2-2.4,2-4.1c0-1.7-0.6-3.1-1.8-4C506.2,105.8,504,104.9,500.8,103.9z"></path>
		</g>
	</g>
</g>
<g>
	<g transform="translate(1486.163199, 359.219117)">
		<g>
			<path class="st2" d="M504.5,119.7h-4.7V84.3h4.7V119.7z"></path>
		</g>
	</g>
</g>
<g>
	<g transform="translate(1501.6535, 359.219117)">
		<g>
			<path class="st2" d="M529.2,88.1h-11.4v31.6h-4.7V88.1h-11.4v-3.9h27.4V88.1z"></path>
		</g>
	</g>
</g>
<g>
	<g transform="translate(1529.291977, 359.219117)">
		<g>
			<path class="st2" d="M518.9,119.7h-4.7V84.3h4.7V119.7z"></path>
		</g>
	</g>
</g>
<g>
	<g transform="translate(1544.782252, 359.219117)">
		<g>
			<path class="st2" d="M546.3,103.2c0,3.5-0.6,6.5-1.8,9.1c-1.2,2.6-2.8,4.6-5,5.9c-2.1,1.4-4.6,2-7.5,2c-2.8,0-5.3-0.7-7.4-2     c-2.2-1.4-3.8-3.3-5-5.9c-1.2-2.5-1.8-5.5-1.8-8.8v-2.6c0-3.4,0.6-6.4,1.8-9c1.2-2.6,2.9-4.6,5-6c2.2-1.4,4.6-2.1,7.4-2.1     c2.8,0,5.4,0.7,7.5,2.1s3.8,3.4,5,6c1.2,2.6,1.8,5.6,1.8,9.1V103.2z M541.7,100.9c0-4.2-0.8-7.4-2.5-9.7c-1.7-2.2-4-3.4-7.1-3.4     c-3,0-5.3,1.1-7,3.4c-1.7,2.2-2.6,5.4-2.6,9.4v2.6c0,4.1,0.9,7.3,2.6,9.6c1.7,2.3,4.1,3.5,7.1,3.5c3,0,5.4-1.1,7-3.3     c1.7-2.2,2.5-5.4,2.6-9.5V100.9z"></path>
		</g>
	</g>
</g>
<g>
	<g transform="translate(1575.818539, 359.219117)">
		<g>
			<path class="st2" d="M556.6,119.7H552l-17.9-27.3v27.3h-4.7V84.3h4.7l17.9,27.5V84.3h4.6V119.7z"></path>
		</g>
	</g>
</g>
</svg>
