<svg xmlns="http://www.w3.org/2000/svg" xmlns:xlink="http://www.w3.org/1999/xlink" width="231.064" height="102.645" viewBox="0 0 231.064 102.645"><defs><linearGradient id="linear-gradient" x1="-0.019" y1="0.813" x2="1.004" y2="0.194" gradientUnits="objectBoundingBox"><stop offset="0" stop-color="#a58433"></stop><stop offset="0.192" stop-color="#eed674"></stop><stop offset="0.409" stop-color="#bc9f48"></stop><stop offset="0.596" stop-color="#c1a54d"></stop><stop offset="0.653" stop-color="#e8cf6e"></stop><stop offset="0.748" stop-color="#d7bd60"></stop><stop offset="0.82" stop-color="#b0913d"></stop><stop offset="1" stop-color="#a98937"></stop></linearGradient></defs><g id="Group_87" data-name="Group 87" transform="translate(-330 -2793.334)"><g id="Group_85" data-name="Group 85" transform="translate(330 2878.183)"><path id="Path_45" data-name="Path 45" d="M7.337,277.337a.43.43,0,0,0-.167-.225.531.531,0,0,0-.307-.082.609.609,0,0,0-.274.058.445.445,0,0,0-.177.25L.028,293.045a.451.451,0,0,0-.024.237.5.5,0,0,0,.143.286.484.484,0,0,0,.356.119.452.452,0,0,0,.262-.082.447.447,0,0,0,.167-.225l1.924-4.84H10.8l-.012-.049,1.982,4.889a.417.417,0,0,0,.177.225.546.546,0,0,0,.3.082.535.535,0,0,0,.356-.119.409.409,0,0,0,.143-.332.617.617,0,0,0-.024-.189L7.334,277.341Zm-4.1,10.249,3.562-8.953,3.629,8.953H3.233Z" transform="translate(0.004 -276.129)" fill="#397491"></path><path id="Path_46" data-name="Path 46" d="M62.179,297.515a.434.434,0,0,0,.332-.155.5.5,0,0,0,.143-.344,6.192,6.192,0,0,0-.511-2.408,5.073,5.073,0,0,0-1.212-1.683,4.805,4.805,0,0,0-1.7-1,6.059,6.059,0,0,0-1.945-.32,4.883,4.883,0,0,0-2.6.749A5.646,5.646,0,0,0,52.7,294.5a6.94,6.94,0,0,0-.77,3.394,6.554,6.554,0,0,0,.782,3.263,5.469,5.469,0,0,0,2.146,2.146,6.367,6.367,0,0,0,3.145.758,4.748,4.748,0,0,0,2.551-.712,7.081,7.081,0,0,0,1.887-1.662.438.438,0,0,0,.094-.286.419.419,0,0,0-.119-.3.368.368,0,0,0-.286-.131.544.544,0,0,0-.4.213,4.47,4.47,0,0,1-.925.974,4.852,4.852,0,0,1-1.282.725,4.191,4.191,0,0,1-1.519.274,5.159,5.159,0,0,1-2.834-.737,4.664,4.664,0,0,1-1.732-1.945,6.069,6.069,0,0,1-.581-2.657c0-.107.009-.2.012-.307h9.312ZM54.35,293.85a4.523,4.523,0,0,1,1.446-.974,3.947,3.947,0,0,1,1.495-.32,4.653,4.653,0,0,1,1.969.438,4.415,4.415,0,0,1,1.626,1.294,3.91,3.91,0,0,1,.795,2.113v.213H52.953a5.157,5.157,0,0,1,.317-1.114A4.934,4.934,0,0,1,54.35,293.85Z" transform="translate(-36.121 -286.271)" fill="#397491"></path><path id="Path_47" data-name="Path 47" d="M102.621,298.465a4.671,4.671,0,0,0-1.187-.627,12.687,12.687,0,0,0-1.458-.438,15.272,15.272,0,0,1-1.744-.569A3.476,3.476,0,0,1,97,296.048a1.853,1.853,0,0,1-.511-1.208,1.96,1.96,0,0,1,.426-1.294,2.646,2.646,0,0,1,1.1-.77,4.027,4.027,0,0,1,1.458-.262,4.573,4.573,0,0,1,1.744.332,3.891,3.891,0,0,1,1.437,1.02.362.362,0,0,0,.286.143.531.531,0,0,0,.307-.094.554.554,0,0,0,.177-.368.388.388,0,0,0-.177-.344,4.358,4.358,0,0,0-1.187-.962,5.025,5.025,0,0,0-1.282-.487,5.624,5.624,0,0,0-1.212-.143,4.992,4.992,0,0,0-2.088.414,3.313,3.313,0,0,0-1.4,1.151,2.9,2.9,0,0,0-.5,1.662,2.625,2.625,0,0,0,.332,1.352,3.177,3.177,0,0,0,.9.983,5.337,5.337,0,0,0,1.318.688c.5.183,1.023.344,1.577.487a11.426,11.426,0,0,1,1.495.475,3.161,3.161,0,0,1,1.163.77,1.825,1.825,0,0,1,.451,1.294,1.868,1.868,0,0,1-.463,1.282,2.827,2.827,0,0,1-1.187.782,4.421,4.421,0,0,1-1.507.262,4.519,4.519,0,0,1-2.265-.545,4.761,4.761,0,0,1-1.577-1.425.473.473,0,0,0-.344-.177.392.392,0,0,0-.32.107.381.381,0,0,0-.177.3.848.848,0,0,0,.155.463,5.566,5.566,0,0,0,2.064,1.638,5.857,5.857,0,0,0,2.371.5,5.454,5.454,0,0,0,2.146-.393,3.431,3.431,0,0,0,1.47-1.114,2.813,2.813,0,0,0,.533-1.72,3.106,3.106,0,0,0-.3-1.425,2.734,2.734,0,0,0-.807-.95Z" transform="translate(-66.064 -286.271)" fill="#397491"></path><path id="Path_48" data-name="Path 48" d="M134.814,284.569h-2.609v-3.014a.467.467,0,0,0-.131-.332.448.448,0,0,0-.344-.143.454.454,0,0,0-.332.143.459.459,0,0,0-.143.332v3.014h-1.945a.442.442,0,0,0-.307.131.423.423,0,0,0-.143.32.495.495,0,0,0,.451.45h1.945v8.493a3.411,3.411,0,0,0,.286,1.577,1.619,1.619,0,0,0,.7.737,1.927,1.927,0,0,0,.782.213c.247.009.414.012.511.012a1.353,1.353,0,0,0,.676-.155.439.439,0,0,0,.274-.368.425.425,0,0,0-.119-.3.378.378,0,0,0-.286-.131.732.732,0,0,0-.286.049.79.79,0,0,1-.286.049,1.855,1.855,0,0,1-.594-.107.946.946,0,0,1-.511-.475,2.5,2.5,0,0,1-.2-1.151V285.47h2.609a.425.425,0,0,0,.32-.131.441.441,0,0,0,0-.627.423.423,0,0,0-.32-.143Z" transform="translate(-89.633 -278.946)" fill="#397491"></path><path id="Path_49" data-name="Path 49" d="M166.091,280.262a4.21,4.21,0,0,0-2.359-.618,4.561,4.561,0,0,0-1.708.344,5.433,5.433,0,0,0-1.552.95,5.045,5.045,0,0,0-.962,1.114v-7.507a.467.467,0,0,0-.131-.332.448.448,0,0,0-.344-.143.454.454,0,0,0-.332.143.459.459,0,0,0-.143.332v16.608a.467.467,0,0,0,.131.332.448.448,0,0,0,.344.143.489.489,0,0,0,.475-.475v-6.928a2.992,2.992,0,0,1,.63-1.851,4.611,4.611,0,0,1,1.6-1.327,4.329,4.329,0,0,1,1.994-.5,3.241,3.241,0,0,1,1.9.5,2.908,2.908,0,0,1,1.044,1.327,4.934,4.934,0,0,1,.332,1.851v6.928a.467.467,0,0,0,.131.332.448.448,0,0,0,.344.143.489.489,0,0,0,.475-.475v-6.928a5.641,5.641,0,0,0-.463-2.3,3.788,3.788,0,0,0-1.4-1.662Z" transform="translate(-110.292 -274.07)" fill="#397491"></path><path id="Path_50" data-name="Path 50" d="M210.189,297.515a.434.434,0,0,0,.332-.155.5.5,0,0,0,.143-.344,6.192,6.192,0,0,0-.511-2.408,5.073,5.073,0,0,0-1.212-1.683,4.8,4.8,0,0,0-1.7-1,6.059,6.059,0,0,0-1.945-.32,4.883,4.883,0,0,0-2.6.749,5.646,5.646,0,0,0-1.994,2.146,6.94,6.94,0,0,0-.77,3.394,6.554,6.554,0,0,0,.782,3.263,5.469,5.469,0,0,0,2.146,2.146,6.367,6.367,0,0,0,3.144.758,4.748,4.748,0,0,0,2.551-.712,7.08,7.08,0,0,0,1.887-1.662.438.438,0,0,0,.094-.286.419.419,0,0,0-.119-.3.368.368,0,0,0-.286-.131.544.544,0,0,0-.4.213,4.47,4.47,0,0,1-.925.974,4.852,4.852,0,0,1-1.282.725,4.191,4.191,0,0,1-1.519.274,5.159,5.159,0,0,1-2.834-.737,4.664,4.664,0,0,1-1.732-1.945,6.069,6.069,0,0,1-.581-2.657c0-.107.009-.2.012-.307h9.312Zm-7.829-3.665a4.523,4.523,0,0,1,1.446-.974,3.947,3.947,0,0,1,1.495-.32,4.653,4.653,0,0,1,1.969.438,4.416,4.416,0,0,1,1.626,1.294,3.911,3.911,0,0,1,.794,2.113v.213h-8.727a5.157,5.157,0,0,1,.317-1.114A4.934,4.934,0,0,1,202.36,293.85Z" transform="translate(-139.076 -286.271)" fill="#397491"></path><path id="Path_51" data-name="Path 51" d="M246.574,284.569h-2.609v-3.014a.467.467,0,0,0-.131-.332.448.448,0,0,0-.344-.143.454.454,0,0,0-.332.143.459.459,0,0,0-.143.332v3.014H241.07a.443.443,0,0,0-.307.131.423.423,0,0,0-.143.32.495.495,0,0,0,.451.45h1.945v8.493a3.411,3.411,0,0,0,.286,1.577,1.618,1.618,0,0,0,.7.737,1.927,1.927,0,0,0,.782.213c.247.009.414.012.511.012a1.353,1.353,0,0,0,.676-.155.439.439,0,0,0,.274-.368.425.425,0,0,0-.119-.3.378.378,0,0,0-.286-.131.732.732,0,0,0-.286.049.789.789,0,0,1-.286.049,1.855,1.855,0,0,1-.594-.107.946.946,0,0,1-.511-.475,2.5,2.5,0,0,1-.2-1.151V285.47h2.609a.425.425,0,0,0,.32-.131.441.441,0,0,0,0-.627.423.423,0,0,0-.32-.143Z" transform="translate(-167.373 -278.946)" fill="#397491"></path><path id="Path_52" data-name="Path 52" d="M270,280.69a.887.887,0,0,0-.618.213.7.7,0,0,0-.237.545v.189a.716.716,0,0,0,.225.545.841.841,0,0,0,.606.213.806.806,0,0,0,.581-.213.721.721,0,0,0,.225-.545v-.189a.721.721,0,0,0-.225-.545A.772.772,0,0,0,270,280.69Z" transform="translate(-187.211 -278.675)" fill="#397491"></path><path id="Path_53" data-name="Path 53" d="M270.785,291.6a.454.454,0,0,0-.332.143.459.459,0,0,0-.143.332v11.269a.467.467,0,0,0,.131.332.447.447,0,0,0,.344.143.489.489,0,0,0,.475-.475V292.075a.467.467,0,0,0-.131-.332A.448.448,0,0,0,270.785,291.6Z" transform="translate(-188.025 -286.264)" fill="#397491"></path><path id="Path_54" data-name="Path 54" d="M287.369,293.213a4.646,4.646,0,0,1,2.514-.712,7.847,7.847,0,0,1,1.482.119,3.709,3.709,0,0,1,.938.286,1.448,1.448,0,0,1,.521.368,3.266,3.266,0,0,0,.32.344.59.59,0,0,0,.414.143.4.4,0,0,0,.32-.155.5.5,0,0,0,.131-.32c0-.286-.195-.557-.581-.819a4.835,4.835,0,0,0-1.519-.63,8.145,8.145,0,0,0-2.006-.237,5.685,5.685,0,0,0-3.145.865,6.031,6.031,0,0,0-2.088,2.277,6.456,6.456,0,0,0-.749,3.071,6.7,6.7,0,0,0,.749,3.19,5.623,5.623,0,0,0,5.135,3.05,6.249,6.249,0,0,0,2.219-.356,4.736,4.736,0,0,0,1.458-.819q.521-.461.521-.749a.444.444,0,0,0-.107-.307.376.376,0,0,0-.3-.119.549.549,0,0,0-.451.262,2.214,2.214,0,0,1-.688.545,5.707,5.707,0,0,1-.962.438,5.039,5.039,0,0,1-1.626.2,4.867,4.867,0,0,1-2.621-.7,4.809,4.809,0,0,1-1.756-1.909,5.819,5.819,0,0,1-.63-2.727,5.357,5.357,0,0,1,.676-2.694,5.251,5.251,0,0,1,1.814-1.909Z" transform="translate(-197.492 -286.264)" fill="#397491"></path><path id="Path_55" data-name="Path 55" d="M331.6,298.465a4.67,4.67,0,0,0-1.187-.627,12.683,12.683,0,0,0-1.458-.438,15.273,15.273,0,0,1-1.744-.569,3.476,3.476,0,0,1-1.233-.782,1.853,1.853,0,0,1-.511-1.208,1.96,1.96,0,0,1,.426-1.294,2.646,2.646,0,0,1,1.1-.77,4.027,4.027,0,0,1,1.458-.262,4.574,4.574,0,0,1,1.744.332,3.892,3.892,0,0,1,1.437,1.02.362.362,0,0,0,.286.143.531.531,0,0,0,.307-.094.554.554,0,0,0,.177-.368.388.388,0,0,0-.177-.344,4.359,4.359,0,0,0-1.187-.962,5.026,5.026,0,0,0-1.282-.487,5.625,5.625,0,0,0-1.212-.143,4.992,4.992,0,0,0-2.088.414,3.312,3.312,0,0,0-1.4,1.151,2.9,2.9,0,0,0-.5,1.662,2.625,2.625,0,0,0,.332,1.352,3.177,3.177,0,0,0,.9.983,5.337,5.337,0,0,0,1.318.688c.5.183,1.023.344,1.577.487a11.428,11.428,0,0,1,1.495.475,3.161,3.161,0,0,1,1.163.77,1.825,1.825,0,0,1,.451,1.294,1.868,1.868,0,0,1-.463,1.282,2.828,2.828,0,0,1-1.187.782,4.42,4.42,0,0,1-1.507.262,4.519,4.519,0,0,1-2.265-.545,4.76,4.76,0,0,1-1.577-1.425.473.473,0,0,0-.344-.177.392.392,0,0,0-.32.107.381.381,0,0,0-.177.3.848.848,0,0,0,.155.463,5.565,5.565,0,0,0,2.064,1.638,5.857,5.857,0,0,0,2.371.5,5.454,5.454,0,0,0,2.146-.393,3.431,3.431,0,0,0,1.47-1.114,2.813,2.813,0,0,0,.533-1.72,3.106,3.106,0,0,0-.3-1.425,2.734,2.734,0,0,0-.807-.95Z" transform="translate(-225.341 -286.271)" fill="#397491"></path><path id="Path_56" data-name="Path 56" d="M394.173,292.261c-.521-.362-1.108-.782-1.756-1.257-.234-.17-.475-.353-.718-.542a7.946,7.946,0,0,0,.764-1.275,8.651,8.651,0,0,0,.758-2.432.429.429,0,0,0-.094-.393.461.461,0,0,0-.356-.155.488.488,0,0,0-.32.107.522.522,0,0,0-.177.3,9.837,9.837,0,0,1-.688,2.146,7.145,7.145,0,0,1-.63,1.114c-.192-.155-.384-.311-.578-.475q-1.068-.89-2.158-1.933t-2.113-2.207a17.566,17.566,0,0,1-1.4-1.781,9.829,9.829,0,0,1-.974-1.756,4.1,4.1,0,0,1-.356-1.565,2.687,2.687,0,0,1,.819-2.052,3.385,3.385,0,0,1,2.408-.77,4.008,4.008,0,0,1,2.243.533,4.253,4.253,0,0,1,1.245,1.245.575.575,0,0,0,.177.155.451.451,0,0,0,.225.058.428.428,0,0,0,.344-.155.448.448,0,0,0,.131-.274.516.516,0,0,0-.094-.283,4.151,4.151,0,0,0-1.495-1.552,5.051,5.051,0,0,0-2.776-.676,4.969,4.969,0,0,0-2.253.475,3.451,3.451,0,0,0-1.458,1.318,3.645,3.645,0,0,0-.511,1.933,4.681,4.681,0,0,0,.393,1.814,9.541,9.541,0,0,0,.633,1.239,5.521,5.521,0,0,0-1.915,1.123,5.135,5.135,0,0,0-1.257,1.744,4.885,4.885,0,0,0-.414,1.957,5.266,5.266,0,0,0,.712,2.633,5.691,5.691,0,0,0,1.994,2.052,5.511,5.511,0,0,0,2.965.795,8.092,8.092,0,0,0,3.145-.569,6.868,6.868,0,0,0,2.314-1.543c.061-.061.116-.128.173-.192q1.228.927,2.508,1.878a1.436,1.436,0,0,1,.143.058.311.311,0,0,0,.143.037.413.413,0,0,0,.344-.167.548.548,0,0,0,.131-.332.449.449,0,0,0-.049-.213.42.42,0,0,0-.167-.167Zm-5.811-.237a7.411,7.411,0,0,1-2.871.5,4.659,4.659,0,0,1-2.527-.664,4.353,4.353,0,0,1-1.6-1.732,4.871,4.871,0,0,1-.545-2.253,4.148,4.148,0,0,1,.831-2.478,4.092,4.092,0,0,1,2.262-1.455,21.3,21.3,0,0,0,1.415,1.8,40.978,40.978,0,0,0,2.931,3.038c.721.667,1.434,1.272,2.134,1.83-.021.021-.036.046-.058.07a5.509,5.509,0,0,1-1.97,1.352Z" transform="translate(-264.199 -275.677)" fill="#397491"></path><path id="Path_57" data-name="Path 57" d="M474.688,277.137a.582.582,0,0,0-.356-.107.524.524,0,0,0-.307.082.447.447,0,0,0-.167.225l-5,14.551-4.3-10.825a.416.416,0,0,0-.177-.225.505.505,0,0,0-.274-.082.5.5,0,0,0-.286.082.447.447,0,0,0-.167.225l-4.274,10.8-5.029-14.523a.417.417,0,0,0-.177-.225.505.505,0,0,0-.274-.082.625.625,0,0,0-.344.119.4.4,0,0,0-.177.356.692.692,0,0,0,.049.213l5.434,15.659a.431.431,0,0,0,.167.225.415.415,0,0,0,.237.082.7.7,0,0,0,.3-.058.4.4,0,0,0,.2-.225l4.341-10.959,4.341,10.959a.332.332,0,0,0,.177.225.71.71,0,0,0,.3.058.475.475,0,0,0,.25-.082.4.4,0,0,0,.177-.225l5.434-15.659a.823.823,0,0,0,.049-.237.4.4,0,0,0-.143-.344Z" transform="translate(-315.367 -276.129)" fill="#397491"></path><path id="Path_58" data-name="Path 58" d="M539.706,297.515a.434.434,0,0,0,.332-.155.5.5,0,0,0,.143-.344,6.247,6.247,0,0,0-.511-2.408,5.108,5.108,0,0,0-1.208-1.683,4.807,4.807,0,0,0-1.7-1,6.059,6.059,0,0,0-1.945-.32,4.883,4.883,0,0,0-2.6.749,5.647,5.647,0,0,0-1.994,2.146,6.94,6.94,0,0,0-.77,3.394,6.554,6.554,0,0,0,.782,3.263,5.469,5.469,0,0,0,2.146,2.146,6.368,6.368,0,0,0,3.144.758,4.748,4.748,0,0,0,2.551-.712,7.082,7.082,0,0,0,1.887-1.662.439.439,0,0,0,.094-.286.42.42,0,0,0-.119-.3.368.368,0,0,0-.286-.131.544.544,0,0,0-.4.213,4.469,4.469,0,0,1-.925.974,4.85,4.85,0,0,1-1.282.725,4.19,4.19,0,0,1-1.519.274,5.159,5.159,0,0,1-2.834-.737,4.664,4.664,0,0,1-1.732-1.945,6.069,6.069,0,0,1-.581-2.657c0-.107.009-.2.012-.307h9.312Zm-7.829-3.665a4.523,4.523,0,0,1,1.446-.974,3.947,3.947,0,0,1,1.495-.32,4.653,4.653,0,0,1,1.97.438,4.416,4.416,0,0,1,1.626,1.294,3.911,3.911,0,0,1,.794,2.113v.213H530.48a5.161,5.161,0,0,1,.317-1.114A4.933,4.933,0,0,1,531.877,293.85Z" transform="translate(-368.288 -286.271)" fill="#397491"></path><path id="Path_59" data-name="Path 59" d="M576.065,274.07a.454.454,0,0,0-.332.143.459.459,0,0,0-.143.332v16.608a.467.467,0,0,0,.131.332.448.448,0,0,0,.344.143.489.489,0,0,0,.475-.475V274.545a.467.467,0,0,0-.131-.332A.448.448,0,0,0,576.065,274.07Z" transform="translate(-400.376 -274.07)" fill="#397491"></path><path id="Path_60" data-name="Path 60" d="M592.9,274.07a.455.455,0,0,0-.332.143.459.459,0,0,0-.143.332v16.608a.467.467,0,0,0,.131.332.448.448,0,0,0,.344.143.489.489,0,0,0,.475-.475V274.545a.467.467,0,0,0-.131-.332A.448.448,0,0,0,592.9,274.07Z" transform="translate(-412.09 -274.07)" fill="#397491"></path><path id="Path_61" data-name="Path 61" d="M616.68,292.194a4.476,4.476,0,0,0-2.432-.594,4.905,4.905,0,0,0-1.769.344,5.808,5.808,0,0,0-1.625.95,5.033,5.033,0,0,0-1.044,1.166v-1.6a.467.467,0,0,0-.131-.332.447.447,0,0,0-.344-.143.489.489,0,0,0-.475.475v10.889a.467.467,0,0,0,.131.332.448.448,0,0,0,.344.143.489.489,0,0,0,.475-.475v-7.166a2.923,2.923,0,0,1,.651-1.851,4.757,4.757,0,0,1,1.65-1.327,4.52,4.52,0,0,1,2.039-.5,3.475,3.475,0,0,1,1.957.5,2.887,2.887,0,0,1,1.09,1.327,4.818,4.818,0,0,1,.344,1.851v7.166a.466.466,0,0,0,.131.332.447.447,0,0,0,.344.143.489.489,0,0,0,.475-.475v-7.26a5.709,5.709,0,0,0-.438-2.277,3.518,3.518,0,0,0-1.376-1.613Z" transform="translate(-423.518 -286.264)" fill="#397491"></path><path id="Path_62" data-name="Path 62" d="M661.3,297.515a.434.434,0,0,0,.332-.155.5.5,0,0,0,.143-.344,6.247,6.247,0,0,0-.511-2.408,5.108,5.108,0,0,0-1.209-1.683,4.8,4.8,0,0,0-1.7-1,6.059,6.059,0,0,0-1.945-.32,4.883,4.883,0,0,0-2.6.749,5.646,5.646,0,0,0-1.994,2.146,6.94,6.94,0,0,0-.77,3.394,6.554,6.554,0,0,0,.782,3.263,5.47,5.47,0,0,0,2.146,2.146,6.367,6.367,0,0,0,3.144.758,4.748,4.748,0,0,0,2.551-.712,7.081,7.081,0,0,0,1.887-1.662.438.438,0,0,0,.094-.286.419.419,0,0,0-.119-.3.368.368,0,0,0-.286-.131.543.543,0,0,0-.4.213,4.472,4.472,0,0,1-.925.974,4.851,4.851,0,0,1-1.281.725,4.192,4.192,0,0,1-1.519.274,5.159,5.159,0,0,1-2.834-.737,4.665,4.665,0,0,1-1.732-1.945,6.068,6.068,0,0,1-.581-2.657c0-.107.009-.2.012-.307H661.3Zm-7.83-3.665a4.524,4.524,0,0,1,1.446-.974,3.947,3.947,0,0,1,1.495-.32,4.652,4.652,0,0,1,1.969.438A4.416,4.416,0,0,1,660,294.289a3.91,3.91,0,0,1,.794,2.113v.213H652.07a5.161,5.161,0,0,1,.317-1.114A4.937,4.937,0,0,1,653.467,293.85Z" transform="translate(-452.865 -286.271)" fill="#397491"></path><path id="Path_63" data-name="Path 63" d="M701.735,298.465a4.668,4.668,0,0,0-1.187-.627,12.678,12.678,0,0,0-1.458-.438,15.27,15.27,0,0,1-1.744-.569,3.476,3.476,0,0,1-1.233-.782,1.836,1.836,0,0,1-.508-1.208,1.96,1.96,0,0,1,.426-1.294,2.646,2.646,0,0,1,1.1-.77,4.027,4.027,0,0,1,1.458-.262,4.574,4.574,0,0,1,1.744.332,3.89,3.89,0,0,1,1.437,1.02.362.362,0,0,0,.286.143.531.531,0,0,0,.307-.094.554.554,0,0,0,.177-.368.388.388,0,0,0-.177-.344,4.36,4.36,0,0,0-1.187-.962,5.024,5.024,0,0,0-1.282-.487,5.62,5.62,0,0,0-1.208-.143,4.992,4.992,0,0,0-2.088.414,3.314,3.314,0,0,0-1.4,1.151,2.9,2.9,0,0,0-.5,1.662,2.624,2.624,0,0,0,.332,1.352,3.175,3.175,0,0,0,.9.983,5.338,5.338,0,0,0,1.318.688c.5.183,1.023.344,1.577.487a11.433,11.433,0,0,1,1.495.475,3.161,3.161,0,0,1,1.163.77,1.825,1.825,0,0,1,.451,1.294,1.867,1.867,0,0,1-.463,1.282,2.827,2.827,0,0,1-1.187.782,4.42,4.42,0,0,1-1.507.262,4.519,4.519,0,0,1-2.265-.545,4.76,4.76,0,0,1-1.577-1.425.473.473,0,0,0-.344-.177.392.392,0,0,0-.32.107.381.381,0,0,0-.177.3.848.848,0,0,0,.155.463,5.565,5.565,0,0,0,2.064,1.638,5.857,5.857,0,0,0,2.371.5,5.453,5.453,0,0,0,2.146-.393,3.431,3.431,0,0,0,1.47-1.114,2.813,2.813,0,0,0,.533-1.72,3.105,3.105,0,0,0-.3-1.425,2.734,2.734,0,0,0-.807-.95Z" transform="translate(-482.808 -286.271)" fill="#397491"></path><path id="Path_64" data-name="Path 64" d="M738.792,299.415a2.733,2.733,0,0,0-.807-.95,4.671,4.671,0,0,0-1.187-.627,12.688,12.688,0,0,0-1.458-.438,15.277,15.277,0,0,1-1.744-.569,3.475,3.475,0,0,1-1.233-.782,1.835,1.835,0,0,1-.508-1.208,1.959,1.959,0,0,1,.426-1.294,2.645,2.645,0,0,1,1.1-.77,4.027,4.027,0,0,1,1.458-.262,4.573,4.573,0,0,1,1.744.332,3.889,3.889,0,0,1,1.437,1.02.362.362,0,0,0,.286.143.531.531,0,0,0,.307-.094.554.554,0,0,0,.177-.368.388.388,0,0,0-.177-.344,4.359,4.359,0,0,0-1.187-.962,5.029,5.029,0,0,0-1.282-.487,5.618,5.618,0,0,0-1.208-.143,4.993,4.993,0,0,0-2.088.414,3.313,3.313,0,0,0-1.4,1.151,2.9,2.9,0,0,0-.5,1.662,2.624,2.624,0,0,0,.332,1.352,3.175,3.175,0,0,0,.9.983,5.34,5.34,0,0,0,1.318.688c.5.183,1.023.344,1.577.487a11.418,11.418,0,0,1,1.495.475,3.16,3.16,0,0,1,1.163.77,1.825,1.825,0,0,1,.451,1.294,1.867,1.867,0,0,1-.463,1.282,2.827,2.827,0,0,1-1.187.782,4.42,4.42,0,0,1-1.507.262,4.519,4.519,0,0,1-2.265-.545,4.761,4.761,0,0,1-1.577-1.425.473.473,0,0,0-.344-.177.393.393,0,0,0-.32.107.382.382,0,0,0-.177.3.848.848,0,0,0,.155.463,5.566,5.566,0,0,0,2.064,1.638,5.857,5.857,0,0,0,2.371.5,5.454,5.454,0,0,0,2.146-.393,3.431,3.431,0,0,0,1.47-1.114,2.812,2.812,0,0,0,.533-1.72A3.105,3.105,0,0,0,738.792,299.415Z" transform="translate(-508.024 -286.271)" fill="#397491"></path></g><path id="Union_3" data-name="Union 3" d="M2.287,74.033A2.4,2.4,0,0,1,.661,73.4,1.969,1.969,0,0,1,0,71.932V2.523A2.121,2.121,0,0,1,.6,1.1,2.12,2.12,0,0,1,2.284.422a3.627,3.627,0,0,1,1.2.211,2.691,2.691,0,0,1,1.083.736l36.182,47.1-.95,1.257c-1.049,1.254-3.119,1.229-4.587-.624L4.808,8.954V71.932a1.9,1.9,0,0,1-.72,1.471,2.649,2.649,0,0,1-1.715.631Zm97.779-.63a2.175,2.175,0,0,1-.608-1.576V2.629a2.08,2.08,0,0,1,.664-1.577,2.5,2.5,0,0,1,3.315,0,2.08,2.08,0,0,1,.664,1.577v69.2a2.484,2.484,0,0,1-.773,1.576,2.184,2.184,0,0,1-1.548.63A2.261,2.261,0,0,1,100.066,73.4Zm-28.789,0a1.9,1.9,0,0,1-.72-1.471V9.007L46.694,40.6l-2.837-3.69,27.3-35.539A2.359,2.359,0,0,1,73.444.422h0A2.585,2.585,0,0,1,75,1.1a1.891,1.891,0,0,1,.6,1.418V71.932a1.85,1.85,0,0,1-.782,1.471,2.729,2.729,0,0,1-1.744.63A2.635,2.635,0,0,1,71.278,73.4Zm156.341.258a1.825,1.825,0,0,1-.77-1l-8.588-21.673.053.221L216.681,47,200.958,7.321,185.527,47h21.281l1.744,4.205H183.889l-8.343,21.452a1.942,1.942,0,0,1-.72,1,1.906,1.906,0,0,1-1.13.369,2.062,2.062,0,0,1-1.542-.525,2.177,2.177,0,0,1-.618-1.263,1.973,1.973,0,0,1,.1-1.052L199.3,1.577a2.006,2.006,0,0,1,.77-1.1A2.383,2.383,0,0,1,201.25.208a2.256,2.256,0,0,1,1.338.369,1.943,1.943,0,0,1,.72,1l27.653,69.617a2.806,2.806,0,0,1,.1.841,1.82,1.82,0,0,1-.618,1.471,2.479,2.479,0,0,1-2.827.155Zm-85-.264a2.125,2.125,0,0,1-.568-1.471V35.465l-23.708-32.1a2.578,2.578,0,0,1-.31-.63,2.38,2.38,0,0,1-.1-.736,1.75,1.75,0,0,1,.723-1.418A2.319,2.319,0,0,1,120.106,0a1.988,1.988,0,0,1,1.76.947L146.4,35.009V71.926a2.031,2.031,0,0,1-.621,1.471,2.091,2.091,0,0,1-1.552.63A2.045,2.045,0,0,1,142.623,73.4Zm7.47-49.521,16.5-22.93A1.985,1.985,0,0,1,168.352,0,1.772,1.772,0,0,1,169.9.736,2.341,2.341,0,0,1,170.422,2a2.371,2.371,0,0,1-.1.735,2.69,2.69,0,0,1-.31.63L152.632,27.346ZM101.776.422h0Z" transform="translate(330 2793.334)" fill="url(#linear-gradient)"></path></g></svg>