<svg xmlns="http://www.w3.org/2000/svg" width="1090.082" height="1859.897" viewBox="0 0 1090.082 1859.897"><g id="Group_37" data-name="Group 37" transform="translate(-1326.04 4)"><path id="Path_54" data-name="Path 54" d="M1421.3,1855.9a3.582,3.582,0,0,1-.728-.072,3.69,3.69,0,0,1-2.9-4.345c13.082-65.414,40.118-117.1,80.355-153.632,55.26-50.172,128.552-65.381,187.443-77.6,55.418-11.5,99.192-20.584,107.584-52.627,4.259-16.261-1.268-35.925-11.3-71.622-6.349-22.594-13.017-36.436-18.9-48.649-5.987-12.427-11.157-23.16-13.269-38.612a94.994,94.994,0,0,1-.517-21.472q-8.149,3.006-16.35,6c-73.482,26.9-164.935,60.377-214.092,17.766-10.866-9.422-13.55-17.08-20.038-35.589-3.066-8.748-6.879-19.635-12.829-34.575-21.616-54.293-40.849-84.369-57.819-110.9-19-29.708-35.4-55.363-50.51-105.646-11.079-36.872-17.781-75.668-18.873-109.248-.606-18.615.633-27.029,2.069-36.768,1.5-10.217,3.209-21.8,3.323-48.729.025-5.5-.021-10.479-.062-15-.06-6.707-.114-12.533.1-17.677-1.77-2.858-3.8-6.084-6.154-9.738l-2.16-3.347c-9.265-14.331-18.018-27.868-23.457-48.857l-.3-1.183c-3.459-13.818-10.514-47.316-1.387-60.075a17.924,17.924,0,0,1,4.682-4.447c.286-11.933,1.748-22.229,3.268-32.929l.363-2.563c5.291-37.472,6.349-54.294,7.2-67.81a310.844,310.844,0,0,1,4.8-41.194l2.385-13.564c3.765-21.484,6.851-39.1,10.364-53.786-10.725-11.118-17.034-26.271-18.674-30.534-13.12-34.13,1.053-89.656,36.987-144.908,38.807-59.67,95.94-108.94,156.749-135.179,89.445-38.593,192.869-30.9,275.976-24.718,81.44,6.054,145.765,10.842,167.321-26.732,1.056-1.844,2.2-4.105,3.516-6.725,6.29-12.5,15.8-31.382,37.2-47.035,29.162-21.333,61.578-22.469,78.99-23.079,2.282-.081,4.275-.149,5.937-.258,60.069-3.965,236.167-48.468,302.1-121.025a3.7,3.7,0,0,1,5.218-.249,3.693,3.693,0,0,1,.25,5.217c-67.267,74.02-245.04,119.334-307.083,123.427-1.724.114-3.795.187-6.163.27-16.622.582-47.558,1.666-74.887,21.658-19.964,14.6-28.99,32.531-34.967,44.4-1.365,2.716-2.546,5.061-3.7,7.078-23.864,41.61-90.239,36.676-174.276,30.424-82.3-6.122-184.726-13.739-272.5,24.135-59.509,25.677-115.454,73.943-153.487,132.421-34.666,53.3-48.567,106.271-36.282,138.233a90.912,90.912,0,0,0,13.983,24.571c4.814-17.469,10.71-30.4,20.057-40.8,18.99-21.141,46.995-35.662,61.238-35.96,4.131-.088,7.406.973,9.537,3.155,7.9,8.093-1.282,29.593-5.6,38.46-14.051,28.878-40.389,58.737-64.91,56.067a33.218,33.218,0,0,1-16.242-6.731c-3.1,13.67-5.949,29.935-9.376,49.487l-2.387,13.575a301.524,301.524,0,0,0-4.707,40.37c-.856,13.643-1.926,30.623-7.255,68.378l-.365,2.57c-1.325,9.337-2.607,18.361-3.064,28.434a50.939,50.939,0,0,1,10.751-1.966c25.854-2.163,66.127,9.717,93.058,36.57,11.146,11.112,23.321,28.209,30.679,53.6,5.312-4.775,10.343-13.376,16.422-23.775,12.167-20.808,27.312-46.705,57.022-63.357,9.476-5.312,14.779-6.491,22.806-8.279,8.573-1.911,20.31-4.525,44.535-13.927a334.392,334.392,0,0,0,42.333-19.4c7.342-3.949,13.141-7.07,22.291-9.78,35.337-10.461,81.853-3.76,115.752,16.69,19.616,11.833,32.171,27.105,35.349,43.006,3.068,15.339-1.861,33.82-13.185,49.437-9.521,13.126-21.709,21.456-33.443,22.852-10.732,1.272-17.506-3.632-26.057-9.848a132.982,132.982,0,0,0-20.128-12.644c-34.723-17.3-86.72-22.072-114.7,3.168-18.949,17.1-23.39,43.709-23.688,59.056a99.343,99.343,0,0,1,20.65-32.264,126.935,126.935,0,0,1,13.067-12.015c2.162-4.063,6.822-6.693,12.911-8.283,8.8-4.377,18.993-6.8,29.667-3.859a39.847,39.847,0,0,1,6.981,2.676,247.675,247.675,0,0,1,29.919,4.734,185.987,185.987,0,0,1,57.085,23.729,3.7,3.7,0,0,1,1.212,5.031,97.081,97.081,0,0,1-22.657,26.137c-24.055,19.214-48.161,18.893-73.665,18.559-20.529-.277-41.766-.552-64.619,9.594-33.959,15.071-57.537,46.256-65.84,70.471-4,11.66-4.4,21.433-1.14,27.514,2.2,4.108,6.308,6.094,11.506,8.607,7.012,3.39,15.742,7.611,22.743,18.848,1.443,2.321,13.857,23.112,5.969,39.054-5.949,12.02-21.816,17.735-38.17,19.712-7.529,9.79-15.339,21.457-13.389,33.99.918,5.916,7.641,13.144,17.145,20.635,24.766,2.446,64.4,17.453,120.013,45.37a3.694,3.694,0,0,1-.613,6.846q-8.231,2.42-16.458,4.146c7.092,3.474,10.468,6.321,10.721,11.408.919,18.414-46.812,35.233-61.464,39.949-49.8,16.025-110.466,22.3-126-1.774-5.615-8.7-5.427-20.9.547-36.29-5.839-3.364-14.821-10.2-18.146-21.628-3.858-13.257,1.308-26.735,7.428-34.927,5.144-6.885,11.359-10.846,17.058-10.872h.055a10.744,10.744,0,0,1,4.892,1.138,42.715,42.715,0,0,0,7.339-18.9c1.025-7.454,1.991-14.5-1.825-20.072-3.2-4.682-8.156-6.06-15.012-7.967-6.937-1.931-15.571-4.334-24.523-11.293l-.034-.029h0a74.607,74.607,0,0,1-14.175-15.916c-12.021-17.885-2.306-43.323,10-75.535,10.677-27.952,22.777-59.634,24.588-95.206l.028-.557c1.059-20.621-.586-38.135-3.909-52.967a18.544,18.544,0,0,1-6.214.385c-6.192-.623-8.976-3.805-12.2-7.491a53.49,53.49,0,0,0-16.85-13.473c-19.94-10.791-48.152-15.957-61.161-4.271-3.713,3.333-5.194,7.132-6.386,10.185-1.326,3.392-2.826,7.239-7.27,7.507-.13.007-.262.011-.393.011-13.413,0-24-41.453-26.228-70.5-.187-2.425-.322-4.769-.409-7.047-4.179,10.132-.75,33.571,3.783,51.683l.259,1.021c5.171,19.944,13.606,32.994,22.537,46.809l2.173,3.365c.415.644.819,1.278,1.217,1.9a30.3,30.3,0,0,1,8.544-16.317c6.506-6.455,15.61-10.539,25-12.064,11.91-11.116,37.311-3.045,50.814,8.022,21.01,17.217,19.215,44.554,18.941,47.614a3.7,3.7,0,0,1-2.046,2.985c-26.664,13.13-63.184,25.241-85.74,8.37-2.849-2.133-3.5-3.371-5.42-7.047-.912-1.741-2.152-4.112-4.126-7.586q.017,2.607.046,5.468c.04,4.554.086,9.563.063,15.1-.116,27.458-1.862,39.313-3.4,49.773-1.382,9.391-2.578,17.5-1.994,35.452,1.073,32.959,7.667,71.088,18.565,107.363,14.811,49.3,30.961,74.548,49.662,103.792,17.145,26.812,36.581,57.2,58.456,112.151,6.008,15.085,9.849,26.05,12.937,34.863,6.375,18.189,8.522,24.316,17.906,32.449,45.864,39.754,135.05,7.113,206.714-19.118q10.039-3.675,19.992-7.344c3.658-20.666,13.512-38.612,23.142-56.147,2.906-5.294,5.913-10.77,8.707-16.244,30.155-59.064,28.289-103.471,26.643-142.653-1.56-37.141-3.034-72.221,22.535-112.391,36.792-57.8,105.232-90.6,153.249-96.626,24.254-3.032,43.366.7,53.825,10.533,18.9,17.773,10.032,53.817-6.067,119.254-12.6,51.208-24.505,99.579-57.069,150.12-53.742,83.422-132.96,117.862-218.355,149.585a88.067,88.067,0,0,0,.125,23.323c1.952,14.3,6.655,24.054,12.6,36.407,5.719,11.867,12.834,26.639,19.359,49.854,10.38,36.944,16.1,57.294,11.333,75.492-9.552,36.474-55.306,45.969-113.23,57.99-58.013,12.038-130.212,27.021-183.978,75.837-39.043,35.445-65.312,85.782-78.078,149.61A3.694,3.694,0,0,1,1421.3,1855.9Zm579.044-894.635a120.763,120.763,0,0,0-14.973.99c-46.359,5.812-112.426,37.478-147.936,93.264-24.326,38.212-22.966,70.6-21.388,108.113,1.683,40.09,3.6,85.53-27.444,146.324-2.846,5.572-5.877,11.1-8.811,16.438-8.957,16.313-17.6,32.047-21.522,49.585,82.652-30.879,159.046-65.03,210.661-145.147,31.893-49.5,43.652-97.292,56.1-147.885,15.436-62.733,23.939-97.291,8.181-112.106C2026.511,964.534,2015.1,961.261,2000.344,961.261Zm-515.3,208.41h-.021c-3.261.015-7.541,3.044-11.175,7.9-4.824,6.457-9.354,17.783-6.252,28.445,3.167,10.884,13.17,16.672,17.326,18.656a3.7,3.7,0,0,1,1.806,4.783c-6.186,14.49-7,25.436-2.417,32.536,12.687,19.669,70.024,14.038,117.531-1.253,37.059-11.927,56.69-25.673,56.349-32.55-.123-2.453-5.784-4.925-16.063-9.412l-.193-.083a189.021,189.021,0,0,1-26.754,1.933h-.3a170.173,170.173,0,0,1-29.536-2.638c-10.028-1.606-17.273-2.762-29.917.2a86.79,86.79,0,0,0-12.409,4.221c-8.147,3.238-16.527,6.591-28.871,5.932-5.678-.3-13.793-1.518-20.224-5.6a39.2,39.2,0,0,1-17.634-29.715c-.639-10.3,4.019-16.693,9.066-23.35C1485.253,1169.674,1485.149,1169.672,1485.041,1169.672Zm6.579,3.972-.016.024c-4.709,6.2-8.426,11.1-7.943,18.906a32.013,32.013,0,0,0,14.219,23.934c5.079,3.225,11.862,4.2,16.657,4.458,10.675.562,18-2.339,25.75-5.42a93.584,93.584,0,0,1,13.449-4.545c14.053-3.3,22.315-1.982,32.774-.3a164.2,164.2,0,0,0,28.383,2.544c4.527.029,9.08-.163,13.656-.508-9.5-4.362-21.478-10.193-36.349-18.372-19.935-10.963-33.656-19.892-43.128-27.142-6.486-.456-11,.178-14.138,1.372-.577.218-1.787.853-3.066,1.524-7.172,3.763-22.089,11.6-35.7,5.983A24.741,24.741,0,0,1,1491.62,1173.643ZM1565.8,1170c9.552,6.316,20.137,12.485,29.962,17.891,21.332,11.732,36.659,18.581,47.19,23.188q8.443-1.3,16.941-3.379C1615.079,1185.655,1585.408,1174.678,1565.8,1170Zm-69.816-2.328a17.379,17.379,0,0,0,3.007,1.6c10.421,4.295,22.8-2.2,29.447-5.695a39.85,39.85,0,0,1,3.879-1.89,31.028,31.028,0,0,1,7.971-1.763c-11.444-10.477-12.353-16.325-12.826-19.365-2.02-12.978,4.11-24.686,10.943-34.368a118.292,118.292,0,0,1-20.914-1.041c-14.088-2.071-16.3-5.724-16.731-8.292-.306-1.791-1.111-6.551,15.851-13.627.346-.147,34.695-14.316,42.65-3.235,3.419,4.767.471,10.259-4.466,16.877,12.793-2.638,21.578-7.7,24.9-14.426,4.979-10.062-1.5-25.249-5.617-31.876-5.869-9.419-12.9-12.817-19.687-16.1-5.9-2.849-11.463-5.541-14.8-11.764-4.247-7.911-4.011-19.773.661-33.4,8.824-25.735,33.84-58.853,69.833-74.828,24.333-10.8,46.387-10.5,67.714-10.228,24.155.318,46.969.62,68.954-16.943a88.971,88.971,0,0,0,18.993-21.056,178.084,178.084,0,0,0-51.67-20.868c-5.235-1.2-10.653-2.218-16.058-3.041,5.776,6,9.65,13.661,9.47,21.944-.2,9.147-5.618,18.249-14.859,24.977-11.291,8.216-26.084,11.287-37.675,7.819-8.645-2.583-24.83-11.713-24.22-27.78a23.882,23.882,0,0,1,5.363-13.988c-.241-.688-.451-1.378-.625-2.072-2.994,2.71-5.382,5.172-6.987,6.827-13.663,14.091-18.956,29.057-21.8,37.1-1.694,4.79-3.036,8.577-6.985,7.483-2.649-.733-3.338-3.634-3.629-4.872-2.718-11.489-1.789-52.781,25.2-77.126,34.346-30.987,92.338-19.544,122.94-4.294a141.318,141.318,0,0,1,21.178,13.282c8.084,5.879,12.952,9.42,20.841,8.487,9.549-1.135,20.139-8.558,28.333-19.854,9.984-13.768,14.553-30.493,11.922-43.651-2.767-13.84-14.1-27.38-31.922-38.128-31.723-19.136-76.89-25.686-109.84-15.932-8.419,2.493-13.648,5.308-20.887,9.2a341.4,341.4,0,0,1-43.16,19.786c-24.746,9.6-36.8,12.289-45.6,14.25-7.652,1.7-12.271,2.733-20.8,7.514-27.959,15.67-42.541,40.605-54.256,60.643-7.1,12.137-13.212,22.591-20.753,27.862,3.7,15.783,5.563,34.467,4.432,56.509l-.028.553c-1.869,36.738-14.731,70.411-25.064,97.467-11.538,30.21-20.652,54.072-10.766,68.776a67.7,67.7,0,0,0,12.629,14.248c7.8,6.055,15.316,8.147,21.95,9.995,7.409,2.061,14.407,4.008,19.132,10.915,5.422,7.928,4.16,17.128,3.046,25.247A49.9,49.9,0,0,1,1495.979,1167.67Zm13.05-72.109c4.72,2.065,19.084,4.371,35.217,2.855l.981-1.25c2.927-3.728,9.018-11.482,8.027-12.861-.359-.5-2.3-1.375-7.1-1.147C1532.957,1083.829,1514.041,1091.518,1509.03,1095.561ZM1371.458,894.934c6.065,9.884,8.786,15.091,10.446,18.261,1.76,3.365,1.82,3.45,3.3,4.555,19.949,14.926,55.452,1.789,76.119-8.14.2-6.651-.662-26.316-16.384-39.2a56.145,56.145,0,0,0-17.588-9.5,28.184,28.184,0,0,1,4.553,3.239,26.015,26.015,0,0,1,8.764,15.445c1.343,9.183-3.047,20.272-11.181,28.252-7.433,7.292-16.6,10.657-25.142,9.248-8.3-1.377-16.739-7.448-21.508-15.464-3.854-6.483-4.833-13.357-2.753-19.357,2.1-6.046,6.986-10.441,12.581-13.058a28.69,28.69,0,0,1,.828-3.6,35.971,35.971,0,0,0-14.481,8.374C1373.816,879.137,1372.022,885.225,1371.458,894.934Zm20.906-17.046a14.411,14.411,0,0,0-5.3,6.8c-1.351,3.908-.6,8.583,2.126,13.162,3.646,6.131,10.222,10.935,16.364,11.952,6.2,1.026,13.028-1.61,18.762-7.233,6.406-6.286,10.041-15.09,9.044-21.91a18.629,18.629,0,0,0-6.323-10.957c-5.824-5.1-15.231-6.989-24.609-5.965a13.434,13.434,0,0,0-1.511,2.96,27.112,27.112,0,0,1,4.514-.323c2.373.039,14.355.624,17.145,8.357,1.93,5.361-1.5,11.694-5.363,15.835-3.715,3.988-9.477,7.746-14.526,6.317-5.381-1.522-7.986-8.145-9.061-11.957A37.77,37.77,0,0,1,1392.364,877.888Zm247.594-15.054a15.8,15.8,0,0,0-1.844,6.748c-.409,10.7,11.111,18.076,18.954,20.418,9.457,2.832,21.717.2,31.21-6.714,7.361-5.358,11.67-12.344,11.82-19.165.209-9.487-7.569-18.653-16.569-23.512-12.312-1.057-23.571-.906-31.2.7a66.655,66.655,0,0,0-9.96,6.227,7.066,7.066,0,0,0-.087,1.953,30.54,30.54,0,0,1,16.583-5.747c1.424-.027,14.357-.073,17.99,8.5,1.606,3.783,1,8.623-1.659,13.283-3.191,5.59-8.556,9.639-13.666,10.318-7.7,1.025-15.4-5-20.074-10.958C1640.944,864.233,1640.442,863.549,1639.958,862.834Zm-240.329,11.655a30.721,30.721,0,0,0,1.105,8.436c1.325,4.706,3.242,6.649,3.961,6.852.878.251,3.854-.747,7.113-4.245,3.188-3.421,4.345-6.826,3.816-8.293-.717-1.99-5.913-3.4-10.316-3.476A20.712,20.712,0,0,0,1399.629,874.489Zm245.245-17.7a30.045,30.045,0,0,0,2.39,3.533c4.235,5.394,9.578,8.667,13.293,8.2,2.815-.373,6.2-3.112,8.221-6.658,1.462-2.562,1.95-5.141,1.274-6.736-1.342-3.168-8-4.061-11.028-4A23.369,23.369,0,0,0,1644.874,856.79Zm-247.731-30.68c15.448,0,32.323,5.735,43.515,11.79a60.725,60.725,0,0,1,18.894,15.106c2.891,3.306,4.088,4.674,7.38,5a11,11,0,0,0,3.67-.244c-6.884-24.9-18.583-41.479-29.279-52.142-25.346-25.268-63.073-36.444-87.23-34.44a39.215,39.215,0,0,0-11.538,2.521c0,4.121.161,8.447.517,13.059,2.632,34.325,13.43,61.316,18.487,63.555a26.813,26.813,0,0,0,1.155-2.7c1.321-3.38,3.314-8.488,8.334-13C1377.9,828.473,1387.228,826.11,1397.143,826.11Zm-25.351-271.1c4.612,4.021,9.708,6.766,15.128,7.356,20.118,2.185,44.1-24.483,57.47-51.955,8.33-17.12,9.083-27.889,6.955-30.068-.612-.624-2.188-.958-4.1-.931-12.434.26-38.449,14.086-55.894,33.512C1382.189,523.12,1376.543,536.414,1371.792,555.007Z" transform="translate(0 0)" fill="#bcbdc0"/></g></svg>