<svg xmlns="http://www.w3.org/2000/svg" xmlns:xlink="http://www.w3.org/1999/xlink" width="140.788" height="140.79" viewBox="0 0 140.788 140.79"><defs><linearGradient id="linear-gradient" x1="0.146" y1="0.854" x2="0.854" y2="0.146" gradientUnits="objectBoundingBox"><stop offset="0" stop-color="#b17c1f"/><stop offset="0.28" stop-color="#ffe57b"/><stop offset="0.5" stop-color="#b17c1f"/><stop offset="0.75" stop-color="#ffe57b"/><stop offset="1" stop-color="#b17c1f"/></linearGradient></defs><path id="Path_789" data-name="Path 789" d="M1868.718,218.89v63.352l-22.111-24.84h-12.354v63.725h12.273V265.365l20.944,23.5-.04.046.8.816.484.539v65.767c-31.351-1.388-56.392-30.76-56.392-66.793,0-32.171,19.96-59.03,46.552-65.411V219.9a70.4,70.4,0,0,0,12.166,139.74c.781,0,1.556-.017,2.332-.042v-3.559h0V290.329l1.224-1.377.063-.037-.015-.017,20.921-23.522v55.752h12.273V257.4h-12.355l-22.111,24.84V222.448c31.35,1.392,56.392,30.762,56.392,66.8,0,32.171-19.96,59.032-46.548,65.411v3.934a70.4,70.4,0,0,0-12.172-139.74c-.781,0-1.554.017-2.326.042" transform="translate(-1800.651 -218.848)" fill="url(#linear-gradient)"/></svg>